<?xml version="1.0" encoding="UTF-8" standalone="no"?>
<!-- Created with Inkscape (http://www.inkscape.org/) -->

<svg
   version="1.1"
   id="svg1"
   width="69.463684"
   height="137.91406"
   viewBox="0 0 69.463684 137.91406"
   xmlns="http://www.w3.org/2000/svg"
   xmlns:svg="http://www.w3.org/2000/svg">
  <defs
     id="defs1" />
  <g
     id="g1"
     transform="translate(-537.57867,-372.30475)">
    <g
       id="g2305">
      <path
         id="path169"
         d="m 575.36132,438.85987 c 4.62,0.60946 9.26533,1.22133 13.92533,1.112 2.572,-0.0599 5.14534,-0.3464 7.64534,-0.96147 1.244,-0.3052 2.468,-0.6932 3.65599,-1.17187 0.53334,-0.2156 0.96534,-0.45306 1.428,-0.76666 0.348,-0.23587 0.40134,-0.52134 0.908,-0.52814 0.11334,-3.44786 -0.66,-7.1744 -1.324,-10.5464 0,-0.95986 -0.436,-2.0932 -0.65866,-3.02546 -0.248,-1.04534 -0.52134,-2.0828 -0.816,-3.11454 -0.56533,-1.98026 -1.17733,-3.9292 -1.83467,-5.87706 -0.42,-1.24014 -0.83866,-2.48294 -1.376,-3.67507 -0.33066,-0.73067 -0.704,-1.4412 -1.07733,-2.14947 -1.70667,-3.24213 -3.324,-6.45573 -5.43467,-9.4424 -1.42266,-2.01333 -3.08933,-3.86266 -5.00266,-5.41866 -2.03067,-1.652 -4.26934,-2.748 -6.66134,-3.776 -1.82933,-0.788 -3.768,-1.34 -5.70666,-1.75467 -2.192,-0.468 -4.50134,0.10267 -6.64134,0.60533 -1.65866,0.38934 -3.33866,0.78667 -4.83466,1.60134 -3.896,2.12 -5.86267,6.95866 -6.584,11.132 -0.96934,5.60666 -0.756,11.4692 -1.06267,17.14 -0.16267,2.98653 -0.35333,5.97186 -0.57333,8.95466 -0.208,2.8376 -0.868,5.96414 -0.69734,8.77867 3.624,0.56773 7.40134,0.6948 11.06,1.2104 3.88934,0.54853 7.76934,1.15893 11.66267,1.67347"
         style="fill:#94cdd7;fill-opacity:1;fill-rule:nonzero;stroke:none;stroke-width:0.133333" />
      <path
         id="path170"
         d="m 555.74265,424.24947 c -0.13333,1.88906 -0.31466,3.78653 -0.75466,5.6344 -0.10667,0.45213 -0.23067,0.9016 -0.372,1.34426 -0.12934,0.40107 -0.29734,0.66774 -0.50534,1.0188 -0.49066,0.82134 -0.91333,1.6932 -1.30933,2.56094 -0.184,0.40253 -0.35867,0.80826 -0.52667,1.2176 -0.19733,0.48653 -0.38266,1.0516 -0.14266,1.51826 0.14133,0.2776 0.41066,0.46667 0.688,0.60574 0.36666,0.18386 0.76666,0.30266 1.17466,0.3224 0.36667,0.0188 0.73334,-0.0401 1.1,-0.0625 0.74534,-0.0495 1.5,0.0453 2.23867,-0.0733 0.75067,-0.12147 1.44933,-0.52813 1.81333,-1.212 0.40934,-0.76667 -0.003,-1.92667 0.008,-2.75467 0.016,-1.28133 0.72267,-2.636 1.23467,-3.79226 0.66,-1.4932 1.20533,-3.03694 1.63467,-4.61307 1.07866,-3.98013 1.44933,-7.97333 0.50933,-11.98533 -0.24133,-1.03494 -0.65733,-2.05987 -1.39733,-2.82294 -0.83067,-0.85413 -2.176,-1.63693 -3.39867,-1.50626 l -0.32933,0.1036 c -0.148,0.112 -0.18667,0.3136 -0.21334,0.4964 -0.51466,3.37346 -0.912,6.76506 -1.19333,10.16773 -0.10133,1.24427 -0.168,2.53493 -0.25867,3.83227"
         style="fill:#f57e6f;fill-opacity:1;fill-rule:nonzero;stroke:none;stroke-width:0.133333" />
      <path
         id="path171"
         d="m 556.98132,424.7948 c 1.01333,0.0359 2.02667,0.11453 3.032,0.25307 0.63467,0.0881 1.27067,0.19746 1.89467,0.34946 0.43333,-2.05986 0.728,-4.14786 0.876,-6.24786 0.12266,-1.72814 0.14533,-3.4828 -0.25067,-5.1708 -0.24133,-1.03494 -0.65733,-2.05987 -1.39733,-2.82294 -0.83067,-0.85413 -2.176,-1.63693 -3.39867,-1.50626 l -0.32933,0.1036 c -0.148,0.112 -0.18667,0.3136 -0.21334,0.4964 -0.51466,3.37346 -0.912,6.76506 -1.19333,10.16773 -0.10133,1.24427 -0.168,2.53493 -0.25867,3.83227 -0.0133,0.17293 -0.0267,0.34893 -0.04,0.52506 0.42667,-0.001 0.85334,0.004 1.27867,0.0203"
         style="fill:#f289a8;fill-opacity:1;fill-rule:nonzero;stroke:none;stroke-width:0.133333" />
      <path
         id="path172"
         d="m 543.86799,475.39213 -0.12934,-1 2.92667,-0.38013 c 7.396,-0.96414 14.9,-0.98387 22.304,-0.0547 l 1.836,0.23067 -0.124,0.9984 -1.83867,-0.23014 c -7.31866,-0.91773 -14.73733,-0.89893 -22.04666,0.0541 l -2.928,0.38173"
         style="fill:#777bb3;fill-opacity:1;fill-rule:nonzero;stroke:none;stroke-width:0.133333" />
      <path
         id="path173"
         d="m 574.21332,505.56506 -8.732,-65.27026 c -0.22533,-1.6896 -1.80267,-2.96307 -3.67067,-2.96307 h -11.312 c -1.94666,0 -3.568,1.38707 -3.692,3.15734 -2.00533,28.89893 -4.11066,60.25879 -3.99733,61.60306 -0.0133,-0.15773 -0.144,-0.42707 -0.448,-0.52027 l -0.38667,1.25054 c -0.5,-0.15307 -0.488,-0.59067 -0.472,-1.19587 0.009,-0.35467 0.0307,-0.8812 0.064,-1.56773 0.064,-1.28427 0.17067,-3.1776 0.31867,-5.62814 0.25733,-4.26133 0.64667,-10.3052 1.15733,-17.9656 0.892,-13.41453 1.924,-28.35573 2.45867,-36.06666 0.17067,-2.45307 2.36533,-4.3744 4.99733,-4.3744 h 11.312 c 2.52134,0 4.65734,1.76147 4.96934,4.09733 l 8.732,65.2708 -1.29867,0.17293"
         style="fill:#47527d;fill-opacity:1;fill-rule:nonzero;stroke:none;stroke-width:0.133333" />
      <path
         id="path174"
         d="m 545.86532,503.58906 c 0,2.288 -1.85467,4.14427 -4.14267,4.14427 -2.28933,0 -4.144,-1.85627 -4.144,-4.14427 0,-2.28746 1.85467,-4.14373 4.144,-4.14373 2.288,0 4.14267,1.85627 4.14267,4.14373"
         style="fill:#47527d;fill-opacity:1;fill-rule:nonzero;stroke:none;stroke-width:0.133333" />
      <path
         id="path175"
         d="m 546.89199,503.60413 c 0,2.288 -1.82267,4.1292 -4.112,4.1292 -2.288,0 -4.14267,-1.85627 -4.14267,-4.14427 0,-2.28746 1.85467,-4.14373 4.14267,-4.14373 2.28933,0 4.112,1.8692 4.112,4.1588"
         style="fill:#777bb3;fill-opacity:1;fill-rule:nonzero;stroke:none;stroke-width:0.133333" />
      <path
         id="path176"
         d="m 576.21999,506.7708 h -2.06934 c -0.22,0 -0.408,-0.1604 -0.444,-0.3776 l -1.04533,-6.3572 c -0.0453,-0.27347 0.16667,-0.5224 0.44533,-0.5224 h 2.06934 c 0.22,0 0.408,0.15986 0.444,0.37706 l 1.04533,6.3572 c 0.044,0.27454 -0.16667,0.52294 -0.44533,0.52294"
         style="fill:#47527d;fill-opacity:1;fill-rule:nonzero;stroke:none;stroke-width:0.133333" />
      <path
         id="path177"
         d="m 561.34132,438.16933 h -11.63333 c -0.71334,0 -1.292,-0.58026 -1.292,-1.29333 0,-0.71347 0.57866,-1.29213 1.292,-1.29213 h 11.63333 c 0.71333,0 1.292,0.57866 1.292,1.29213 0,0.71307 -0.57867,1.29333 -1.292,1.29333"
         style="fill:#47527d;fill-opacity:1;fill-rule:nonzero;stroke:none;stroke-width:0.133333" />
      <path
         id="path178"
         d="m 552.80665,433.9864 c -0.32533,0.2496 -0.696,0.4428 -0.844,0.85107 -0.2,0.54533 -0.34533,1.11306 -0.44,1.68653 -0.0253,0.14 -0.0453,0.288 -10e-4,0.42547 0.0387,0.12506 0.12667,0.2276 0.21467,0.3276 0.16533,0.188 0.32933,0.376 0.49466,0.5656 0.13067,0.14946 0.32,0.48133 0.49467,0.56933 0.332,0.16507 0.64933,-0.3932 0.64,-0.7 -0.009,-0.41467 -0.348,-0.76253 -0.384,-1.176 l 0.004,-0.0923 0.0507,-0.1 c 0.10266,-0.15306 0.208,-0.30773 0.31066,-0.46253 l 0.0693,-0.0733 0.10533,-0.0147 c 0.58133,0.0136 1.16267,0.0204 1.73467,-0.1068 0.44666,-0.1 0.884,-0.288 1.21066,-0.60933 0.216,-0.2156 0.37734,-0.47974 0.51067,-0.75307 0.344,-0.69333 0.51333,-1.54013 0.128,-2.24947 -0.25333,-0.46773 -0.77467,-0.73186 -1.308,-0.68813 -0.336,0.0281 -0.652,0.18187 -0.91867,0.38707 -0.26666,0.2052 -0.48933,0.46146 -0.704,0.72133 -0.388,0.47027 -0.76,0.96253 -1.21733,1.3692 l -0.15067,0.1224"
         style="fill:#f57e6f;fill-opacity:1;fill-rule:nonzero;stroke:none;stroke-width:0.133333" />
      <path
         id="path179"
         d="m 558.66532,437.27187 c -0.016,-0.3292 -0.14267,-0.6984 -0.45067,-0.81454 -0.212,-0.0813 -0.46133,-0.0104 -0.63066,0.13587 -0.172,0.148 -0.276,0.36147 -0.33067,0.58133 0.0533,-0.20266 -0.0253,-0.4308 -0.19067,-0.55733 -0.16533,-0.12507 -0.40933,-0.13853 -0.588,-0.0333 -0.20133,0.12026 -0.29733,0.35466 -0.38266,0.57346 0.0333,-0.28546 -0.248,-0.55053 -0.53467,-0.5344 -0.28667,0.0156 -0.52933,0.27294 -0.564,0.55827 -0.04,-0.15987 -0.0853,-0.32907 -0.208,-0.43853 -0.17333,-0.15467 -0.448,-0.13334 -0.65067,-0.0213 -0.204,0.1104 -0.356,0.2948 -0.51733,0.45987 -0.16133,0.16667 -0.35067,0.324 -0.57867,0.36147 -0.23333,0.0385 -0.49866,-0.0495 -0.68933,0.088 -0.16,0.112 -0.19733,0.3412 -0.152,0.5308 0.0867,0.36506 0.41733,0.6412 0.78267,0.72133 0.36533,0.0812 0.75333,-0.0109 1.08266,-0.1896 0.10267,0.288 0.49334,0.33493 0.79334,0.27187 0.3,-0.0667 0.588,-0.19574 0.836,-0.37707 0.10533,0.21987 0.364,0.336 0.60933,0.33173 0.244,-0.004 0.47467,-0.10933 0.68667,-0.2276 l 0.112,-0.0484 0.14133,0.0271 c 0.17733,0.0625 0.396,0.18387 0.58933,0.1412 l 0.124,-0.0532 c 0.132,-0.0785 0.208,-0.18533 0.30934,-0.29733 0.0933,-0.10267 0.17466,-0.20414 0.23733,-0.32974 0.12667,-0.25826 0.17467,-0.54893 0.16533,-0.83333 l -10e-4,-0.0265"
         style="fill:#f57e6f;fill-opacity:1;fill-rule:nonzero;stroke:none;stroke-width:0.133333" />
      <path
         id="path180"
         d="m 556.97199,434.35053 c -0.396,0.48547 -0.85334,0.9588 -1.45467,1.17867 -0.61333,0.22387 -1.28267,0.19053 -1.92667,0.1572 l 0.0147,-0.0213 -0.19467,-0.0265 c -0.0987,0.14787 -0.196,0.29587 -0.29333,0.44534 l -0.14667,0.22133 -0.104,0.1896 0.0547,0.14013 0.11067,0.2224 c 0.0733,0.1588 0.132,0.32547 0.16266,0.4984 0.0493,0.2844 0.0173,0.588 -0.136,0.83907 l -0.132,0.164 -0.12133,0.0396 -0.0827,-0.0839 c -0.11733,-0.12386 -0.228,-0.25306 -0.33733,-0.38386 l -0.17333,0.0505 c 0.12533,0.15213 0.25066,0.30947 0.392,0.44427 0.0947,0.0917 0.22,0.13186 0.348,0.0849 0.28,-0.10253 0.42266,-0.48227 0.456,-0.75053 0.0453,-0.3572 -0.0707,-0.71614 -0.22934,-1.03334 l -0.10133,-0.25573 0.18,-0.27867 c 0.0907,-0.13746 0.18133,-0.27493 0.27067,-0.41093 l 0.0387,0.005 c 0.69734,0.0376 1.428,0.0709 2.09334,-0.18373 0.624,-0.23867 1.092,-0.7188 1.50533,-1.2256 l -0.19333,-0.0265"
         style="fill:#dc5153;fill-opacity:1;fill-rule:nonzero;stroke:none;stroke-width:0.133333" />
      <path
         id="path181"
         d="m 554.82532,437.25987 c -0.14533,0.51613 -0.42933,0.98546 -0.82267,1.35053 l 0.036,0.0708 0.13867,-0.0187 c 0.4,-0.37186 0.69333,-0.84893 0.84267,-1.37453 l -0.19467,-0.0281"
         style="fill:#dc5153;fill-opacity:1;fill-rule:nonzero;stroke:none;stroke-width:0.133333" />
      <path
         id="path182"
         d="m 556.01465,437.288 c -0.0493,0.45213 -0.108,0.9292 -0.4,1.29747 l 0.0707,0.0624 0.12267,-0.0343 c 0.29733,-0.37507 0.35733,-0.86667 0.408,-1.3256 h -0.20134"
         style="fill:#dc5153;fill-opacity:1;fill-rule:nonzero;stroke:none;stroke-width:0.133333" />
      <path
         id="path183"
         d="m 557.29865,437.4104 c 0.005,0.41773 -0.12666,0.82453 -0.372,1.16147 l 0.0707,0.0631 0.124,-0.0365 c 0.24933,-0.34373 0.38267,-0.76347 0.37867,-1.188 h -0.20134"
         style="fill:#dc5153;fill-opacity:1;fill-rule:nonzero;stroke:none;stroke-width:0.133333" />
      <path
         id="path184"
         d="m 556.21065,430.80267 h -0.14133 c -0.652,0.3228 -1.244,0.75306 -1.74933,1.276 l 0.17333,0.052 c 0.49867,-0.51347 1.07867,-0.93747 1.71733,-1.2572 v -0.0708"
         style="fill:#dc5153;fill-opacity:1;fill-rule:nonzero;stroke:none;stroke-width:0.133333" />
      <path
         id="path185"
         d="m 572.21465,493.212 c 0.57067,0.0588 1.39067,0 1.67067,0.5172 0.25067,0.46146 0.12933,1.22133 0.0893,1.71773 -0.15066,1.95573 -0.30133,3.9104 -0.452,5.86507 -0.064,0.83493 -0.003,1.41973 0.17334,2.22546 0.15733,0.71307 0.30933,1.47187 -0.25467,2.0532 -0.224,0.23174 -0.55333,0.32294 -0.868,0.388 -0.72667,0.152 -1.472,0.21867 -2.21467,0.20254 -0.68666,-0.0172 -1.40666,-0.11867 -1.95333,-0.53427 -0.58267,-0.44173 -0.81467,-1.2188 -0.468,-1.86987 0.96133,-1.8052 0.74667,-3.9968 0.61467,-5.97866 -0.0987,-1.50627 -0.20934,-3.012 -0.33334,-4.5172 1.32267,-0.18534 2.668,-0.20667 3.996,-0.0692"
         style="fill:#f57e6f;fill-opacity:1;fill-rule:nonzero;stroke:none;stroke-width:0.133333" />
      <path
         id="path186"
         d="m 564.92532,505.02653 c -0.544,0.248 -1.096,0.47613 -1.656,0.68387 -0.424,0.15786 -1.02933,0.12026 -1.22933,0.59893 -0.084,0.2052 -0.092,0.43333 -0.0987,0.65467 -0.007,0.2172 -0.0813,0.4308 0.14,0.51053 0.17067,0.0629 0.54933,-0.0131 0.73467,-0.008 0.64133,0.0145 1.28133,0.0136 1.924,0.004 1.26,-0.0213 2.52,-0.076 3.78,-0.14427 1.01733,-0.0479 2.036,-0.0959 3.05466,-0.12133 0.50934,-0.012 1.01734,-0.0172 1.528,-0.0161 0.40134,0.002 0.744,0.0697 1.14134,-0.0292 l 0.25333,-0.14626 0.0347,-0.2 c -0.004,-0.65214 -0.0613,-1.30427 -0.172,-1.94694 -0.08,-0.45986 -0.12934,-1.70933 -0.91067,-1.088 -0.148,0.11867 -0.26267,0.276 -0.412,0.39587 -0.29733,0.24 -0.69733,0.3 -1.07733,0.33587 -0.47867,0.0417 -0.95734,0.0547 -1.436,0.0375 -0.39734,-0.0145 -0.80267,-0.0505 -1.168,-0.20666 -0.156,-0.0677 -0.38934,-0.16934 -0.428,-0.34907 -0.0467,-0.22133 -0.0693,-0.4484 -0.0667,-0.67493 0.004,-0.50787 -0.26933,-0.76147 -0.67867,-0.37867 -0.32266,0.30267 -0.60266,0.62027 -0.96533,0.88027 -0.704,0.50666 -1.50667,0.84946 -2.292,1.20773"
         style="fill:#eb5881;fill-opacity:1;fill-rule:nonzero;stroke:none;stroke-width:0.133333" />
      <path
         id="path187"
         d="m 562.55465,507.9344 h 11.48134 c 0.36266,0 0.656,-0.2932 0.656,-0.65414 0,-0.36306 -0.29334,-0.6548 -0.656,-0.6548 h -11.48134 c -0.36133,0 -0.65466,0.29174 -0.65466,0.6548 0,0.36094 0.29333,0.65414 0.65466,0.65414"
         style="fill:#e6cdbb;fill-opacity:1;fill-rule:nonzero;stroke:none;stroke-width:0.133333" />
      <path
         id="path188"
         d="m 563.50932,496.14013 c 4.97467,0.10253 9.952,0.112 14.928,0.0333 1.32533,-15.66826 -2.092,-31.66306 0.884,-47.08279 0.316,-1.6344 0.70533,-3.27094 0.71333,-4.93854 0.009,-1.66666 -0.404,-3.4084 -1.49733,-4.624 -1.05467,-1.17346 -2.60133,-1.72026 -4.11467,-2.02546 -2.11733,-0.42814 -4.304,-0.472 -6.43733,-0.13334 -3.37467,0.53854 -4.22267,3.92654 -4.67733,7.05307 -2.25867,15.54587 -1.35867,31.34946 -0.352,46.95786 0.0213,0.34627 0.16,4.75307 0.55333,4.75987"
         style="fill:#f9a859;fill-opacity:1;fill-rule:nonzero;stroke:none;stroke-width:0.133333" />
      <path
         id="path189"
         d="m 587.46665,491.5224 c 0.57067,-0.0437 1.36667,-0.24787 1.73467,0.21093 0.328,0.40787 0.344,1.17867 0.396,1.67453 0.2,1.95094 0.4,3.9 0.6,5.85094 0.0853,0.83333 0.25067,1.39853 0.568,2.1584 0.28133,0.67346 0.56667,1.3932 0.11467,2.06666 -0.17867,0.26827 -0.48534,0.41614 -0.784,0.53587 -0.688,0.27867 -1.40934,0.47867 -2.14267,0.59387 -0.67867,0.10613 -1.40667,0.13586 -2.01867,-0.17614 -0.65066,-0.33066 -1.01733,-1.0536 -0.79333,-1.75626 0.624,-1.94787 0.0213,-4.06667 -0.46,-5.9932 -0.368,-1.4656 -0.74533,-2.92654 -1.13467,-4.38387 1.268,-0.41867 2.588,-0.68013 3.92,-0.78173"
         style="fill:#f57e6f;fill-opacity:1;fill-rule:nonzero;stroke:none;stroke-width:0.133333" />
      <path
         id="path190"
         d="m 582.40132,504.44693 c -0.49067,0.34107 -0.99333,0.66507 -1.508,0.97027 -0.38933,0.22973 -0.992,0.3 -1.10133,0.8068 -0.048,0.2172 -0.0147,0.44266 0.0173,0.66146 0.0347,0.2156 -0.004,0.43854 0.22933,0.47854 0.18,0.0319 0.53867,-0.11187 0.72134,-0.14 0.63333,-0.0985 1.26533,-0.2136 1.89333,-0.33854 1.236,-0.24693 2.468,-0.524 3.69467,-0.81466 0.992,-0.23067 1.98533,-0.4588 2.984,-0.664 0.49866,-0.10267 0.99866,-0.2016 1.5,-0.2896 0.396,-0.0703 0.74533,-0.0651 1.11866,-0.23174 l 0.22267,-0.19066 -10e-4,-0.20267 c -0.12,-0.64 -0.29467,-1.2724 -0.51734,-1.88533 -0.16,-0.43854 -0.43066,-1.65734 -1.08933,-0.9084 -0.12533,0.14426 -0.20933,0.3204 -0.33467,0.46413 -0.25066,0.288 -0.63333,0.42133 -1.00133,0.52293 -0.46133,0.12494 -0.93067,0.22494 -1.40533,0.2916 -0.39334,0.0579 -0.79734,0.0948 -1.18534,0.004 -0.16666,-0.0375 -0.41466,-0.0957 -0.484,-0.26507 -0.0853,-0.20933 -0.148,-0.42973 -0.18533,-0.65213 -0.0867,-0.5 -0.40133,-0.70254 -0.736,-0.252 -0.264,0.35466 -0.48267,0.7172 -0.79333,1.04013 -0.60267,0.62133 -1.33067,1.10253 -2.03867,1.5948"
         style="fill:#eb5881;fill-opacity:1;fill-rule:nonzero;stroke:none;stroke-width:0.133333" />
      <path
         id="path191"
         d="m 580.58532,507.73173 11.29867,-2.04787 c 0.356,-0.0641 0.592,-0.4052 0.528,-0.76146 -0.064,-0.35414 -0.40534,-0.59174 -0.76134,-0.52654 l -11.29733,2.04787 c -0.356,0.0641 -0.59333,0.40573 -0.528,0.7604 0.064,0.35573 0.40533,0.5932 0.76,0.5276"
         style="fill:#e6cdbb;fill-opacity:1;fill-rule:nonzero;stroke:none;stroke-width:0.133333" />
      <path
         id="path192"
         d="m 573.13865,464.712 c -0.216,4.25626 -0.69466,8.43586 0.0147,12.7104 0.26667,1.60573 0.68133,3.18026 1.09733,4.7536 0.624,2.37186 1.24934,4.7428 1.87467,7.11613 0.36,1.37187 0.86933,6.1548 2.164,6.69427 0.58,0.2428 2.46133,-0.16094 3.14933,-0.21187 1.24267,-0.0891 2.47867,-0.26 3.704,-0.47867 2.552,-0.45466 5.05734,-1.1276 7.55734,-1.80373 -1.34534,-5.00827 -2.28267,-10.12707 -2.79734,-15.28693 -0.32666,-3.27974 0.69067,-6.23334 0.96267,-9.44014 0.26133,-3.06506 1.052,-6.09839 1.61467,-9.14213 1.21866,-6.5724 2.08266,-13.26146 1.70533,-19.95893 -0.13067,-2.30827 -2.24133,-3.51867 -4.29467,-4.09053 -2.25066,-0.62974 -4.64266,-0.46414 -6.952,-0.11094 -1.32666,0.20254 -2.67333,0.476 -3.836,1.14534 -1.33866,0.7692 -1.696,1.87853 -2.48666,3.0692 -0.892,1.34533 -1.82267,2.41613 -2.10134,4.08693 -0.72266,4.336 -0.692,8.9308 -0.956,13.31627 -0.152,2.54266 -0.29333,5.0864 -0.42,7.63173"
         style="fill:#f9a859;fill-opacity:1;fill-rule:nonzero;stroke:none;stroke-width:0.133333" />
      <path
         id="path193"
         d="m 577.54399,495.2292 c -0.83334,-3.01467 -1.66534,-6.0276 -2.49734,-9.0428 -0.82,-2.9728 -1.576,-5.95307 -2.00133,-9.01294 -0.41467,-2.9828 -0.57733,-5.99746 -0.56933,-9.0084 0.008,-3.02759 0.188,-6.05573 0.45733,-9.07186 0.27067,-3.02387 0.63067,-6.04107 1.00267,-9.05467 0.0453,-0.3692 0.092,-0.74013 0.13866,-1.1104 0.0133,-0.11613 -0.33733,-0.12813 -0.35333,0 -0.376,3.02814 -0.74933,6.05574 -1.04,9.0932 -0.29067,3.01614 -0.5,6.04267 -0.54667,9.07347 -0.0493,3.02653 0.0653,6.05733 0.42667,9.064 0.364,3.03026 1.03333,5.99066 1.832,8.93333 0.82267,3.02667 1.668,6.0464 2.50267,9.0704 l 0.30666,1.11453 c 0.032,0.1084 0.38,0.0896 0.34134,-0.0479"
         style="fill:#f18349;fill-opacity:1;fill-rule:nonzero;stroke:none;stroke-width:0.133333" />
      <path
         id="path194"
         d="m 585.59865,483.92546 c -0.744,-3.39373 -1.552,-6.8724 -1.16933,-10.364 0.19067,-1.73333 0.544,-3.44786 0.85333,-5.16146 0.31467,-1.75987 0.632,-3.51973 0.948,-5.27867 0.62934,-3.5016 1.25734,-7.00253 1.88667,-10.50413 0.61867,-3.44533 1.248,-6.91987 1.21733,-10.43173 -0.004,-0.436 -0.0187,-0.87187 -0.0427,-1.3068 h -0.30267 c 0.19867,3.5104 -0.33467,7.0016 -0.944,10.44786 -0.61867,3.49747 -1.25467,6.99227 -1.88267,10.488 -0.312,1.7428 -0.62666,3.48387 -0.93866,5.2256 -0.312,1.74373 -0.65334,3.4864 -0.924,5.23693 -0.26667,1.72134 -0.36267,3.43334 -0.17867,5.16827 0.18533,1.74947 0.54267,3.48013 0.90133,5.1984 0.71734,3.44013 1.58667,6.84427 2.472,10.24173 0.11067,0.4224 0.22,0.84627 0.33067,1.2676 h 0.30267 c -0.888,-3.39733 -1.776,-6.79573 -2.52934,-10.2276"
         style="fill:#f18349;fill-opacity:1;fill-rule:nonzero;stroke:none;stroke-width:0.133333" />
      <path
         id="path195"
         d="m 593.92665,413.8828 c -0.32933,-2.13067 -0.76133,-4.24427 -1.336,-6.32707 -0.50933,-1.84893 -1.13333,-3.67186 -1.95333,-5.40786 -0.84533,-1.788 -2.016,-3.27854 -3.064,-4.9332 -0.85733,-1.35334 -2.12533,-2.20667 -3.464,-3.1 -2.968,-1.98 -6.256,-3.48 -9.70133,-4.41334 -0.82667,-0.224 -1.66534,-0.41466 -2.52,-0.472 -1.11734,-0.076 -2.236,0.08 -3.34,0.26934 -2.40134,0.41333 -4.81334,0.99866 -6.928,2.208 -1.91067,1.09333 -3.80667,2.88133 -4.43867,5.05733 -0.756,2.596 -0.63467,5.47453 -0.408,8.1412 0.54,6.36933 1.97067,12.61453 3.12,18.89213 1.13467,6.18547 1.59867,12.4068 2.15733,18.68547 0.0187,0.21307 0.04,0.436 0.15467,0.61827 0.188,0.29733 0.564,0.4016 0.90533,0.4792 1.304,0.29426 2.61734,0.54266 3.93867,0.73946 1.10267,0.16574 2.44,0.6136 2.63467,-0.89733 0.24133,-1.86933 0.24266,-3.76093 0.244,-5.64787 0.3,1.81094 0.82666,3.58427 1.56666,5.26147 0.18,0.41093 0.376,0.8228 0.676,1.15613 0.51067,0.56934 1.228,0.7052 1.95334,0.7172 5.47333,0.0948 10.924,-0.6416 16.34933,-1.3744 1.176,-0.1604 2.352,-0.3188 3.528,-0.4776 0.46933,-0.0641 0.97067,-0.1412 1.31733,-0.46666 0.86934,-0.8136 0.16534,-4.4828 0.12,-5.5828 -0.0973,-2.34387 -0.24666,-4.68654 -0.32533,-7.03187 -0.18133,-5.37493 -0.36667,-10.79053 -1.18667,-16.0932"
         style="fill:#f289a8;fill-opacity:1;fill-rule:nonzero;stroke:none;stroke-width:0.133333" />
      <path
         id="path196"
         d="m 587.90132,419.51973 c 0.10133,-0.52493 0.20933,-1.076 0.55467,-1.48373 0.63066,-0.74533 1.76666,-0.724 2.74,-0.64013 0.62666,0.0547 1.28266,0.11866 1.81066,0.46146 0.34134,0.22294 0.60267,0.5468 0.82134,0.89054 0.81733,1.28706 1.212,3.06 0.75333,4.52813 -0.492,1.57093 -1.284,3.024 -2.068,4.46253 -0.75333,1.38027 -1.50533,2.7588 -2.26,4.13747 -0.376,0.69067 -0.752,1.37973 -1.128,2.07093 -0.30933,0.56507 -0.568,1.1036 -1.10133,1.49054 -0.44667,0.3224 -1.04934,0.36773 -1.58534,0.2428 -0.56533,-0.13334 -1.08666,-0.42974 -1.58133,-0.724 -0.33733,-0.2032 -0.82667,-0.4656 -0.896,-0.8948 -0.0787,-0.4776 0.28667,-1.09214 0.43867,-1.53227 0.20266,-0.57867 0.4,-1.15987 0.58933,-1.7428 0.77733,-2.37707 1.45867,-4.7864 2.03867,-7.21813 0.32266,-1.3428 0.612,-2.69374 0.87333,-4.04854"
         style="fill:#f57e6f;fill-opacity:1;fill-rule:nonzero;stroke:none;stroke-width:0.133333" />
      <path
         id="path197"
         d="m 593.82799,418.74787 c -0.21867,-0.34374 -0.48,-0.6676 -0.82134,-0.89054 -0.528,-0.3428 -1.184,-0.4068 -1.81066,-0.46146 -0.97334,-0.0839 -2.10934,-0.1052 -2.74,0.64013 -0.34534,0.40773 -0.45334,0.9588 -0.55467,1.48373 -0.26133,1.3548 -0.55067,2.70574 -0.87333,4.04854 -0.264,1.1052 -0.54934,2.20626 -0.85467,3.30106 0.37467,0.16134 0.748,0.3228 1.12533,0.47854 0.60934,0.2532 1.224,0.49906 1.84534,0.7188 0.424,0.14946 0.856,0.24786 1.292,0.34946 0.46266,0.1052 0.92533,0.21454 1.37466,0.36507 l 0.112,0.0376 c 0.19734,-0.36 0.39334,-0.7204 0.59067,-1.08027 0.784,-1.43853 1.576,-2.8916 2.068,-4.46253 0.45867,-1.46813 0.064,-3.24107 -0.75333,-4.52813"
         style="fill:#f289a8;fill-opacity:1;fill-rule:nonzero;stroke:none;stroke-width:0.133333" />
      <path
         id="path198"
         d="m 576.17465,390.74 c -0.13333,2.67067 -0.276,5.39333 -1.184,7.956 -0.436,1.23467 -1.04533,2.48267 -1.94933,3.4988 -0.43067,0.48387 -0.95467,0.912 -1.57333,1.18907 -0.536,0.24013 -1.12934,0.36826 -1.72534,0.38693 -1.168,0.0371 -2.364,-0.31093 -3.3,-1.01867 -0.18533,-0.14013 -0.34,-0.32146 -0.52533,-0.46826 l -0.088,-0.0547 -0.24,0.11613 -0.25733,0.2708 c -0.17734,0.16667 -0.37067,0.31454 -0.58134,0.43694 -0.396,0.2324 -0.84933,0.37346 -1.312,0.3776 -0.956,0.0105 -1.88533,-0.58534 -2.40933,-1.49734 -0.53067,-0.92293 -0.62667,-2.07733 -0.548,-3.17466 0.0893,-1.224 0.364,-2.44534 0.684,-3.61734 0.38667,-1.412 0.89467,-2.78133 1.51067,-4.084 l -0.204,-0.0507 c -0.576,1.21733 -1.056,2.492 -1.43467,3.80533 -0.352,1.232 -0.65333,2.51867 -0.76133,3.80933 -0.096,1.144 -0.0107,2.36254 0.544,3.3308 0.53733,0.93854 1.46533,1.53854 2.43866,1.60254 0.90934,0.0599 1.82667,-0.35627 2.484,-1.1 l 0.30134,0.23853 0.292,0.22293 c 0.20133,0.1412 0.41466,0.26934 0.636,0.37974 0.44533,0.22546 0.92533,0.388 1.416,0.48693 0.98133,0.19747 2.02533,0.1464 2.97066,-0.1964 0.47067,-0.17027 0.916,-0.4156 1.30534,-0.73333 0.54533,-0.4452 0.98133,-0.9916 1.352,-1.56347 0.38533,-0.5948 0.708,-1.22293 0.97733,-1.86827 0.53333,-1.276 0.85333,-2.616 1.05733,-3.964 0.23867,-1.564 0.324,-3.14266 0.40267,-4.71733 h -0.27867"
         style="fill:#eb5881;fill-opacity:1;fill-rule:nonzero;stroke:none;stroke-width:0.133333" />
      <path
         id="path199"
         d="m 560.21999,424.76253 c -0.384,-1.788 -0.75734,-3.57613 -1.11734,-5.36773 -0.35866,-1.79213 -0.70533,-3.58693 -1.04,-5.3828 -0.18933,-1.0136 -0.372,-2.02813 -0.552,-3.0412 h -0.25333 c 0.32133,1.79853 0.65333,3.59747 0.99733,5.39067 0.34534,1.79426 0.704,3.588 1.07467,5.37706 0.20933,1.00934 0.42133,2.01614 0.64,3.024 h 0.25067"
         style="fill:#eb5881;fill-opacity:1;fill-rule:nonzero;stroke:none;stroke-width:0.133333" />
      <path
         id="path200"
         d="m 566.23332,406.77453 c -0.0427,-0.2224 -0.18667,-0.40626 -0.39867,-0.49066 -0.232,-0.0932 -0.54,-0.0719 -0.72933,0.1068 l -0.0573,0.0667 -0.10134,0.16814 c -0.068,0.19173 -0.0533,0.4052 -0.003,0.59853 0.0653,0.25307 0.24266,0.4348 0.50533,0.4812 0.26,0.0469 0.51333,-0.064 0.65467,-0.28547 0.116,-0.1812 0.17066,-0.43333 0.12933,-0.6452"
         style="fill:#ffffff;fill-opacity:1;fill-rule:nonzero;stroke:none;stroke-width:0.133333" />
      <path
         id="path201"
         d="m 567.03865,416.176 c -0.0427,-0.22387 -0.18533,-0.40667 -0.39866,-0.49213 -0.23067,-0.0932 -0.54,-0.0719 -0.728,0.1068 l -0.0573,0.0681 -0.10266,0.16773 c -0.0667,0.19067 -0.0533,0.40414 -10e-4,0.59894 0.064,0.2532 0.24134,0.4344 0.50267,0.48133 0.26267,0.0463 0.51467,-0.0656 0.656,-0.28547 0.11733,-0.1828 0.172,-0.43333 0.12933,-0.64533"
         style="fill:#ffffff;fill-opacity:1;fill-rule:nonzero;stroke:none;stroke-width:0.133333" />
      <path
         id="path202"
         d="m 568.75065,425.576 c -0.0427,-0.22293 -0.18533,-0.4052 -0.39733,-0.49213 -0.232,-0.0917 -0.54133,-0.0703 -0.72933,0.10826 l -0.0573,0.0652 -0.10133,0.1692 c -0.068,0.19227 -0.0533,0.4052 -0.003,0.6 0.0653,0.25374 0.24134,0.43334 0.50534,0.48134 0.26,0.0468 0.512,-0.0652 0.65333,-0.28654 0.11733,-0.1812 0.172,-0.43333 0.12933,-0.64533"
         style="fill:#ffffff;fill-opacity:1;fill-rule:nonzero;stroke:none;stroke-width:0.133333" />
      <path
         id="path203"
         d="m 570.16132,434.976 c -0.0427,-0.22293 -0.18667,-0.4052 -0.39867,-0.49053 -0.232,-0.0923 -0.54,-0.0709 -0.72933,0.10666 l -0.0573,0.0667 -0.10134,0.16933 c -0.068,0.1916 -0.0533,0.4052 -0.003,0.5984 0.0653,0.25467 0.24266,0.43494 0.504,0.48134 0.26266,0.0468 0.51466,-0.0641 0.65466,-0.28494 0.11734,-0.18173 0.172,-0.43386 0.13067,-0.64693"
         style="fill:#ffffff;fill-opacity:1;fill-rule:nonzero;stroke:none;stroke-width:0.133333" />
      <path
         id="path204"
         d="m 587.63999,418.464 c -0.56667,2.43333 -1.28134,4.8308 -2.14134,7.17613 -0.0587,0.15987 -0.11866,0.31974 -0.17866,0.47867 -0.0533,0.1452 -0.12534,0.30667 -0.0827,0.46507 0.0573,0.224 0.336,0.30933 0.52933,0.20933 v -0.0916 h -0.17866 l -0.0867,-0.0896 -0.0213,-0.18547 c 0.02,-0.15573 0.0973,-0.30933 0.152,-0.45466 0.096,-0.25987 0.18933,-0.5172 0.28266,-0.77707 0.19067,-0.53493 0.37467,-1.0708 0.55067,-1.61093 0.35067,-1.07867 0.67333,-2.16667 0.964,-3.26414 0.164,-0.6156 0.31867,-1.23586 0.464,-1.85573 h -0.25333"
         style="fill:#eb5881;fill-opacity:1;fill-rule:nonzero;stroke:none;stroke-width:0.133333" />
      <path
         id="path205"
         d="m 592.96399,427.80413 c -0.0707,0.5 -0.412,0.9428 -0.88,1.1344 v 0.0907 h 0.17866 c 0.50534,-0.20787 0.876,-0.68547 0.952,-1.22507 h -0.25066"
         style="fill:#eb5881;fill-opacity:1;fill-rule:nonzero;stroke:none;stroke-width:0.133333" />
      <path
         id="path206"
         d="m 557.55599,387.74133 c -1.13067,-0.46 -2.12,-1.21333 -2.66267,-2.34533 -0.45733,-0.95333 -0.51733,-2.112 -0.0613,-3.06667 0.46133,-0.964 1.436,-1.82933 1.22133,-2.87466 -0.0467,-0.23067 -0.152,-0.444 -0.20667,-0.672 -0.148,-0.60934 0.072,-1.25467 0.40267,-1.788 0.67067,-1.09334 1.81867,-1.88134 3.07867,-2.11867 0.58133,-0.10933 1.22666,-0.12533 1.66933,-0.516 0.212,-0.18667 0.352,-0.44133 0.52,-0.668 0.8,-1.08267 2.27067,-1.532 3.604,-1.34667 1.33333,0.184 2.536,0.92 3.532,1.82534 0.34533,0.31066 0.676,0.64933 1.09067,0.86 0.68666,0.352 1.504,0.304 2.26,0.46 1.86133,0.384 3.33333,2.17466 3.348,4.076 0.004,0.52133 -0.0893,1.05733 0.056,1.55866 0.16933,0.584 0.63333,1.03467 0.884,1.58934 0.30933,0.68533 0.26666,1.48933 0.02,2.2 -0.26,0.74933 -0.56534,1.58266 -1.16667,2.11866 -1.39333,1.24667 -3.27867,1.89067 -5.13733,1.85334 -0.928,-0.02 -1.81067,-0.208 -2.644,-0.59467 -0.97467,-0.45067 -2.14667,-0.24133 -3.18134,-0.12267 -1.416,0.16134 -2.84666,0.248 -4.26533,0.12267 -0.78933,-0.0693 -1.60667,-0.24533 -2.36133,-0.55067"
         style="fill:#e6cdbb;fill-opacity:1;fill-rule:nonzero;stroke:none;stroke-width:0.133333" />
      <path
         id="path207"
         d="m 556.51599,404.89733 c -0.27867,0.8068 -0.48134,1.64534 -0.86134,2.40947 -0.45466,-3.25893 -0.52666,-6.63853 0.46,-9.7788 0.98534,-3.13867 3.152,-6.02133 6.19067,-7.28267 0.52267,-0.21733 1.116,-0.384 1.64667,-0.18666 2.132,0.80133 -2.076,6.17866 -2.796,7.17333 -1.74667,2.41733 -3.65334,4.8092 -4.64,7.66533"
         style="fill:#94cdd7;fill-opacity:1;fill-rule:nonzero;stroke:none;stroke-width:0.133333" />
      <path
         id="path208"
         d="m 598.28799,420.47453 c -0.63867,-3.00373 -1.66134,-5.93333 -2.79734,-8.78546 -1.56266,-3.9276 -3.09866,-7.8864 -5.03866,-11.64214 -2.77467,-5.37093 -8.16934,-8.97626 -13.844,-11.05893 -1.65334,-0.60667 -3.46267,-0.95867 -5.20534,-0.568 l -0.26133,0.16 0.0467,0.25333 c 0.112,0.204 0.268,0.38 0.40533,0.568 0.596,0.81334 0.552,1.67067 0.78267,2.588 0.25066,0.992 0.436,2.00934 0.62666,3.01467 0.36134,1.908 0.82,3.80133 1.472,5.63347 0.312,0.86933 0.66934,1.73333 1.21334,2.47973 0.504,0.6932 1.152,1.2656 1.772,1.85733 2.268,2.16814 4.20266,4.6588 6.12666,7.13747 1.50667,1.94013 2.95067,3.8864 4.32667,5.92293 1.51867,2.25307 2.95067,4.56347 4.316,6.91454 1.34267,2.312 2.48133,4.724 4.15467,6.8308 l 0.152,0.10613 0.13866,-0.0692 c 0.464,-0.4068 0.72667,-0.9812 0.92934,-1.5532 0.20666,-0.58013 0.54133,-1.04267 0.78933,-1.60827 0.516,-1.1812 0.60267,-2.5172 0.51867,-3.79066 -0.0987,-1.4796 -0.316,-2.94534 -0.624,-4.39054"
         style="fill:#94cdd7;fill-opacity:1;fill-rule:nonzero;stroke:none;stroke-width:0.133333" />
      <path
         id="path209"
         d="m 577.94799,404.25987 c -0.66134,-2.20107 -0.584,-4.52654 -0.55067,-6.79987 0.0267,-2.01733 0.003,-4.064 -0.57333,-6.01467 -0.30934,-1.05066 -0.788,-2.05066 -1.47734,-2.90533 l -0.18666,-0.0533 -0.10534,0.0947 c 1.24667,1.54267 1.76,3.50267 1.948,5.444 0.20934,2.16534 0.012,4.34 0.092,6.5096 0.0467,1.27187 0.19467,2.54374 0.56134,3.76667 l 0.292,-0.0417"
         style="fill:#777bb3;fill-opacity:1;fill-rule:nonzero;stroke:none;stroke-width:0.133333" />
      <path
         id="path210"
         d="m 558.00532,393.65867 c -1.18667,2.42 -1.99733,5.02133 -2.396,7.68666 -0.11333,0.7588 -0.192,1.52294 -0.24,2.29067 h 0.30267 c 0.164,-2.69333 0.744,-5.35467 1.71866,-7.86933 0.272,-0.70134 0.576,-1.392 0.90667,-2.068 l -0.292,-0.04"
         style="fill:#777bb3;fill-opacity:1;fill-rule:nonzero;stroke:none;stroke-width:0.133333" />
      <path
         id="path211"
         d="m 556.27465,404.98547 c -0.44266,1.5572 -0.82266,3.13333 -1.136,4.72133 -0.31733,1.5984 -0.568,3.20933 -0.752,4.82653 -0.10533,0.9188 -0.188,1.83854 -0.24933,2.76147 h 0.30133 c 0.21734,-3.23493 0.69867,-6.45107 1.43734,-9.6068 0.20933,-0.89213 0.44,-1.78013 0.69066,-2.66147 l -0.292,-0.0411"
         style="fill:#777bb3;fill-opacity:1;fill-rule:nonzero;stroke:none;stroke-width:0.133333" />
      <path
         id="path212"
         d="m 601.84398,431.8948 h -0.21333 c -0.56933,0.30253 -1.13867,0.6052 -1.708,0.90933 -0.112,0.0584 -0.23733,0.1464 -0.364,0.16774 -0.15733,0.0297 -0.236,-0.14014 -0.28133,-0.264 -0.0947,-0.25574 -0.15333,-0.5308 -0.23333,-0.79174 -0.34667,-1.12973 -0.78134,-2.23226 -1.29734,-3.2948 -0.51733,-1.064 -1.11733,-2.08533 -1.79066,-3.05733 -0.71067,-1.02653 -1.48934,-2.00147 -2.24534,-2.99467 -1.43466,-1.88906 -2.79333,-3.836 -4.072,-5.836 -1.284,-2.0052 -2.488,-4.064 -3.60666,-6.16666 -1.11467,-2.0948 -2.144,-4.23494 -3.08667,-6.412 -0.11733,-0.27187 -0.23333,-0.54267 -0.348,-0.81454 l -0.292,0.0401 c 0.94533,2.2452 1.984,4.4504 3.112,6.6088 1.12533,2.1588 2.34133,4.2724 3.64133,6.33226 1.296,2.05214 2.676,4.05054 4.13467,5.98907 0.764,1.0136 1.55733,2.00413 2.292,3.04173 0.70933,0.9984 1.34267,2.04627 1.888,3.14267 0.53333,1.07453 0.98133,2.19067 1.34,3.3344 0.088,0.27867 0.16,0.56293 0.248,0.84267 0.0667,0.21613 0.18,0.39893 0.41467,0.44786 0.26533,0.0563 0.50666,-0.0728 0.73466,-0.19426 0.28933,-0.1536 0.57867,-0.30667 0.86533,-0.4604 0.28934,-0.15467 0.57867,-0.30774 0.868,-0.4624 v -0.10787"
         style="fill:#777bb3;fill-opacity:1;fill-rule:nonzero;stroke:none;stroke-width:0.133333" />
      <path
         id="path213"
         d="m 587.50799,396.74133 h -0.21334 c -1.24,0.57734 -2.28533,1.548 -2.96133,2.73467 -0.19467,0.34267 -0.35867,0.70427 -0.48667,1.07613 l 0.292,0.04 c 0.44,-1.26946 1.27867,-2.38413 2.37334,-3.16413 0.312,-0.224 0.64666,-0.41467 0.996,-0.57733 v -0.10934"
         style="fill:#777bb3;fill-opacity:1;fill-rule:nonzero;stroke:none;stroke-width:0.133333" />
      <path
         id="path214"
         d="m 599.35999,436.8864 c -0.93467,-1.69053 -1.88134,-3.37187 -2.84,-5.04627 -0.272,-0.4776 -0.548,-0.95373 -0.82267,-1.42813 l -0.29067,0.0401 c 0.96667,1.67187 1.92,3.35054 2.86134,5.03427 0.268,0.48027 0.536,0.96053 0.80133,1.44013 l 0.29067,-0.0401"
         style="fill:#777bb3;fill-opacity:1;fill-rule:nonzero;stroke:none;stroke-width:0.133333" />
      <path
         id="path215"
         d="m 571.90399,390.648 c -0.0987,1.848 -0.384,3.54533 -1.136,5.204 -0.69734,1.54133 -1.69067,2.896 -2.74267,4.16253 -0.33067,0.39907 -0.676,0.78134 -1.008,1.17867 -0.19467,0.23227 -0.34133,0.6656 -0.672,0.67347 -0.56,0.0172 -0.744,-0.94014 -0.89333,-1.37867 -0.28134,-0.82267 -0.43467,-1.69867 -0.78934,-2.48667 -0.26533,-0.58666 -0.63466,-1.10533 -0.99733,-1.62933 -0.20133,-0.29067 -0.40267,-0.584 -0.58267,-0.892 -0.372,-0.632 -0.65466,-1.32667 -0.83866,-2.05333 l -0.0307,-0.12534 c -0.08,-0.33466 -0.13867,-0.67466 -0.17733,-1.01866 -0.0587,-0.552 -0.0587,-1.13067 0.0907,-1.66667 0.15734,-0.56667 0.35067,-0.76533 0.83734,-0.97067 0.42533,-0.17866 0.87466,-0.30133 1.328,-0.456 l 0.28666,-0.0907 c 0.544,-0.148 1.19467,-0.052 1.70534,-0.268 0.31066,-0.13467 0.58266,-0.35334 0.87466,-0.52934 0.14667,-0.0893 0.3,-0.168 0.464,-0.21866 1.15467,-0.35734 2.25467,0.332 3.28267,0.82666 0.328,0.15734 0.67733,0.33467 0.85867,0.67334 0.16933,0.31333 0.15866,0.70266 0.14,1.06533"
         style="fill:#f57e6f;fill-opacity:1;fill-rule:nonzero;stroke:none;stroke-width:0.133333" />
      <path
         id="path216"
         d="m 569.04532,392.98667 c -0.39867,0.93066 -1.19867,1.58266 -2.01733,2.03066 -0.944,0.51467 -1.932,1.08 -2.97734,1.3 -0.13066,0.028 -0.25866,0.0467 -0.38533,0.0547 -0.20133,-0.29067 -0.40267,-0.584 -0.58267,-0.892 -0.372,-0.632 -0.65466,-1.32667 -0.83866,-2.05333 l 0.0107,-0.044 c 0.18667,-0.73734 0.62267,-1.16134 1.12667,-1.66134 0.992,-0.98133 2.16267,-1.772 3.46133,-2.152 0.624,-0.18266 1.328,-0.25866 1.88,0.11067 0.97067,0.64667 0.72667,2.35867 0.32267,3.30667"
         style="fill:#dc5153;fill-opacity:1;fill-rule:nonzero;stroke:none;stroke-width:0.133333" />
      <path
         id="path217"
         d="m 562.72932,395.16267 c 0.33067,0.012 0.66667,-0.0307 0.99067,-0.10934 1.26666,-0.30533 2.68266,-0.46266 3.78933,-1.184 0.80533,-0.52533 1.28533,-1.20133 1.77867,-2.01333 0.71733,-1.18 1.30266,-2.41467 1.75066,-3.728 0.184,-0.53733 0.36667,-1.076 0.468,-1.63333 0.15067,-0.83867 0.11334,-1.69734 0.068,-2.548 -0.0507,-0.98 -0.11066,-1.96534 -0.32533,-2.92267 -0.36267,-1.60533 -1.18133,-2.96533 -2.62133,-3.79867 -1.864,-1.08 -4.168,-1.328 -6.27867,-0.72666 -0.48933,0.14 -0.96533,0.32266 -1.43867,0.50533 -1.19466,0.46133 -2.18666,1.01733 -2.79466,2.152 -0.256,0.48133 -0.40134,1.008 -0.488,1.53867 -0.29067,1.75466 -0.24,3.656 -0.128,5.43066 0.16266,2.56534 0.70133,5.46 2.46266,7.44934 0.47334,0.53466 1.04267,0.992 1.67867,1.32 0.34133,0.17466 0.712,0.256 1.088,0.268"
         style="fill:#f57e6f;fill-opacity:1;fill-rule:nonzero;stroke:none;stroke-width:0.133333" />
      <path
         id="path218"
         d="m 559.24532,379.25733 -0.204,-0.044 -0.27333,0.11734 c -0.71334,0.472 -1.06934,1.24933 -1.684,1.832 l -0.24134,0.064 -0.044,-0.136 c -0.0107,-0.53067 0.35734,-0.904 0.576,-1.352 0.24934,-0.508 0.544,-0.992 0.884,-1.44267 0.54534,-0.72133 1.14134,-1.16533 1.85734,-1.67867 2.54533,-1.82133 6.468,-1.56 9.20533,-0.336 1.11467,0.49734 2.13867,1.18134 3.096,1.93867 0.89067,0.704 1.644,1.39467 2.04133,2.46667 0.23867,0.648 0.40267,1.38 0.38,2.07333 -0.0187,0.54267 0.148,1.02667 0.18934,1.57067 0.088,1.15733 -0.23067,2.34933 -0.91734,3.28933 -0.16266,0.22133 -0.34533,0.43067 -0.56,0.60133 -0.652,0.52134 -1.528,0.636 -2.35733,0.73067 -0.37867,0.044 -0.796,0.0773 -1.10533,-0.14667 -0.28134,-0.204 -0.38934,-0.56533 -0.46934,-0.904 -0.232,-0.98266 -0.53866,-1.94933 -0.772,-2.92533 -0.196,-0.81067 -0.67733,-1.19333 -1.49333,-1.44 -0.63867,-0.19067 -1.328,-0.29067 -1.864,-0.688 -0.54,-0.4 -0.87867,-1.07467 -1.504,-1.32267 -0.42933,-0.172 -0.91067,-0.10666 -1.37467,-0.12266 -1.196,-0.0453 -2.35333,-0.70934 -2.99466,-1.72134 -0.0987,-0.15733 -0.21734,-0.34 -0.37067,-0.424"
         style="fill:#e6cdbb;fill-opacity:1;fill-rule:nonzero;stroke:none;stroke-width:0.133333" />
      <path
         id="path219"
         d="m 569.51999,384.64667 c 1.476,-0.11867 1.81333,1.73066 1.46133,2.83333 -0.26267,0.824 -0.89733,1.51067 -1.67867,1.88 -0.36133,0.168 -0.85333,0.24667 -1.108,-0.0613 -0.22533,-0.27334 -0.176,-0.788 -0.16266,-1.12 0.02,-0.416 0.0387,-0.84534 0.084,-1.26134 0.092,-0.84 0.34666,-2.18533 1.404,-2.27066"
         style="fill:#f57e6f;fill-opacity:1;fill-rule:nonzero;stroke:none;stroke-width:0.133333" />
      <path
         id="path220"
         d="m 563.28532,380.71733 c -1.31867,0.0573 -2.504,-0.788 -2.93467,-2.024 l -0.24266,0.0347 c 0.464,1.33067 1.77733,2.17867 3.17733,2.11733 l 0.12667,-0.064 -0.12667,-0.064"
         style="fill:#ffffff;fill-opacity:1;fill-rule:nonzero;stroke:none;stroke-width:0.133333" />
      <path
         id="path221"
         d="m 564.14132,379.64267 c -0.71333,-0.0773 -1.36,-0.508 -1.724,-1.12534 l -0.24133,0.0333 c 0.39866,0.67866 1.12,1.132 1.9,1.216 l 0.15466,-0.044 -0.0893,-0.08"
         style="fill:#ffffff;fill-opacity:1;fill-rule:nonzero;stroke:none;stroke-width:0.133333" />
      <path
         id="path222"
         d="m 565.65199,377.48133 c -0.26667,-0.008 -0.55334,-0.012 -0.79334,-0.14533 -0.20266,-0.112 -0.36133,-0.31467 -0.36266,-0.552 h -0.252 c 0.003,0.28133 0.2,0.512 0.436,0.64267 0.29333,0.16133 0.64533,0.17333 0.972,0.184 l 0.12666,-0.0653 -0.12666,-0.064"
         style="fill:#ffffff;fill-opacity:1;fill-rule:nonzero;stroke:none;stroke-width:0.133333" />
      <path
         id="path223"
         d="m 574.12799,377.76267 c -0.428,-0.596 -1.06134,-0.996 -1.74134,-1.24534 -0.404,-0.14933 -0.82666,-0.244 -1.252,-0.30666 l -0.156,0.044 0.0893,0.08 c 1.35866,0.20133 2.80133,0.85733 3.22,2.28133 0.10666,0.364 0.12133,0.75067 0.0333,1.12133 h 0.252 c 0.16267,-0.68666 -0.0427,-1.408 -0.44533,-1.97466"
         style="fill:#ffffff;fill-opacity:1;fill-rule:nonzero;stroke:none;stroke-width:0.133333" />
      <path
         id="path224"
         d="m 572.52265,378.38 c -0.19866,-0.37467 -0.51466,-0.672 -0.912,-0.824 -0.0893,-0.0333 -0.28133,0.0533 -0.128,0.11067 0.852,0.324 1.08667,1.328 1.05067,2.14133 h 0.25333 c 0.02,-0.48533 -0.036,-0.99067 -0.264,-1.428"
         style="fill:#ffffff;fill-opacity:1;fill-rule:nonzero;stroke:none;stroke-width:0.133333" />
      <path
         id="path225"
         d="m 574.74532,383.16267 -0.21733,0.0653 c 0.316,0.36267 0.37733,0.87867 0.28266,1.33733 -0.11066,0.532 -0.42533,1.00134 -0.73066,1.44 l 0.24133,0.0333 c 0.32267,-0.46 0.644,-0.94934 0.74933,-1.51067 0.088,-0.48 10e-4,-0.992 -0.32533,-1.36533"
         style="fill:#ffffff;fill-opacity:1;fill-rule:nonzero;stroke:none;stroke-width:0.133333" />
      <path
         id="path226"
         d="m 555.56399,384.44667 c -0.25734,-0.42134 -0.27334,-0.964 -0.0413,-1.4 l -0.24266,-0.0333 c -0.244,0.456 -0.228,1.02534 0.0413,1.46667 l 0.24267,-0.0333"
         style="fill:#ffffff;fill-opacity:1;fill-rule:nonzero;stroke:none;stroke-width:0.133333" />
      <path
         id="path227"
         d="m 565.25065,383.66267 c 0.38134,0.076 0.76,0.176 1.11734,0.32933 0.10933,0.048 0.8,0.328 0.468,0.464 l -0.188,0.0147 c -0.60534,-0.056 -1.20134,-0.204 -1.80934,-0.216 -0.396,-0.005 -0.80266,0.0453 -1.184,-0.064 -0.212,-0.06 -0.28,-0.168 -0.21333,-0.37467 0.0853,-0.25867 0.384,-0.28133 0.62,-0.29067 0.228,-0.012 0.46533,0.02 0.696,0.0547 0.16933,0.024 0.33333,0.052 0.49333,0.0827"
         style="fill:#e6cdbb;fill-opacity:1;fill-rule:nonzero;stroke:none;stroke-width:0.133333" />
      <path
         id="path228"
         d="m 558.35465,383.696 c -0.272,0.08 -0.536,0.19067 -0.78266,0.33067 -0.072,0.0413 -0.2,0.18 -0.0667,0.24 l 0.092,0.0107 c 0.39467,-0.0147 0.796,-0.0427 1.188,-0.024 0.19733,0.009 0.39867,0.0107 0.596,0.007 0.18667,-0.004 0.37733,-0.0693 0.55867,-0.0693 0.21066,-0.06 0.28,-0.168 0.212,-0.37467 -0.0707,-0.22267 -0.37467,-0.25733 -0.57334,-0.26667 -0.41333,-0.02 -0.828,0.032 -1.224,0.14667"
         style="fill:#e6cdbb;fill-opacity:1;fill-rule:nonzero;stroke:none;stroke-width:0.133333" />
      <path
         id="path229"
         d="m 559.56799,385.84933 c -0.0613,-0.27066 -0.196,-0.596 -0.532,-0.64266 -0.16267,-0.0227 -0.32267,0.028 -0.424,0.14933 l -0.0627,0.10933 -0.0467,0.0787 c -0.0907,0.18 -0.1,0.39067 -0.032,0.58 0.02,0.15867 0.0853,0.30533 0.236,0.40933 0.14134,0.0973 0.34934,0.128 0.504,0.0427 l 0.0987,-0.0787 0.232,-0.228 c 0.064,-0.13333 0.0573,-0.28133 0.0267,-0.42"
         style="fill:#3a2323;fill-opacity:1;fill-rule:nonzero;stroke:none;stroke-width:0.133333" />
      <path
         id="path230"
         d="m 565.10665,385.84933 c -0.0613,-0.27066 -0.19466,-0.596 -0.52933,-0.64266 -0.16267,-0.0227 -0.32533,0.028 -0.42533,0.14933 l -0.0627,0.10933 -0.048,0.0787 c -0.0893,0.18 -0.0987,0.39067 -0.032,0.58 0.02,0.15867 0.0853,0.30533 0.23867,0.40933 0.14,0.0973 0.34666,0.128 0.50266,0.0427 l 0.1,-0.0787 0.232,-0.228 c 0.0627,-0.13333 0.056,-0.28133 0.024,-0.42"
         style="fill:#3a2323;fill-opacity:1;fill-rule:nonzero;stroke:none;stroke-width:0.133333" />
      <path
         id="path231"
         d="m 563.70932,391.04667 0.076,-0.148 0.02,-0.17067 -0.29067,-0.124 c -0.94,0.0147 -1.884,0.012 -2.83066,-0.007 l -0.284,0.0507 c -0.27867,0.17467 0.0307,0.54533 0.184,0.684 0.33333,0.30667 0.788,0.45467 1.236,0.47067 0.364,0.012 0.748,-0.0653 1.092,-0.18534 0.312,-0.108 0.62,-0.28266 0.79733,-0.57066"
         style="fill:#ffffff;fill-opacity:1;fill-rule:nonzero;stroke:none;stroke-width:0.133333" />
      <path
         id="path232"
         d="m 561.53065,389.26933 c -0.376,-0.0973 -0.97333,-0.31333 -1.06133,-0.73866 -0.052,-0.24134 0.092,-0.47734 0.192,-0.69067 0.096,-0.20267 0.18533,-0.412 0.26,-0.624 0.30667,-0.84267 0.41733,-1.76667 0.084,-2.61867 l -0.244,0.0347 c 0.28133,0.71467 0.23867,1.50533 0.024,2.23067 -0.108,0.368 -0.25867,0.72 -0.424,1.06533 -0.144,0.30133 -0.236,0.61333 10e-4,0.89333 0.25067,0.292 0.67067,0.45867 1.04134,0.55467 l 0.17333,-0.0213 -0.0467,-0.0853"
         style="fill:#dc5153;fill-opacity:1;fill-rule:nonzero;stroke:none;stroke-width:0.133333" />
      <path
         id="path233"
         d="m 565.73732,391.732 c -0.11733,-0.46533 -0.344,-0.888 -0.66667,-1.24133 -0.36133,-0.39334 -0.83066,-0.63867 -1.304,-0.872 h -0.17866 v 0.0907 c 0.44933,0.22134 0.89466,0.452 1.24266,0.82134 0.31467,0.33466 0.54134,0.75466 0.65334,1.20133 h 0.25333"
         style="fill:#eb645a;fill-opacity:1;fill-rule:nonzero;stroke:none;stroke-width:0.133333" />
      <path
         id="path234"
         d="m 559.95065,389.65867 c -0.55866,0.67066 -0.50666,1.568 -0.436,2.384 h 0.252 c -0.068,-0.78 -0.13466,-1.67467 0.40134,-2.31867 l -0.21734,-0.0653"
         style="fill:#eb645a;fill-opacity:1;fill-rule:nonzero;stroke:none;stroke-width:0.133333" />
      <path
         id="path235"
         d="m 566.78132,386.91733 c -0.37067,-0.22666 -0.81333,-0.33466 -1.24933,-0.31066 l -0.12534,0.064 0.12534,0.064 c 0.38,-0.0213 0.748,0.076 1.07066,0.27466 h 0.17867 v -0.092"
         style="fill:#eb645a;fill-opacity:1;fill-rule:nonzero;stroke:none;stroke-width:0.133333" />
      <path
         id="path236"
         d="m 565.72665,387.02533 c -0.11866,-0.072 -0.25066,-0.11733 -0.38533,-0.14666 l -0.096,0.007 -0.0573,0.0373 0.0867,0.08 h -10e-4 l 0.0213,0.005 0.0413,0.012 0.072,0.024 0.007,0.003 0.0187,0.008 0.0387,0.0187 0.076,0.0413 0.0907,0.02 0.088,-0.02 0.0373,-0.0453 -0.0373,-0.044"
         style="fill:#eb645a;fill-opacity:1;fill-rule:nonzero;stroke:none;stroke-width:0.133333" />
      <path
         id="path237"
         d="m 558.75999,386.85467 -0.0573,-0.0387 c -0.15466,-0.0427 -0.31333,-0.056 -0.47333,-0.0427 l -0.076,0.0307 -0.012,0.0493 0.144,0.0453 h 0.007 l 0.024,-0.001 0.044,-10e-4 0.0467,10e-4 0.016,0.003 0.0853,0.012 0.0187,0.003 10e-4,10e-4 0.048,0.0107 0.096,0.007 0.076,-0.0293 0.012,-0.0493"
         style="fill:#eb645a;fill-opacity:1;fill-rule:nonzero;stroke:none;stroke-width:0.133333" />
      <path
         id="path238"
         d="m 573.80932,477.44786 -0.12933,-0.9984 2.96533,-0.38546 c 7.492,-0.9776 15.09333,-0.99574 22.59333,-0.0561 l 1.86133,0.23334 -0.12666,1 -1.86,-0.23334 c -7.416,-0.9292 -14.93067,-0.912 -22.33733,0.0547 l -2.96667,0.38533"
         style="fill:#777bb3;fill-opacity:1;fill-rule:nonzero;stroke:none;stroke-width:0.133333" />
      <path
         id="path239"
         d="m 604.56132,508.0224 -8.84533,-66.124 c -0.22934,-1.71453 -1.832,-3.00933 -3.728,-3.00933 h -11.46 c -1.97734,0 -3.62267,1.40933 -3.748,3.20573 -2.032,29.27973 -4.16534,61.05213 -4.05067,62.4104 -0.0133,-0.15734 -0.144,-0.42494 -0.448,-0.51974 l -0.38533,1.252 c -0.46534,-0.14533 -0.47467,-0.60826 -0.47867,-0.76146 0,-0.10414 0,-0.24947 0.005,-0.44427 0.009,-0.35827 0.032,-0.8932 0.0653,-1.588 0.064,-1.30107 0.172,-3.21827 0.32266,-5.7 0.26267,-4.31827 0.656,-10.44107 1.172,-18.20107 0.904,-13.60253 1.948,-28.73226 2.49067,-36.53746 0.172,-2.4812 2.392,-4.424 5.05467,-4.424 h 11.46 c 2.54933,0 4.70933,1.78027 5.02666,4.14427 l 8.844,66.12239 -1.29733,0.17454"
         style="fill:#47527d;fill-opacity:1;fill-rule:nonzero;stroke:none;stroke-width:0.133333" />
      <path
         id="path240"
         d="m 576.90799,506.02133 c 0,2.3188 -1.88,4.19747 -4.2,4.19747 -2.31734,0 -4.19734,-1.87867 -4.19734,-4.19747 0,-2.31867 1.88,-4.19893 4.19734,-4.19893 2.32,0 4.2,1.88026 4.2,4.19893"
         style="fill:#777bb3;fill-opacity:1;fill-rule:nonzero;stroke:none;stroke-width:0.133333" />
      <path
         id="path241"
         d="m 575.83465,506.02133 c 0,2.3188 -1.87866,4.19747 -4.19733,4.19747 -2.31867,0 -4.19867,-1.87867 -4.19867,-4.19747 0,-2.31867 1.88,-4.19893 4.19867,-4.19893 2.31867,0 4.19733,1.88026 4.19733,4.19893"
         style="fill:#47527d;fill-opacity:1;fill-rule:nonzero;stroke:none;stroke-width:0.133333" />
      <path
         id="path242"
         d="m 606.58532,509.24373 h -2.096 c -0.224,0 -0.41334,-0.16093 -0.45067,-0.38227 l -1.05867,-6.44013 c -0.0453,-0.2776 0.16934,-0.5292 0.45067,-0.5292 h 2.09733 c 0.22267,0 0.41334,0.16093 0.44934,0.38133 l 1.05866,6.44014 c 0.0467,0.27706 -0.16933,0.53013 -0.45066,0.53013"
         style="fill:#777bb3;fill-opacity:1;fill-rule:nonzero;stroke:none;stroke-width:0.133333" />
      <path
         id="path243"
         d="m 591.51199,439.74693 h -11.78534 c -0.72266,0 -1.30933,-0.58706 -1.30933,-1.31093 0,-0.7224 0.58667,-1.30787 1.30933,-1.30787 h 11.78534 c 0.72266,0 1.30933,0.58547 1.30933,1.30787 0,0.72387 -0.58667,1.31093 -1.30933,1.31093"
         style="fill:#47527d;fill-opacity:1;fill-rule:nonzero;stroke:none;stroke-width:0.133333" />
      <path
         id="path244"
         d="m 575.44532,451.74533 -8.02533,-0.676 -21.884,-1.8412 0.12666,-1.5068 21.884,1.84267 8.02534,0.67453 -0.12667,1.5068"
         style="fill:#777bb3;fill-opacity:1;fill-rule:nonzero;stroke:none;stroke-width:0.133333" />
      <path
         id="path245"
         d="m 574.99865,458.25307 -29.91066,-2.5156 0.12666,-1.50574 29.91067,2.51774 -0.12667,1.5036"
         style="fill:#777bb3;fill-opacity:1;fill-rule:nonzero;stroke:none;stroke-width:0.133333" />
      <path
         id="path246"
         d="m 574.71599,461.6828 v 0 c -0.688,-0.0536 -1.20267,-0.65467 -1.15067,-1.34267 l 0.96667,-12.57346 c 0.0533,-0.688 0.65466,-1.20267 1.34266,-1.15054 0.68934,0.0532 1.204,0.65467 1.15067,1.34267 l -0.96667,12.57187 c -0.0533,0.68906 -0.65333,1.20426 -1.34266,1.15213"
         style="fill:#777bb3;fill-opacity:1;fill-rule:nonzero;stroke:none;stroke-width:0.133333" />
      <path
         id="path247"
         d="m 544.80265,458.86147 v 0 c -0.68933,-0.0536 -1.20533,-0.6536 -1.152,-1.34174 l 0.968,-12.5728 c 0.052,-0.6896 0.65334,-1.2032 1.34267,-1.15106 0.68667,0.0536 1.20267,0.65466 1.14933,1.34266 l -0.968,12.57187 c -0.052,0.6896 -0.65333,1.20573 -1.34,1.15107"
         style="fill:#777bb3;fill-opacity:1;fill-rule:nonzero;stroke:none;stroke-width:0.133333" />
      <path
         id="path248"
         d="m 586.34799,433.0068 c 0.28533,0.0479 0.56533,0.12133 0.84,0.2068 0.28533,0.0891 0.572,0.19427 0.812,0.3728 0.27866,0.21093 0.47866,0.5204 0.564,0.85733 0.092,0.36667 0.204,0.71774 0.25466,1.09894 0.17734,1.30426 0.26667,2.67346 -0.224,3.89333 -0.112,0.27853 -0.26133,0.55613 -0.50933,0.72653 -0.17867,0.12387 -0.42133,0.17867 -0.63333,0.11347 l -0.25067,-0.0828 -0.0693,0.13493 -0.11334,0.13174 c -0.17866,0.15893 -0.43466,0.20413 -0.672,0.18706 -0.20666,-0.0136 -0.40933,-0.0709 -0.59333,-0.16666 l -0.056,-0.0152 -0.0507,0.0391 c -0.3,0.3584 -0.864,0.28387 -1.24933,0.1052 l -0.18933,-0.19213 c -0.29734,0.22653 -0.72,0.27867 -1.06534,0.13227 l -0.24933,-0.21094 c -0.0733,-0.15466 -0.0133,-0.40413 0.0267,-0.56253 0.056,-0.21867 0.13733,-0.42813 0.196,-0.64533 0.14933,-0.564 0.13333,-1.17187 -0.0493,-1.72654 l -0.0947,-0.176 -0.312,-0.088 c -0.33867,-0.007 -0.67867,-0.0204 -1.016,-0.0213 0.13066,-1.19747 1.10266,-2.28133 1.89733,-3.1084 0.26133,-0.27027 0.52267,-0.57707 0.856,-0.75733 0.33733,-0.18227 0.72,-0.27854 1.10267,-0.3 0.284,-0.0156 0.568,0.007 0.848,0.0537"
         style="fill:#f57e6f;fill-opacity:1;fill-rule:nonzero;stroke:none;stroke-width:0.133333" />
      <path
         id="path249"
         d="m 583.06532,437.24787 -0.404,-0.70667 -0.17467,0.052 c 0.168,0.18707 0.27067,0.44173 0.45067,0.60947 l 0.128,0.0452"
         style="fill:#dc5153;fill-opacity:1;fill-rule:nonzero;stroke:none;stroke-width:0.133333" />
      <path
         id="path250"
         d="m 584.68799,439.27707 c -0.12534,0.4136 -0.27067,0.85213 -0.60934,1.14013 l 0.036,0.0708 0.13734,-0.0172 c 0.348,-0.29893 0.5,-0.7416 0.62933,-1.1656 l -0.19333,-0.0281"
         style="fill:#dc5153;fill-opacity:1;fill-rule:nonzero;stroke:none;stroke-width:0.133333" />
      <path
         id="path251"
         d="m 586.12799,439.37867 c -0.052,0.38013 -0.212,0.74013 -0.456,1.03586 l 0.0707,0.0625 0.12267,-0.0359 c 0.25067,-0.30267 0.40933,-0.67347 0.464,-1.06253 h -0.20133"
         style="fill:#dc5153;fill-opacity:1;fill-rule:nonzero;stroke:none;stroke-width:0.133333" />
      <path
         id="path252"
         d="m 587.52799,439.1588 c -0.0173,0.36093 -0.144,0.7052 -0.36,0.99333 l 0.0707,0.064 0.124,-0.0359 c 0.22134,-0.2948 0.34934,-0.65214 0.368,-1.02147 h -0.20266"
         style="fill:#dc5153;fill-opacity:1;fill-rule:nonzero;stroke:none;stroke-width:0.133333" />
      <path
         id="path253"
         d="m 588.61065,434.6052 c -0.252,-0.4068 -0.60666,-0.7412 -1.024,-0.97347 h -0.14266 v 0.0724 c 0.39733,0.22134 0.732,0.54374 0.97333,0.9292 l 0.19333,-0.0281"
         style="fill:#dc5153;fill-opacity:1;fill-rule:nonzero;stroke:none;stroke-width:0.133333" />
    </g>
  </g>
</svg>
