<?xml version="1.0" encoding="UTF-8" standalone="no"?>
<!-- Created with Inkscape (http://www.inkscape.org/) -->

<svg
   version="1.1"
   id="svg1"
   width="170.77835"
   height="122.09501"
   viewBox="0 0 170.77835 122.09501"
   xmlns="http://www.w3.org/2000/svg"
   xmlns:svg="http://www.w3.org/2000/svg">
  <defs
     id="defs1" />
  <g
     id="g1"
     transform="translate(-451.97079,-33.640999)">
    <g
       id="g2300">
      <path
         id="path1470"
         d="m 508.61332,143.46667 h -2.79467 V 78.350675 h 2.79467 v 65.115995"
         style="fill:#512a2a;fill-opacity:1;fill-rule:nonzero;stroke:none;stroke-width:0.133333" />
      <path
         id="path1471"
         d="m 565.83332,143.46667 h -2.79467 V 78.350675 h 2.79467 v 65.115995"
         style="fill:#512a2a;fill-opacity:1;fill-rule:nonzero;stroke:none;stroke-width:0.133333" />
      <path
         id="path1472"
         d="m 506.82399,136.18267 c 0.0373,2.77067 0.0147,5.54267 -0.064,8.31334 -0.0227,0.82666 -0.052,1.65466 -0.15067,2.476 -0.0947,0.79066 -0.468,1.57466 -0.552,2.34 -0.11733,1.07733 1.61067,1.664 2.42133,1.86266 1.096,0.268 2.35067,0.35734 3.26,-0.30933 1.07867,-0.792 0.876,-1.88667 0.77067,-3.06533 -0.14667,-1.636 0.0653,-3.28 0.27733,-4.90934 0.33734,-2.59866 0.676,-5.19733 1.08134,-7.78533 0.21066,-1.33733 0.38266,-2.784 -0.71467,-3.76133 -0.92933,-0.82534 -2.28267,-1.19067 -3.492,-0.86934 -0.98,0.26267 -2.01867,0.86134 -2.41333,1.82134 -0.464,1.12 -0.444,2.37866 -0.428,3.56933 l 0.004,0.31733"
         style="fill:#f57e6f;fill-opacity:1;fill-rule:nonzero;stroke:none;stroke-width:0.133333" />
      <path
         id="path1473"
         d="m 516.81865,149.86801 c 0.644,0.29333 1.29734,0.564 1.95867,0.80933 0.50267,0.18667 1.21867,0.14133 1.45333,0.708 0.1,0.24267 0.10934,0.51067 0.11734,0.77333 0.007,0.25734 0.0973,0.50934 -0.16534,0.60534 -0.20266,0.0733 -0.65066,-0.0173 -0.86933,-0.012 -0.75733,0.0187 -1.51467,0.0187 -2.27333,0.005 -1.49067,-0.0253 -2.98134,-0.0893 -4.468,-0.16933 -1.20534,-0.0573 -2.408,-0.11467 -3.61334,-0.144 -0.60133,-0.0133 -1.204,-0.0213 -1.80666,-0.0187 -0.47467,0.001 -0.88,0.0827 -1.348,-0.0347 l -0.30134,-0.17333 -0.04,-0.236 c 0.005,-0.77067 0.0733,-1.54133 0.204,-2.30133 0.0933,-0.544 0.15067,-2.02 1.076,-1.28667 0.17467,0.14 0.31067,0.32667 0.48667,0.468 0.352,0.28267 0.824,0.356 1.27467,0.396 0.564,0.0507 1.132,0.0667 1.696,0.0453 0.47066,-0.016 0.94933,-0.06 1.38266,-0.24533 0.18267,-0.0787 0.45867,-0.19867 0.504,-0.412 0.056,-0.26133 0.0827,-0.52933 0.08,-0.79733 -0.007,-0.6 0.31734,-0.9 0.80267,-0.448 0.38267,0.35733 0.712,0.73333 1.14133,1.04133 0.832,0.59867 1.78134,1.00267 2.708,1.42667"
         style="fill:#777bb3;fill-opacity:1;fill-rule:nonzero;stroke:none;stroke-width:0.133333" />
      <path
         id="path1474"
         d="m 519.75465,153.30667 h -13.83866 c -0.35467,0 -0.64134,-0.28666 -0.64134,-0.64133 v -0.26533 c 0,-0.35334 0.28667,-0.64134 0.64134,-0.64134 h 13.83866 c 0.35467,0 0.64267,0.288 0.64267,0.64134 v 0.26533 c 0,0.35467 -0.288,0.64133 -0.64267,0.64133"
         style="fill:#e6cdbb;fill-opacity:1;fill-rule:nonzero;stroke:none;stroke-width:0.133333" />
      <path
         id="path1475"
         d="m 518.63599,134.93467 c -0.31067,1.824 -0.60267,3.65067 -0.87734,5.48 -0.064,0.41734 -0.54,4.80667 -0.68533,4.82267 -0.37867,0.0427 -0.75733,0.0867 -1.13467,0.12933 -0.12533,0.0147 -0.248,0.0293 -0.37333,0.044 -0.95867,0.108 -1.92,0.21734 -2.87733,0.328 -0.124,0.0133 -0.248,0.0267 -0.372,0.0413 -1.08134,0.124 -2.164,0.24666 -3.24534,0.37066 -0.124,0.0133 -0.248,0.028 -0.37333,0.0427 -1.09867,0.124 -2.19867,0.24933 -3.29867,0.376 -0.12266,0.0133 -0.24666,0.028 -0.36933,0.0413 -0.42533,0.0493 -0.84933,0.0973 -1.276,0.14534 0.296,-1.83734 0.59067,-3.67467 0.88533,-5.51067 0.66667,-4.144 0.608,-8.576 0.916,-12.77467 0.188,-2.56933 0.376,-5.14 0.564,-7.70933 0.132,-1.80933 0.26534,-3.61867 0.39867,-5.428 0.12267,-1.69467 0.24933,-3.39867 0.58267,-5.06 l 0.0733,-0.35733 c 0.12133,-0.544 0.264,-1.08267 0.43733,-1.616 0.176,-0.532 0.396,-1.06934 0.66134,-1.596 l 0.17466,-0.336 c 0.616,-1.14267 1.43067,-2.22534 2.40267,-3.1 l 0.348,-0.3 c 0.75067,-0.616 1.58667,-1.108 2.48667,-1.41467 0.464,-0.15867 0.94133,-0.23867 1.42533,-0.27067 0.31067,-0.0187 0.62533,-0.016 0.94133,0.001 0.78267,0.044 1.57067,0.18266 2.34134,0.324 2.08,0.37866 3.444,1.24133 3.50133,3.50133 0.252,9.99733 -1.59467,20.02133 -3.25733,29.82533"
         style="fill:#e6cdbb;fill-opacity:1;fill-rule:nonzero;stroke:none;stroke-width:0.133333" />
      <path
         id="path1476"
         d="m 521.90399,105.63067 v 0.0133 l -0.016,0.23466 c -0.148,1.89067 -1.07067,3.48534 -2.36934,4.71467 -0.12133,0.11467 -0.24533,0.22533 -0.37333,0.33467 -0.86133,0.732 -1.85867,1.31466 -2.89467,1.732 -0.12533,0.0507 -0.25333,0.0987 -0.38266,0.14533 -0.40667,0.14667 -0.81867,0.268 -1.228,0.36133 -0.63867,0.148 -1.28134,0.24534 -1.928,0.304 -0.124,0.012 -0.24534,0.0227 -0.37067,0.0307 -1.12133,0.08 -2.252,0.0507 -3.384,-0.032 -0.12133,-0.008 -0.244,-0.0187 -0.36533,-0.0293 -0.636,-0.0507 -1.27334,-0.11867 -1.908,-0.192 -0.55467,-0.0627 -1.10667,-0.13067 -1.65867,-0.196 -7.10667,-0.83867 -14.24933,-1.25867 -21.38533,-1.74267 -3.53067,-0.23867 -7.06,-0.49333 -10.58534,-0.82133 -2.464,-0.22934 -6.06266,0.10666 -7.94399,-1.87867 -1.63467,-1.72667 -1.97334,-5.66933 -1.07867,-7.836 0.16267,-0.39067 0.36,-0.672 0.58667,-0.890666 l 0.34266,-0.273333 c 0.39867,-0.268 0.86267,-0.44 1.37067,-0.705333 1.128,-0.590667 2.11066,-1.377334 3.31066,-1.878667 0.39334,-0.165333 0.79067,-0.318667 1.188,-0.461333 l 0.35067,-0.124 c 1.708,-0.593334 3.44267,-0.997334 5.18933,-1.254667 0.12,-0.02 0.24134,-0.03733 0.36267,-0.052 3.6,-0.493333 7.264,-0.381333 10.92133,-0.02667 0.17734,0.016 0.35467,0.03333 0.53334,0.052 h 10e-4 c 2.452,0.252 4.90133,0.604 7.32667,0.948 l 19.272,2.737334 c 2.55866,0.362666 4.92666,1.168005 6.184,2.994665 0.66133,0.95734 1.01466,2.192 0.932,3.792"
         style="fill:#e6cdbb;fill-opacity:1;fill-rule:nonzero;stroke:none;stroke-width:0.133333" />
      <path
         id="path1477"
         d="m 509.00665,113.08267 c -0.0173,0.12934 -0.0347,0.25734 -0.0493,0.38667 -1.42933,10.952 -2.62133,22.056 -3.55867,33.1 -0.12266,0.0133 -0.24666,0.028 -0.36933,0.0413 0.93867,-11.06666 2.132,-22.196 3.56267,-33.17066 0.0173,-0.13467 0.0347,-0.26934 0.052,-0.404 0.096,-0.72 0.15333,-1.408 -0.17867,-1.92934 -0.28667,-0.45066 -0.812,-0.68266 -1.36533,-0.83333 -0.19867,-0.0547 -0.40134,-0.0973 -0.59867,-0.13733 -8.072,-1.60934 -16.33867,-2.32267 -24.56667,-2.11734 -0.572,0.016 -1.14666,0.0333 -1.72266,0.052 -4.02934,0.128 -8.19467,0.26267 -12.044,-1.04533 -0.58134,-0.19733 -1.18134,-0.44133 -1.64,-0.88533 -0.512,-0.49467 -0.78267,-1.18134 -1,-1.84934 -0.46133,-1.42133 -0.76667,-2.908 -0.90933,-4.407996 l 0.34266,-0.273333 c 0.128,1.554669 0.436,3.097329 0.91334,4.567999 0.23333,0.72133 0.47733,1.28667 0.90666,1.70133 0.408,0.39467 0.964,0.61734 1.50267,0.80134 3.788,1.28666 7.92,1.156 11.916,1.02666 0.57733,-0.0187 1.15333,-0.0373 1.72666,-0.0507 8.256,-0.208 16.54667,0.508 24.648,2.12266 0.196,0.04 0.39734,0.084 0.59867,0.13734 0.632,0.16933 1.244,0.43866 1.59867,0.99466 0.39733,0.62534 0.33733,1.384 0.23466,2.172"
         style="fill:#c1a898;fill-opacity:1;fill-rule:nonzero;stroke:none;stroke-width:0.133333" />
      <path
         id="path1478"
         d="m 512.86932,112.08001 c -0.052,0.46266 -0.10533,0.92666 -0.15733,1.39066 -0.48934,4.32934 -0.96667,8.712 -1.428,12.96134 -0.14267,1.30666 -0.28534,2.62 -0.42934,3.93866 -0.56933,5.21334 -1.15866,10.51067 -1.784,15.78 -0.124,0.0133 -0.248,0.028 -0.37333,0.0427 0.63067,-5.28667 1.22,-10.60267 1.792,-15.83333 0.14667,-1.328 0.28933,-2.65067 0.432,-3.96667 0.45867,-4.228 0.93333,-8.584 1.42,-12.892 0.056,-0.488 0.11067,-0.976 0.16667,-1.46267 0.15866,-1.396 0.248,-2.84266 -0.55867,-3.84133 -0.70667,-0.87467 -1.944,-1.17067 -3.048,-1.37733 -0.208,-0.0387 -0.42,-0.0787 -0.62933,-0.116 -7.17067,-1.27867 -14.58534,-1.46934 -21.76267,-1.656 -2.26667,-0.0573 -4.61067,-0.11867 -6.912,-0.21334 -1.828,-0.0747 -3.45733,-0.20133 -4.884,-1.00133 -1.39733,-0.784 -2.528,-2.24667 -3.184,-4.113332 -0.35733,-1.025334 -0.55867,-2.089334 -0.69867,-3.156 l 0.35067,-0.124 c 0.13867,1.072 0.33733,2.14 0.69333,3.158666 0.62534,1.783996 1.69734,3.174666 3.01867,3.917336 1.35467,0.76 2.93867,0.88266 4.71867,0.956 2.3,0.092 4.64,0.15333 6.90666,0.21066 7.22934,0.18667 14.696,0.38 21.928,1.68534 0.17467,0.0293 0.348,0.0613 0.52134,0.0947 1.16933,0.21867 2.48133,0.53467 3.264,1.50667 0.896,1.10667 0.80533,2.63733 0.63733,4.11067"
         style="fill:#c1a898;fill-opacity:1;fill-rule:nonzero;stroke:none;stroke-width:0.133333" />
      <path
         id="path1479"
         d="m 516.25065,112.66001 c -0.0267,0.252 -0.0533,0.504 -0.08,0.75333 l -2.14933,19.96267 -0.26667,2.46133 -1.06666,9.90133 -0.20267,0.0213 -0.16933,0.02 1.46266,-13.576 2.02934,-18.82934 c 0.0213,-0.18933 0.0427,-0.38 0.06,-0.56933 0.16133,-1.536 0.28,-3.108 -0.007,-4.636 -0.356,-1.89333 -1.33733,-3.40933 -2.692,-4.15867 -0.696,-0.38533 -1.49333,-0.57466 -2.32,-0.74266 l -0.112,-0.0227 c -5.11067,-1.02667 -10.34533,-1.548 -15.55733,-1.54667 -1.00667,0 -2.032,0.02 -3.02267,0.0373 -2.88933,0.0547 -5.876,0.112 -8.78933,-0.30267 -1.224,-0.17467 -2.63334,-0.45867 -3.81734,-1.24267 -1.67733,-1.111996 -2.56266,-2.978662 -3.18,-5.005329 0.12,-0.02 0.24134,-0.03733 0.36267,-0.052 0.6,1.972 1.43467,3.702667 3.01867,4.752 1.12266,0.745329 2.48533,1.017329 3.668,1.186669 2.88266,0.412 5.85466,0.35466 8.72933,0.3 0.99333,-0.0173 2.02133,-0.0373 3.03067,-0.0373 5.236,-10e-4 10.49466,0.52267 15.628,1.552 0.13066,0.0267 0.26133,0.0533 0.38933,0.0813 0.75733,0.16266 1.488,0.35866 2.148,0.724 1.45067,0.80266 2.49733,2.40933 2.87467,4.41066 0.28533,1.516 0.18266,3.052 0.0307,4.55734"
         style="fill:#c1a898;fill-opacity:1;fill-rule:nonzero;stroke:none;stroke-width:0.133333" />
      <path
         id="path1480"
         d="m 519.53865,107.88801 c 0.008,0.9 0,1.80266 -0.02,2.70533 -0.124,5.44267 -0.71733,10.93067 -1.296,16.264 -0.0773,0.708 -0.152,1.416 -0.228,2.124 -0.432,4.04267 -0.924,8.12933 -1.46666,12.14667 -0.188,1.40666 -0.38534,2.82533 -0.58934,4.23866 -0.12533,0.0147 -0.248,0.0293 -0.37333,0.044 0.208,-1.44266 0.40933,-2.89466 0.60267,-4.33066 0.54,-4.01467 1.03066,-8.09734 1.46533,-12.13734 0.0733,-0.708 0.15067,-1.416 0.228,-2.124 0.564,-5.21333 1.14533,-10.576 1.284,-15.89066 0.028,-1.01467 0.0387,-2.02667 0.0307,-3.036 -0.009,-0.99734 -0.036,-1.892 -0.26534,-2.76134 -0.572,-2.156 -2.032,-3.21333 -3.80133,-3.848 -1.08533,-0.38933 -2.292,-0.61866 -3.47867,-0.84533 l -0.208,-0.04 c -4.04533,-0.774666 -8.17866,-1.301332 -12.284,-1.565332 -0.25466,-0.01733 -0.50933,-0.03333 -0.764,-0.048 -2.59333,-0.158667 -5.276,-0.322667 -7.67066,-1.398667 -1.092,-0.492 -2.192,-1.28 -3.04934,-2.278667 0.17734,0.016 0.35467,0.03333 0.53334,0.052 h 0.001 c 0.77733,0.818667 1.724,1.470667 2.664,1.893334 2.33467,1.049333 4.98267,1.212 7.54267,1.368 0.25466,0.016 0.51066,0.032 0.764,0.04667 4.12266,0.266667 8.27066,0.794667 12.33066,1.573332 l 0.20667,0.04 c 1.46133,0.27733 3.01867,0.57466 4.35333,1.204 1.48134,0.69866 2.69467,1.80666 3.212,3.75333 0.24134,0.908 0.268,1.82933 0.276,2.85067"
         style="fill:#c1a898;fill-opacity:1;fill-rule:nonzero;stroke:none;stroke-width:0.133333" />
      <path
         id="path1481"
         d="m 495.41599,55.986675 c -0.32134,0.446667 -0.65467,0.882667 -0.99867,1.309334 l -0.24533,0.338666 c -0.44667,0.676 -0.77467,1.396 -1.772,1.253334 -0.516,-0.07333 -0.98,-0.357334 -1.392,-0.677334 -0.86,-0.661333 -1.56667,-1.496 -2.26534,-2.325333 -0.592,-0.702667 -1.18,-1.402667 -1.77066,-2.104 -0.23467,-0.281333 -0.472,-0.562667 -0.648,-0.882667 -0.424,-0.776 -0.46134,-1.705333 -0.364,-2.584 0.04,-0.357333 0.10133,-0.718666 0.25866,-1.041333 0.38,-0.777333 1.28267,-0.658667 1.98267,-1.056 0.84533,-0.48 1.512,-1.18 2.33467,-1.678666 1.05733,-0.641334 3.036,-0.678667 3.92266,0.291999 1.164,1.272 2.15467,3.001334 1.99334,4.789334 -0.0493,0.534666 0.02,1.001333 0.0587,1.533333 v 0.008 c 0.0747,1.029333 -0.49333,1.986667 -1.09466,2.825333"
         style="fill:#f57e6f;fill-opacity:1;fill-rule:nonzero;stroke:none;stroke-width:0.133333" />
      <path
         id="path1482"
         d="m 495.41599,55.986675 c -0.32134,0.446667 -0.65467,0.882667 -0.99867,1.309334 l -0.24533,0.338666 c -0.488,-0.309333 -0.836,-0.809333 -1.13467,-1.312 -0.58533,-0.986666 -1.04533,-2.046666 -1.368,-3.148 -0.22667,-0.776 -0.54,-2.038666 -0.0627,-2.786666 0.43334,-0.685334 1.35067,-0.36 1.84667,0.048 0.568,0.465333 1.08533,0.984 1.56133,1.542666 0.22934,0.269334 0.416,0.325334 0.708,0.512 0.14534,0.09333 0.77334,0.485334 0.788,0.662667 v 0.008 c 0.0747,1.029333 -0.49333,1.986667 -1.09466,2.825333"
         style="fill:#dc5153;fill-opacity:1;fill-rule:nonzero;stroke:none;stroke-width:0.133333" />
      <path
         id="path1483"
         d="m 504.07999,44.493342 c -0.0333,0.334667 -0.0813,0.668 -0.152,0.997334 -0.076,0.361333 -0.16134,0.776 -0.30534,1.116 -0.15466,0.361333 -0.432,0.667999 -0.604,1.023999 -0.272,0.568 -0.0733,1.338667 -0.005,1.932 0.0867,0.762667 0.17467,1.524 0.26133,2.286667 0.14,1.228 -0.61333,1.141333 -1.58,1.144 -0.844,0.0013 -1.20133,1.821333 -1.424,2.416 -0.25466,0.682667 -0.66666,1.384 -1.35333,1.629333 -0.45333,0.161334 -0.992,0.106667 -1.45467,0.01733 -1.24533,-0.241334 -2.38,-1.045334 -3.25866,-1.937334 -0.96534,-0.982666 -1.66667,-2.370666 -2.14,-3.652 -0.192,-0.521333 -0.35334,-1.062666 -0.66667,-1.52 -0.54,-0.789333 -1.432,-1.213333 -2.20267,-1.737333 -0.364,-0.248 -0.79733,-0.541333 -1.03733,-0.921333 -0.296,-0.469334 -0.348,-1.162667 -0.37467,-1.712 -0.0573,-1.190667 0.116,-2.184 0.57067,-3.285333 0.44667,-1.082667 1.036,-2.105334 1.75067,-3.030667 0.33333,-0.432 0.69733,-0.845333 1.12933,-1.177333 0.50933,-0.389334 1.10133,-0.656 1.69867,-0.885334 1.53066,-0.582666 3.192,-0.946666 4.80666,-0.678666 0.78934,0.130666 1.55067,0.410666 2.264,0.776 0.92267,0.474666 1.772,1.093333 2.504,1.829333 0.528,0.530667 1.00267,1.132 1.276,1.828 0.26134,0.669333 0.32934,1.398667 0.344,2.117333 0.0107,0.474667 -10e-4,0.949334 -0.0467,1.424"
         style="fill:#f57e6f;fill-opacity:1;fill-rule:nonzero;stroke:none;stroke-width:0.133333" />
      <path
         id="path1484"
         d="m 502.80399,47.589342 -0.248,0.526667 -0.36934,-0.173334 0.24667,-0.528 0.37067,0.174667"
         style="fill:#47527d;fill-opacity:1;fill-rule:nonzero;stroke:none;stroke-width:0.133333" />
      <path
         id="path1485"
         d="m 487.16532,46.104009 c 0.25733,0.669333 0.71733,1.206666 1.20133,1.850666 l 0.19334,0.201334 0.32266,0.09733 c 1.20134,0.184 2.14667,0.09467 3.29734,-0.256 0.408,-0.125333 0.83866,-0.218667 1.268,-0.2 0.428,0.02 0.73333,0.196 1.03466,-0.212 0.33467,-0.450667 0.72267,-0.372 1.25467,-0.489333 0.54267,-0.118667 0.716,-0.493333 0.95867,-0.932 0.32133,-0.573333 0.808,-1.056 1.10266,-1.662667 0.28534,-0.586666 0.424,-1.270666 0.248,-1.898666 -0.176,-0.629334 -0.71466,-1.177334 -1.364,-1.237334 -0.20666,-0.01867 -0.41466,0.01067 -0.61866,-0.01867 -0.828,-0.116 -1.3,-1.085334 -2.10667,-1.301334 -0.612,-0.164 -1.31867,0.134667 -1.86933,-0.173333 -0.43867,-0.245333 -0.616,-0.790667 -1.004,-1.109333 -1.68134,-1.372 -3.39734,2.456 -3.756,3.584 -0.292,0.92 -0.44667,1.916 -0.36267,2.881333 0.0267,0.322667 0.0973,0.610667 0.2,0.876"
         style="fill:#e6cdbb;fill-opacity:1;fill-rule:nonzero;stroke:none;stroke-width:0.133333" />
      <path
         id="path1486"
         d="m 488.46799,41.060009 c -0.656,1.096 -1.28667,2.488 -0.60534,3.725333 l 0.23467,-0.03333 c -0.67067,-1.216 -0.0387,-2.582667 0.604,-3.66 l -0.23333,-0.032"
         style="fill:#ffffff;fill-opacity:1;fill-rule:nonzero;stroke:none;stroke-width:0.133333" />
      <path
         id="path1487"
         d="m 488.82265,42.340009 c -0.29733,0.678667 -0.304,1.457333 -0.0187,2.142667 l 0.23333,-0.03333 c -0.276,-0.661333 -0.26933,-1.42 0.02,-2.077333 l -0.23467,-0.032"
         style="fill:#ffffff;fill-opacity:1;fill-rule:nonzero;stroke:none;stroke-width:0.133333" />
      <path
         id="path1488"
         d="m 492.52532,43.917342 c -0.21867,-0.565333 -0.22,-1.201333 -0.005,-1.766666 l -0.23467,-0.03333 c -0.22267,0.590667 -0.22133,1.242667 0.005,1.832 l 0.23467,-0.032"
         style="fill:#ffffff;fill-opacity:1;fill-rule:nonzero;stroke:none;stroke-width:0.133333" />
      <path
         id="path1489"
         d="m 495.12265,43.393342 c -0.1,-0.209333 -0.15066,-0.437333 -0.144,-0.669333 l -0.12133,-0.06133 -0.12133,0.06133 c -0.005,0.242667 0.048,0.484 0.152,0.701333 l 0.23466,-0.032"
         style="fill:#ffffff;fill-opacity:1;fill-rule:nonzero;stroke:none;stroke-width:0.133333" />
      <path
         id="path1490"
         d="m 497.37065,42.328009 -0.20933,0.06267 c 0.17333,0.204 0.26,0.472 0.25067,0.737333 h 0.24133 c 0.012,-0.292 -0.092,-0.577333 -0.28267,-0.8"
         style="fill:#ffffff;fill-opacity:1;fill-rule:nonzero;stroke:none;stroke-width:0.133333" />
      <path
         id="path1491"
         d="m 502.80399,47.589342 -0.248,0.526667 -1.25067,2.662666 -0.372,-0.174666 1.25333,-2.661334 0.24667,-0.528 0.37067,0.174667"
         style="fill:#e6cdbb;fill-opacity:1;fill-rule:nonzero;stroke:none;stroke-width:0.133333" />
      <path
         id="path1492"
         d="m 502.62932,47.772009 -0.32,-0.101334 -0.30133,-0.06133 c -0.248,-0.048 -0.49334,-0.09733 -0.74134,-0.146667 -0.30933,-0.06133 -0.62133,-0.124 -0.93066,-0.185333 -0.47334,-0.09467 -0.936,-0.233333 -1.38134,-0.414667 l -3.10533,-1.265333 0.13733,-0.337333 3.10534,1.265333 c 0.424,0.172 0.86666,0.305333 1.31466,0.394667 0.708,0.14 1.416,0.274666 2.12134,0.422666 l 0.264,0.142667 -0.0427,0.193333 -0.1,0.08933 -0.02,0.004"
         style="fill:#47527d;fill-opacity:1;fill-rule:nonzero;stroke:none;stroke-width:0.133333" />
      <path
         id="path1493"
         d="m 496.37465,48.394675 0.0213,-0.04667 c 0.55333,-1.212 0.13066,-3.849333 -1.66534,-3.594667 -0.63066,0.08933 -1.16933,0.566667 -1.42,1.152 -0.48666,1.137333 -0.08,3.346667 1.27467,3.748 0.82667,0.245333 1.476,-0.598667 1.78933,-1.258667"
         style="fill:#f57e6f;fill-opacity:1;fill-rule:nonzero;stroke:none;stroke-width:0.133333" />
      <path
         id="path1494"
         d="m 502.52665,46.896009 0.02,-0.01733 c 0.18934,-0.161333 0.26267,-0.465333 0.0973,-0.667999 -0.15467,-0.190667 -0.44934,-0.252 -0.67334,-0.317334 -0.47066,-0.138666 -0.96133,-0.201333 -1.45466,-0.209333 -0.2,-0.0027 -0.476,-0.04533 -0.672,0.01333 -0.32534,0.09867 -0.04,0.609334 0.0933,0.722667 0.10933,0.09067 0.24267,0.14 0.37467,0.182667 0.16,0.05067 0.32133,0.09067 0.48133,0.133333 0.50133,0.128 1.26,0.533333 1.73333,0.16"
         style="fill:#e6cdbb;fill-opacity:1;fill-rule:nonzero;stroke:none;stroke-width:0.133333" />
      <path
         id="path1495"
         d="m 500.72799,48.116009 c 0.0587,-0.144 0.13866,-0.28 0.24933,-0.334667 l 0.26267,-0.02267 c 0.25866,0.04667 0.37866,0.241334 0.364,0.462667 -0.009,0.138667 -0.0613,0.277333 -0.12,0.404 -0.11067,0.237333 -0.28267,0.444 -0.57067,0.432 l -0.22667,-0.08133 -0.11333,-0.254667 0.0453,-0.282667 0.10934,-0.322666"
         style="fill:#3a2323;fill-opacity:1;fill-rule:nonzero;stroke:none;stroke-width:0.133333" />
      <path
         id="path1496"
         d="m 500.02132,54.125342 c -0.78533,-0.144 -1.436,-0.776 -1.66,-1.532 l -0.292,0.04267 c 0.252,0.849333 1.00667,1.48 1.87067,1.637333 l 0.18666,-0.05333 -0.10533,-0.09467"
         style="fill:#dc5153;fill-opacity:1;fill-rule:nonzero;stroke:none;stroke-width:0.133333" />
      <path
         id="path1497"
         d="m 503.91865,44.505342 c -0.15733,-0.124 -0.324,-0.201333 -0.52933,-0.18 l -0.344,0.06267 c -0.13067,0.012 -0.26267,-0.0027 -0.39333,-0.024 -0.488,-0.08267 -0.972,-0.246667 -1.43067,-0.429333 h -0.172 v 0.08667 c 0.424,0.170667 0.86133,0.312 1.308,0.414667 0.22,0.05067 0.444,0.09067 0.67067,0.07733 l 0.30933,-0.048 c 0.15333,-0.03333 0.25067,0.0067 0.372,0.102667 l 0.16667,0.02267 0.0427,-0.08533"
         style="fill:#eb645a;fill-opacity:1;fill-rule:nonzero;stroke:none;stroke-width:0.133333" />
      <path
         id="path1498"
         d="m 503.59465,43.240009 c -0.25466,-0.134667 -0.53866,-0.218667 -0.828,-0.241333 l -0.14933,0.044 0.084,0.076 c 0.25467,0.02 0.49467,0.08933 0.72133,0.209333 h 0.172 v -0.088"
         style="fill:#eb645a;fill-opacity:1;fill-rule:nonzero;stroke:none;stroke-width:0.133333" />
      <path
         id="path1499"
         d="m 500.05865,51.081342 c -0.39066,0.713333 -1.37866,0.557333 -2.032,0.810667 -0.34666,0.133333 -0.60133,0.377333 -0.81333,0.674666 -0.25733,0.36 -0.48133,0.746667 -0.71733,1.12 l 0.23466,0.03333 c 0.236,-0.374667 0.46,-0.76 0.71734,-1.12 0.252,-0.353334 0.55866,-0.586667 0.984,-0.688 0.64533,-0.153334 1.496,-0.130667 1.86133,-0.797334 l -0.23467,-0.03333"
         style="fill:#eb645a;fill-opacity:1;fill-rule:nonzero;stroke:none;stroke-width:0.133333" />
      <path
         id="path1500"
         d="m 487.26265,47.925342 0.10534,0.01733 c 0.34,0.07733 0.58133,0.372 0.79466,0.646667 1.24934,1.610667 2.49867,3.22 3.748,4.830667 1.15334,1.488 2.31467,2.986666 3.15734,4.669333 0.22133,0.441333 0.38266,0.902667 0.12666,1.346667 -0.27733,0.482666 -0.64933,0.935999 -0.908,1.454666 -0.11866,0.232 -0.252,0.470667 -0.472,0.609333 -0.676,0.425334 -2.01466,-1.309333 -2.46266,-1.754666 -1.88534,-1.876 -3.77067,-3.752 -5.56134,-5.718667 -0.77333,-0.850666 -1.468,-1.401333 -1.16266,-2.629333 0.28266,-1.142667 0.75333,-2.296 1.67333,-3.073333 0.272,-0.230667 0.61467,-0.429334 0.96133,-0.398667"
         style="fill:#94cdd7;fill-opacity:1;fill-rule:nonzero;stroke:none;stroke-width:0.133333" />
      <path
         id="path1501"
         d="m 463.29332,105.75734 0.0293,0.212 c 1.488,0.148 3.196,-0.37067 4.62666,-0.76667 2.74267,-0.76 5.556,-1.192 8.28533,-2.03866 3.588,-1.11334 6.71067,-2.792 10.04934,-4.422669 2.37333,-1.16 4.87333,-2.210667 7.47866,-2.744 0.12667,-0.02533 0.264,-0.056 0.352,-0.150667 0.15867,-0.170666 0.0813,-0.448 -0.032,-0.652 -0.52533,-0.937333 -1.596,-1.464 -2.66133,-1.604 -1.064,-0.14 -2.14267,0.04933 -3.2,0.232 -4.536,0.786667 -9.088,1.472 -13.65467,2.054667 -2.35866,0.301333 -4.72133,0.576 -7.08666,0.824 -1.15733,0.121333 -4.22533,-0.42 -4.29733,1.268 -0.112,2.594669 -0.076,5.194669 0.11066,7.787999"
         style="fill:#94cdd7;fill-opacity:1;fill-rule:nonzero;stroke:none;stroke-width:0.133333" />
      <path
         id="path1502"
         d="m 495.03865,89.802674 c -0.192,1.1 -0.10533,3.137334 -1.00666,3.886667 -0.48667,0.405333 -1.11334,0.594667 -1.72267,0.774667 -5.496,1.613333 -11.00933,3.169333 -16.54,4.664 -0.332,0.09067 -0.66533,0.18 -1,0.269333 -3.524,0.949329 -7.05733,1.874669 -10.59733,2.773329 -1.47867,0.37467 -1.75067,-1.30266 -1.70667,-2.429329 0.228,-5.944 1.092,-11.844 2.2,-17.682666 0.764,-4.032 1.42,-8.204 2.524,-12.198667 0.25467,-0.926666 0.53467,-1.844 0.84533,-2.746666 0.184,-0.530667 0.37734,-1.056 0.58267,-1.577334 2.37867,-6.030666 6.968,-12.631999 12.94933,-15.674666 0.25067,-0.130667 0.50667,-0.252 0.76267,-0.366667 0.46133,-0.208 0.93867,-0.390666 1.43867,-0.464 l 0.016,-0.0027 0.13466,-0.016 c 1.424,-0.141334 2.828,0.626666 3.82934,1.66 1.036,1.070666 1.73866,2.409333 2.536,3.668 1.54133,2.436 4.09333,4.697333 5.216,7.347999 0.69333,1.633334 0.97066,3.721334 1.12533,5.709334 0.0747,0.945333 0.12267,1.868 0.17467,2.708 l 0.0173,0.334666 c 0.34667,6.497333 -0.668,12.981333 -1.77867,19.362666"
         style="fill:#777bb3;fill-opacity:1;fill-rule:nonzero;stroke:none;stroke-width:0.133333" />
      <path
         id="path1503"
         d="m 483.78665,49.181342 -1.25066,1.742667 h -0.208 l -0.76134,-1.062667 c 0.25067,-0.130667 0.50667,-0.252 0.76267,-0.366667 0.46133,-0.208 0.93867,-0.390666 1.43867,-0.464 l 0.016,-0.0027 0.003,0.0027 v 0.150667"
         style="fill:#47527d;fill-opacity:1;fill-rule:nonzero;stroke:none;stroke-width:0.133333" />
      <path
         id="path1504"
         d="m 475.06932,60.457342 -1.25067,-1.742667 v -0.149333 l 1.25067,-1.742667 h 0.208 l 1.25067,1.742667 v 0.149333 l -1.25067,1.742667 h -0.208"
         style="fill:#47527d;fill-opacity:1;fill-rule:nonzero;stroke:none;stroke-width:0.133333" />
      <path
         id="path1505"
         d="m 489.67465,60.457342 -1.24933,-1.742667 v -0.149333 l 1.24933,-1.742667 h 0.20934 l 1.24933,1.742667 v 0.149333 l -1.24933,1.742667 h -0.20934"
         style="fill:#47527d;fill-opacity:1;fill-rule:nonzero;stroke:none;stroke-width:0.133333" />
      <path
         id="path1506"
         d="m 469.18132,68.860008 -1.25067,1.742667 h -0.20933 l -0.532,-0.742667 c 0.25467,-0.926666 0.53467,-1.844 0.84533,-2.746666 l 1.14667,1.597333 v 0.149333"
         style="fill:#47527d;fill-opacity:1;fill-rule:nonzero;stroke:none;stroke-width:0.133333" />
      <path
         id="path1507"
         d="m 482.32799,70.602675 -1.24934,-1.742667 v -0.149333 l 1.24934,-1.742667 h 0.208 l 1.25066,1.742667 v 0.149333 l -1.25066,1.742667 h -0.208"
         style="fill:#47527d;fill-opacity:1;fill-rule:nonzero;stroke:none;stroke-width:0.133333" />
      <path
         id="path1508"
         d="m 496.81732,70.440008 -1.132,-1.58 v -0.149333 l 0.94,-1.313333 c 0.0747,0.945333 0.12267,1.868 0.17467,2.708 l 0.0173,0.334666"
         style="fill:#47527d;fill-opacity:1;fill-rule:nonzero;stroke:none;stroke-width:0.133333" />
      <path
         id="path1509"
         d="m 475.06932,80.136008 -1.25067,-1.742667 v -0.150666 l 1.25067,-1.741334 h 0.208 l 1.25067,1.741334 v 0.150666 l -1.25067,1.742667 h -0.208"
         style="fill:#47527d;fill-opacity:1;fill-rule:nonzero;stroke:none;stroke-width:0.133333" />
      <path
         id="path1510"
         d="m 489.67465,80.136008 -1.24933,-1.742667 v -0.150666 l 1.24933,-1.741334 h 0.20934 l 1.24933,1.741334 v 0.150666 l -1.24933,1.742667 h -0.20934"
         style="fill:#47527d;fill-opacity:1;fill-rule:nonzero;stroke:none;stroke-width:0.133333" />
      <path
         id="path1511"
         d="m 467.72132,90.281341 -1.24933,-1.742667 v -0.149333 l 1.24933,-1.741333 h 0.20933 l 1.24934,1.741333 v 0.149333 l -1.24934,1.742667 h -0.20933"
         style="fill:#47527d;fill-opacity:1;fill-rule:nonzero;stroke:none;stroke-width:0.133333" />
      <path
         id="path1512"
         d="m 482.32799,90.281341 -1.24934,-1.742667 v -0.149333 l 1.24934,-1.741333 h 0.208 l 1.25066,1.741333 v 0.149333 l -1.25066,1.742667 h -0.208"
         style="fill:#47527d;fill-opacity:1;fill-rule:nonzero;stroke:none;stroke-width:0.133333" />
      <path
         id="path1513"
         d="m 476.52799,98.072008 -0.75867,1.056 c -0.332,0.09067 -0.66533,0.18 -1,0.269333 l -0.95067,-1.325333 v -0.149334 l 1.25067,-1.742666 h 0.208 l 1.25067,1.742666 v 0.149334"
         style="fill:#47527d;fill-opacity:1;fill-rule:nonzero;stroke:none;stroke-width:0.133333" />
      <path
         id="path1514"
         d="m 481.63732,57.986675 c -1.04667,1.997334 -1.56133,4.352 -1.928,6.474667 -0.616,3.572 -0.98267,7.256 -0.25733,10.807999 0.10533,0.513334 0.23733,1.032 0.52,1.473334 0.608,0.949333 2.11466,1.465333 3.184,1.5 2.10666,0.072 4.144,-0.974667 5.628,-2.473334 2.56666,-2.590666 3.596,-6.427999 3.376,-10.069333 -0.18534,-3.044 -1.16134,-5.978666 -2.42267,-8.735999 -1.03733,-2.265334 -2.55733,-3.985334 -5.07867,-2.393334 -1.33866,0.845334 -2.30533,2.046667 -3.02133,3.416"
         style="fill:#94cdd7;fill-opacity:1;fill-rule:nonzero;stroke:none;stroke-width:0.133333" />
      <path
         id="path1515"
         d="m 495.67599,116.86134 h -41.06267 v -5.952 h 36.12667 c 2.72666,0 4.936,2.20933 4.936,4.93467 v 1.01733"
         style="fill:#f18349;fill-opacity:1;fill-rule:nonzero;stroke:none;stroke-width:0.133333" />
      <path
         id="path1516"
         d="m 495.67599,114.91867 h -41.06267 v -5.95466 h 36.12667 c 2.72666,0 4.936,2.21066 4.936,4.936 v 1.01866"
         style="fill:#f9a859;fill-opacity:1;fill-rule:nonzero;stroke:none;stroke-width:0.133333" />
      <path
         id="path1517"
         d="m 458.02666,153.30134 c 0.17866,-25.632 1.664,-37.25867 1.67866,-37.376 l -2.408,-0.316 c -0.016,0.11867 -1.52,11.868 -1.70133,37.692 h 2.43067"
         style="fill:#f18349;fill-opacity:1;fill-rule:nonzero;stroke:none;stroke-width:0.133333" />
      <path
         id="path1518"
         d="m 494.69332,153.30134 c -0.18133,-25.824 -1.68533,-37.57333 -1.70133,-37.692 l -2.408,0.316 c 0.0147,0.11733 1.5,11.744 1.67866,37.376 h 2.43067"
         style="fill:#f18349;fill-opacity:1;fill-rule:nonzero;stroke:none;stroke-width:0.133333" />
      <path
         id="path1519"
         d="m 456.79732,114.18801 c -1.14533,0 -2.13733,-0.84934 -2.28666,-2.01467 l -1.74667,-13.637332 c -0.54667,-4.272 -0.81333,-8.621334 -0.792,-12.928 l 0.0907,-17.352 c 0.007,-1.270666 1.03733,-2.297333 2.30666,-2.297333 h 0.0133 c 1.27466,0.0067 2.30266,1.046667 2.296,2.32 l -0.0893,17.352 c -0.02,4.103999 0.232,8.249333 0.75467,12.318666 l 1.74533,13.637329 c 0.16134,1.26534 -0.73066,2.42134 -1.996,2.58267 l -0.296,0.0187"
         style="fill:#f9a859;fill-opacity:1;fill-rule:nonzero;stroke:none;stroke-width:0.133333" />
      <path
         id="path1520"
         d="m 540.55065,68.110675 c -0.85866,0.490667 -1.776,0.905333 -2.28933,1.818667 -0.484,0.862666 -0.676,1.854666 -0.856,2.818666 -0.104,0.546667 -0.20267,1.137333 0.0387,1.64 0.0973,0.202667 0.24533,0.376 0.38933,0.546667 0.34533,0.408 0.69467,0.748 1.128,1.058666 0.15733,0.113334 0.27467,0.321334 0.496,0.289334 0.22533,-0.03067 0.36,-0.272 0.38,-0.478667 0.0373,-0.376 -0.11067,-0.742667 -0.21733,-1.105333 -0.096,-0.326667 -0.16,-0.662667 -0.192,-1.001334 -0.0147,-0.166666 -0.0213,-0.338666 0.032,-0.497333 0.0653,-0.192 0.212,-0.344 0.36133,-0.481333 0.58933,-0.54 1.284,-0.964 2.03467,-1.24 0.21466,-0.07867 0.46666,-0.141333 0.66266,-0.02133 0.22934,0.142666 0.25734,0.461333 0.23734,0.730666 -0.0613,0.845334 -0.388,1.694667 -0.60534,2.510667 -0.044,0.168 -0.0893,0.338666 -0.084,0.512 0.005,0.174666 0.0667,0.353333 0.20134,0.462666 0.48133,0.388 0.88666,-0.452 1.06533,-0.764 0.29333,-0.513333 0.60933,-1.017333 1.004,-1.46 0.19867,-0.222666 0.41733,-0.430666 0.6,-0.666666 0.37733,-0.486667 0.592,-1.085333 0.68667,-1.694667 0.10666,-0.697333 0.172,-1.176 0.80133,-1.590666 0.65733,-0.430667 1.31333,-0.862667 1.96933,-1.294667 0.26,-0.172 0.54134,-0.370667 0.62,-0.673333 0.0373,-0.152 0.0187,-0.313334 -0.005,-0.468 -0.0947,-0.597334 -0.27867,-1.194667 -0.64,-1.68 -0.36,-0.486667 -0.916,-0.850667 -1.52,-0.878667 -0.68,-0.03067 -1.30133,0.346667 -1.87333,0.716 -1.308,0.84 -2.60667,1.696 -3.89467,2.565333 -0.17067,0.116 -0.34933,0.222667 -0.53067,0.326667"
         style="fill:#f57e6f;fill-opacity:1;fill-rule:nonzero;stroke:none;stroke-width:0.133333" />
      <path
         id="path1521"
         d="m 538.90132,71.497342 c -0.46667,0.516 -0.676,1.208 -0.68133,1.895999 -0.008,0.794667 0.248,1.568 0.54533,2.296 l 0.176,-0.02533 c -0.292,-0.710667 -0.53867,-1.458667 -0.54,-2.234667 0,-0.678666 0.196,-1.374666 0.65733,-1.885333 l -0.15733,-0.04667"
         style="fill:#dc5153;fill-opacity:1;fill-rule:nonzero;stroke:none;stroke-width:0.133333" />
      <path
         id="path1522"
         d="m 537.97599,71.434675 c -0.26134,0.409333 -0.44,0.865333 -0.52934,1.344 h 0.18267 c 0.0867,-0.469333 0.26667,-0.917333 0.52267,-1.318667 l -0.176,-0.02533"
         style="fill:#dc5153;fill-opacity:1;fill-rule:nonzero;stroke:none;stroke-width:0.133333" />
      <path
         id="path1523"
         d="m 558.07999,57.641342 c 1.08,-0.545333 2.17066,-1.074667 3.27733,-1.566667 4.068,-1.809333 8.35067,-3.082666 12.62,-4.350666 3.37333,-1.002667 6.76533,-2.008 10.25867,-2.417334 0.99866,-0.116 2.044,-0.177333 2.97333,0.201334 1.872,0.761333 2.64667,3.024 2.70667,5.044 0.044,1.513333 -0.40534,2.812 -0.60934,4.273333 -0.31733,2.286666 -0.41466,5.396 -3.172,6.054666 -3.18666,0.76 -6.47733,1.077334 -9.74933,0.942667 -1.512,-0.06133 -3.01733,-0.446667 -4.524,-0.372 -1.496,0.076 -2.95067,0.498667 -4.36533,0.964 -4.188,1.374667 -8.54,2.038667 -12.832,3.066667 -1.176,0.28 -2.35467,0.545333 -3.54,0.776 -0.59334,0.114666 -1.18667,0.221333 -1.78134,0.318666 -0.43466,0.07067 -0.90533,0.304 -1.29733,-0.016 -0.17733,-0.145333 -0.296,-0.349333 -0.41067,-0.549333 -0.508,-0.885333 -1.00133,-1.78 -1.47866,-2.684 -0.232,-0.441333 -0.46134,-0.884 -0.68534,-1.328 -0.184,-0.362667 -0.49733,-0.744 -0.33066,-1.162667 0.204,-0.509333 0.976,-0.750666 1.41066,-0.994666 1.784,-1.001334 3.57334,-1.977334 5.36534,-2.958667 0.908,-0.497333 1.82266,-0.988 2.73866,-1.473333 0.46934,-0.248 0.94,-0.494667 1.412,-0.737333 0.32134,-0.168 0.99334,-0.694667 1.34934,-0.694667 0.22133,-0.112 0.44266,-0.225333 0.664,-0.336"
         style="fill:#f289a8;fill-opacity:1;fill-rule:nonzero;stroke:none;stroke-width:0.133333" />
      <path
         id="path1524"
         d="m 569.33865,136.18534 c 0.068,1.648 0.076,3.29733 0.0773,4.94533 0.001,1.01734 0,2.03467 0.009,3.05067 0.0133,1.344 -0.0573,2.54267 0.43867,3.832 0.11066,0.28533 0.23866,0.56267 0.32933,0.85467 0.19067,0.61466 0.20933,1.27066 0.176,1.91333 -0.008,0.19067 -0.0227,0.384 -0.096,0.55867 -0.136,0.33066 -0.46133,0.552 -0.80133,0.65333 -0.34267,0.1 -0.70667,0.096 -1.06267,0.092 -2.49867,-0.0293 -4.99867,-0.0587 -7.49733,-0.088 -1.25467,-0.016 -2.508,-0.0307 -3.75867,0.0587 -0.144,0.0107 -0.33467,-0.0107 -0.36267,-0.152 l 0.06,-0.19467 c 0.20134,-0.30267 0.52667,-0.49733 0.848,-0.66667 1.11067,-0.58133 2.31067,-0.96133 3.444,-1.492 0.472,-0.22133 1.108,-0.47066 1.49467,-0.82133 0.40133,-0.36533 0.444,-1.008 0.38933,-1.50667 -0.104,-0.94266 -0.20533,-1.88533 -0.31333,-2.82666 -0.32133,-2.792 -0.644,-5.58534 -0.96533,-8.376 -0.132,-1.144 -0.25734,-2.34267 0.16933,-3.41067 0.65867,-1.65333 2.67067,-2.59333 4.39067,-2.13467 2.75866,0.736 2.93466,3.364 3.03066,5.71067"
         style="fill:#f57e6f;fill-opacity:1;fill-rule:nonzero;stroke:none;stroke-width:0.133333" />
      <path
         id="path1525"
         d="m 568.54932,152.19734 c 0.55867,-0.04 1.35733,0.005 1.78667,-0.428 0.64533,-0.65467 0.49733,-1.82267 0.42266,-2.64933 -0.012,-0.14934 -0.032,-0.30534 -0.11466,-0.432 -0.076,-0.116 -0.19734,-0.19467 -0.32134,-0.25867 -0.73333,-0.37333 -1.604,-0.30933 -2.42266,-0.23467 -1.67467,0.15067 -3.34934,0.29867 -5.02267,0.452 -1.30533,0.12134 -2.54267,0.68134 -3.72667,1.22134 -0.64266,0.29333 -1.29466,0.564 -1.95733,0.80933 -0.60533,0.224 -1.112,0.20533 -1.4,0.884 -0.11333,0.26667 -0.41067,1.05467 -0.005,1.20267 0.20133,0.0733 0.64933,-0.0173 0.868,-0.012 0.75866,0.0187 1.516,0.0187 2.27333,0.005 1.11867,-0.0187 2.236,-0.06 3.35333,-0.112 0.66534,-0.032 1.24267,-0.0333 1.89467,-0.17733 0.732,-0.16267 1.40133,-0.08 2.13333,-0.0907 0.73734,-0.009 1.5,-0.12667 2.23867,-0.18"
         style="fill:#f289a8;fill-opacity:1;fill-rule:nonzero;stroke:none;stroke-width:0.133333" />
      <path
         id="path1526"
         d="m 556.21465,153.30667 h 13.84 c 0.35467,0 0.64134,-0.28666 0.64134,-0.64133 v -0.26533 c 0,-0.35334 -0.28667,-0.64134 -0.64134,-0.64134 h -13.84 c -0.35333,0 -0.64133,0.288 -0.64133,0.64134 v 0.26533 c 0,0.35467 0.288,0.64133 0.64133,0.64133"
         style="fill:#e6cdbb;fill-opacity:1;fill-rule:nonzero;stroke:none;stroke-width:0.133333" />
      <path
         id="path1527"
         d="m 569.12532,120.82001 c 0.42667,3.41466 0.86667,6.82933 1.18,10.264 0.312,3.44133 0.54133,6.89066 0.68533,10.34266 0.0373,0.88667 -0.0813,9.83734 0.18534,9.904 -3.43867,-0.864 -7.008,-1.16266 -10.49734,-1.94666 -0.184,-0.0413 -0.376,-0.0867 -0.512,-0.21734 -0.17066,-0.164 -0.20933,-0.416 -0.232,-0.65066 -0.084,-0.87467 -0.076,-1.75734 0.024,-2.62934 0.112,-0.96133 0.292,-2.068 -0.36,-2.78266 -0.25066,-0.27467 -0.596,-0.448 -0.84133,-0.728 -0.34267,-0.39334 -0.44,-0.93734 -0.524,-1.45334 -1.92933,-11.81733 -4.46,-23.77866 -4.15467,-35.812 0.0573,-2.26133 1.42134,-3.124 3.5,-3.504 1.56,-0.284 3.204,-0.564 4.708,-0.0547 1.344,0.45733 2.412,1.5 3.25467,2.644 1.52667,2.07333 2.32,4.384 2.52533,6.92133 0.26267,3.24667 0.65467,6.47467 1.05867,9.70267"
         style="fill:#777bb3;fill-opacity:1;fill-rule:nonzero;stroke:none;stroke-width:0.133333" />
      <path
         id="path1528"
         d="m 554.91332,101.83867 c 1.852,-2.585329 5.596,-2.921329 8.44933,-3.505329 4.74267,-0.969333 9.636,-1.653333 14.41734,-2.585333 5.08133,-0.992 10.18666,-1.914667 15.34666,-2.389334 4.04267,-0.372 8.26533,-0.464 12.14933,0.893334 1.52934,0.533333 2.96667,1.386666 4.44267,2.062666 1.524,0.696 2.97333,1.534667 3.8,3.057334 0.95067,1.749332 0.884,3.854662 0.752,5.842662 -0.0587,0.89467 -0.13067,1.80934 -0.492,2.62934 -1.31067,2.968 -6.42133,2.40933 -9.052,2.644 -3.664,0.328 -7.33466,0.58266 -11.00533,0.82133 -7.416,0.484 -14.84267,0.904 -22.22933,1.74267 -3.328,0.37866 -6.72667,0.83733 -9.996,0.11466 -3.528,-0.77866 -7.21734,-3.41466 -7.53334,-7.288 -0.14133,-1.72 0.23067,-3.03466 0.95067,-4.04"
         style="fill:#777bb3;fill-opacity:1;fill-rule:nonzero;stroke:none;stroke-width:0.133333" />
      <path
         id="path1529"
         d="m 582.07332,54.257342 c 0.29733,0.461333 0.612,0.912 0.936,1.356 l 0.228,0.350667 c 0.41333,0.694666 0.708,1.429333 1.71067,1.333333 0.52,-0.04933 0.99466,-0.310667 1.42266,-0.609333 0.88934,-0.621334 1.63467,-1.421334 2.37334,-2.218667 0.62133,-0.672 1.244,-1.344 1.86533,-2.017333 0.24933,-0.269334 0.49867,-0.538667 0.69067,-0.850667 0.46,-0.754667 0.54,-1.682667 0.48533,-2.564 -0.024,-0.358667 -0.068,-0.722667 -0.20933,-1.052 -0.344,-0.794667 -1.252,-0.718667 -1.932,-1.148 -0.82267,-0.52 -1.45467,-1.249333 -2.25334,-1.788 -1.02533,-0.689333 -2.99866,-0.818666 -3.93066,0.108 -1.22267,1.214667 -2.29467,2.897333 -2.216,4.690667 0.0227,0.536 -0.0667,0.998666 -0.13067,1.529333 l -0.003,0.008 c -0.124,1.024 0.40134,2.008 0.96267,2.872"
         style="fill:#f57e6f;fill-opacity:1;fill-rule:nonzero;stroke:none;stroke-width:0.133333" />
      <path
         id="path1530"
         d="m 582.07332,54.257342 c 0.29733,0.461333 0.612,0.912 0.936,1.356 l 0.228,0.350667 c 0.50267,-0.286667 0.87333,-0.770667 1.19467,-1.257334 0.632,-0.958666 1.14133,-1.996 1.51466,-3.08 0.26267,-0.765333 0.636,-2.012 0.19334,-2.782666 -0.4,-0.704 -1.332,-0.421334 -1.84534,-0.03867 -0.58933,0.438667 -1.132,0.932 -1.63333,1.468 -0.24133,0.258667 -0.43067,0.306667 -0.73067,0.478667 -0.15066,0.08667 -0.796,0.448 -0.81733,0.625333 l -0.003,0.008 c -0.124,1.024 0.40134,2.008 0.96267,2.872"
         style="fill:#dc5153;fill-opacity:1;fill-rule:nonzero;stroke:none;stroke-width:0.133333" />
      <path
         id="path1531"
         d="m 573.95865,42.369342 c 0.016,0.336 0.0507,0.670667 0.10534,1.002667 0.06,0.365333 0.124,0.784 0.252,1.129333 0.13866,0.369334 0.40133,0.689334 0.55466,1.053334 0.24534,0.578666 0.0107,1.338666 -0.0853,1.929333 -0.12267,0.757333 -0.24533,1.513333 -0.368,2.270666 -0.19733,1.221334 0.55733,1.170667 1.524,1.217334 0.84267,0.04267 1.11467,1.877333 1.30933,2.481333 0.22134,0.694667 0.6,1.413333 1.27467,1.690667 0.44533,0.182666 0.98667,0.153333 1.452,0.08667 1.25467,-0.182666 2.428,-0.933333 3.34533,-1.782666 1.012,-0.936 1.776,-2.289334 2.31067,-3.548 0.216,-0.509334 0.40267,-1.042667 0.73733,-1.485334 0.57734,-0.764 1.48934,-1.145333 2.28134,-1.632 0.376,-0.230666 0.82133,-0.503999 1.08,-0.871999 0.31866,-0.454667 0.40266,-1.145334 0.45466,-1.692 0.11334,-1.188 -0.012,-2.188 -0.41466,-3.309334 -0.396,-1.101333 -0.936,-2.150666 -1.608,-3.109333 -0.312,-0.448 -0.65467,-0.877333 -1.072,-1.229333 -0.48934,-0.413334 -1.068,-0.706667 -1.656,-0.964 -1.5,-0.654667 -3.14134,-1.096 -4.768,-0.904 -0.796,0.09333 -1.56934,0.337333 -2.29867,0.668 -0.944,0.429333 -1.82133,1.009333 -2.58667,1.710666 -0.552,0.504 -1.05466,1.082667 -1.36,1.765334 -0.29333,0.656 -0.39466,1.381333 -0.444,2.098666 -0.032,0.473334 -0.0427,0.949334 -0.02,1.424"
         style="fill:#f57e6f;fill-opacity:1;fill-rule:nonzero;stroke:none;stroke-width:0.133333" />
      <path
         id="path1532"
         d="m 590.97065,42.686676 0.005,-0.145334 c -0.004,-0.525333 -0.29867,-0.984 -0.50267,-1.449333 -0.25867,-0.596 -0.10933,-0.949333 -0.10933,-1.548 l -0.005,0.07067 0.007,-0.106667 c 0.0333,-0.609333 -0.34667,-1.241333 -0.71733,-1.694667 -0.86534,-1.062666 -1.51334,-2.488 -2.91334,-2.961333 -0.58133,-0.196 -1.22,-0.190667 -1.78533,-0.428 -0.276,-0.117333 -0.52533,-0.288 -0.79333,-0.424 -0.70134,-0.356 -1.53334,-0.452 -2.29867,-0.266667 -0.868,0.212 -1.63467,0.569334 -2.53333,0.664 -0.46934,0.05067 -1.00134,0.0053 -1.45467,0.14 -0.52933,0.16 -0.88933,0.636 -1.20933,1.086667 -0.348,-0.193333 -0.79734,-0.157333 -1.13867,0.044 -0.344,0.201333 -0.58667,0.548 -0.71333,0.925333 -0.0533,0.16 -0.11067,0.352 -0.27067,0.406667 l -0.284,0.0093 c -0.39867,0.008 -0.63733,0.438667 -0.79067,0.808 -0.30933,0.746667 0.003,1.784 0.828,2.070667 0.184,0.06267 0.38667,0.04667 0.57867,0.02 0.67333,-0.092 1.332,-0.293333 1.94,-0.594667 0.45067,-0.222666 0.916,-0.508 1.41467,-0.449333 0.36533,0.04267 0.67333,0.296 0.97466,0.472 0.34,0.2 0.58134,0.424 0.72267,0.806667 0.15467,0.412 0.16933,0.862666 0.23067,1.3 0.0773,0.553333 0.31466,1.145333 0.552,1.649333 0.71333,1.504 2.01733,2.58 3.58666,3.072 0.17867,0.05733 0.35734,0.106667 0.53334,0.150667 0.772,0.186666 1.568,0.449333 2.35733,0.581333 0.56133,0.09333 1.144,0.088 1.712,0.056 0.28133,-0.016 0.768,0.01067 0.968,-0.238667 0.38267,-0.192 0.54667,-0.653333 0.53733,-1.057333 -0.009,-0.350667 -0.0987,-0.698667 -0.0667,-1.046667 0.0627,-0.676 0.57466,-1.257333 0.63866,-1.922666"
         style="fill:#e6cdbb;fill-opacity:1;fill-rule:nonzero;stroke:none;stroke-width:0.133333" />
      <path
         id="path1533"
         d="m 580.98532,46.629342 -0.0173,-0.04667 c -0.496,-1.237334 0.0507,-3.852 1.832,-3.513334 0.62533,0.118667 1.14,0.621334 1.36266,1.218667 0.43334,1.158667 -0.0773,3.345333 -1.45066,3.684 -0.836,0.205333 -1.44534,-0.669334 -1.72667,-1.342667"
         style="fill:#f57e6f;fill-opacity:1;fill-rule:nonzero;stroke:none;stroke-width:0.133333" />
      <path
         id="path1534"
         d="m 575.37599,44.865342 c -0.188,-0.172 -0.23734,-0.518666 -0.0653,-0.712 0.164,-0.184 0.46267,-0.232 0.68934,-0.286666 0.47466,-0.114667 0.96933,-0.154667 1.464,-0.14 0.24,0.008 1.212,0.02 0.736,0.534666 l -0.28667,0.148 c -0.56133,0.157334 -1.164,0.162667 -1.70533,0.382667 -0.19334,0.07867 -0.388,0.185333 -0.59734,0.173333 l -0.23466,-0.1"
         style="fill:#e6cdbb;fill-opacity:1;fill-rule:nonzero;stroke:none;stroke-width:0.133333" />
      <path
         id="path1535"
         d="m 577.13732,46.146676 c -0.0533,-0.146667 -0.12667,-0.286667 -0.23467,-0.345334 l -0.26133,-0.036 c -0.26,0.03467 -0.39067,0.224 -0.38533,0.445334 0.003,0.138666 0.048,0.28 0.10133,0.408 0.1,0.242666 0.26133,0.457333 0.55067,0.458666 l 0.23066,-0.06933 0.124,-0.250667 -0.032,-0.284 -0.0933,-0.326666"
         style="fill:#3a2323;fill-opacity:1;fill-rule:nonzero;stroke:none;stroke-width:0.133333" />
      <path
         id="path1536"
         d="m 577.48665,52.285342 -0.008,-0.008 -0.20533,-0.284 c -0.15867,-0.258667 -0.128,-0.352 0.14,-0.501333 0.396,-0.224 0.78267,-0.461334 1.176,-0.694667 0.20933,-0.122667 0.62133,-0.206667 0.63333,0.141333 0.008,0.249334 -0.176,0.548 -0.32666,0.736 -0.21334,0.265334 -0.508,0.565334 -0.824,0.698667 l -0.284,0.06133 -0.30134,-0.149333"
         style="fill:#ffffff;fill-opacity:1;fill-rule:nonzero;stroke:none;stroke-width:0.133333" />
      <path
         id="path1537"
         d="m 574.11865,42.389342 c 0.164,-0.117333 0.33334,-0.185333 0.53734,-0.154666 l 0.34,0.08 c 0.132,0.01733 0.264,0.0093 0.39466,-0.0067 0.49067,-0.06 0.98267,-0.201333 1.44934,-0.361333 l 0.172,0.008 -0.004,0.088 c -0.432,0.149333 -0.87467,0.269333 -1.32534,0.350666 -0.22133,0.04 -0.448,0.07067 -0.67333,0.04667 l -0.308,-0.06267 c -0.152,-0.04133 -0.252,-0.0053 -0.37733,0.084 l -0.16667,0.01467 -0.0387,-0.08667"
         style="fill:#eb645a;fill-opacity:1;fill-rule:nonzero;stroke:none;stroke-width:0.133333" />
      <path
         id="path1538"
         d="m 574.50132,41.140009 c 0.26267,-0.122667 0.54933,-0.192 0.83867,-0.201333 l 0.14666,0.05067 -0.0867,0.072 c -0.25467,0.008 -0.49734,0.06533 -0.73067,0.174667 l -0.172,-0.008 0.004,-0.088"
         style="fill:#eb645a;fill-opacity:1;fill-rule:nonzero;stroke:none;stroke-width:0.133333" />
      <path
         id="path1539"
         d="m 577.66532,49.140009 c 0.35733,0.730666 1.352,0.622666 1.99333,0.905333 0.33867,0.149333 0.58134,0.405333 0.77867,0.712 0.24,0.372 0.44533,0.768 0.664,1.152 l -0.236,0.02267 c -0.21867,-0.384 -0.424,-0.781334 -0.664,-1.153334 -0.23467,-0.364 -0.52933,-0.612 -0.95067,-0.732 -0.636,-0.182666 -1.488,-0.201333 -1.82133,-0.885333 l 0.236,-0.02133"
         style="fill:#eb645a;fill-opacity:1;fill-rule:nonzero;stroke:none;stroke-width:0.133333" />
      <path
         id="path1540"
         d="m 575.06665,38.626676 c -0.20133,-0.01067 -0.38933,-0.152 -0.48533,-0.324 -0.11733,-0.205334 -0.11733,-0.464 -0.007,-0.673334 l -0.23466,-0.03333 c -0.128,0.242667 -0.12134,0.550667 0.0307,0.781333 0.156,0.234667 0.42134,0.358667 0.696,0.374667 l 0.12267,-0.064 -0.12267,-0.06133"
         style="fill:#ffffff;fill-opacity:1;fill-rule:nonzero;stroke:none;stroke-width:0.133333" />
      <path
         id="path1541"
         d="m 576.45732,38.360009 -0.15067,-0.044 c -0.248,0.02667 -0.52133,-0.0067 -0.71733,-0.176 -0.176,-0.152 -0.28133,-0.412 -0.19867,-0.638667 l -0.23333,-0.03333 c -0.1,0.273333 0.024,0.578667 0.24667,0.753333 0.26933,0.214667 0.636,0.249334 0.96666,0.214667 l 0.0867,-0.076"
         style="fill:#ffffff;fill-opacity:1;fill-rule:nonzero;stroke:none;stroke-width:0.133333" />
      <path
         id="path1542"
         d="m 578.56665,37.281342 -0.14933,-0.04267 c -0.25467,0.02667 -0.524,0.02 -0.75733,-0.09733 -0.2,-0.09867 -0.36934,-0.276 -0.42667,-0.497333 h -0.244 c 0.0707,0.269333 0.26933,0.476 0.51733,0.594667 0.30134,0.144 0.648,0.154666 0.97467,0.12 l 0.0853,-0.07733"
         style="fill:#ffffff;fill-opacity:1;fill-rule:nonzero;stroke:none;stroke-width:0.133333" />
      <path
         id="path1543"
         d="m 582.15599,42.324009 c -0.69067,-0.318667 -1.12534,-1.076 -1.06934,-1.832 h -0.24266 c -0.0587,0.798667 0.41466,1.584 1.14,1.92 h 0.172 v -0.088"
         style="fill:#ffffff;fill-opacity:1;fill-rule:nonzero;stroke:none;stroke-width:0.133333" />
      <path
         id="path1544"
         d="m 582.85065,41.924009 c -0.43333,-0.194667 -0.72,-0.648 -0.72,-1.122667 h -0.244 c 0,0.514667 0.324,1.001334 0.792,1.209334 h 0.172 v -0.08667"
         style="fill:#ffffff;fill-opacity:1;fill-rule:nonzero;stroke:none;stroke-width:0.133333" />
      <path
         id="path1545"
         d="m 587.21065,35.550676 c -0.524,-0.368 -1.18666,-0.508 -1.81866,-0.405334 -0.16,0.02667 -0.0507,0.138667 0.0653,0.12 1.176,-0.192 2.26667,0.654667 2.45733,1.813334 h 0.24267 c -0.1,-0.609334 -0.43867,-1.170667 -0.94667,-1.528"
         style="fill:#ffffff;fill-opacity:1;fill-rule:nonzero;stroke:none;stroke-width:0.133333" />
      <path
         id="path1546"
         d="m 586.01332,35.794676 -0.16667,0.02267 0.0427,0.084 c 0.448,0.14 0.78667,0.561334 0.85067,1.022667 h 0.24133 c -0.072,-0.528 -0.46267,-0.972 -0.968,-1.129333"
         style="fill:#ffffff;fill-opacity:1;fill-rule:nonzero;stroke:none;stroke-width:0.133333" />
      <path
         id="path1547"
         d="m 588.91065,38.664009 -0.16533,-0.02267 -0.0453,0.08533 c 0.42533,0.342666 0.66266,0.878666 0.63866,1.424 h 0.24267 c 0.0267,-0.568 -0.228,-1.130667 -0.67067,-1.486667"
         style="fill:#ffffff;fill-opacity:1;fill-rule:nonzero;stroke:none;stroke-width:0.133333" />
      <path
         id="path1548"
         d="m 583.23999,34.989342 c -0.28267,-0.490666 -0.86,-0.746666 -1.41467,-0.688 l -0.084,0.076 0.148,0.04267 c 0.44933,-0.04667 0.896,0.218667 1.116,0.602667 l 0.23467,-0.03333"
         style="fill:#ffffff;fill-opacity:1;fill-rule:nonzero;stroke:none;stroke-width:0.133333" />
      <path
         id="path1549"
         d="m 588.08399,45.918676 -0.14934,-0.04267 c -0.62133,0.105333 -1.25866,-0.088 -1.73066,-0.504 l -0.16667,-0.02267 -0.0427,0.08533 c 0.54,0.478666 1.29467,0.681333 2.00534,0.56 l 0.084,-0.076"
         style="fill:#ffffff;fill-opacity:1;fill-rule:nonzero;stroke:none;stroke-width:0.133333" />
      <path
         id="path1550"
         d="m 595.07465,48.661342 c 1.06667,0.428 2.16134,1.074667 3.092,1.698667 1.60267,1.073333 3.136,2.268 4.45067,3.678666 2.27466,2.44 3.83466,5.456 5.13333,8.528 4.724,11.158666 5.66533,23.404 6.50933,35.375999 0.036,0.502667 0.24534,2.058666 -0.296,2.345336 -0.29066,0.15333 -0.64266,0.10266 -0.96666,0.048 -9.70667,-1.732002 -19.36267,-3.685336 -29.01867,-5.852002 -0.48666,-0.109334 -0.98666,-0.224 -1.4,-0.505334 -1.256,-0.852 -1.10533,-2.586666 -0.94666,-3.897333 0.22533,-1.86 0.12266,-3.778666 0.0853,-5.670666 -0.0813,-4.065334 -0.23867,-8.128 -0.46933,-12.186667 -0.172,-3.008 -0.38134,-6.018666 -0.30667,-9.032 0.0427,-1.745333 -10e-4,-3.537333 0.604,-5.198666 0.63067,-1.733333 1.528,-3.361333 2.612,-4.850667 0.48133,-0.66 1.06533,-1.224 1.564,-1.885333 0.60667,-0.804 1.24,-1.586667 1.89733,-2.348 0.54934,-0.633333 1.11867,-1.256 1.78667,-1.764 0.70267,-0.534666 1.50933,-0.934666 2.36,-1.172 0.736,-0.202666 1.63333,-0.241333 2.148,0.322667 0.45867,0.505333 0.39067,1.218666 0.47067,1.848 l 0.0667,0.216 0.28267,0.170666 0.34133,0.130667"
         style="fill:#f289a8;fill-opacity:1;fill-rule:nonzero;stroke:none;stroke-width:0.133333" />
      <path
         id="path1551"
         d="m 571.46265,64.592008 c -0.78266,-1.358666 -1.45733,-2.776 -2.02,-4.24 -0.0507,-0.130666 -0.47066,-0.09867 -0.41066,0.05867 0.56266,1.462667 1.23866,2.881333 2.02,4.24 0.0733,0.125333 0.488,0.07733 0.41066,-0.05867"
         style="fill:#eb5881;fill-opacity:1;fill-rule:nonzero;stroke:none;stroke-width:0.133333" />
      <path
         id="path1552"
         d="m 568.92532,63.634675 c -0.51067,-0.42 -0.91733,-0.950667 -1.192,-1.553333 -0.0587,-0.129334 -0.47867,-0.09067 -0.41067,0.05867 0.28267,0.62 0.708,1.172 1.236,1.602667 l 0.29067,0.04 0.076,-0.148"
         style="fill:#eb5881;fill-opacity:1;fill-rule:nonzero;stroke:none;stroke-width:0.133333" />
      <path
         id="path1553"
         d="m 593.98799,48.505342 h -0.3 c -1.868,1.06 -3.576,2.386667 -5.06134,3.937333 -0.136,0.14 0.272,0.208 0.36667,0.109334 1.468,-1.532 3.15067,-2.846667 4.99467,-3.894667 v -0.152"
         style="fill:#eb5881;fill-opacity:1;fill-rule:nonzero;stroke:none;stroke-width:0.133333" />
      <path
         id="path1554"
         d="m 591.04932,92.390674 c -0.83733,-0.636 -1.612,-1.353333 -2.304,-2.144 -0.712,-0.809333 -1.368,-1.697333 -1.81733,-2.68 -0.06,-0.129333 -0.47867,-0.092 -0.40934,0.05733 0.452,0.988 1.112,1.876 1.824,2.692 0.70134,0.805333 1.488,1.536 2.34,2.184 l 0.28934,0.03733 0.0773,-0.146667"
         style="fill:#eb5881;fill-opacity:1;fill-rule:nonzero;stroke:none;stroke-width:0.133333" />
      <path
         id="path1555"
         d="m 605.30532,96.338674 c -0.95734,-1.597333 -1.86934,-3.221333 -2.73334,-4.872 -0.0667,-0.128 -0.48533,-0.084 -0.40933,0.05867 0.864,1.649333 1.77467,3.274667 2.732,4.870667 0.0747,0.125333 0.48933,0.076 0.41067,-0.05733"
         style="fill:#eb5881;fill-opacity:1;fill-rule:nonzero;stroke:none;stroke-width:0.133333" />
      <path
         id="path1556"
         d="m 579.04532,116.86134 h 41.06133 v -5.952 h -36.12666 c -2.72534,0 -4.93467,2.20933 -4.93467,4.93467 v 1.01733"
         style="fill:#f18349;fill-opacity:1;fill-rule:nonzero;stroke:none;stroke-width:0.133333" />
      <path
         id="path1557"
         d="m 579.04532,114.91867 h 41.06133 v -5.95466 h -36.12666 c -2.72534,0 -4.93467,2.21066 -4.93467,4.936 v 1.01866"
         style="fill:#f9a859;fill-opacity:1;fill-rule:nonzero;stroke:none;stroke-width:0.133333" />
      <path
         id="path1558"
         d="m 616.69465,153.30134 c -0.18,-25.632 -1.66533,-37.25867 -1.68,-37.376 l 2.40933,-0.316 c 0.016,0.11867 1.52,11.868 1.7,37.692 h -2.42933"
         style="fill:#f18349;fill-opacity:1;fill-rule:nonzero;stroke:none;stroke-width:0.133333" />
      <path
         id="path1559"
         d="m 580.02799,153.30134 c 0.18,-25.824 1.684,-37.57333 1.7,-37.692 l 2.40933,0.316 c -0.0147,0.11733 -1.49867,11.744 -1.68,37.376 h -2.42933"
         style="fill:#f18349;fill-opacity:1;fill-rule:nonzero;stroke:none;stroke-width:0.133333" />
      <path
         id="path1560"
         d="m 617.92265,114.18801 c 1.14533,0 2.13867,-0.84934 2.28667,-2.01467 l 1.74666,-13.637332 c 0.54667,-4.272 0.81334,-8.621334 0.792,-12.928 l -0.0907,-17.352 c -0.007,-1.270666 -1.03734,-2.297333 -2.30667,-2.297333 h -0.012 c -1.27467,0.0067 -2.304,1.046667 -2.29733,2.32 l 0.0893,17.352 c 0.0213,4.103999 -0.232,8.249333 -0.75333,12.318666 l -1.74667,13.637329 c -0.16133,1.26534 0.732,2.42134 1.99733,2.58267 l 0.29467,0.0187"
         style="fill:#f9a859;fill-opacity:1;fill-rule:nonzero;stroke:none;stroke-width:0.133333" />
      <path
         id="path1561"
         d="m 610.21865,126.11601 c -2.04,0.96533 -4.07733,1.87466 -6.06133,2.86533 -0.17067,0.0853 -0.33867,0.17067 -0.508,0.25867 -2.25467,1.148 -4.43467,2.424 -6.46933,4.03066 -1.136,0.896 -2.23867,1.83467 -3.34134,2.77467 -0.156,0.13467 -0.31333,0.268 -0.47066,0.4 -2.30667,1.96667 -4.62934,3.91067 -7.24667,5.452 -1.15067,0.67733 -2.32933,1.24 -3.53067,1.70533 -0.18133,0.0707 -0.36533,0.13867 -0.548,0.20534 -4.404,1.59066 -9.096,1.90933 -13.836,1.768 -0.20666,-0.007 -0.41333,-0.0133 -0.62,-0.0227 -0.648,-0.024 -1.29733,-0.056 -1.948,-0.0947 -3.68133,-0.21733 -7.372,-0.45866 -11.016,-1.00133 -0.46133,-0.0693 -0.92133,-0.144 -1.37866,-0.22267 -0.564,-0.0973 -1.12667,-0.204 -1.688,-0.31733 -0.25067,-0.0507 -0.52134,-0.116 -0.68,-0.31733 -0.14934,-0.19067 -0.15867,-0.45467 -0.16,-0.69734 -0.0147,-3.05333 0.0733,-6.084 0.21066,-9.10266 0.0227,-0.48 0.0453,-0.96 0.0707,-1.44 0.256,-5.02934 0.62933,-10.04 0.876,-15.096 0.15333,-3.09734 -0.0467,-6.256 0.31067,-9.34534 0.04,-0.352 0.0867,-0.704 0.144,-1.05466 0.076,-0.468 0.16533,-0.93067 0.27466,-1.39334 0.78267,-3.32 3.084,-5.4 5.82,-7.045329 0.15734,-0.09467 0.316,-0.188 0.47467,-0.278667 0.464,-0.268 0.94,-0.525333 1.42133,-0.774666 2.27467,-1.182667 4.588,-2.292 6.93334,-3.325334 0.16133,-0.07067 0.32266,-0.141333 0.48266,-0.210666 2.636,-1.150667 5.316,-2.202667 8.032,-3.16 0.16667,-0.06 0.332,-0.118667 0.5,-0.176 l 0.128,-0.044 c 1.07867,-0.374667 2.172,-0.734667 3.30534,-0.885334 2.90533,-0.384 5.812,0.642667 8.44666,1.924 2.984,1.448 5.81067,3.286667 8.288,5.506667 1.03467,0.925333 2.00534,1.917333 2.90267,2.977333 3.24666,3.827996 5.23066,8.635996 7.00133,13.270666 0.68267,1.788 1.36533,3.57733 2.04933,5.36533 0.16934,0.44534 0.32934,0.90934 0.48134,1.388 0.04,0.12267 0.0773,0.24667 0.11466,0.372 0.564,1.86267 0.98534,3.89467 1.23467,5.74134"
         style="fill:#94cdd7;fill-opacity:1;fill-rule:nonzero;stroke:none;stroke-width:0.133333" />
      <path
         id="path1562"
         d="m 608.98398,120.37467 c -0.0373,-0.12533 -0.0747,-0.24933 -0.11466,-0.372 -2.388,1.15867 -4.77734,2.328 -7.1,3.616 -0.092,-0.20933 -0.18534,-0.41866 -0.27867,-0.62666 -1.632,-3.668 -3.232,-7.35334 -4.91733,-10.99734 -1.45733,-3.15066 -3.03333,-6.26533 -4.99733,-9.132 -1.97734,-2.885329 -4.36267,-5.471996 -7.25467,-7.457329 -1.70133,-1.169333 -3.504,-2.190667 -5.276,-3.248 -0.92667,-0.552 -1.852,-1.104 -2.77867,-1.657333 -0.168,0.05733 -0.33333,0.116 -0.5,0.176 l 1.488,0.888 c 1.79734,1.072 3.61067,2.118666 5.38134,3.234666 1.56266,0.986667 3.036,2.090667 4.36933,3.373334 1.22667,1.182666 2.33333,2.484002 3.33867,3.860002 2.048,2.80133 3.67866,5.884 5.16133,9.01466 1.66933,3.52267 3.20933,7.108 4.79466,10.668 0.324,0.728 0.648,1.45467 0.97067,2.18267 -1.368,0.77333 -2.712,1.58933 -4.01733,2.472 -1.884,1.276 -3.636,2.70933 -5.31733,4.24 l -0.016,0.0133 c -1.03067,-2.92933 -2.09067,-5.84666 -3.31334,-8.70533 -1.63733,-3.82667 -3.52533,-7.55733 -5.81066,-11.04267 -1.13067,-1.72266 -2.35867,-3.38266 -3.68934,-4.956 -1.316,-1.55333 -2.736,-3.01466 -4.17333,-4.45466 -2.468,-2.472002 -5.01733,-4.893336 -7.19867,-7.628002 -0.16,0.06933 -0.32133,0.14 -0.48266,0.210666 1.828,2.269334 3.90133,4.338667 5.96666,6.389336 1.444,1.43333 2.88934,2.86666 4.25467,4.376 1.39733,1.54533 2.69467,3.17733 3.88533,4.88533 2.38134,3.416 4.348,7.10533 6.04934,10.90133 1.52666,3.41334 2.81466,6.92 4.05066,10.448 -1.45866,1.344 -2.89466,2.716 -4.428,3.98 -1.66133,1.36934 -3.44133,2.576 -5.396,3.488 -0.17866,0.0827 -0.36,0.16134 -0.54,0.24 -0.0653,-0.2 -0.12666,-0.40266 -0.19066,-0.60266 -1.32534,-4.152 -2.72267,-8.28667 -4.22667,-12.37867 -1.336,-3.632 -2.80133,-7.236 -4.69733,-10.616 -0.93067,-1.65867 -1.964,-3.26 -3.12934,-4.76267 -1.23066,-1.58666 -2.62933,-2.988 -4.06933,-4.38133 -1.504,-1.452 -2.83467,-3.02133 -3.996,-4.76 -0.67333,-1.008 -1.29467,-2.049332 -1.888,-3.106666 -0.15867,0.09067 -0.31733,0.184 -0.47467,0.278667 1.304,2.302669 2.74534,4.523999 4.56,6.462669 1.42134,1.52 3.00534,2.87066 4.36,4.45733 1.244,1.456 2.34934,3.03067 3.33867,4.668 2.00267,3.316 3.54,6.888 4.908,10.50267 1.52,4.00666 2.89867,8.06933 4.22133,12.144 0.252,0.77333 0.49734,1.548 0.744,2.32133 -1.52,0.61867 -3.096,1.088 -4.69333,1.456 -2.91867,0.67067 -5.89467,1.00933 -8.872,1.328 -0.82133,-2.71333 -1.56133,-5.44933 -2.28,-8.19467 -0.924,-3.53733 -1.94133,-7.04133 -3.508,-10.356 -1.45067,-3.06533 -3.22667,-5.96 -4.94,-8.88 -1.42133,-2.42666 -2.81333,-4.88666 -3.93333,-7.47066 -0.0573,0.35066 -0.104,0.70266 -0.144,1.05466 0.85333,1.844 1.83466,3.63334 2.84933,5.39467 1.70267,2.948 3.51067,5.83733 5.04267,8.88 0.78666,1.564 1.49066,3.16667 2.07866,4.81467 0.632,1.76533 1.15067,3.572 1.636,5.38266 0.84667,3.15467 1.66,6.31334 2.60534,9.44 -0.96534,0.10134 -1.92934,0.20534 -2.89067,0.31734 -3.048,0.36 -6.11333,0.82133 -9.05867,1.7 l -0.0693,-0.244 c -0.70933,-2.54934 -1.29067,-5.136 -2.09733,-7.66 -0.388,-1.208 -0.81867,-2.40267 -1.28267,-3.584 -0.0253,0.48 -0.048,0.96 -0.0707,1.44 0.15734,0.42666 0.30934,0.856 0.456,1.28666 0.852,2.5 1.464,5.06534 2.14134,7.616 0.11733,0.44 0.24,0.88 0.364,1.31867 -0.216,0.0693 -0.43067,0.14 -0.644,0.21333 0.45733,0.0787 0.91733,0.15334 1.37866,0.22267 l -0.08,-0.27333 c 2.59334,-0.79467 5.29067,-1.25334 7.98134,-1.596 1.31733,-0.16934 2.64,-0.31067 3.964,-0.452 0.112,0.368 0.22666,0.736 0.34266,1.10533 0.24667,0.772 0.49734,1.54267 0.756,2.312 0.20667,0.009 0.41334,0.016 0.62,0.0227 -0.12133,-0.35467 -0.23733,-0.712 -0.35466,-1.06667 -0.26667,-0.81067 -0.52,-1.62267 -0.768,-2.43867 2.616,-0.28133 5.232,-0.57866 7.816,-1.09466 1.96133,-0.39067 3.90133,-0.90934 5.76533,-1.64267 0.47067,1.488 0.928,2.97867 1.37733,4.47467 0.18267,-0.0667 0.36667,-0.13467 0.548,-0.20534 -0.452,-1.50133 -0.91066,-2.99866 -1.384,-4.49333 1.74667,-0.73867 3.38934,-1.67867 4.91867,-2.80667 1.95733,-1.44266 3.724,-3.10933 5.50933,-4.75733 0.10534,0.304 0.21067,0.60667 0.316,0.908 0.464,1.332 0.93067,2.66667 1.41734,3.992 0.15733,-0.132 0.31466,-0.26533 0.47066,-0.4 -0.26266,-0.71867 -0.52133,-1.44133 -0.77466,-2.164 -0.32267,-0.92133 -0.64667,-1.84 -0.96934,-2.76 1.328,-1.21867 2.676,-2.416 4.12534,-3.492 1.66533,-1.23467 3.416,-2.34 5.21466,-3.364 0.73733,1.65733 1.47733,3.316 2.21467,4.97467 0.16933,-0.088 0.33733,-0.17334 0.508,-0.25867 -0.74134,-1.66533 -1.48267,-3.332 -2.22534,-4.99733 2.06267,-1.156 4.18267,-2.212 6.304,-3.24534 0.24934,-0.12266 0.5,-0.244 0.748,-0.364"
         style="fill:#70a5c1;fill-opacity:1;fill-rule:nonzero;stroke:none;stroke-width:0.133333" />
      <path
         id="path1563"
         d="m 564.79999,76.649341 h -57.948 l -17.37334,10.448 h 92.69334 l -17.372,-10.448"
         style="fill:#512a2a;fill-opacity:1;fill-rule:nonzero;stroke:none;stroke-width:0.133333" />
      <path
         id="path1564"
         d="m 499.44132,155.73601 h -2.79467 V 90.620008 h 2.79467 v 65.116002"
         style="fill:#82423e;fill-opacity:1;fill-rule:nonzero;stroke:none;stroke-width:0.133333" />
      <path
         id="path1565"
         d="m 575.00532,155.73601 h -2.79467 V 90.620008 h 2.79467 v 65.116002"
         style="fill:#82423e;fill-opacity:1;fill-rule:nonzero;stroke:none;stroke-width:0.133333" />
      <path
         id="path1566"
         d="m 582.17199,91.957341 h -92.69334 v -4.86 h 92.69334 v 4.86"
         style="fill:#82423e;fill-opacity:1;fill-rule:nonzero;stroke:none;stroke-width:0.133333" />
      <path
         id="path1567"
         d="m 560.03065,78.358675 c -0.08,0.04533 -0.46266,0.358666 -0.66933,0.605333 -0.0787,0.096 -0.009,0.241333 0.11467,0.241333 h 3.47466 c 0.12534,0 0.19467,-0.145333 0.11467,-0.241333 -0.20533,-0.246667 -0.588,-0.56 -0.66933,-0.605333 l 0.312,-0.146667 c 0.36266,-0.434667 -0.156,-1.377333 -0.344,-1.785333 -0.152,-0.330667 -0.32,-0.654667 -0.48267,-0.981334 -0.13333,-0.269333 -0.25733,-0.697333 -0.584,-0.784 -0.13067,-0.03467 -0.27333,0.01333 -0.37733,0.1 -0.24534,0.208 -0.38267,0.7 -0.52934,0.990667 -0.18266,0.364 -0.364,0.729333 -0.516,1.108 -0.15466,0.384 -0.572,1.433333 0.156,1.498667"
         style="fill:#e6cdbb;fill-opacity:1;fill-rule:nonzero;stroke:none;stroke-width:0.133333" />
      <path
         id="path1568"
         d="m 562.27199,73.242675 c 0,0.596 -0.484,1.08 -1.08,1.08 -0.59734,0 -1.08134,-0.484 -1.08134,-1.08 0,-0.597333 0.484,-1.081333 1.08134,-1.081333 0.596,0 1.08,0.484 1.08,1.081333"
         style="fill:#e6cdbb;fill-opacity:1;fill-rule:nonzero;stroke:none;stroke-width:0.133333" />
      <path
         id="path1569"
         d="m 561.83465,74.660008 h -1.28666 l -0.17334,-0.173333 v -0.072 l 0.17334,-0.172 h 1.28666 l 0.17334,0.172 v 0.072 l -0.17334,0.173333"
         style="fill:#e6cdbb;fill-opacity:1;fill-rule:nonzero;stroke:none;stroke-width:0.133333" />
      <path
         id="path1570"
         d="m 561.93199,75.073341 h -1.48134 l -0.17333,-0.173333 v -0.072 l 0.17333,-0.173333 h 1.48134 l 0.17333,0.173333 v 0.072 l -0.17333,0.173333"
         style="fill:#e6cdbb;fill-opacity:1;fill-rule:nonzero;stroke:none;stroke-width:0.133333" />
      <path
         id="path1571"
         d="m 554.75865,77.014675 h -34.95066 l -7.368,6.357333 h 49.688 l -7.36934,-6.357333"
         style="fill:#f9a859;fill-opacity:1;fill-rule:nonzero;stroke:none;stroke-width:0.133333" />
      <path
         id="path1572"
         d="m 562.12799,85.976008 h -49.688 v -2.604 h 49.688 v 2.604"
         style="fill:#f18349;fill-opacity:1;fill-rule:nonzero;stroke:none;stroke-width:0.133333" />
      <path
         id="path1573"
         d="m 537.40932,80.024008 h 4.70933 l 0.62934,2.172 h -5.33867 z m 13.50933,-1.610667 h 4.144 l 1.58667,1.368 h -4.54 z m -9.01466,0 h 4.22533 l 0.792,1.368 h -4.62 z m -8.98134,0 h 4.24267 v 1.368 h -4.63867 z m -5.55066,1.368 h -4.58534 l 1.18934,-1.368 h 4.18933 z m 22.42533,-2.288 0.588,0.676 h -4.11733 l -0.392,-0.676 z m -8.41333,0 0.196,0.676 h -4.17067 v -0.676 z m -8.44667,0 -0.196,0.676 h -4.15467 l 0.39334,-0.676 z m -12.35867,0 h 3.876 l -0.58933,0.676 h -4.07067 z m -5.45466,4.702667 2.51866,-2.172 h 4.60934 l -1.88934,2.172 z m 11.128,0 1.26,-2.172 h 4.69066 l -0.62933,2.172 z m 22.35066,0 -1.25866,-2.172 h 4.65466 l 1.89067,2.172 z m 11.276,0.185333 0.012,-0.02133 0.005,-0.02667 0.004,-0.016 -10e-4,-0.004 -0.005,-0.02667 -0.005,-0.02 -0.012,-0.01733 -0.016,-0.02133 -0.003,-0.0027 -5.736,-4.946666 -0.016,-0.008 -0.0213,-0.012 -0.0253,-0.0053 -0.0173,-0.004 h -33.508 l -0.016,0.004 -0.0267,0.0053 -0.0213,0.012 -0.0147,0.008 -5.73733,4.946666 -0.003,0.0027 -0.016,0.02133 -0.0107,0.01733 -0.007,0.02 -0.005,0.02667 v 0.004 l 0.003,0.016 0.005,0.02667 0.012,0.02133 0.008,0.01467 0.004,0.0027 0.032,0.02267 0.009,0.0067 0.048,0.01067 h 16.86667 11.24533 10e-4 16.86667 l 0.0493,-0.01067 0.009,-0.0067 0.0307,-0.02267 0.003,-0.0027 0.009,-0.01467"
         style="fill:#f18349;fill-opacity:1;fill-rule:nonzero;stroke:none;stroke-width:0.133333" />
      <path
         id="path1574"
         d="m 522.58532,80.424008 c -0.10133,0.05733 -0.576,0.446667 -0.83467,0.753333 -0.0987,0.12 -0.0107,0.301334 0.144,0.301334 h 4.32934 c 0.156,0 0.244,-0.181334 0.14266,-0.301334 -0.256,-0.306666 -0.732,-0.696 -0.83333,-0.753333 1.51067,-0.137333 -0.764,-3.621333 -0.91867,-4.261333 -0.25333,-1.046667 -0.005,-2.204 0.65467,-3.056 0.12267,-0.157333 0.212,-0.252 0.16533,-0.422667 l -0.0133,-0.04267 c -0.0627,-0.168 -0.24933,-0.344 -0.37333,-0.472 -0.268,-0.28 -0.58934,-0.508 -0.944,-0.669334 l -0.0213,-0.008 v -0.01867 l -0.0227,0.0093 -0.024,-0.0093 v 0.01867 l -0.0213,0.008 c -0.35333,0.161334 -0.67466,0.389334 -0.944,0.669334 -0.12266,0.128 -0.31066,0.304 -0.37333,0.472 l -0.0133,0.04267 c -0.0453,0.170667 0.0427,0.265334 0.16666,0.422667 0.66,0.852 0.90667,2.009333 0.65334,3.056 -0.15467,0.64 -2.42934,4.124 -0.91867,4.261333"
         style="fill:#e6cdbb;fill-opacity:1;fill-rule:nonzero;stroke:none;stroke-width:0.133333" />
      <path
         id="path1575"
         d="m 525.42665,72.658675 -0.005,-0.01733 c -0.0627,-0.168 -0.24933,-0.344 -0.37333,-0.472 -0.268,-0.28 -0.58934,-0.508 -0.944,-0.669334 l -0.0213,-0.008 v -0.01867 l -0.0227,0.0093 -0.024,-0.0093 v 0.01867 l -0.0213,0.008 c -0.35333,0.161334 -0.67466,0.389334 -0.944,0.669334 -0.12266,0.128 -0.31066,0.304 -0.37333,0.472 l -0.004,0.01733 h 2.73333"
         style="fill:#c1a898;fill-opacity:1;fill-rule:nonzero;stroke:none;stroke-width:0.133333" />
      <path
         id="path1576"
         d="m 524.05999,70.716008 h 0.456 l 0.0373,0.109334 -0.17733,0.138666 -0.27867,0.218667 h -0.0747 l -0.27866,-0.218667 -0.17734,-0.138666 0.0373,-0.109334 h 0.456"
         style="fill:#e6cdbb;fill-opacity:1;fill-rule:nonzero;stroke:none;stroke-width:0.133333" />
      <path
         id="path1577"
         d="m 524.05999,71.708008 h 0.456 l 0.0373,-0.109333 -0.17733,-0.138667 -0.27867,-0.218666 h -0.0747 l -0.27866,0.218666 -0.17734,0.138667 0.0373,0.109333 h 0.456"
         style="fill:#e6cdbb;fill-opacity:1;fill-rule:nonzero;stroke:none;stroke-width:0.133333" />
      <path
         id="path1578"
         d="m 524.63465,71.394675 h -1.14933 v -0.313333 h 1.14933 v 0.313333"
         style="fill:#e6cdbb;fill-opacity:1;fill-rule:nonzero;stroke:none;stroke-width:0.133333" />
      <path
         id="path1579"
         d="m 524.37199,70.402675 c 0,0.173333 -0.13867,0.313333 -0.312,0.313333 -0.17334,0 -0.31334,-0.14 -0.31334,-0.313333 0,-0.173333 0.14,-0.312 0.31334,-0.312 0.17333,0 0.312,0.138667 0.312,0.312"
         style="fill:#e6cdbb;fill-opacity:1;fill-rule:nonzero;stroke:none;stroke-width:0.133333" />
      <path
         id="path1580"
         d="m 524.94665,74.437341 h -1.77333 l -0.17867,-0.177333 v -0.07333 l 0.17867,-0.177334 h 1.77333 l 0.17734,0.177334 v 0.07333 l -0.17734,0.177333"
         style="fill:#c1a898;fill-opacity:1;fill-rule:nonzero;stroke:none;stroke-width:0.133333" />
      <path
         id="path1581"
         d="m 525.05199,74.009341 h -2.02934 l -0.17733,-0.177333 v -0.07333 l 0.17733,-0.177334 h 2.02934 l 0.17733,0.177334 v 0.07333 l -0.17733,0.177333"
         style="fill:#c1a898;fill-opacity:1;fill-rule:nonzero;stroke:none;stroke-width:0.133333" />
      <path
         id="path1582"
         d="m 525.90265,79.116008 h -3.64666 l -0.17734,-0.177333 v -0.07333 l 0.17734,-0.177333 h 3.64666 l 0.17867,0.177333 v 0.07333 l -0.17867,0.177333"
         style="fill:#c1a898;fill-opacity:1;fill-rule:nonzero;stroke:none;stroke-width:0.133333" />
      <path
         id="path1583"
         d="m 525.17732,80.420008 h -2.31867 l -0.21466,0.108 0.21466,0.109333 h 2.31867 l 0.212,-0.109333 -0.212,-0.108"
         style="fill:#c1a898;fill-opacity:1;fill-rule:nonzero;stroke:none;stroke-width:0.133333" />
      <path
         id="path1584"
         d="m 539.83599,80.369341 c -0.084,0.04533 -0.47467,0.366667 -0.68667,0.618667 -0.0813,0.09733 -0.0107,0.246667 0.11733,0.246667 h 3.56 c 0.128,0 0.2,-0.149334 0.11734,-0.246667 -0.21067,-0.252 -0.60267,-0.573333 -0.68534,-0.618667 0.12134,-0.012 0.24,-0.05467 0.32134,-0.150666 0.36933,-0.445334 -0.16134,-1.412 -0.35334,-1.829334 -0.156,-0.34 -0.328,-0.670666 -0.49466,-1.005333 -0.13867,-0.277333 -0.264,-0.716 -0.59867,-0.804 -0.13467,-0.036 -0.28,0.01333 -0.38533,0.102667 -0.25334,0.212 -0.39334,0.716 -0.544,1.016 -0.18667,0.372 -0.37334,0.746666 -0.52934,1.133333 -0.15733,0.394667 -0.58533,1.468 0.16134,1.537333"
         style="fill:#e6cdbb;fill-opacity:1;fill-rule:nonzero;stroke:none;stroke-width:0.133333" />
      <path
         id="path1585"
         d="m 542.13199,75.126675 c 0,0.610666 -0.496,1.106666 -1.10667,1.106666 -0.612,0 -1.108,-0.496 -1.108,-1.106666 0,-0.612 0.496,-1.108 1.108,-1.108 0.61067,0 1.10667,0.496 1.10667,1.108"
         style="fill:#e6cdbb;fill-opacity:1;fill-rule:nonzero;stroke:none;stroke-width:0.133333" />
      <path
         id="path1586"
         d="m 541.68399,76.578675 h -1.31867 l -0.176,-0.177334 v -0.07333 l 0.176,-0.177333 h 1.31867 l 0.17733,0.177333 v 0.07333 l -0.17733,0.177334"
         style="fill:#e6cdbb;fill-opacity:1;fill-rule:nonzero;stroke:none;stroke-width:0.133333" />
      <path
         id="path1587"
         d="m 541.78399,77.002675 h -1.51867 l -0.17867,-0.178667 v -0.072 l 0.17867,-0.178667 h 1.51867 l 0.17733,0.178667 v 0.072 l -0.17733,0.178667"
         style="fill:#e6cdbb;fill-opacity:1;fill-rule:nonzero;stroke:none;stroke-width:0.133333" />
      <path
         id="path1588"
         d="m 529.26665,78.424008 c -0.0827,0.048 -0.47466,0.368 -0.68533,0.62 -0.0827,0.09867 -0.0107,0.248 0.116,0.248 h 3.56 c 0.128,0 0.2,-0.149333 0.11733,-0.248 -0.21066,-0.252 -0.60266,-0.572 -0.684,-0.62 0.12,-0.01067 0.23867,-0.05333 0.32,-0.149333 0.36934,-0.446667 -0.16,-1.412 -0.35333,-1.829334 -0.156,-0.338666 -0.32933,-0.670666 -0.49467,-1.005333 -0.13733,-0.276 -0.264,-0.716 -0.59866,-0.804 -0.13467,-0.036 -0.28,0.01333 -0.38534,0.102667 -0.25333,0.212 -0.39333,0.717333 -0.54266,1.016 -0.188,0.372 -0.37467,0.746666 -0.53067,1.133333 -0.15733,0.394667 -0.58533,1.469333 0.16133,1.536"
         style="fill:#47527d;fill-opacity:1;fill-rule:nonzero;stroke:none;stroke-width:0.133333" />
      <path
         id="path1589"
         d="m 531.56265,73.182675 c 0,0.610666 -0.496,1.106666 -1.10666,1.106666 -0.612,0 -1.10667,-0.496 -1.10667,-1.106666 0,-0.612 0.49467,-1.106667 1.10667,-1.106667 0.61066,0 1.10666,0.494667 1.10666,1.106667"
         style="fill:#47527d;fill-opacity:1;fill-rule:nonzero;stroke:none;stroke-width:0.133333" />
      <path
         id="path1590"
         d="m 531.11465,74.636008 h -1.31733 l -0.17867,-0.178667 v -0.07333 l 0.17867,-0.177333 h 1.31733 l 0.17734,0.177333 v 0.07333 l -0.17734,0.178667"
         style="fill:#47527d;fill-opacity:1;fill-rule:nonzero;stroke:none;stroke-width:0.133333" />
      <path
         id="path1591"
         d="m 531.21465,75.058675 h -1.51866 l -0.17734,-0.177334 v -0.07467 l 0.17734,-0.176 h 1.51866 l 0.17734,0.176 v 0.07467 l -0.17734,0.177334"
         style="fill:#47527d;fill-opacity:1;fill-rule:nonzero;stroke:none;stroke-width:0.133333" />
      <path
         id="path1592"
         d="m 549.17599,80.666675 c -0.1,0.05733 -0.57734,0.448 -0.83334,0.753333 -0.1,0.12 -0.0133,0.301333 0.14134,0.301333 h 4.33066 c 0.156,0 0.24267,-0.181333 0.144,-0.301333 -0.25866,-0.305333 -0.73333,-0.696 -0.83466,-0.753333 1.51066,-0.136 -0.76267,-3.621334 -0.91867,-4.261334 -0.25333,-1.046666 -0.007,-2.202666 0.65467,-3.056 0.12133,-0.155999 0.212,-0.251999 0.16666,-0.422666 l -0.0147,-0.04133 c -0.064,-0.169334 -0.25067,-0.345334 -0.37334,-0.473334 -0.26933,-0.278666 -0.59066,-0.508 -0.944,-0.668 l -0.0227,-0.0093 v -0.01867 l -0.0227,0.01067 -0.0213,-0.01067 v 0.01867 l -0.024,0.0093 c -0.35334,0.16 -0.67467,0.389334 -0.94267,0.668 -0.124,0.128 -0.30933,0.304 -0.37333,0.473334 l -0.0133,0.04133 c -0.0467,0.170667 0.0427,0.266667 0.16534,0.422666 0.66,0.853334 0.90933,2.009334 0.65466,3.056 -0.15466,0.64 -2.42933,4.125334 -0.91866,4.261334"
         style="fill:#47527d;fill-opacity:1;fill-rule:nonzero;stroke:none;stroke-width:0.133333" />
      <path
         id="path1593"
         d="m 551.53599,74.169341 h -1.77334 l -0.17733,-0.177333 v -0.07333 l 0.17733,-0.177334 h 1.77334 l 0.17866,0.177334 v 0.07333 l -0.17866,0.177333"
         style="fill:#47527d;fill-opacity:1;fill-rule:nonzero;stroke:none;stroke-width:0.133333" />
      <path
         id="path1594"
         d="m 552.49332,79.358675 h -3.64667 l -0.17733,-0.177334 v -0.07333 l 0.17733,-0.177333 h 3.64667 l 0.17733,0.177333 v 0.07333 l -0.17733,0.177334"
         style="fill:#777bb3;fill-opacity:1;fill-rule:nonzero;stroke:none;stroke-width:0.133333" />
      <path
         id="path1595"
         d="m 551.85199,80.664008 h -2.32 l -0.212,0.108 0.212,0.108 h 2.32 l 0.21333,-0.108 -0.21333,-0.108"
         style="fill:#777bb3;fill-opacity:1;fill-rule:nonzero;stroke:none;stroke-width:0.133333" />
      <path
         id="path1596"
         d="m 549.45865,73.660008 0.22667,0.112 h 1.92933 l 0.22667,-0.112 c 0.11333,-0.145333 0.22267,-0.294667 0.30667,-0.457333 0.0813,-0.16 0.156,-0.409333 0.12933,-0.588 l -0.14933,-0.137333 -0.25067,0.210666 c -0.13067,0.06133 -0.284,0.07067 -0.40267,-0.02933 l -0.27733,-0.216 -0.248,0.133333 -0.3,0.116 -0.29867,-0.116 -0.24933,-0.133333 -0.27733,0.216 c -0.11867,0.1 -0.27067,0.09067 -0.40267,0.02933 l -0.248,-0.210666 -0.14933,0.137333 c -0.028,0.178667 0.0467,0.428 0.128,0.588 0.084,0.162666 0.19333,0.312 0.30666,0.457333"
         style="fill:#777bb3;fill-opacity:1;fill-rule:nonzero;stroke:none;stroke-width:0.133333" />
      <path
         id="path1597"
         d="m 551.07599,71.440008 c 0,0.234667 -0.19067,0.425334 -0.42667,0.425334 -0.23333,0 -0.42533,-0.190667 -0.42533,-0.425334 0,-0.236 0.192,-0.426666 0.42533,-0.426666 0.236,0 0.42667,0.190666 0.42667,0.426666"
         style="fill:#47527d;fill-opacity:1;fill-rule:nonzero;stroke:none;stroke-width:0.133333" />
      <path
         id="path1598"
         d="m 507.74665,73.277342 c 0.17734,0.08133 0.35334,0.163999 0.52667,0.249333 0.69467,0.341333 1.43067,0.78 1.672,1.514666 0.0933,0.286667 0.0933,0.624 -0.0867,0.864 -0.40133,0.528 -1.43333,-0.04667 -1.92533,-0.154666 -1.08667,-0.238667 -2.17467,-0.504 -3.29067,-0.556 -0.72933,-0.03333 -1.844,0.330666 -2.47466,-0.177334 -1.02534,-0.826666 0.35466,-2.197333 1.192,-2.418666 1.46133,-0.384 2.992,0.05067 4.38666,0.678667"
         style="fill:#94cdd7;fill-opacity:1;fill-rule:nonzero;stroke:none;stroke-width:0.133333" />
      <path
         id="path1599"
         d="m 489.72532,55.145342 c 0.21067,0.2 0.412,0.421333 0.60667,0.661333 0.86533,1.062667 1.912,1.996 2.796,3.052 1.71866,2.048 3.25866,4.245333 4.59733,6.56 1.236,2.136 2.3,4.370667 3.588,6.474667 1.49733,2.442666 3.28533,4.689333 5.036,6.955999 1.13067,1.465334 2.30667,3.205334 1.44133,5.117334 -0.384,0.850666 -1.13733,1.486666 -1.95466,1.937333 -0.484,0.266667 -1.004,0.48 -1.55067,0.562667 -2.01867,0.307999 -3.95867,-1.144 -5.58133,-2.141334 -1.72,-1.058666 -3.376,-2.218666 -4.956,-3.473333 -3.164,-2.509333 -6.03067,-5.393333 -8.51067,-8.578666 -1.092,-1.402667 -2.12667,-2.896 -2.63333,-4.6 -0.432,-1.454667 -0.46,-2.996 -0.42534,-4.513334 0.036,-1.56 0.136,-3.133333 0.584,-4.627999 0.61734,-2.065334 2.308,-4.998667 4.82934,-4.508 0.88,0.170666 1.54933,0.566666 2.13333,1.121333"
         style="fill:#94cdd7;fill-opacity:1;fill-rule:nonzero;stroke:none;stroke-width:0.133333" />
      <path
         id="path1600"
         d="m 503.47732,74.925341 c -0.24533,-0.352 -0.49333,-0.704 -0.74,-1.056 l -0.18667,-0.05467 -0.10666,0.09467 c 0.248,0.352 0.49466,0.705334 0.74133,1.057334 l 0.18667,0.05467 0.10533,-0.096"
         style="fill:#777bb3;fill-opacity:1;fill-rule:nonzero;stroke:none;stroke-width:0.133333" />
      <path
         id="path1601"
         d="m 488.07732,75.774675 c -1.59333,-1.621334 -3.032,-3.386667 -4.29733,-5.273333 l -0.29334,0.04133 c 1.27467,1.9 2.72534,3.678666 4.32667,5.309333 l 0.264,-0.07733"
         style="fill:#777bb3;fill-opacity:1;fill-rule:nonzero;stroke:none;stroke-width:0.133333" />
      <path
         id="path1602"
         d="m 487.38132,54.661342 c -2.072,-0.068 -3.34,1.868 -4.20267,3.478667 -0.288,0.538666 -0.548,1.092 -0.78,1.656 l 0.29334,0.04133 c 0.37466,-0.910667 0.82133,-1.793333 1.34,-2.629333 0.48533,-0.778667 1.068,-1.541334 1.88,-2.001334 0.44933,-0.256 0.94933,-0.406666 1.46933,-0.390666 l 0.152,-0.07733 -0.152,-0.07733"
         style="fill:#777bb3;fill-opacity:1;fill-rule:nonzero;stroke:none;stroke-width:0.133333" />
      <path
         id="path1603"
         d="m 491.88532,58.662675 c -1.368,-1.216 -3.00533,-2.125333 -4.76133,-2.638666 -0.51467,-0.150667 -1.04,-0.285334 -1.57467,-0.166667 l -0.0533,0.105333 0.20666,0.028 c 0.31467,-0.07067 0.636,-0.0027 0.94,0.076 0.268,0.06933 0.532,0.149334 0.79334,0.237334 0.50933,0.172 1.00666,0.378666 1.48933,0.616 0.976,0.484 1.88267,1.096 2.69733,1.821333 l 0.26267,-0.07867"
         style="fill:#777bb3;fill-opacity:1;fill-rule:nonzero;stroke:none;stroke-width:0.133333" />
      <path
         id="path1604"
         d="m 487.34532,58.641342 c -0.59467,-0.485333 -1.21867,-0.930667 -1.87067,-1.336 h -0.21466 v 0.109333 c 0.636,0.394667 1.244,0.832 1.824,1.305334 l 0.20666,0.028 0.0547,-0.106667"
         style="fill:#777bb3;fill-opacity:1;fill-rule:nonzero;stroke:none;stroke-width:0.133333" />
      <path
         id="path1605"
         d="m 502.51599,83.213341 c -1.852,-0.364 -3.65867,-0.956 -5.36934,-1.757333 -0.48133,-0.226667 -0.95466,-0.469333 -1.42133,-0.728 -0.0867,-0.048 -0.364,0.02667 -0.21467,0.110667 1.68134,0.930666 3.47334,1.658666 5.33067,2.156 0.52667,0.141333 1.05867,0.262666 1.59333,0.368 0.144,0.028 0.28134,-0.110667 0.0813,-0.149334"
         style="fill:#777bb3;fill-opacity:1;fill-rule:nonzero;stroke:none;stroke-width:0.133333" />
      <path
         id="path1606"
         d="m 510.15732,79.202675 -0.0213,0.01867 c -0.21867,0.18 -0.608,0.261334 -0.90134,0.122667 -0.052,0.285333 -0.20533,0.550667 -0.42,0.781333 -0.14133,0.153334 -0.34933,0.277334 -0.59733,0.321334 -0.67067,0.118666 -0.98,-0.301334 -0.92933,-0.730667 -0.29334,0.317333 -0.97467,0.689333 -1.40934,0.213333 -0.152,-0.166666 -0.196,-0.369333 -0.22666,-0.564 -0.0587,-0.381333 -0.076,-0.762666 -0.052,-1.141333 -0.192,0.210667 -0.664,0.161333 -0.92534,-0.03067 -0.26133,-0.190666 -0.368,-0.466666 -0.46,-0.726666 -0.30133,-0.846667 -0.60533,-1.692 -0.908,-2.538667 -0.08,-0.228 -0.16266,-0.468 -0.0867,-0.688 0.23066,-0.666667 1.80933,-0.449333 2.48,-0.373333 1.86133,0.210666 4.004,1.076 4.65733,2.528 0.31333,0.7 0.30933,1.446666 0.14,2.149333 -0.056,0.237333 -0.13733,0.48 -0.34,0.658667"
         style="fill:#f57e6f;fill-opacity:1;fill-rule:nonzero;stroke:none;stroke-width:0.133333" />
      <path
         id="path1607"
         d="m 505.40399,75.202675 -0.29467,-0.008 c 0.644,0.896 0.532,1.9 0.41333,2.838666 l 0.30134,0.03867 c 0.12,-0.948 0.23066,-1.966667 -0.42,-2.869333"
         style="fill:#dc5153;fill-opacity:1;fill-rule:nonzero;stroke:none;stroke-width:0.133333" />
      <path
         id="path1608"
         d="m 507.74932,76.153341 -0.296,-0.0067 c 0.36933,1.137333 0.0747,2.277333 -0.216,3.368 l 0.30133,0.03867 c 0.29334,-1.104 0.58267,-2.250666 0.21067,-3.4"
         style="fill:#dc5153;fill-opacity:1;fill-rule:nonzero;stroke:none;stroke-width:0.133333" />
      <path
         id="path1609"
         d="m 509.18799,76.188008 -0.29467,-0.0053 c 0.58133,0.933333 0.41733,1.945333 0.20133,2.888 l 0.30134,0.03867 c 0.21866,-0.952 0.37866,-1.978666 -0.208,-2.921333"
         style="fill:#dc5153;fill-opacity:1;fill-rule:nonzero;stroke:none;stroke-width:0.133333" />
      <path
         id="path1610"
         d="m 581.31999,60.048008 c -1.188,1.792 -2.12267,3.738667 -3.05334,5.676 -1.95333,4.073334 -3.90666,8.145333 -5.86,12.216 -0.536,1.114667 -1.076,2.248 -1.296,3.465333 -0.21866,1.217334 -0.0827,2.550667 0.644,3.552 0.596,0.82 1.552,1.349334 2.556,1.492 2.42267,0.344 4.60134,-1.408 6.34267,-3.126666 3.70667,-3.652 7.04267,-7.684 9.88,-12.044 1.06133,-1.633333 2.06533,-3.338667 2.56,-5.221333 0.472,-1.792 0.464,-3.672 0.38,-5.524 -0.0787,-1.765333 -0.25067,-3.608 -1.196,-5.102667 -3.37867,-5.342666 -9.00667,1.676 -10.95733,4.617333"
         style="fill:#f289a8;fill-opacity:1;fill-rule:nonzero;stroke:none;stroke-width:0.133333" />
      <path
         id="path1611"
         d="m 569.15465,76.089341 c -0.24266,-0.03333 -0.484,-0.04933 -0.72266,-0.04533 -1.64,0.03067 -3.12667,1.802667 -3.052,3.437333 0.032,0.688 0.29466,1.346667 0.62266,1.954667 1.44134,2.669333 6.00934,6.170666 9.25867,5.14 1.552,-0.490667 2.36667,-2.257333 2.43333,-3.884 0.0227,-0.522667 -0.0133,-1.053333 -0.188,-1.545333 -0.46933,-1.321334 -1.804,-2.094667 -3.03866,-2.758667 -1.51867,-0.813333 -3.47867,-2.046667 -5.31334,-2.298667"
         style="fill:#f289a8;fill-opacity:1;fill-rule:nonzero;stroke:none;stroke-width:0.133333" />
      <path
         id="path1612"
         d="m 592.20265,68.477342 c -1.212,1.865333 -2.424,3.732 -3.692,5.559999 -1.268,1.832 -2.592,3.628 -4.02,5.337334 -0.80133,0.961333 -1.63733,1.894666 -2.512,2.792 -0.13466,0.14 0.272,0.208 0.368,0.109333 1.556,-1.597333 2.98934,-3.312 4.33734,-5.086667 1.35066,-1.778666 2.61733,-3.618666 3.85066,-5.479999 0.7,-1.053334 1.388,-2.113334 2.07734,-3.173334 0.0827,-0.126666 -0.32934,-0.182666 -0.40934,-0.05867"
         style="fill:#eb5881;fill-opacity:1;fill-rule:nonzero;stroke:none;stroke-width:0.133333" />
      <path
         id="path1613"
         d="m 593.28665,54.440009 c -1.46933,-1.170667 -3.52533,-1.353334 -5.28133,-0.810667 -1.89867,0.586667 -3.44533,1.925333 -4.69067,3.433333 -0.76533,0.928 -1.436,1.928 -2.10533,2.925334 -0.0813,0.123999 0.328,0.181333 0.41067,0.05867 1.096,-1.637333 2.212,-3.304 3.72666,-4.589333 1.36267,-1.156 3.06934,-1.996 4.89334,-1.896 0.96666,0.05333 1.91866,0.381333 2.67866,0.988 l 0.292,0.03867 0.076,-0.148"
         style="fill:#eb5881;fill-opacity:1;fill-rule:nonzero;stroke:none;stroke-width:0.133333" />
      <path
         id="path1614"
         d="m 572.13465,77.766675 c -0.75733,1.456 -1.56133,3.069333 -1.208,4.758666 0.0333,0.156 0.45334,0.132 0.42667,0 -0.352,-1.674666 0.44133,-3.257333 1.18933,-4.701333 0.0747,-0.141333 -0.34266,-0.188 -0.408,-0.05733"
         style="fill:#eb5881;fill-opacity:1;fill-rule:nonzero;stroke:none;stroke-width:0.133333" />
      <path
         id="path1615"
         d="m 582.25199,55.282675 c -0.68267,1.265334 -1.176,2.605334 -1.52534,3.998667 -0.17866,0.709333 -0.38,1.393333 -0.70533,2.052 -0.33333,0.674666 -0.70667,1.333333 -1.06267,1.996 l -1.236,2.301333 c -0.076,0.138667 0.34,0.186667 0.41067,0.05733 0.724,-1.348 1.464,-2.688 2.17067,-4.045333 0.32933,-0.636 0.57066,-1.284 0.75066,-1.976 0.184,-0.710666 0.36267,-1.414666 0.612,-2.105333 0.276,-0.764 0.61067,-1.506667 0.996,-2.22 0.076,-0.138667 -0.34,-0.186667 -0.41066,-0.05867"
         style="fill:#eb5881;fill-opacity:1;fill-rule:nonzero;stroke:none;stroke-width:0.133333" />
    </g>
  </g>
</svg>
