<?xml version="1.0" encoding="UTF-8" standalone="no"?>
<!-- Created with Inkscape (http://www.inkscape.org/) -->

<svg
   version="1.1"
   id="svg1"
   width="93.166504"
   height="112.28691"
   viewBox="0 0 93.166504 112.28691"
   xmlns="http://www.w3.org/2000/svg"
   xmlns:svg="http://www.w3.org/2000/svg">
  <defs
     id="defs1" />
  <g
     id="g1"
     transform="translate(-668.47266,-40.590389)">
    <g
       id="g2301">
      <path
         id="path1319"
         d="m 682.88265,150.49867 h -3.284 v -17.44 h 3.284 v 17.44"
         style="fill:#82423e;fill-opacity:1;fill-rule:nonzero;stroke:none;stroke-width:0.133333" />
      <path
         id="path1320"
         d="m 703.71998,150.49867 h -3.284 v -17.44 h 3.284 v 17.44"
         style="fill:#82423e;fill-opacity:1;fill-rule:nonzero;stroke:none;stroke-width:0.133333" />
      <path
         id="path1321"
         d="m 725.80398,150.49867 h -3.284 v -17.44 h 3.284 v 17.44"
         style="fill:#82423e;fill-opacity:1;fill-rule:nonzero;stroke:none;stroke-width:0.133333" />
      <path
         id="path1322"
         d="m 746.64131,150.49867 h -3.284 v -17.44 h 3.284 v 17.44"
         style="fill:#82423e;fill-opacity:1;fill-rule:nonzero;stroke:none;stroke-width:0.133333" />
      <path
         id="path1323"
         d="m 753.54931,115.61867 v 21.29067 h -75.08266 l -0.56667,-7.81467 -0.46133,-6.388 -0.10533,-1.45866 -0.67867,-9.36934 -2.80667,-38.785328 -2.06266,-28.481333 h 59.908 l 1.07866,25.119999 0.0613,1.436 0.71866,16.745333 0.12133,2.810667 0.0227,0.524 1.04667,24.370662 h 18.80666"
         style="fill:#777bb3;fill-opacity:1;fill-rule:nonzero;stroke:none;stroke-width:0.133333" />
      <path
         id="path1324"
         d="m 675.40932,42.822676 c -2.06534,-0.309334 -4.28534,0.504 -5.66534,2.213333 -1.79333,2.221333 -1.34533,5.417333 -0.72933,7.988 1.05867,4.424 2.11733,8.846666 3.17733,13.270666 1.35467,5.66 2.712,11.326666 4.45734,16.882666 0.872,2.770667 1.83733,5.513333 2.94533,8.2 0.688,1.666667 1.40133,4.709333 3.836,3.937333 1.524,-0.484 2.17733,-2.249333 2.53467,-3.808 2.412,-10.533333 0.744,-21.571999 -1.852,-32.061332 -0.95867,-3.869333 -2.05334,-7.764 -3.52934,-11.470667 -0.52666,-1.317333 -1.12666,-2.649333 -2.14,-3.645333 -0.86266,-0.849333 -1.92666,-1.34 -3.03466,-1.506666"
         style="fill:#777bb3;fill-opacity:1;fill-rule:nonzero;stroke:none;stroke-width:0.133333" />
      <path
         id="path1325"
         d="m 731.57465,43.148009 c -1.952,-0.742667 -4.29467,-0.421333 -6.00667,0.953333 -2.22666,1.789334 -2.47066,5.008 -2.41733,7.648 0.092,4.548 0.184,9.096 0.27467,13.644 0.11733,5.818666 0.236,11.645333 0.75733,17.445333 0.26,2.893333 0.62133,5.778666 1.12933,8.638666 0.31734,1.776 0.36667,4.901333 2.90934,4.665333 2.85866,-0.264 3.86933,-3.853333 4.62133,-6.034666 1.06933,-3.098667 1.87733,-6.282667 2.46,-9.508 1.15066,-6.378667 1.412,-12.886666 1.23066,-19.357333 -0.11066,-3.984 -0.34933,-8.021333 -1.004,-11.958666 -0.23066,-1.4 -0.53466,-2.829333 -1.31066,-4.017333 -0.66267,-1.014667 -1.59733,-1.72 -2.644,-2.118667"
         style="fill:#777bb3;fill-opacity:1;fill-rule:nonzero;stroke:none;stroke-width:0.133333" />
      <path
         id="path1326"
         d="M 751.73731,129.09467 H 724.67198 V 96.140008 h 2.99334 c 13.29466,0 24.07199,10.777332 24.07199,24.072002 v 8.88266"
         style="fill:#777bb3;fill-opacity:1;fill-rule:nonzero;stroke:none;stroke-width:0.133333" />
      <path
         id="path1327"
         d="m 671.80798,49.276009 c -0.19866,-0.201334 -0.552,-0.226667 -0.808,-0.14 -0.21733,0.072 -0.416,0.229333 -0.504,0.445333 -0.0853,0.212 -0.0533,0.450667 0.0787,0.637333 0.152,0.216 0.39333,0.337334 0.656,0.352 0.28667,0.01467 0.56933,-0.104 0.67733,-0.382666 l 0.012,-0.03733 0.0733,-0.188 c 0.0533,-0.234666 -0.0147,-0.513333 -0.18534,-0.686666"
         style="fill:#47527d;fill-opacity:1;fill-rule:nonzero;stroke:none;stroke-width:0.133333" />
      <path
         id="path1328"
         d="m 684.15198,49.276009 c -0.19866,-0.201334 -0.552,-0.226667 -0.808,-0.14 -0.21733,0.072 -0.416,0.229333 -0.50266,0.445333 -0.0867,0.212 -0.0547,0.450667 0.076,0.637333 0.15333,0.216 0.39333,0.337334 0.65733,0.352 0.28667,0.01467 0.568,-0.104 0.67733,-0.382666 l 0.012,-0.03733 0.0733,-0.188 c 0.0533,-0.234666 -0.0147,-0.513333 -0.18534,-0.686666"
         style="fill:#47527d;fill-opacity:1;fill-rule:nonzero;stroke:none;stroke-width:0.133333" />
      <path
         id="path1329"
         d="m 696.49598,49.276009 c -0.19866,-0.201334 -0.55066,-0.226667 -0.808,-0.14 -0.21733,0.072 -0.416,0.229333 -0.50266,0.445333 -0.0867,0.212 -0.0547,0.450667 0.076,0.637333 0.15466,0.216 0.39466,0.337334 0.656,0.352 0.28666,0.01467 0.56933,-0.104 0.67866,-0.382666 l 0.012,-0.03733 0.0747,-0.188 c 0.052,-0.234666 -0.0147,-0.513333 -0.18667,-0.686666"
         style="fill:#47527d;fill-opacity:1;fill-rule:nonzero;stroke:none;stroke-width:0.133333" />
      <path
         id="path1330"
         d="m 708.83998,49.276009 c -0.2,-0.201334 -0.55066,-0.226667 -0.80933,-0.14 -0.21733,0.072 -0.41467,0.229333 -0.50267,0.445333 -0.0853,0.212 -0.0547,0.450667 0.0773,0.637333 0.15333,0.216 0.39466,0.337334 0.656,0.352 0.28666,0.01467 0.57066,-0.104 0.67866,-0.382666 l 0.012,-0.03733 0.0747,-0.188 c 0.052,-0.234666 -0.0147,-0.513333 -0.18667,-0.686666"
         style="fill:#47527d;fill-opacity:1;fill-rule:nonzero;stroke:none;stroke-width:0.133333" />
      <path
         id="path1331"
         d="m 721.18398,49.276009 c -0.2,-0.201334 -0.55066,-0.226667 -0.80933,-0.14 -0.21733,0.072 -0.41467,0.229333 -0.50267,0.445333 -0.0853,0.212 -0.0547,0.450667 0.0787,0.637333 0.152,0.216 0.39333,0.337334 0.65467,0.352 0.28666,0.01467 0.57066,-0.104 0.67866,-0.382666 l 0.012,-0.03733 0.0733,-0.188 c 0.052,-0.234666 -0.0133,-0.513333 -0.18534,-0.686666"
         style="fill:#47527d;fill-opacity:1;fill-rule:nonzero;stroke:none;stroke-width:0.133333" />
      <path
         id="path1332"
         d="m 733.52798,49.276009 c -0.2,-0.201334 -0.552,-0.226667 -0.808,-0.14 -0.21866,0.072 -0.41466,0.229333 -0.504,0.445333 -0.0853,0.212 -0.0533,0.450667 0.0787,0.637333 0.152,0.216 0.39333,0.337334 0.656,0.352 0.28533,0.01467 0.56933,-0.104 0.67733,-0.382666 l 0.012,-0.03733 0.0733,-0.188 c 0.0533,-0.234666 -0.0147,-0.513333 -0.18533,-0.686666"
         style="fill:#47527d;fill-opacity:1;fill-rule:nonzero;stroke:none;stroke-width:0.133333" />
      <path
         id="path1333"
         d="m 678.03598,59.581342 c -0.19866,-0.201333 -0.55066,-0.226667 -0.808,-0.14 -0.21733,0.072 -0.416,0.229333 -0.50266,0.445333 -0.0867,0.212 -0.0547,0.452 0.0773,0.637333 0.15333,0.216 0.39333,0.337334 0.656,0.352 0.28667,0.016 0.56933,-0.104 0.67867,-0.382666 l 0.0107,-0.03733 0.0747,-0.188 c 0.052,-0.234666 -0.0147,-0.513333 -0.18667,-0.686666"
         style="fill:#47527d;fill-opacity:1;fill-rule:nonzero;stroke:none;stroke-width:0.133333" />
      <path
         id="path1334"
         d="m 690.37998,59.581342 c -0.19866,-0.201333 -0.55066,-0.226667 -0.808,-0.14 -0.21733,0.072 -0.41466,0.229333 -0.50266,0.445333 -0.0867,0.212 -0.0547,0.452 0.0773,0.637333 0.15333,0.216 0.39333,0.337334 0.65733,0.352 0.284,0.016 0.568,-0.104 0.676,-0.382666 l 0.012,-0.03733 0.0747,-0.188 c 0.0533,-0.234666 -0.0147,-0.513333 -0.18667,-0.686666"
         style="fill:#47527d;fill-opacity:1;fill-rule:nonzero;stroke:none;stroke-width:0.133333" />
      <path
         id="path1335"
         d="m 702.72532,59.581342 c -0.2,-0.201333 -0.552,-0.226667 -0.808,-0.14 -0.22,0.072 -0.416,0.229333 -0.504,0.445333 -0.0867,0.212 -0.0533,0.452 0.0773,0.637333 0.152,0.216 0.39333,0.337334 0.656,0.352 0.28667,0.016 0.56933,-0.104 0.67733,-0.382666 l 0.0133,-0.03733 0.0733,-0.188 c 0.0533,-0.234666 -0.0147,-0.513333 -0.18533,-0.686666"
         style="fill:#47527d;fill-opacity:1;fill-rule:nonzero;stroke:none;stroke-width:0.133333" />
      <path
         id="path1336"
         d="m 715.06932,59.581342 c -0.2,-0.201333 -0.552,-0.226667 -0.80934,-0.14 -0.21733,0.072 -0.41466,0.229333 -0.504,0.445333 -0.0853,0.212 -0.0533,0.452 0.0787,0.637333 0.152,0.216 0.39333,0.337334 0.656,0.352 0.28667,0.016 0.56933,-0.104 0.67867,-0.382666 l 0.012,-0.03733 0.072,-0.188 c 0.0533,-0.234666 -0.0133,-0.513333 -0.184,-0.686666"
         style="fill:#47527d;fill-opacity:1;fill-rule:nonzero;stroke:none;stroke-width:0.133333" />
      <path
         id="path1337"
         d="m 727.41332,59.581342 c -0.2,-0.201333 -0.552,-0.226667 -0.80934,-0.14 -0.21733,0.072 -0.41466,0.229333 -0.50266,0.445333 -0.0853,0.212 -0.0547,0.452 0.0773,0.637333 0.15333,0.216 0.39467,0.337334 0.656,0.352 0.28667,0.016 0.56933,-0.104 0.67867,-0.382666 l 0.012,-0.03733 0.072,-0.188 c 0.0533,-0.234666 -0.0133,-0.513333 -0.184,-0.686666"
         style="fill:#47527d;fill-opacity:1;fill-rule:nonzero;stroke:none;stroke-width:0.133333" />
      <path
         id="path1338"
         d="m 684.15198,69.888008 c -0.19866,-0.202666 -0.552,-0.226666 -0.808,-0.141333 -0.21733,0.072 -0.416,0.229333 -0.50266,0.446667 -0.0867,0.210666 -0.0547,0.449333 0.076,0.637333 0.15333,0.216 0.39333,0.336 0.65733,0.350667 0.28667,0.016 0.568,-0.104 0.67733,-0.384 l 0.012,-0.036 0.0733,-0.186667 c 0.0533,-0.236 -0.0147,-0.514667 -0.18534,-0.686667"
         style="fill:#47527d;fill-opacity:1;fill-rule:nonzero;stroke:none;stroke-width:0.133333" />
      <path
         id="path1339"
         d="m 696.49598,69.888008 c -0.19866,-0.202666 -0.55066,-0.226666 -0.808,-0.141333 -0.21733,0.072 -0.416,0.229333 -0.50266,0.446667 -0.0867,0.210666 -0.0547,0.449333 0.076,0.637333 0.15466,0.216 0.39466,0.336 0.656,0.350667 0.28666,0.016 0.56933,-0.104 0.67866,-0.384 l 0.012,-0.036 0.0747,-0.186667 c 0.052,-0.236 -0.0147,-0.514667 -0.18667,-0.686667"
         style="fill:#47527d;fill-opacity:1;fill-rule:nonzero;stroke:none;stroke-width:0.133333" />
      <path
         id="path1340"
         d="m 708.83998,69.888008 c -0.2,-0.202666 -0.55066,-0.226666 -0.80933,-0.141333 -0.21733,0.072 -0.41467,0.229333 -0.50267,0.446667 -0.0853,0.210666 -0.0547,0.449333 0.0773,0.637333 0.15333,0.216 0.39466,0.336 0.656,0.350667 0.28666,0.016 0.57066,-0.104 0.67866,-0.384 l 0.012,-0.036 0.0747,-0.186667 c 0.052,-0.236 -0.0147,-0.514667 -0.18667,-0.686667"
         style="fill:#47527d;fill-opacity:1;fill-rule:nonzero;stroke:none;stroke-width:0.133333" />
      <path
         id="path1341"
         d="m 721.18398,69.888008 c -0.2,-0.202666 -0.55066,-0.226666 -0.80933,-0.141333 -0.21733,0.072 -0.41467,0.229333 -0.50267,0.446667 -0.0853,0.210666 -0.0547,0.449333 0.0787,0.637333 0.152,0.216 0.39333,0.336 0.65467,0.350667 0.28666,0.016 0.57066,-0.104 0.67866,-0.384 l 0.012,-0.036 0.0733,-0.186667 c 0.052,-0.236 -0.0133,-0.514667 -0.18534,-0.686667"
         style="fill:#47527d;fill-opacity:1;fill-rule:nonzero;stroke:none;stroke-width:0.133333" />
      <path
         id="path1342"
         d="m 733.52798,69.888008 c -0.2,-0.202666 -0.552,-0.226666 -0.808,-0.141333 -0.21866,0.072 -0.41466,0.229333 -0.504,0.446667 -0.0853,0.210666 -0.0533,0.449333 0.0787,0.637333 0.152,0.216 0.39333,0.336 0.656,0.350667 0.28533,0.016 0.56933,-0.104 0.67733,-0.384 l 0.012,-0.036 0.0733,-0.186667 c 0.0533,-0.236 -0.0147,-0.514667 -0.18533,-0.686667"
         style="fill:#47527d;fill-opacity:1;fill-rule:nonzero;stroke:none;stroke-width:0.133333" />
      <path
         id="path1343"
         d="m 678.03598,80.193341 c -0.19866,-0.201333 -0.55066,-0.226666 -0.808,-0.141333 -0.21733,0.072 -0.416,0.229333 -0.50266,0.445333 -0.0867,0.212 -0.0547,0.452 0.0773,0.638667 0.15333,0.216 0.39333,0.336 0.656,0.350667 0.28667,0.016 0.56933,-0.104 0.67867,-0.382667 l 0.0107,-0.03733 0.0747,-0.186667 c 0.052,-0.236 -0.0147,-0.514667 -0.18667,-0.686667"
         style="fill:#47527d;fill-opacity:1;fill-rule:nonzero;stroke:none;stroke-width:0.133333" />
      <path
         id="path1344"
         d="m 690.37998,80.193341 c -0.19866,-0.201333 -0.55066,-0.226666 -0.808,-0.141333 -0.21733,0.072 -0.41466,0.229333 -0.50266,0.445333 -0.0867,0.212 -0.0547,0.452 0.0773,0.638667 0.15333,0.216 0.39333,0.336 0.65733,0.350667 0.284,0.016 0.568,-0.104 0.676,-0.382667 l 0.012,-0.03733 0.0747,-0.186667 c 0.0533,-0.236 -0.0147,-0.514667 -0.18667,-0.686667"
         style="fill:#47527d;fill-opacity:1;fill-rule:nonzero;stroke:none;stroke-width:0.133333" />
      <path
         id="path1345"
         d="m 702.72532,80.193341 c -0.2,-0.201333 -0.552,-0.226666 -0.808,-0.141333 -0.22,0.072 -0.416,0.229333 -0.504,0.445333 -0.0867,0.212 -0.0533,0.452 0.0773,0.638667 0.152,0.216 0.39333,0.336 0.656,0.350667 0.28667,0.016 0.56933,-0.104 0.67733,-0.382667 l 0.0133,-0.03733 0.0733,-0.186667 c 0.0533,-0.236 -0.0147,-0.514667 -0.18533,-0.686667"
         style="fill:#47527d;fill-opacity:1;fill-rule:nonzero;stroke:none;stroke-width:0.133333" />
      <path
         id="path1346"
         d="m 715.06932,80.193341 c -0.2,-0.201333 -0.552,-0.226666 -0.80934,-0.141333 -0.21733,0.072 -0.41466,0.229333 -0.504,0.445333 -0.0853,0.212 -0.0533,0.452 0.0787,0.638667 0.152,0.216 0.39333,0.336 0.656,0.350667 0.28667,0.016 0.56933,-0.104 0.67867,-0.382667 l 0.012,-0.03733 0.072,-0.186667 c 0.0533,-0.236 -0.0133,-0.514667 -0.184,-0.686667"
         style="fill:#47527d;fill-opacity:1;fill-rule:nonzero;stroke:none;stroke-width:0.133333" />
      <path
         id="path1347"
         d="m 727.41332,80.193341 c -0.2,-0.201333 -0.552,-0.226666 -0.80934,-0.141333 -0.21733,0.072 -0.41466,0.229333 -0.50266,0.445333 -0.0853,0.212 -0.0547,0.452 0.0773,0.638667 0.15333,0.216 0.39467,0.336 0.656,0.350667 0.28667,0.016 0.56933,-0.104 0.67867,-0.382667 l 0.012,-0.03733 0.072,-0.186667 c 0.0533,-0.236 -0.0133,-0.514667 -0.184,-0.686667"
         style="fill:#47527d;fill-opacity:1;fill-rule:nonzero;stroke:none;stroke-width:0.133333" />
      <path
         id="path1348"
         d="m 684.15198,90.497341 c -0.19866,-0.2 -0.552,-0.225333 -0.808,-0.14 -0.21733,0.07333 -0.416,0.229333 -0.50266,0.445333 -0.0867,0.212 -0.0547,0.452 0.076,0.637334 0.15333,0.217333 0.39333,0.338666 0.65733,0.352 0.28667,0.016 0.568,-0.104 0.67733,-0.382667 l 0.012,-0.03733 0.0733,-0.186667 c 0.0533,-0.236 -0.0147,-0.513333 -0.18534,-0.688"
         style="fill:#47527d;fill-opacity:1;fill-rule:nonzero;stroke:none;stroke-width:0.133333" />
      <path
         id="path1349"
         d="m 696.49598,90.497341 c -0.19866,-0.2 -0.55066,-0.225333 -0.808,-0.14 -0.21733,0.07333 -0.416,0.229333 -0.50266,0.445333 -0.0867,0.212 -0.0547,0.452 0.076,0.637334 0.15466,0.217333 0.39466,0.338666 0.656,0.352 0.28666,0.016 0.56933,-0.104 0.67866,-0.382667 l 0.012,-0.03733 0.0747,-0.186667 c 0.052,-0.236 -0.0147,-0.513333 -0.18667,-0.688"
         style="fill:#47527d;fill-opacity:1;fill-rule:nonzero;stroke:none;stroke-width:0.133333" />
      <path
         id="path1350"
         d="m 708.83998,90.497341 c -0.2,-0.2 -0.55066,-0.225333 -0.80933,-0.14 -0.21733,0.07333 -0.41467,0.229333 -0.50267,0.445333 -0.0853,0.212 -0.0547,0.452 0.0773,0.637334 0.15333,0.217333 0.39466,0.338666 0.656,0.352 0.28666,0.016 0.57066,-0.104 0.67866,-0.382667 l 0.012,-0.03733 0.0747,-0.186667 c 0.052,-0.236 -0.0147,-0.513333 -0.18667,-0.688"
         style="fill:#47527d;fill-opacity:1;fill-rule:nonzero;stroke:none;stroke-width:0.133333" />
      <path
         id="path1351"
         d="m 721.18398,90.497341 c -0.2,-0.2 -0.55066,-0.225333 -0.80933,-0.14 -0.21733,0.07333 -0.41467,0.229333 -0.50267,0.445333 -0.0853,0.212 -0.0547,0.452 0.0787,0.637334 0.152,0.217333 0.39333,0.338666 0.65467,0.352 0.28666,0.016 0.57066,-0.104 0.67866,-0.382667 l 0.012,-0.03733 0.0733,-0.186667 c 0.052,-0.236 -0.0133,-0.513333 -0.18534,-0.688"
         style="fill:#47527d;fill-opacity:1;fill-rule:nonzero;stroke:none;stroke-width:0.133333" />
      <path
         id="path1352"
         d="m 733.52798,90.497341 c -0.2,-0.2 -0.552,-0.225333 -0.808,-0.14 -0.21866,0.07333 -0.41466,0.229333 -0.504,0.445333 -0.0853,0.212 -0.0533,0.452 0.0787,0.637334 0.152,0.217333 0.39333,0.338666 0.656,0.352 0.28533,0.016 0.56933,-0.104 0.67733,-0.382667 l 0.012,-0.03733 0.0733,-0.186667 c 0.0533,-0.236 -0.0147,-0.513333 -0.18533,-0.688"
         style="fill:#47527d;fill-opacity:1;fill-rule:nonzero;stroke:none;stroke-width:0.133333" />
      <path
         id="path1353"
         d="m 678.03598,100.80401 c -0.19866,-0.20134 -0.55066,-0.22667 -0.808,-0.14 -0.21733,0.072 -0.416,0.22933 -0.50266,0.44533 -0.0867,0.212 -0.0547,0.45067 0.0773,0.63733 0.15333,0.216 0.39333,0.336 0.656,0.35067 0.28667,0.0173 0.56933,-0.10267 0.67867,-0.38267 l 0.0107,-0.0373 0.0747,-0.18667 c 0.052,-0.236 -0.0147,-0.51466 -0.18667,-0.68666"
         style="fill:#47527d;fill-opacity:1;fill-rule:nonzero;stroke:none;stroke-width:0.133333" />
      <path
         id="path1354"
         d="m 690.37998,100.80401 c -0.19866,-0.20134 -0.55066,-0.22667 -0.808,-0.14 -0.21733,0.072 -0.41466,0.22933 -0.50266,0.44533 -0.0867,0.212 -0.0547,0.45067 0.0773,0.63733 0.15333,0.216 0.39333,0.336 0.65733,0.35067 0.284,0.0173 0.568,-0.10267 0.676,-0.38267 l 0.012,-0.0373 0.0747,-0.18667 c 0.0533,-0.236 -0.0147,-0.51466 -0.18667,-0.68666"
         style="fill:#47527d;fill-opacity:1;fill-rule:nonzero;stroke:none;stroke-width:0.133333" />
      <path
         id="path1355"
         d="m 702.72532,100.80401 c -0.2,-0.20134 -0.552,-0.22667 -0.808,-0.14 -0.22,0.072 -0.416,0.22933 -0.504,0.44533 -0.0867,0.212 -0.0533,0.45067 0.0773,0.63733 0.152,0.216 0.39333,0.336 0.656,0.35067 0.28667,0.0173 0.56933,-0.10267 0.67733,-0.38267 l 0.0133,-0.0373 0.0733,-0.18667 c 0.0533,-0.236 -0.0147,-0.51466 -0.18533,-0.68666"
         style="fill:#47527d;fill-opacity:1;fill-rule:nonzero;stroke:none;stroke-width:0.133333" />
      <path
         id="path1356"
         d="m 715.06932,100.80401 c -0.2,-0.20134 -0.552,-0.22667 -0.80934,-0.14 -0.21733,0.072 -0.41466,0.22933 -0.504,0.44533 -0.0853,0.212 -0.0533,0.45067 0.0787,0.63733 0.152,0.216 0.39333,0.336 0.656,0.35067 0.28667,0.0173 0.56933,-0.10267 0.67867,-0.38267 l 0.012,-0.0373 0.072,-0.18667 c 0.0533,-0.236 -0.0133,-0.51466 -0.184,-0.68666"
         style="fill:#47527d;fill-opacity:1;fill-rule:nonzero;stroke:none;stroke-width:0.133333" />
      <path
         id="path1357"
         d="m 727.41332,100.80401 c -0.2,-0.20134 -0.552,-0.22667 -0.80934,-0.14 -0.21733,0.072 -0.41466,0.22933 -0.50266,0.44533 -0.0853,0.212 -0.0547,0.45067 0.0773,0.63733 0.15333,0.216 0.39467,0.336 0.656,0.35067 0.28667,0.0173 0.56933,-0.10267 0.67867,-0.38267 l 0.012,-0.0373 0.072,-0.18667 c 0.0533,-0.236 -0.0133,-0.51466 -0.184,-0.68666"
         style="fill:#47527d;fill-opacity:1;fill-rule:nonzero;stroke:none;stroke-width:0.133333" />
      <path
         id="path1358"
         d="m 739.75598,100.80401 c -0.19867,-0.20134 -0.55067,-0.22667 -0.808,-0.14 -0.21733,0.072 -0.416,0.22933 -0.50267,0.44533 -0.0853,0.212 -0.0547,0.45067 0.0773,0.63733 0.15333,0.216 0.39466,0.336 0.656,0.35067 0.28666,0.0173 0.56933,-0.10267 0.67866,-0.38267 l 0.0107,-0.0373 0.0747,-0.18667 c 0.052,-0.236 -0.0147,-0.51466 -0.18667,-0.68666"
         style="fill:#47527d;fill-opacity:1;fill-rule:nonzero;stroke:none;stroke-width:0.133333" />
      <path
         id="path1359"
         d="m 684.15198,111.10934 c -0.19866,-0.20133 -0.552,-0.22667 -0.808,-0.14 -0.21733,0.072 -0.416,0.228 -0.50266,0.44533 -0.0867,0.212 -0.0547,0.45067 0.076,0.63734 0.15333,0.216 0.39333,0.336 0.65733,0.352 0.28667,0.0147 0.568,-0.104 0.67733,-0.384 l 0.012,-0.036 0.0733,-0.188 c 0.0533,-0.236 -0.0147,-0.51334 -0.18534,-0.68667"
         style="fill:#47527d;fill-opacity:1;fill-rule:nonzero;stroke:none;stroke-width:0.133333" />
      <path
         id="path1360"
         d="m 696.49598,111.10934 c -0.19866,-0.20133 -0.55066,-0.22667 -0.808,-0.14 -0.21733,0.072 -0.416,0.228 -0.50266,0.44533 -0.0867,0.212 -0.0547,0.45067 0.076,0.63734 0.15466,0.216 0.39466,0.336 0.656,0.352 0.28666,0.0147 0.56933,-0.104 0.67866,-0.384 l 0.012,-0.036 0.0747,-0.188 c 0.052,-0.236 -0.0147,-0.51334 -0.18667,-0.68667"
         style="fill:#47527d;fill-opacity:1;fill-rule:nonzero;stroke:none;stroke-width:0.133333" />
      <path
         id="path1361"
         d="m 708.83998,111.10934 c -0.2,-0.20133 -0.55066,-0.22667 -0.80933,-0.14 -0.21733,0.072 -0.41467,0.228 -0.50267,0.44533 -0.0853,0.212 -0.0547,0.45067 0.0773,0.63734 0.15333,0.216 0.39466,0.336 0.656,0.352 0.28666,0.0147 0.57066,-0.104 0.67866,-0.384 l 0.012,-0.036 0.0747,-0.188 c 0.052,-0.236 -0.0147,-0.51334 -0.18667,-0.68667"
         style="fill:#47527d;fill-opacity:1;fill-rule:nonzero;stroke:none;stroke-width:0.133333" />
      <path
         id="path1362"
         d="m 721.18398,111.10934 c -0.2,-0.20133 -0.55066,-0.22667 -0.80933,-0.14 -0.21733,0.072 -0.41467,0.228 -0.50267,0.44533 -0.0853,0.212 -0.0547,0.45067 0.0787,0.63734 0.152,0.216 0.39333,0.336 0.65467,0.352 0.28666,0.0147 0.57066,-0.104 0.67866,-0.384 l 0.012,-0.036 0.0733,-0.188 c 0.052,-0.236 -0.0133,-0.51334 -0.18534,-0.68667"
         style="fill:#47527d;fill-opacity:1;fill-rule:nonzero;stroke:none;stroke-width:0.133333" />
      <path
         id="path1363"
         d="m 733.52798,111.10934 c -0.2,-0.20133 -0.552,-0.22667 -0.808,-0.14 -0.21866,0.072 -0.41466,0.228 -0.504,0.44533 -0.0853,0.212 -0.0533,0.45067 0.0787,0.63734 0.152,0.216 0.39333,0.336 0.656,0.352 0.28533,0.0147 0.56933,-0.104 0.67733,-0.384 l 0.012,-0.036 0.0733,-0.188 c 0.0533,-0.236 -0.0147,-0.51334 -0.18533,-0.68667"
         style="fill:#47527d;fill-opacity:1;fill-rule:nonzero;stroke:none;stroke-width:0.133333" />
      <path
         id="path1364"
         d="m 745.87198,111.10934 c -0.2,-0.20133 -0.552,-0.22667 -0.808,-0.14 -0.21733,0.072 -0.416,0.228 -0.504,0.44533 -0.0867,0.212 -0.0533,0.45067 0.0787,0.63734 0.152,0.216 0.392,0.336 0.656,0.352 0.28666,0.0147 0.568,-0.104 0.67733,-0.384 l 0.012,-0.036 0.0733,-0.188 c 0.0533,-0.236 -0.0147,-0.51334 -0.18533,-0.68667"
         style="fill:#47527d;fill-opacity:1;fill-rule:nonzero;stroke:none;stroke-width:0.133333" />
      <path
         id="path1365"
         d="m 678.22132,122.10134 -0.0733,0.18667 -0.0107,0.0387 c -0.10934,0.27867 -0.392,0.39734 -0.67867,0.38267 l -0.02,-0.003 -0.10533,-1.45866 c 0.24133,-0.0507 0.52933,-0.008 0.704,0.16666 0.17066,0.17334 0.23733,0.452 0.184,0.68667"
         style="fill:#47527d;fill-opacity:1;fill-rule:nonzero;stroke:none;stroke-width:0.133333" />
      <path
         id="path1366"
         d="m 690.37998,121.41467 c -0.19866,-0.20133 -0.55066,-0.22666 -0.808,-0.14133 -0.21733,0.0733 -0.41466,0.23067 -0.50266,0.44667 -0.0867,0.212 -0.0547,0.452 0.0773,0.63733 0.15333,0.216 0.39333,0.33733 0.65733,0.352 0.284,0.0147 0.568,-0.104 0.676,-0.384 l 0.012,-0.036 0.0747,-0.188 c 0.0533,-0.236 -0.0147,-0.51333 -0.18667,-0.68667"
         style="fill:#47527d;fill-opacity:1;fill-rule:nonzero;stroke:none;stroke-width:0.133333" />
      <path
         id="path1367"
         d="m 702.72532,121.41467 c -0.2,-0.20133 -0.552,-0.22666 -0.808,-0.14133 -0.22,0.0733 -0.416,0.23067 -0.504,0.44667 -0.0867,0.212 -0.0533,0.452 0.0773,0.63733 0.152,0.216 0.39333,0.33733 0.656,0.352 0.28667,0.0147 0.56933,-0.104 0.67733,-0.384 l 0.0133,-0.036 0.0733,-0.188 c 0.0533,-0.236 -0.0147,-0.51333 -0.18533,-0.68667"
         style="fill:#47527d;fill-opacity:1;fill-rule:nonzero;stroke:none;stroke-width:0.133333" />
      <path
         id="path1368"
         d="m 715.06932,121.41467 c -0.2,-0.20133 -0.552,-0.22666 -0.80934,-0.14133 -0.21733,0.0733 -0.41466,0.23067 -0.504,0.44667 -0.0853,0.212 -0.0533,0.452 0.0787,0.63733 0.152,0.216 0.39333,0.33733 0.656,0.352 0.28667,0.0147 0.56933,-0.104 0.67867,-0.384 l 0.012,-0.036 0.072,-0.188 c 0.0533,-0.236 -0.0133,-0.51333 -0.184,-0.68667"
         style="fill:#47527d;fill-opacity:1;fill-rule:nonzero;stroke:none;stroke-width:0.133333" />
      <path
         id="path1369"
         d="m 727.41332,121.41467 c -0.2,-0.20133 -0.552,-0.22666 -0.80934,-0.14133 -0.21733,0.0733 -0.41466,0.23067 -0.50266,0.44667 -0.0853,0.212 -0.0547,0.452 0.0773,0.63733 0.15333,0.216 0.39467,0.33733 0.656,0.352 0.28667,0.0147 0.56933,-0.104 0.67867,-0.384 l 0.012,-0.036 0.072,-0.188 c 0.0533,-0.236 -0.0133,-0.51333 -0.184,-0.68667"
         style="fill:#47527d;fill-opacity:1;fill-rule:nonzero;stroke:none;stroke-width:0.133333" />
      <path
         id="path1370"
         d="m 739.75598,121.41467 c -0.19867,-0.20133 -0.55067,-0.22666 -0.808,-0.14133 -0.21733,0.0733 -0.416,0.23067 -0.50267,0.44667 -0.0853,0.212 -0.0547,0.452 0.0773,0.63733 0.15333,0.216 0.39466,0.33733 0.656,0.352 0.28666,0.0147 0.56933,-0.104 0.67866,-0.384 l 0.0107,-0.036 0.0747,-0.188 c 0.052,-0.236 -0.0147,-0.51333 -0.18667,-0.68667"
         style="fill:#47527d;fill-opacity:1;fill-rule:nonzero;stroke:none;stroke-width:0.133333" />
      <path
         id="path1371"
         d="m 752.09998,121.41467 c -0.19867,-0.20133 -0.55067,-0.22666 -0.808,-0.14133 -0.21733,0.0733 -0.416,0.23067 -0.50267,0.44667 -0.0867,0.212 -0.0547,0.452 0.076,0.63733 0.15467,0.216 0.39467,0.33733 0.65734,0.352 0.28533,0.0147 0.56933,-0.104 0.67733,-0.384 l 0.012,-0.036 0.0747,-0.188 c 0.052,-0.236 -0.0147,-0.51333 -0.18667,-0.68667"
         style="fill:#47527d;fill-opacity:1;fill-rule:nonzero;stroke:none;stroke-width:0.133333" />
      <path
         id="path1372"
         d="m 684.15198,131.72001 c -0.19866,-0.20134 -0.552,-0.22534 -0.808,-0.14 -0.21733,0.072 -0.416,0.22933 -0.50266,0.44533 -0.0867,0.212 -0.0547,0.45067 0.076,0.63733 0.15333,0.216 0.39333,0.33734 0.65733,0.352 0.28667,0.016 0.568,-0.10533 0.67733,-0.384 l 0.012,-0.036 0.0733,-0.188 c 0.0533,-0.23466 -0.0147,-0.51333 -0.18534,-0.68666"
         style="fill:#47527d;fill-opacity:1;fill-rule:nonzero;stroke:none;stroke-width:0.133333" />
      <path
         id="path1373"
         d="m 696.49598,131.72001 c -0.19866,-0.20134 -0.55066,-0.22534 -0.808,-0.14 -0.21733,0.072 -0.416,0.22933 -0.50266,0.44533 -0.0867,0.212 -0.0547,0.45067 0.076,0.63733 0.15466,0.216 0.39466,0.33734 0.656,0.352 0.28666,0.016 0.56933,-0.10533 0.67866,-0.384 l 0.012,-0.036 0.0747,-0.188 c 0.052,-0.23466 -0.0147,-0.51333 -0.18667,-0.68666"
         style="fill:#47527d;fill-opacity:1;fill-rule:nonzero;stroke:none;stroke-width:0.133333" />
      <path
         id="path1374"
         d="m 708.83998,131.72001 c -0.2,-0.20134 -0.55066,-0.22534 -0.80933,-0.14 -0.21733,0.072 -0.41467,0.22933 -0.50267,0.44533 -0.0853,0.212 -0.0547,0.45067 0.0773,0.63733 0.15333,0.216 0.39466,0.33734 0.656,0.352 0.28666,0.016 0.57066,-0.10533 0.67866,-0.384 l 0.012,-0.036 0.0747,-0.188 c 0.052,-0.23466 -0.0147,-0.51333 -0.18667,-0.68666"
         style="fill:#47527d;fill-opacity:1;fill-rule:nonzero;stroke:none;stroke-width:0.133333" />
      <path
         id="path1375"
         d="m 721.18398,131.72001 c -0.2,-0.20134 -0.55066,-0.22534 -0.80933,-0.14 -0.21733,0.072 -0.41467,0.22933 -0.50267,0.44533 -0.0853,0.212 -0.0547,0.45067 0.0787,0.63733 0.152,0.216 0.39333,0.33734 0.65467,0.352 0.28666,0.016 0.57066,-0.10533 0.67866,-0.384 l 0.012,-0.036 0.0733,-0.188 c 0.052,-0.23466 -0.0133,-0.51333 -0.18534,-0.68666"
         style="fill:#47527d;fill-opacity:1;fill-rule:nonzero;stroke:none;stroke-width:0.133333" />
      <path
         id="path1376"
         d="m 733.52798,131.72001 c -0.2,-0.20134 -0.552,-0.22534 -0.808,-0.14 -0.21866,0.072 -0.41466,0.22933 -0.504,0.44533 -0.0853,0.212 -0.0533,0.45067 0.0787,0.63733 0.152,0.216 0.39333,0.33734 0.656,0.352 0.28533,0.016 0.56933,-0.10533 0.67733,-0.384 l 0.012,-0.036 0.0733,-0.188 c 0.0533,-0.23466 -0.0147,-0.51333 -0.18533,-0.68666"
         style="fill:#47527d;fill-opacity:1;fill-rule:nonzero;stroke:none;stroke-width:0.133333" />
      <path
         id="path1377"
         d="m 745.87198,131.72001 c -0.2,-0.20134 -0.552,-0.22534 -0.808,-0.14 -0.21733,0.072 -0.416,0.22933 -0.504,0.44533 -0.0867,0.212 -0.0533,0.45067 0.0787,0.63733 0.152,0.216 0.392,0.33734 0.656,0.352 0.28666,0.016 0.568,-0.10533 0.67733,-0.384 l 0.012,-0.036 0.0733,-0.188 c 0.0533,-0.23466 -0.0147,-0.51333 -0.18533,-0.68666"
         style="fill:#47527d;fill-opacity:1;fill-rule:nonzero;stroke:none;stroke-width:0.133333" />
      <path
         id="path1378"
         d="m 690.83198,95.868008 h -3.56933 l 0.188,-0.118667 c 0.15333,-3.533333 0.26267,-7.066667 0.26533,-10.602666 0.001,-3.516 -0.10266,-7.032 -0.376,-10.537334 -0.26133,-3.359999 -0.68,-6.707999 -1.304,-10.018666 -0.596,-3.162667 -1.38,-6.292 -2.388,-9.348 -1.01066,-3.066666 -2.25066,-6.061333 -3.748,-8.922666 -0.184,-0.350667 -0.37066,-0.697333 -0.56133,-1.044 -0.0747,-0.134667 -0.51867,-0.08533 -0.436,0.06267 1.55067,2.815999 2.848,5.767999 3.912,8.801333 1.07467,3.06 1.91333,6.198666 2.55733,9.374666 0.66,3.254667 1.11467,6.548 1.41067,9.854666 0.31333,3.501334 0.452,7.017334 0.476,10.532 0.024,3.52 -0.064,7.038667 -0.20667,10.554667 -0.0187,0.432 -0.036,0.862666 -0.0547,1.293333 l 0.18666,0.118667 h -7.54266 l -0.22534,0.114666 0.22534,0.116 h 11.19066 l 0.22667,-0.116 -0.22667,-0.114666"
         style="fill:#47527d;fill-opacity:1;fill-rule:nonzero;stroke:none;stroke-width:0.133333" />
      <path
         id="path1379"
         d="m 681.83065,94.992008 c 0.0453,0.342666 0.0907,0.686666 0.13467,1.029333 h 0.452 c -0.348,-2.736 -0.756,-5.464 -1.268,-8.174667 -0.508,-2.685333 -1.116,-5.353333 -1.86667,-7.981333 -0.74933,-2.621333 -1.656,-5.188 -2.69333,-7.707999 -1.016,-2.470667 -2.124,-4.902667 -3.164,-7.362667 -1.032,-2.441333 -1.99867,-4.914666 -2.73067,-7.464 -0.0947,-0.324 -0.18267,-0.648 -0.26933,-0.972 -0.036,-0.142666 -0.484,-0.126666 -0.43734,0.05067 0.67334,2.566667 1.59734,5.057333 2.60934,7.506666 1.016,2.457334 2.11866,4.877334 3.152,7.326667 1.04933,2.490666 2,5.014666 2.78,7.601333 0.79866,2.644 1.44533,5.332 1.98266,8.04 0.532,2.686666 0.95867,5.393333 1.31867,8.108"
         style="fill:#47527d;fill-opacity:1;fill-rule:nonzero;stroke:none;stroke-width:0.133333" />
      <path
         id="path1380"
         d="m 746.08665,127.78934 h -42.04133 c -0.0667,0 -0.22667,0.052 -0.22667,0.29067 0,0.23866 0.164,0.29066 0.22667,0.29066 h 42.04133 c 0.068,0 0.22666,-0.052 0.22666,-0.29066 0,-0.23734 -0.16266,-0.29067 -0.22666,-0.29067"
         style="fill:#47527d;fill-opacity:1;fill-rule:nonzero;stroke:none;stroke-width:0.133333" />
      <path
         id="path1381"
         d="m 733.41065,57.044009 c -1.092,-0.649334 -2.22,-1.236 -3.36933,-1.772 -2.22534,-1.04 -5.12534,-2.165334 -7.592,-2.32 -4.876,-0.304 -9.76267,0.294666 -14.48534,1.506666 -4.25733,1.093334 -8.19733,2.586667 -11.43866,5.677333 -2.54267,2.424 -4.50667,5.393334 -6.156,8.493334 -2.052,3.86 -3.64667,7.963999 -4.73734,12.197333 -0.75333,2.921333 -1.48533,6.317333 0.0333,9.118666 1.15066,2.122667 4.08933,3.668 6.45466,2.753333 0.28267,2.142667 -1.336,4.090667 0.0667,6.236 1.19333,1.827996 3.73467,2.043996 5.916,2.121336 3.864,0.13733 7.72133,0.43066 11.56,0.87866 6.39333,0.74534 12.82933,1.92134 19.22133,1.17467 1.96934,-0.23067 4.196,-0.76667 5.61067,-2.26 1.672,-1.763999 1.57733,-5.059999 1.64,-7.341332 0.0693,-2.497334 -0.0947,-4.992 -0.24267,-7.484 -0.14133,-2.364 0,-4.406667 0.32533,-6.768 2.31334,2.621333 5.89334,4.241333 9.34667,3.694667 2.21467,-0.350667 4.236,-1.492 5.288,-3.490667 0.45467,-0.864 0.87733,-1.746667 1.26533,-2.642667 0.49067,-1.134666 0.92934,-2.429333 0.46667,-3.575999 -0.39333,-0.977334 -1.34133,-1.662667 -2.38533,-1.689334 -1.252,-0.03333 -2.51067,0.214667 -3.65867,0.72 l -0.33067,0.064 -0.228,-0.2 c -1.33733,-1.833333 -2.31066,-3.898666 -3.38933,-5.894666 -0.70667,-1.310667 -1.46667,-2.601334 -2.39733,-3.766667 -0.86667,-1.086667 -1.92134,-1.836 -2.968,-2.726666 -1.19067,-1.013334 -2.476,-1.906667 -3.816,-2.704"
         style="fill:#94cdd7;fill-opacity:1;fill-rule:nonzero;stroke:none;stroke-width:0.133333" />
      <path
         id="path1382"
         d="m 749.29731,117.68134 c -1.436,1.18 -3.22933,1.66533 -5.06,1.73333 -2.032,0.0773 -3.90666,-1.296 -5.72133,-2.11733 -4.19333,-1.896 -8.47866,-3.58533 -12.83733,-5.05733 -3.65867,-1.23467 -7.48667,-2.38134 -10.40533,-4.91067 -1.18267,-1.024 -2.19734,-2.28 -2.73334,-3.74933 -1.46533,-4.025336 2.19334,-6.972002 5.804,-8.028002 1.64,-0.481334 3.376,-0.498667 5.08534,-0.513334 2.52,-0.02 5.05866,-0.04 7.53733,0.417334 1.68267,0.312 3.31866,0.84 4.928,1.425333 3.58533,1.302667 7.06,2.893333 10.528,4.482669 1.87733,0.85866 3.80933,1.75866 5.18666,3.296 3.68134,4.10666 1.496,9.88933 -2.312,13.02133"
         style="fill:#f9a859;fill-opacity:1;fill-rule:nonzero;stroke:none;stroke-width:0.133333" />
      <path
         id="path1383"
         d="m 714.24265,102.69867 c -0.65333,-0.088 -1.32533,-0.18 -1.98933,-0.26133 -0.468,-3.437332 2.83066,-5.931999 6.09066,-6.886666 1.64,-0.48 3.37467,-0.498666 5.08534,-0.512 2.52,-0.02133 5.05866,-0.04133 7.53733,0.418667 1.68267,0.310667 3.31866,0.838667 4.928,1.422667 0.52666,0.193333 1.05333,0.392 1.576,0.594666 -0.292,0.166667 -0.592,0.336 -0.88667,0.5 -0.95733,0.530667 -1.95067,1.037334 -2.912,1.528 l -3.90133,1.991996 c -0.77333,0.396 -1.572,0.80267 -2.39467,1.10934 -3.404,1.26533 -7.22266,0.81866 -10.58933,0.424 -0.848,-0.0987 -1.71067,-0.216 -2.544,-0.32934"
         style="fill:#f9a859;fill-opacity:1;fill-rule:nonzero;stroke:none;stroke-width:0.133333" />
      <path
         id="path1384"
         d="m 693.39332,75.630675 c 2.46,-0.966667 4.96,-1.830667 7.49066,-2.588 2.40667,-0.72 2.712,1.138666 3.608,2.84 0.32534,0.62 0.656,1.253333 0.776,1.945333 0.14,0.798667 -0.0173,1.624 -0.27333,2.393333 -0.49333,1.488 -1.352,2.822667 -2.22933,4.121334 -1.292,1.909333 -2.656,3.790666 -4.35467,5.350666 -1.90933,1.749333 -4.444,2.913333 -7.10133,2.902667 -3.10134,-0.01067 -6.06934,-1.989334 -6.428,-5.213334 -0.252,-2.267999 0.96,-5.045333 2.06,-6.973333 1.06,-1.857333 2.65333,-3.216 4.61733,-4.034666 0.60933,-0.254667 1.22,-0.502667 1.83467,-0.744"
         style="fill:#94cdd7;fill-opacity:1;fill-rule:nonzero;stroke:none;stroke-width:0.133333" />
      <path
         id="path1385"
         d="m 700.84398,72.977342 -0.27066,-0.03467 c -1.45734,0.516 -2.916,1.032 -4.37334,1.549333 -0.728,0.258667 -1.45733,0.517333 -2.18533,0.776 -0.7,0.248 -1.404,0.486667 -2.09067,0.769333 -2.19066,0.901334 -4.05466,2.473334 -5.31866,4.478667 -0.68934,1.097333 -1.188,2.308 -1.464,3.574667 -0.0267,0.121333 0.36533,0.145333 0.396,0 0.48533,-2.233334 1.69866,-4.290667 3.38,-5.832 0.84133,-0.773334 1.8,-1.413334 2.84266,-1.886667 0.65867,-0.3 1.34534,-0.536 2.028,-0.778667 l 2.15867,-0.765333 c 1.60933,-0.570667 3.21733,-1.141333 4.82667,-1.712 l 0.0707,-0.138666"
         style="fill:#777bb3;fill-opacity:1;fill-rule:nonzero;stroke:none;stroke-width:0.133333" />
      <path
         id="path1386"
         d="m 699.18265,88.405341 c -1.42267,1.321333 -3.032,2.434667 -4.77067,3.294667 -0.492,0.242666 -0.992,0.464 -1.5,0.666666 v 0.142667 h 0.28 c 1.81867,-0.722667 3.52934,-1.709333 5.06667,-2.918667 0.43733,-0.342666 0.85867,-0.705333 1.26667,-1.082666 0.13066,-0.122667 -0.24934,-0.189334 -0.34267,-0.102667"
         style="fill:#777bb3;fill-opacity:1;fill-rule:nonzero;stroke:none;stroke-width:0.133333" />
      <path
         id="path1387"
         d="m 703.10798,80.793341 c -0.49466,-0.12 -0.992,-0.245333 -1.39466,-0.574666 -0.36134,-0.293334 -0.66134,-0.672 -0.908,-1.064 -0.48134,-0.76 -0.76934,-1.636 -0.83734,-2.530667 -0.04,-0.505333 -0.007,-1.012 0.0947,-1.508 0.0253,-0.122667 -0.36667,-0.146667 -0.396,0 -0.18933,0.916 -0.132,1.866667 0.144,2.758667 0.27333,0.890666 0.77733,1.765333 1.48533,2.382666 0.46,0.404 1.028,0.569334 1.612,0.709334 l 0.272,-0.036 -0.072,-0.137334"
         style="fill:#777bb3;fill-opacity:1;fill-rule:nonzero;stroke:none;stroke-width:0.133333" />
      <path
         id="path1388"
         d="m 726.75998,117.68134 c -4.30933,3.54267 -10.85866,0.668 -15.67866,0.14533 -2.80134,-0.30533 -5.76934,-0.0227 -8.59467,-0.003 -3.412,0.0227 -7.744,-0.052 -10.4,-2.556 -0.68,-0.64134 -1.20133,-1.43467 -1.63467,-2.264 -1.45066,-2.78 -1.86666,-6.04934 -1.30266,-9.12134 0.28266,-1.53733 0.80933,-3.03066 1.576,-4.393329 0.94133,-1.670667 1.888,-1.576 3.72533,-1.529333 6.52667,0.165333 13.036,1.024 19.384,2.554662 4.83867,1.16667 9.94267,2.45467 14.416,4.64134 0.41733,0.204 0.83867,0.41066 1.2,0.70533 0.608,0.496 0.99867,1.20267 1.37467,1.892 1.64,3.00667 -1.8,8.06667 -4.06534,9.928"
         style="fill:#f9a859;fill-opacity:1;fill-rule:nonzero;stroke:none;stroke-width:0.133333" />
      <path
         id="path1389"
         d="m 729.55598,150.54934 c -0.88533,-0.0147 -1.76933,-0.11867 -2.636,-0.30933 l -0.25066,-0.0587 c -0.13334,-0.0307 -0.26267,-0.0653 -0.38667,-0.10533 l -0.27333,-0.1 c -0.95734,-0.408 -0.61334,-1.188 -0.69467,-2.03067 -0.11733,-1.20133 -0.36267,-2.38933 -0.65333,-3.56 -0.57734,-2.31733 -1.36,-4.57733 -1.90934,-6.90133 -0.112,-0.47734 -0.21466,-0.96667 -0.15733,-1.45334 0.11333,-0.96933 0.85867,-1.772 1.72667,-2.216 0.86933,-0.444 1.85466,-0.588 2.82,-0.72 0.32933,-0.044 0.66533,-0.088 0.98933,-0.009 1.16533,0.27733 1.664,1.54933 1.81333,2.59867 0.44667,3.11466 0.824,6.23866 1.132,9.37066 0.0773,0.80667 0.152,1.61334 0.22267,2.42 0.0547,0.628 0.268,1.44667 0.16133,2.06534 -0.15733,0.912 -1.124,1.02133 -1.904,1.00933"
         style="fill:#f57e6f;fill-opacity:1;fill-rule:nonzero;stroke:none;stroke-width:0.133333" />
      <path
         id="path1390"
         d="m 738.94531,152.82001 -0.0493,0.0573 -14.68933,-0.38267 -0.0227,-0.31466 c -0.0147,-0.23734 -0.0133,-0.47467 -10e-4,-0.71067 0.048,-0.89867 0.29067,-1.77467 0.77333,-2.56 0.10267,-0.168 0.23867,-0.34667 0.44,-0.38267 0.22134,-0.0413 0.42667,0.104 0.61734,0.22134 0.716,0.44533 1.776,0.70133 2.59333,0.42133 0.53333,-0.18267 0.99867,-0.52 1.37867,-0.92 0.16533,-0.17467 0.328,-0.36133 0.54133,-0.484 0.23067,-0.13333 0.49733,-0.14533 0.75467,-0.0787 0.724,0.184 1.352,0.80934 1.98933,1.18134 0.732,0.42533 1.49733,0.79733 2.288,1.11066 0.66666,0.264 1.35333,0.488 1.98666,0.816 0.39467,0.20534 1.056,0.59334 1.37334,1.05734 0.208,0.3 0.27066,0.63333 0.0267,0.968"
         style="fill:#e6cdbb;fill-opacity:1;fill-rule:nonzero;stroke:none;stroke-width:0.133333" />
      <path
         id="path1391"
         d="m 738.94531,152.82001 -0.0493,0.0573 -14.68933,-0.38267 -0.0227,-0.31466 c -0.0147,-0.23734 -0.0133,-0.47467 -10e-4,-0.71067 l 14.736,0.38267 c 0.208,0.3 0.27066,0.63333 0.0267,0.968"
         style="fill:#777bb3;fill-opacity:1;fill-rule:nonzero;stroke:none;stroke-width:0.133333" />
      <path
         id="path1392"
         d="m 735.68665,150.52401 c -0.0653,-0.16134 -0.27867,-0.21734 -0.428,-0.28134 -0.836,-0.36 -1.64134,-0.78666 -2.40933,-1.26533 -0.43467,-0.272 -0.85867,-0.56 -1.26667,-0.86667 l -0.236,-0.04 -0.0653,0.124 c 0.776,0.58134 1.59733,1.10534 2.45999,1.56 0.42134,0.224 0.85334,0.42934 1.292,0.62 l 0.29467,0.14667 -0.06,0.29733 c -0.0867,0.13334 -0.56667,0.61067 -0.45333,0.78667 0.17466,0.272 0.49333,-0.23333 0.54533,-0.33867 l 0.16267,-0.28133 c 0.088,-0.128 0.22933,-0.29467 0.164,-0.46133"
         style="fill:#c1a898;fill-opacity:1;fill-rule:nonzero;stroke:none;stroke-width:0.133333" />
      <path
         id="path1393"
         d="m 732.76532,148.23201 -0.132,-0.012 -0.10534,0.0387 c -0.188,0.184 -0.37733,0.36667 -0.564,0.54934 l 0.0587,0.12666 0.132,0.012 0.104,-0.0387 c 0.18933,-0.184 0.37733,-0.36667 0.56533,-0.54934 l -0.0587,-0.12666"
         style="fill:#777bb3;fill-opacity:1;fill-rule:nonzero;stroke:none;stroke-width:0.133333" />
      <path
         id="path1394"
         d="m 733.52265,148.70801 -0.23733,0.0253 c -0.18134,0.16 -0.35067,0.33067 -0.50534,0.51333 l -0.02,0.0693 0.0787,0.056 0.13333,0.0133 0.104,-0.0387 c 0.156,-0.18133 0.324,-0.35333 0.50533,-0.51333 l -0.0587,-0.12533"
         style="fill:#777bb3;fill-opacity:1;fill-rule:nonzero;stroke:none;stroke-width:0.133333" />
      <path
         id="path1395"
         d="m 734.42665,149.19467 -0.0773,-0.056 -0.13333,-0.0133 -0.104,0.04 c -0.136,0.16 -0.26933,0.31867 -0.40533,0.47867 l -0.0187,0.0707 0.0773,0.056 0.13334,0.0133 0.104,-0.04 c 0.136,-0.16 0.27066,-0.32 0.40533,-0.47867 l 0.0187,-0.0707"
         style="fill:#777bb3;fill-opacity:1;fill-rule:nonzero;stroke:none;stroke-width:0.133333" />
      <path
         id="path1396"
         d="m 735.31331,149.53334 -0.23733,0.0267 c -0.2,0.168 -0.37467,0.36533 -0.51467,0.58 l 0.016,0.072 0.10134,0.044 0.21466,-0.0587 0.104,-0.148 0.056,-0.072 0.0107,-0.0107 0.012,-0.0147 0.0293,-0.0333 0.26667,-0.25866 -0.0587,-0.12667"
         style="fill:#777bb3;fill-opacity:1;fill-rule:nonzero;stroke:none;stroke-width:0.133333" />
      <path
         id="path1397"
         d="m 718.26398,129.41467 c 0.71067,3.07867 1.42134,6.15734 2.132,9.236 0.404,1.75067 0.812,3.50134 1.212,5.25334 0.20534,0.90133 0.10134,1.208 1.00267,1.37466 0.46133,0.0853 1,0.0107 1.47067,0.0107 2.13333,0 4.26933,0 6.404,0 0.24933,0 4.17333,0.0707 4.18133,0 0.048,-0.432 -0.11734,-1.076 -0.144,-1.39467 -0.32,-3.628 -0.63734,-7.256 -0.956,-10.884 -0.63733,-7.256 -1.272,-14.512 -1.90933,-21.768 -0.16134,-1.84 -0.436,-3.724 -1.82,-5.048 -1.35467,-1.29466 -3.05334,-1.912 -4.80934,-2.436 -2.584,-0.77066 -5.38933,-0.56133 -7.95333,0.16 -2.5,0.70534 -2.692,4.54934 -2.64,6.77467 0.0533,2.34667 0.584,4.65333 1.112,6.94133 0.90667,3.92667 1.812,7.85334 2.71733,11.78"
         style="fill:#f9a859;fill-opacity:1;fill-rule:nonzero;stroke:none;stroke-width:0.133333" />
      <path
         id="path1398"
         d="m 749.29731,117.68134 c -1.436,1.18 -3.22933,1.66533 -5.06,1.73333 -2.03066,0.0787 -3.90666,-1.296 -5.72266,-2.11733 -4.192,-1.896 -8.47867,-3.58533 -12.836,-5.05733 -3.65867,-1.23467 -7.48533,-2.38134 -10.40533,-4.90934 -1.18267,-1.02533 -2.19734,-2.28133 -2.73334,-3.752 -0.0987,-0.268 -0.17333,-0.532 -0.228,-0.79066 0.628,0.0773 1.268,0.164 1.884,0.248 0.83467,0.11333 1.7,0.23066 2.55067,0.32933 1.708,0.2 3.528,0.41333 5.36,0.41333 1.82,0 3.652,-0.21066 5.388,-0.856 0.84133,-0.31333 1.648,-0.72533 2.42933,-1.124 l 3.90267,-1.993329 c 0.964,-0.492 1.95866,-1 2.92266,-1.533333 0.37334,-0.208 0.75067,-0.422667 1.116,-0.632 l 0.012,-0.0067 c 2.88934,1.14 5.72,2.436002 8.54534,3.729332 1.87733,0.86 3.81066,1.76 5.18666,3.29734 3.68134,4.10533 1.496,9.89066 -2.312,13.02133"
         style="fill:#f9a859;fill-opacity:1;fill-rule:nonzero;stroke:none;stroke-width:0.133333" />
      <path
         id="path1399"
         d="m 752.09198,150.54934 c -0.88533,-0.0147 -1.76933,-0.11867 -2.63467,-0.30933 l -0.252,-0.0587 c -0.132,-0.0307 -0.264,-0.0653 -0.38666,-0.10533 l -0.27334,-0.1 c -0.95733,-0.408 -0.61333,-1.188 -0.69466,-2.03067 -0.116,-1.20133 -0.36267,-2.38933 -0.65467,-3.56 -0.57467,-2.31733 -1.35867,-4.57733 -1.90667,-6.90133 -0.112,-0.47734 -0.21466,-0.96667 -0.15733,-1.45334 0.11333,-0.96933 0.85733,-1.772 1.72667,-2.216 0.86666,-0.444 1.852,-0.588 2.81866,-0.72 0.32934,-0.044 0.66667,-0.088 0.98934,-0.009 1.164,0.27733 1.664,1.54933 1.81333,2.59867 0.44667,3.11466 0.82533,6.23866 1.13067,9.37066 0.08,0.80667 0.15333,1.61334 0.224,2.42 0.0533,0.628 0.26666,1.44667 0.16133,2.06534 -0.15733,0.912 -1.124,1.02133 -1.904,1.00933"
         style="fill:#f57e6f;fill-opacity:1;fill-rule:nonzero;stroke:none;stroke-width:0.133333" />
      <path
         id="path1400"
         d="m 761.48131,152.82001 -0.0493,0.0573 -14.688,-0.38267 -0.0253,-0.31466 c -0.0133,-0.23734 -0.0133,-0.47467 0,-0.71067 0.048,-0.89867 0.292,-1.77467 0.772,-2.56 0.104,-0.168 0.24,-0.34667 0.44133,-0.38267 0.22133,-0.0413 0.428,0.104 0.61733,0.22134 0.716,0.44533 1.77467,0.70133 2.59334,0.42133 0.53466,-0.18267 0.99866,-0.52 1.38,-0.92 0.16533,-0.17467 0.32666,-0.36133 0.54,-0.484 0.232,-0.13333 0.49733,-0.14533 0.75466,-0.0787 0.72267,0.184 1.352,0.80934 1.98934,1.18134 0.732,0.42533 1.49866,0.79733 2.288,1.11066 0.66666,0.264 1.352,0.488 1.988,0.816 0.39333,0.20534 1.056,0.59334 1.372,1.05734 0.208,0.3 0.27066,0.63333 0.0267,0.968"
         style="fill:#e6cdbb;fill-opacity:1;fill-rule:nonzero;stroke:none;stroke-width:0.133333" />
      <path
         id="path1401"
         d="m 761.48131,152.82001 -0.0493,0.0573 -14.688,-0.38267 -0.0253,-0.31466 c -0.0133,-0.23734 -0.0133,-0.47467 0,-0.71067 l 14.736,0.38267 c 0.208,0.3 0.27066,0.63333 0.0267,0.968"
         style="fill:#777bb3;fill-opacity:1;fill-rule:nonzero;stroke:none;stroke-width:0.133333" />
      <path
         id="path1402"
         d="m 758.22265,150.52401 c -0.0653,-0.16134 -0.27867,-0.21734 -0.42667,-0.28134 -0.836,-0.36 -1.64267,-0.78666 -2.41067,-1.26533 -0.436,-0.272 -0.85733,-0.56 -1.26666,-0.86667 l -0.236,-0.04 -0.0653,0.124 c 0.776,0.58134 1.59867,1.10534 2.46,1.56 0.42134,0.224 0.85334,0.42934 1.29334,0.62 l 0.29333,0.14667 -0.0587,0.29733 c -0.088,0.13334 -0.56666,0.61067 -0.45333,0.78667 0.17467,0.272 0.49333,-0.23333 0.544,-0.33867 l 0.16267,-0.28133 c 0.088,-0.128 0.22933,-0.29467 0.164,-0.46133"
         style="fill:#c1a898;fill-opacity:1;fill-rule:nonzero;stroke:none;stroke-width:0.133333" />
      <path
         id="path1403"
         d="m 755.30265,148.23201 -0.13334,-0.012 -0.104,0.0387 c -0.18933,0.184 -0.37733,0.36667 -0.56666,0.54934 l 0.06,0.12666 0.132,0.012 0.10533,-0.0387 c 0.188,-0.184 0.376,-0.36667 0.56533,-0.54934 l -0.0587,-0.12666"
         style="fill:#777bb3;fill-opacity:1;fill-rule:nonzero;stroke:none;stroke-width:0.133333" />
      <path
         id="path1404"
         d="m 756.05865,148.70801 -0.23734,0.0253 c -0.18133,0.16 -0.34933,0.33067 -0.50533,0.51333 l -0.0187,0.0693 0.0773,0.056 0.13333,0.0133 0.104,-0.0387 c 0.156,-0.18133 0.324,-0.35333 0.50533,-0.51333 l -0.0587,-0.12533"
         style="fill:#777bb3;fill-opacity:1;fill-rule:nonzero;stroke:none;stroke-width:0.133333" />
      <path
         id="path1405"
         d="m 756.96398,149.19467 -0.0787,-0.056 -0.13333,-0.0133 -0.104,0.04 c -0.13467,0.16 -0.27067,0.31867 -0.404,0.47867 l -0.02,0.0707 0.0787,0.056 0.132,0.0133 0.104,-0.04 c 0.136,-0.16 0.27066,-0.32 0.40533,-0.47867 l 0.02,-0.0707"
         style="fill:#777bb3;fill-opacity:1;fill-rule:nonzero;stroke:none;stroke-width:0.133333" />
      <path
         id="path1406"
         d="m 757.84931,149.53334 -0.23733,0.0267 c -0.2,0.168 -0.37333,0.36533 -0.51467,0.58 l 0.016,0.072 0.10134,0.044 0.21333,-0.0587 0.10533,-0.148 0.056,-0.072 0.0107,-0.0107 0.012,-0.0147 0.028,-0.0333 0.268,-0.25866 -0.0587,-0.12667"
         style="fill:#777bb3;fill-opacity:1;fill-rule:nonzero;stroke:none;stroke-width:0.133333" />
      <path
         id="path1407"
         d="m 740.92398,129.39601 c 0.508,2.40533 1.016,4.81066 1.52533,7.216 0.57867,2.744 1.15867,5.48933 1.73867,8.23333 0.0333,0.16267 0.0787,0.34267 0.22,0.432 0.10933,0.068 0.24533,0.064 0.37467,0.0573 1.30266,-0.0653 12.36933,0.36267 12.42,-0.0453 0.048,-0.432 -0.11734,-1.076 -0.14534,-1.39467 -0.31733,-3.628 -0.636,-7.256 -0.95466,-10.884 -0.636,-7.256 -1.27334,-14.512 -1.908,-21.768 -0.16267,-1.84 -0.43734,-3.724 -1.82134,-5.048 -1.35333,-1.29466 -3.05333,-1.912 -4.808,-2.436 -2.05866,-0.61466 -4.14533,-0.49733 -6.248,-0.264 -5.416,0.60267 -4.06133,8.52934 -3.32666,12.008 0.97866,4.63067 1.956,9.26267 2.93333,13.89334"
         style="fill:#f9a859;fill-opacity:1;fill-rule:nonzero;stroke:none;stroke-width:0.133333" />
      <path
         id="path1408"
         d="m 731.79998,111.04534 c -0.11466,-0.852 -0.30933,-1.68667 -0.65066,-2.47867 -0.6,-1.396 -1.58534,-2.628 -2.804,-3.53333 -0.69734,-0.51733 -1.46534,-0.92667 -2.28267,-1.212 l -0.27067,0.036 0.0693,0.13867 c 1.404,0.48933 2.65066,1.384 3.60666,2.51866 1.02134,1.21334 1.652,2.672 1.89334,4.23467 0.168,1.10267 0.24266,2.22 0.35066,3.32933 0.0147,0.144 0.40934,0.13467 0.396,0 -0.0973,-1.01066 -0.17466,-2.02666 -0.308,-3.03333"
         style="fill:#f18349;fill-opacity:1;fill-rule:nonzero;stroke:none;stroke-width:0.133333" />
      <path
         id="path1409"
         d="m 716.04398,118.46401 c -0.37333,-1.39067 -0.74533,-2.78134 -1.12,-4.17334 -0.032,-0.12133 -0.42266,-0.10266 -0.38133,0.0533 0.37333,1.392 0.74667,2.78266 1.11867,4.17466 0.0333,0.12134 0.424,0.10267 0.38266,-0.0547"
         style="fill:#f18349;fill-opacity:1;fill-rule:nonzero;stroke:none;stroke-width:0.133333" />
      <path
         id="path1410"
         d="m 738.40131,116.74801 c -0.21866,-0.87067 -0.33066,-1.76534 -0.33466,-2.66534 0,-0.14 -0.39734,-0.14 -0.396,0 0.003,0.9 0.11466,1.79467 0.33466,2.66534 0.036,0.14533 0.42534,0.12 0.396,0"
         style="fill:#f18349;fill-opacity:1;fill-rule:nonzero;stroke:none;stroke-width:0.133333" />
      <path
         id="path1411"
         d="m 732.20798,141.16267 h -10.524 l -0.19866,0.1 0.19866,0.10134 h 10.524 l 0.19867,-0.10134 -0.19867,-0.1"
         style="fill:#f18349;fill-opacity:1;fill-rule:nonzero;stroke:none;stroke-width:0.133333" />
      <path
         id="path1412"
         d="m 755.33998,140.46801 h -11.21867 l -0.19866,0.10133 0.19866,0.1 h 11.21867 l 0.19733,-0.1 -0.19733,-0.10133"
         style="fill:#f18349;fill-opacity:1;fill-rule:nonzero;stroke:none;stroke-width:0.133333" />
      <path
         id="path1413"
         d="m 740.69998,66.857342 c 0.35733,-0.202667 0.696,-0.390667 0.984,-0.570667 1.764,-1.101333 3.572,-2.132 5.42,-3.086667 3.69733,-1.908 7.548,-3.515999 11.50667,-4.797333 0.16266,1.529334 0.028,3.090667 -0.39867,4.569333 -0.10667,0.370667 -0.23733,0.746667 -0.48133,1.044 -0.332,0.405334 -0.83467,0.622667 -1.316,0.825334 -0.708,0.297333 -1.30667,0.705333 -2.02,0.985333 -1.50934,0.582667 -3.028,1.170667 -4.60934,1.510667 -1.392,0.298666 -2.82666,0.406666 -4.18666,0.829333 -1.76534,0.548 -3.34534,1.608 -5.12667,2.101333 -0.81067,0.224 -2.99067,1.034667 -2.724,-0.5 0.22667,-1.313333 1.7,-2.201333 2.952,-2.910666"
         style="fill:#e6cdbb;fill-opacity:1;fill-rule:nonzero;stroke:none;stroke-width:0.133333" />
      <path
         id="path1414"
         d="m 739.29998,68.128008 c 3.06533,-1.28 5.84133,-3.105333 8.972,-4.230666 3.37733,-1.216 6.756,-2.430667 10.13467,-3.645334 0.63466,-0.229333 1.28533,-0.459999 1.95866,-0.470666 -0.0347,0.688 -0.408,1.598666 -0.64666,2.249333 -0.376,1.026667 -0.79334,2.037333 -1.248,3.030667 -0.932,2.025333 -2.02667,3.974666 -3.27467,5.822666 -0.56933,0.845334 -1.192,1.588 -1.57067,2.536 -0.408,1.024 -0.79866,2.053333 -1.15733,3.094667 -0.70533,2.04 -1.31333,4.112 -1.86,6.2 -0.556,2.126666 -1.048,4.271999 -1.512,6.421333 -0.224,1.041333 -0.44267,2.082666 -0.624,3.128 -0.164,0.929333 -0.79333,1.157333 -1.70667,1.401333 -2.58933,0.692 -5.092,1.698667 -7.452,2.970667 -0.89066,0.478666 -1.76133,0.997333 -2.64666,1.486666 -0.96134,0.532 -1.93867,1.032 -2.91734,1.532 -1.29999,0.663996 -2.60133,1.327996 -3.90133,1.993336 -0.78933,0.40133 -1.58133,0.80666 -2.41333,1.116 -3.368,1.252 -7.09733,0.85066 -10.668,0.43333 -1.548,-0.18133 -3.09733,-0.41467 -4.636,-0.604 -2.888,-0.356 -5.81867,-0.508 -8.632,-1.25067 -2.05733,-0.54133 -4.03067,-1.394662 -5.83467,-2.523996 -0.04,-1.690666 0.57067,-3.344 0.97867,-4.996 1.09867,-4.444 2.388,-8.841333 3.86667,-13.174666 0.74,-2.166667 1.524,-4.317333 2.356,-6.450667 0.82,-2.099999 1.76266,-4.067999 2.72266,-6.107999 0.60934,-1.293334 1.244,-2.573334 1.90267,-3.841334 0.32133,-0.618666 0.64933,-1.234666 0.98267,-1.848 0.0733,-0.133333 0.14933,-0.270666 0.25866,-0.378666 0.516,-0.505334 1.848,-0.125334 2.50134,-0.04267 1.09733,0.14 2.192,0.312 3.28666,0.481333 3.33067,0.517334 6.62534,1.501334 9.86534,2.421334 1.99866,0.568 3.988,1.169333 5.96666,1.804 0.84267,0.272 1.66,0.622666 2.488,0.938666 0.42667,0.161334 0.868,0.285334 1.29467,0.448 0.39866,0.154667 0.76133,0.282667 1.18933,0.354667 0.65733,0.110667 1.36133,-0.04267 1.976,-0.298667"
         style="fill:#ffffff;fill-opacity:1;fill-rule:nonzero;stroke:none;stroke-width:0.133333" />
      <path
         id="path1415"
         d="m 760.36265,59.612009 c -0.71067,0.01067 -1.40267,0.258666 -2.01334,0.478666 l -10.13466,3.646667 c -1.76267,0.633333 -3.436,1.5 -5.05467,2.336 -1.26933,0.657333 -2.58133,1.336 -3.92533,1.897333 -0.60534,0.253333 -1.24534,0.337333 -1.864,0.556 0.19866,0.072 0.49333,0.06667 0.704,0.07467 0.45333,0.01733 0.88533,-0.148 1.29066,-0.317334 1.356,-0.565333 2.676,-1.248 3.95067,-1.908 1.60933,-0.832 3.27333,-1.693333 5.01333,-2.318666 l 10.13467,-3.645334 c 0.556,-0.201333 1.12667,-0.406666 1.71467,-0.450666 -0.0707,0.541333 -0.31734,1.198666 -0.51867,1.74 l -0.10133,0.272 c -0.37067,1.016 -0.78934,2.030666 -1.24267,3.017333 -0.92667,2.014667 -2.02267,3.964 -3.26,5.797333 -0.13733,0.204 -0.28,0.405334 -0.41733,0.597334 -0.45067,0.634666 -0.87734,1.234666 -1.17067,1.973333 -0.45067,1.128 -0.82933,2.144 -1.16133,3.101333 -0.65867,1.908 -1.268,3.94 -1.86267,6.212 -0.49333,1.888 -0.97467,3.932 -1.51467,6.429333 -0.248,1.16 -0.452,2.136 -0.62533,3.133333 -0.144,0.825334 -0.69467,1.029334 -1.58267,1.266667 -2.56266,0.684 -5.08266,1.688 -7.48666,2.985333 -0.51867,0.278667 -1.03734,0.573334 -1.53867,0.858667 l -0.22533,0.129333 c 0.136,0.052 0.272,0.105334 0.40666,0.158667 0.49467,-0.281333 1.00667,-0.573333 1.51734,-0.848 2.38266,-1.284 4.87733,-2.278667 7.41333,-2.956 0.96,-0.257333 1.652,-0.516 1.83067,-1.534667 0.17333,-0.992 0.376,-1.965333 0.624,-3.121333 0.53733,-2.493333 1.01733,-4.533333 1.50933,-6.416 0.592,-2.264 1.2,-4.285333 1.856,-6.186666 0.32933,-0.952 0.708,-1.962667 1.156,-3.086667 0.27867,-0.7 0.692,-1.284 1.132,-1.901333 0.13867,-0.194667 0.28133,-0.397333 0.42133,-0.604 1.248,-1.848 2.35467,-3.814667 3.28667,-5.845333 0.45867,-0.994667 0.87867,-2.018667 1.25333,-3.042667 l 0.10134,-0.270667 c 0.23333,-0.626666 0.52533,-1.405333 0.556,-2.029333 l 0.009,-0.181333 -0.18133,0.0027"
         style="fill:#e6cdbb;fill-opacity:1;fill-rule:nonzero;stroke:none;stroke-width:0.133333" />
      <path
         id="path1416"
         d="m 738.62798,69.057342 -0.003,-0.0093 c -0.084,-0.324 -0.504,-0.485333 -0.792,-0.56 -0.22666,-0.06 -0.45466,-0.116 -0.68266,-0.169333 -0.932,-0.213333 -1.876,-0.373333 -2.82267,-0.509333 -1.89466,-0.273334 -3.80266,-0.46 -5.67866,-0.86 -1.84934,-0.394667 -3.65467,-0.973334 -5.46,-1.533334 -1.81867,-0.564 -3.644,-1.102666 -5.51734,-1.448 -1.91066,-0.353333 -3.85733,-0.525333 -5.8,-0.514666 -0.23733,0.0013 -0.476,0.0067 -0.71466,0.01333 l -0.22534,0.117333 c -1.416,1.696 -2.21866,3.770667 -3.024,5.801334 -0.928,2.332 -1.85466,4.663999 -2.78,6.995999 -0.92533,2.324 -1.87733,4.64 -2.76266,6.978667 -0.43467,1.148 -0.82,2.310667 -1.14534,3.494666 -0.32533,1.181334 -0.60933,2.372 -0.90266,3.562667 -0.59467,2.430667 -1.19067,4.861333 -1.788,7.293333 l -0.224,0.912 c -0.032,0.136 0.41333,0.166667 0.45333,0 l 1.78,-7.26 c 0.58667,-2.389333 1.12667,-4.795999 1.95867,-7.114666 0.83333,-2.324 1.79466,-4.605333 2.70666,-6.898667 l 2.768,-6.962666 c 0.81734,-2.058667 1.55867,-4.212 2.84934,-6.033333 0.16,-0.226667 0.32933,-0.446667 0.50666,-0.658667 1.81067,-0.04133 3.62134,0.076 5.412,0.357333 1.81734,0.284 3.59067,0.762667 5.34934,1.296 1.74266,0.529334 3.47333,1.102667 5.24,1.545334 1.78666,0.449333 3.60266,0.702666 5.42666,0.942666 0.91467,0.118667 1.828,0.24 2.73467,0.398667 0.45333,0.07733 0.904,0.165333 1.352,0.265333 0.22933,0.052 0.45733,0.106667 0.684,0.166667 0.456,0.118667 0.64,0.218667 0.608,0.721333 -0.028,0.417334 -0.192,0.808 -0.30934,1.204 -0.17733,0.6 -0.35333,1.2 -0.53066,1.798667 -0.39067,1.322666 -0.78134,2.645333 -1.172,3.968 -0.352,1.190666 -0.7,2.384 -1.05734,3.573333 -0.34,1.129333 -0.708,2.253333 -1.19866,3.328 -0.87333,1.918667 -2.05467,3.673333 -3.14533,5.470666 -1.09334,1.802667 -2.092,3.673334 -2.6,5.733334 -0.56134,2.273333 -0.608,4.637333 -1.15467,6.914661 -0.0693,0.288 -0.148,0.57334 -0.23467,0.85734 -0.0533,0.17333 0.39334,0.204 0.436,0.0613 0.688,-2.236 0.76267,-4.587998 1.19734,-6.874665 0.20933,-1.094666 0.52133,-2.156 0.95866,-3.181333 0.41067,-0.96 0.908,-1.882667 1.436,-2.784 1.06667,-1.814667 2.26667,-3.554666 3.21067,-5.438666 1.06533,-2.125334 1.65733,-4.442667 2.328,-6.713334 0.70933,-2.404 1.42,-4.807999 2.12933,-7.213333 0.0907,-0.305333 0.27867,-0.709333 0.2,-1.034666"
         style="fill:#e6cdbb;fill-opacity:1;fill-rule:nonzero;stroke:none;stroke-width:0.133333" />
      <path
         id="path1417"
         d="m 730.56532,79.136008 c -2.58534,0.114667 -5.172,0.224 -7.76,0.185333 -2.564,-0.03867 -5.132,-0.226666 -7.65334,-0.716 -1.408,-0.274666 -2.796,-0.646666 -4.148,-1.130666 l -0.30933,0.04133 0.0813,0.158667 c 2.43734,0.872 4.992,1.374666 7.56534,1.633333 2.59866,0.261333 5.21466,0.286667 7.824,0.222667 1.468,-0.036 2.93333,-0.09867 4.4,-0.164 l 0.22666,-0.116 -0.22666,-0.114667"
         style="fill:#e6cdbb;fill-opacity:1;fill-rule:nonzero;stroke:none;stroke-width:0.133333" />
      <path
         id="path1418"
         d="m 720.61998,88.528008 -0.27866,-0.08 c -1.99067,0.370666 -4.03067,0.478666 -6.04934,0.304 -0.572,-0.04933 -1.14133,-0.121334 -1.70666,-0.213334 l -0.27867,0.08133 0.15867,0.141333 c 2.06133,0.336 4.16533,0.390667 6.24133,0.168 0.58933,-0.064 1.17333,-0.150667 1.756,-0.257333 l 0.15733,-0.144"
         style="fill:#e6cdbb;fill-opacity:1;fill-rule:nonzero;stroke:none;stroke-width:0.133333" />
      <path
         id="path1419"
         d="m 747.73731,80.934675 -0.31066,0.04133 c -2.06,1.870667 -4.42,3.397333 -6.972,4.506667 -0.72534,0.316 -1.46534,0.596 -2.21734,0.841333 l -0.0813,0.157333 0.31067,0.04267 c 2.69333,-0.88 5.236,-2.201333 7.504,-3.904 0.63866,-0.48 1.256,-0.989333 1.84666,-1.526667 l -0.08,-0.158666"
         style="fill:#e6cdbb;fill-opacity:1;fill-rule:nonzero;stroke:none;stroke-width:0.133333" />
      <path
         id="path1420"
         d="m 725.97865,49.148009 c 0.148,0.114666 0.30667,0.214666 0.47467,0.297333 0.63066,0.306667 1.16266,0.134667 1.808,0.137333 0.60266,0.0027 1.15466,-0.149333 1.564,-0.626666 l 0.18266,-0.28 c 0.0533,-0.132 0.068,-0.276 0.0813,-0.417334 0.0347,-0.356 0.068,-0.713333 0.104,-1.069333 0.032,-0.336 0.06,-0.690666 -0.0813,-0.996 -0.248,-0.532 -0.92666,-0.742666 -1.20666,-1.256 -0.208,-0.38 -0.16267,-0.862666 -0.39467,-1.226666 -0.11867,-0.186667 -0.30267,-0.325334 -0.49867,-0.429334 -0.616,-0.324 -1.384,-0.281333 -1.98933,0.04267 -0.70533,0.376 -1.01467,1.121333 -1.20667,1.864 -0.24666,0.952 -0.16133,1.994666 0.28534,2.872 0.21333,0.418666 0.51066,0.798666 0.87733,1.088"
         style="fill:#e6cdbb;fill-opacity:1;fill-rule:nonzero;stroke:none;stroke-width:0.133333" />
      <path
         id="path1421"
         d="m 724.43465,60.730675 c -1.21067,1.342667 -3.12267,1.482667 -4.91067,1.362667 -2.11333,-0.14 -4.25066,-0.582667 -6.07066,-1.668 -1.57734,-0.94 -2.90934,-2.418667 -3.44667,-4.197333 -0.35867,-1.192 0.39067,-2.018667 1.368,-2.598667 1.83467,-1.089333 4.03467,-1.342667 6.164,-1.474667 1.448,-0.09067 2.952,-0.126666 4.29467,0.426667 0.99466,0.409333 1.844,1.126667 2.516,1.968 0.96533,1.212 1.59066,2.833333 1.152,4.32 -0.16134,0.552 -0.46134,1.054667 -0.796,1.524 -0.0853,0.12 -0.176,0.232 -0.27067,0.337333"
         style="fill:#ffffff;fill-opacity:1;fill-rule:nonzero;stroke:none;stroke-width:0.133333" />
      <path
         id="path1422"
         d="m 723.69198,60.265342 -0.0307,0.109333 c -0.22934,0.693333 -1.02534,1.018667 -1.75067,1.113333 -0.748,0.09733 -1.50533,0.044 -2.25733,-0.0093 l -0.26667,-0.01867 c -0.38,-0.02933 -0.76,-0.06667 -1.132,-0.150666 -0.48267,-0.106667 -0.94533,-0.290667 -1.40267,-0.473334 -1.21066,-0.484 -2.43466,-0.993333 -3.43733,-1.826666 -0.47867,-0.397333 -0.896,-0.861333 -1.31333,-1.325333 -0.36267,-0.402667 -0.73067,-0.810667 -0.992,-1.286667 -0.248,-0.445333 -0.35334,-0.917333 -0.36,-1.425333 -0.007,-0.396 0.168,-0.653334 0.368,-0.993334 0.42666,-0.726666 0.888,-1.517333 1.58133,-2.022666 0.60667,-0.442667 1.568,-0.446667 2.28133,-0.528 0.86,-0.09733 1.516,0.553333 2.28667,0.769333 l 0.156,0.044 c 0.8,0.238667 1.52933,0.570667 2.26933,0.989333 0.76534,0.430667 1.51734,0.933334 2.1,1.58 0.216,0.244 0.52267,0.548 0.62134,0.866667 0.072,0.244 0.0467,0.524 0.104,0.78 0.0667,0.297333 0.14933,0.592 0.24666,0.881333 0.12134,0.366667 0.26667,0.728 0.43467,1.076 0.28133,0.586667 0.636,1.229334 0.49333,1.850667"
         style="fill:#f57e6f;fill-opacity:1;fill-rule:nonzero;stroke:none;stroke-width:0.133333" />
      <path
         id="path1423"
         d="m 723.69198,60.265342 -0.0307,0.109333 c -0.22934,0.693333 -1.02534,1.018667 -1.75067,1.113333 -0.748,0.09733 -1.50533,0.044 -2.25733,-0.0093 l -0.26667,-0.01867 c -0.59333,-0.350666 -1.15067,-0.777333 -1.66533,-1.233333 -0.82934,-0.733333 -1.59334,-1.569333 -2.08667,-2.562666 -0.49467,-0.992 -0.69867,-2.161334 -0.396,-3.226667 0.27067,-0.956 0.96667,-1.754667 1.89333,-2.12 l 0.29067,-0.076 c 0.89333,-0.126667 1.996,0.578667 2.72133,0.989333 0.76667,0.430667 1.51867,0.933334 2.10134,1.58 0.34533,0.389334 0.75333,0.904 0.776,1.450667 0.016,0.366667 -0.2,0.653333 -0.24934,1.005333 l -0.008,0.072 c -0.0907,0.932 0.47067,2.077334 0.928,2.926667"
         style="fill:#dc5153;fill-opacity:1;fill-rule:nonzero;stroke:none;stroke-width:0.133333" />
      <path
         id="path1424"
         d="m 723.50665,61.210675 c -0.69067,0.01067 -1.39067,-0.088 -2.04,-0.224 -1.70933,-0.36 -3.31333,-1.228 -4.52267,-2.489333 -1.028,-1.070667 -1.83466,-2.366667 -2.412,-3.732 -0.23733,-0.562667 -0.31333,-1.193333 -0.55333,-1.737333 -0.30267,-0.690667 -0.64533,-1.288 -0.83333,-2.034667 -0.31334,-1.241333 -0.45467,-2.526667 -0.42,-3.808 0.028,-1.044 0.18,-2.104 0.64133,-3.04 0.65467,-1.326666 1.89467,-2.304 3.26933,-2.854666 1.37334,-0.550667 2.87467,-0.708 4.35334,-0.7 1.06533,0.004 2.14,0.092 3.15733,0.401333 1.01867,0.308 1.98667,0.850667 2.68267,1.656 0.44533,0.513333 0.76933,1.121333 1.04266,1.742667 0.64667,1.469333 1.152,3.181333 1.08267,4.799999 -0.0427,1.005334 -0.096,1.962667 -0.0867,2.977334 0.0107,1.102666 -0.0307,2.208 -0.21866,3.296 -0.29867,1.749333 -1.004,3.478666 -2.27867,4.711999 -0.78,0.754667 -1.80933,1.02 -2.864,1.034667"
         style="fill:#f57e6f;fill-opacity:1;fill-rule:nonzero;stroke:none;stroke-width:0.133333" />
      <path
         id="path1425"
         d="m 717.85065,44.144009 -0.21733,-0.104 c -0.20934,-0.048 -0.46667,0.004 -0.60667,-0.157333 l -0.0907,-0.268 c -0.024,-0.324 0.0667,-0.661334 -0.036,-0.969334 -0.14,-0.417333 -0.596,-0.648 -1.03333,-0.714666 -0.78667,-0.122667 -1.752,0.193333 -2.364,0.697333 -1.47467,1.213333 -2.376,3.202667 -2.48933,5.090666 -0.012,0.18 -0.0147,0.369334 0.0707,0.529334 0.0827,0.158666 0.28,0.272 0.44667,0.202666 -0.0787,0.76 -0.15467,1.545334 0.0733,2.274667 0.32134,1.026667 1.20667,1.493333 2.232,1.54 0.25334,0.012 0.51867,-0.012 0.74267,-0.134667 0.44667,-0.242666 0.61467,-0.789333 0.724,-1.285333 0.20267,-0.921333 0.45467,-1.544 1.15067,-2.202667 0.6,-0.568 1.29733,-1.042666 1.79066,-1.714666 0.156,-0.212 0.28667,-0.512 0.13334,-0.725333 -0.0987,-0.136 -0.28267,-0.184 -0.39334,-0.309334 -0.156,-0.177333 -0.124,-0.448 -0.0507,-0.672 0.0747,-0.222666 0.18266,-0.448 0.152,-0.681333 -0.02,-0.157333 -0.11067,-0.301333 -0.23467,-0.396"
         style="fill:#e6cdbb;fill-opacity:1;fill-rule:nonzero;stroke:none;stroke-width:0.133333" />
      <path
         id="path1426"
         d="m 714.81865,42.620009 h -0.2 c -1.25867,0.662667 -2.16133,1.906667 -2.392,3.312 h 0.28267 c 0.22266,-1.353333 1.09466,-2.570667 2.30933,-3.209333 v -0.102667"
         style="fill:#ffffff;fill-opacity:1;fill-rule:nonzero;stroke:none;stroke-width:0.133333" />
      <path
         id="path1427"
         d="m 714.66665,43.812009 -0.19333,0.02667 c -0.62267,0.489333 -1.084,1.170666 -1.30134,1.933333 l 0.27334,0.03733 c 0.21333,-0.749333 0.65866,-1.416 1.272,-1.898666 l -0.0507,-0.09867"
         style="fill:#ffffff;fill-opacity:1;fill-rule:nonzero;stroke:none;stroke-width:0.133333" />
      <path
         id="path1428"
         d="m 717.24132,46.390676 -0.0853,-0.03333 -0.17466,0.05067 c -0.19467,0.264 -0.36934,0.544 -0.52,0.837333 l 0.27333,0.03867 c 0.15067,-0.293334 0.324,-0.573334 0.52,-0.838667 l -0.0133,-0.05467"
         style="fill:#ffffff;fill-opacity:1;fill-rule:nonzero;stroke:none;stroke-width:0.133333" />
      <path
         id="path1429"
         d="m 714.95598,48.757342 c -0.13066,-0.14 -0.28266,-0.253333 -0.46,-0.329333 -0.52133,-0.221334 -1.15733,-0.04 -1.55866,0.36 -0.40134,0.397333 -0.58667,0.976 -0.60667,1.54 -0.02,0.565333 0.112,1.125333 0.272,1.668 0.25467,0.86 1.36,3.165333 2.62,2.169333 0.50933,-0.401333 0.556,-1.422667 0.592,-2.016 0.0493,-0.809333 -0.0547,-1.629333 -0.31333,-2.397333 -0.12,-0.358667 -0.292,-0.724 -0.54534,-0.994667"
         style="fill:#f57e6f;fill-opacity:1;fill-rule:nonzero;stroke:none;stroke-width:0.133333" />
      <path
         id="path1430"
         d="m 722.89865,55.524009 c -0.90133,0.497333 -1.59333,1.393333 -1.36933,2.385333 h 0.28266 c -0.21333,-0.945333 0.42,-1.814667 1.28667,-2.293333 0.13733,-0.076 -0.12133,-0.136 -0.2,-0.092"
         style="fill:#eb645a;fill-opacity:1;fill-rule:nonzero;stroke:none;stroke-width:0.133333" />
      <path
         id="path1431"
         d="m 726.85865,55.793342 -0.27467,0.03467 c 0.40267,0.530666 0.548,1.189333 0.40134,1.818666 h 0.284 c 0.148,-0.637333 -0.005,-1.316 -0.41067,-1.853333"
         style="fill:#eb645a;fill-opacity:1;fill-rule:nonzero;stroke:none;stroke-width:0.133333" />
      <path
         id="path1432"
         d="m 726.12132,57.090675 h -0.20134 c -0.97466,0.510667 -2.15733,0.505334 -3.12666,-0.012 h -0.20134 v 0.102667 c 1.08534,0.577333 2.44,0.581333 3.52934,0.01067 v -0.101334"
         style="fill:#dc5153;fill-opacity:1;fill-rule:nonzero;stroke:none;stroke-width:0.133333" />
      <path
         id="path1433"
         d="m 725.84265,59.258675 c -0.036,-0.372 -0.16533,-0.729333 -0.42667,-1.001333 l -0.24533,0.072 c 0.24133,0.250667 0.356,0.589333 0.388,0.929333 0.0187,0.186667 0.0133,0.376 -0.004,0.562667 -0.0133,0.16 -0.0253,0.34 -0.13733,0.464 l 0.24266,0.07333 c 0.11467,-0.125333 0.15067,-0.28 0.16934,-0.444 0.024,-0.217333 0.032,-0.438666 0.0133,-0.656"
         style="fill:#eb645a;fill-opacity:1;fill-rule:nonzero;stroke:none;stroke-width:0.133333" />
      <path
         id="path1434"
         d="m 726.29732,53.390675 c -0.20934,-0.546666 -0.41734,-1.092 -0.624,-1.638666 -0.104,-0.270667 -0.20667,-0.54 -0.31067,-0.812 -0.092,-0.242667 -0.18,-0.490667 -0.19867,-0.753334 -0.0107,-0.142666 -0.39066,-0.170666 -0.38133,-0.048 0.0347,0.492 0.264,0.96 0.43733,1.416 0.196,0.510667 0.39067,1.022667 0.58534,1.534667 0.088,0.230667 0.20533,0.470667 0.25333,0.713333 0.0427,0.222667 -0.0307,0.436 -0.17067,0.606667 -0.30533,0.372 -0.81333,0.418667 -1.25866,0.462667 l -0.0853,0.125333 0.25734,0.06667 c 0.468,-0.04533 0.98,-0.108 1.34,-0.444 0.15333,-0.144 0.27333,-0.328 0.304,-0.538667 0.036,-0.24 -0.0653,-0.472 -0.148,-0.690667"
         style="fill:#dc5153;fill-opacity:1;fill-rule:nonzero;stroke:none;stroke-width:0.133333" />
      <path
         id="path1435"
         d="m 720.24932,48.642675 c -0.38934,0.109334 -0.74934,0.32 -1.02934,0.610667 l -0.14133,0.253333 c -0.024,0.338667 0.62267,0.092 0.79067,0.056 0.38133,-0.08267 0.764,-0.177333 1.156,-0.184 0.61066,-0.012 1.22266,0.105334 1.83066,0.012 0.13467,-0.02 0.27467,-0.05467 0.38,-0.141333 0.35334,-0.286667 -0.14,-0.557333 -0.372,-0.706667 -0.348,-0.226666 -0.76,-0.386666 -1.176,-0.412 -0.30133,-0.016 -0.83333,0.05733 -0.904,0.429334 -0.18133,0.0053 -0.36266,0.03333 -0.53466,0.08267"
         style="fill:#e6cdbb;fill-opacity:1;fill-rule:nonzero;stroke:none;stroke-width:0.133333" />
      <path
         id="path1436"
         d="m 723.37332,55.176009 -0.248,0.03467 c -0.54267,0.08 -1.3,0.153334 -1.736,0.525334 -0.10267,0.088 -0.176,0.224 -0.152,0.357333 0.024,0.134667 0.13866,0.237333 0.26,0.3 0.42533,0.222667 0.95333,0.1 1.384,-0.114667 0.31733,0.204 0.71733,0.278667 1.08933,0.201334 0.41467,-0.08667 0.77067,-0.346667 1.164,-0.506667 0.428,-0.174667 0.73467,0.185333 1.13867,0.276 0.28933,0.06667 0.64666,-0.02 0.76533,-0.292 0.26,0.182667 0.56133,0.304 0.87467,0.353333 0.128,0.02 0.272,0.024 0.37333,-0.056 0.12,-0.09467 0.13467,-0.28 0.072,-0.418666 -0.064,-0.138667 -0.18933,-0.24 -0.31867,-0.322667 -0.67866,-0.437333 -1.532,-0.478667 -2.316,-0.468 -0.78533,0.0093 -1.572,0.03333 -2.35066,0.130667"
         style="fill:#e6cdbb;fill-opacity:1;fill-rule:nonzero;stroke:none;stroke-width:0.133333" />
      <path
         id="path1437"
         d="m 727.81998,48.420009 0.0267,0.036 0.22667,0.06 c 0.25066,0.02133 0.488,0.178666 0.604,0.404 0.10533,0.206666 0.20933,0.574666 -0.13067,0.614666 -0.14133,0.01733 -0.28,-0.044 -0.416,-0.08667 -0.56,-0.177334 -1.16133,-0.06 -1.748,-0.01867 -0.156,0.01067 -0.32267,0.01467 -0.46133,-0.06 -0.264,-0.144 -0.20534,-0.445333 -0.0333,-0.628 0.35067,-0.370667 0.86,-0.622667 1.37467,-0.618667 0.204,0.0013 0.428,0.068 0.52933,0.244 l 0.028,0.05333"
         style="fill:#e6cdbb;fill-opacity:1;fill-rule:nonzero;stroke:none;stroke-width:0.133333" />
      <path
         id="path1438"
         d="m 726.69465,51.421342 c 0.0267,-0.294667 0.12133,-0.654667 0.468,-0.752 0.36533,-0.104 0.70267,0.2 0.748,0.552 0.032,0.261333 -0.005,0.614667 -0.21067,0.8 -0.20133,0.181333 -0.58666,0.212 -0.788,0.01867 -0.15733,-0.149334 -0.236,-0.409334 -0.21733,-0.618667"
         style="fill:#3a2323;fill-opacity:1;fill-rule:nonzero;stroke:none;stroke-width:0.133333" />
      <path
         id="path1439"
         d="m 720.80132,51.573342 c 0.0467,-0.292 0.16666,-0.644 0.51733,-0.718667 0.50533,-0.106666 0.784,0.525334 0.668,0.934667 -0.012,0.169333 -0.0693,0.330667 -0.224,0.452 -0.288,0.226667 -0.62667,0.1 -0.848,-0.144 -0.128,-0.14 -0.14267,-0.344 -0.11333,-0.524"
         style="fill:#3a2323;fill-opacity:1;fill-rule:nonzero;stroke:none;stroke-width:0.133333" />
      <path
         id="path1440"
         d="m 718.94532,52.637342 c 0.38666,-0.256 0.85466,-0.385333 1.31733,-0.376 l 0.13733,0.064 -0.132,0.07333 c -0.40533,-0.0093 -0.79333,0.106667 -1.12933,0.329334 l -0.19067,0.0053 -0.003,-0.096"
         style="fill:#eb645a;fill-opacity:1;fill-rule:nonzero;stroke:none;stroke-width:0.133333" />
      <path
         id="path1441"
         d="m 720.03198,52.762675 0.0427,0.04667 0.0947,0.01733 0.0933,-0.024 0.0827,-0.04667 0.0387,-0.02 0.02,-0.0093 0.007,-0.0027 0.0747,-0.02933 0.0453,-0.01467 0.0213,-0.0053 h -10e-4 l 0.0907,-0.088 -0.0613,-0.03733 -0.10533,-0.004 c -0.14267,0.03467 -0.28,0.088 -0.404,0.168 l -0.0387,0.04933"
         style="fill:#eb645a;fill-opacity:1;fill-rule:nonzero;stroke:none;stroke-width:0.133333" />
      <path
         id="path1442"
         d="m 727.70398,52.266675 0.0627,-0.03867 c 0.16667,-0.04 0.336,-0.04667 0.50533,-0.02533 l 0.08,0.03467 0.009,0.052 -0.15467,0.04267 h -0.005 l -0.0267,-0.0027 -0.0453,-0.0013 -0.0493,-0.0013 -0.0187,0.0013 -0.0907,0.0093 -0.02,0.0027 v 0 l -0.0533,0.012 -0.10267,0.0027 -0.08,-0.03467 -0.0107,-0.05333"
         style="fill:#eb645a;fill-opacity:1;fill-rule:nonzero;stroke:none;stroke-width:0.133333" />
      <path
         id="path1443"
         d="m 726.98398,47.257342 c -0.84133,-0.2 -1.67733,-0.0093 -2.51466,0.09467 -0.45334,0.05733 -0.88934,0.05067 -1.34267,-0.0053 -0.44667,-0.056 -0.89067,-0.096 -1.34133,-0.076 -0.50267,0.02133 -0.99867,0.102667 -1.48267,0.236 l -0.0187,0.137334 0.27067,0.03467 c 0.52533,-0.145333 1.068,-0.217333 1.612,-0.214666 0.55467,0.004 1.09867,0.128 1.652,0.136 1.01067,0.01467 2.03867,-0.406667 3.04267,-0.168 l 0.24133,-0.03867 -0.11867,-0.136"
         style="fill:#eb645a;fill-opacity:1;fill-rule:nonzero;stroke:none;stroke-width:0.133333" />
      <path
         id="path1444"
         d="m 724.19865,46.240009 c -0.492,-0.08667 -1.00667,-0.04 -1.47467,0.137333 l -0.0173,0.137334 0.26933,0.03333 c 0.38934,-0.146667 0.79867,-0.184 1.19867,-0.113333 l 0.20267,-0.07333 -0.17867,-0.121333"
         style="fill:#eb645a;fill-opacity:1;fill-rule:nonzero;stroke:none;stroke-width:0.133333" />
      <path
         id="path1445"
         d="m 729.81598,51.256009 -0.005,0.158666 c -0.016,0.281334 -0.0533,0.561334 -0.10933,0.838667 -0.044,0.228 -0.10667,0.46 -0.248,0.642667 -0.38534,0.493333 -1.24534,0.554666 -1.812,0.494666 -0.672,-0.07333 -1.06667,-0.418666 -1.32667,-0.84 -0.20533,-0.333333 -0.50933,-0.988 -0.31867,-1.389333 0.188,-0.390667 0.93867,-0.62 1.32,-0.718667 0.69067,-0.18 2.01467,-0.572 2.41334,0.302667 0.0733,0.158667 0.0893,0.334667 0.0867,0.510667 z m -5.76,1.385333 c -0.22666,0.441333 -0.59066,0.817333 -1.25466,0.944 -0.88534,0.168 -1.876,0.193333 -2.72934,-0.136 -0.30133,-0.116 -0.58533,-0.301333 -0.76666,-0.568 -0.37334,-0.550667 -0.46534,-1.682667 0.13066,-2.125333 0.424,-0.313334 1.04267,-0.337334 1.548,-0.354667 0.83467,-0.028 1.672,0.03733 2.472,0.190667 0.18667,0.03733 0.37867,0.08 0.516,0.177333 0.12134,0.084 0.188,0.201333 0.236,0.318667 0.22267,0.536 0.11467,1.030666 -0.152,1.553333 z m 6.08267,-2.228 -0.13733,-0.208 c -0.22,-0.213333 -0.54667,-0.266667 -0.85334,-0.286667 -1.368,-0.092 -2.68666,0.493334 -4.05333,0.46 -0.78267,-0.02 -1.54667,-0.214666 -2.32133,-0.324 -0.74667,-0.106666 -1.52,-0.132 -2.284,-0.07333 -0.74134,0.056 -1.47734,0.201333 -2.22267,0.121333 -0.756,-0.08133 -1.48533,-0.310666 -2.22933,-0.458666 -0.128,-0.02533 -0.488,-0.137334 -0.6,-0.03867 -0.17467,0.152 0.108,0.429333 0.22666,0.514667 0.58,0.421333 1.268,0.658666 1.94267,0.898666 0.14533,0.05067 0.3,0.109334 0.39067,0.233334 l 0.10933,0.284 c 0.092,0.382666 0.10533,1.04 0.40267,1.337333 0.42533,0.721333 1.25733,0.985333 2.06533,0.993333 0.74,0.0093 1.52133,0.044 2.256,-0.06667 0.34933,-0.05333 0.696,-0.07333 0.97467,-0.312 0.556,-0.473334 0.80666,-1.204 1.03333,-1.897334 l 0.13333,-0.285333 c 0.14,-0.172 0.41867,-0.233333 0.57067,-0.048 0.12533,0.152 0.17333,0.445333 0.23467,0.630667 0.096,0.292 0.208,0.58 0.36933,0.841333 0.56667,0.914667 1.556,1.010667 2.54,0.857333 0.26933,-0.04133 0.54,-0.122666 0.74933,-0.296 0.152,-0.128 0.264,-0.298666 0.35867,-0.474666 0.224,-0.417334 0.36,-0.881334 0.404,-1.353334 0.028,-0.294666 0.0693,-0.738666 -0.06,-1.049333"
         style="fill:#47527d;fill-opacity:1;fill-rule:nonzero;stroke:none;stroke-width:0.133333" />
      <path
         id="path1446"
         d="m 709.60398,69.705342 c 0.69867,0.02933 1.392,0.096 2.076,0.212 0.44267,0.07467 0.94534,0.26 1.06934,0.692 0.308,1.074666 -1.35867,1.341333 -2.07067,1.144 0.408,0.113333 0.724,0.485333 0.79867,0.902666 0.0547,0.301334 -0.009,0.617334 -0.15867,0.884 -0.0773,0.137333 -0.44133,0.592 -0.648,0.502667 0.37867,0.164 0.576,0.626666 0.49733,1.030666 -0.0453,0.232 -0.16533,0.470667 -0.32133,0.642667 l -0.57333,0.477333 c 0.228,0.114667 0.28533,0.422667 0.22666,0.670667 -0.08,0.336 -0.316,0.617333 -0.596,0.818667 -0.71066,0.514666 -1.716,0.870666 -2.58266,0.972 -0.57867,0.06667 -0.97067,0.58 -1.57067,0.678666 -0.36667,0.06 -0.74133,0.056 -1.10933,0.109334 -0.55334,0.07867 -1.104,0.378666 -1.65467,0.412 -0.46533,0.028 -0.75067,-0.272 -0.97867,-0.682667 -0.73733,-1.334667 -1.092,-2.896 -1.024,-4.421333 0.0267,-0.601334 0.13334,-1.236 0.528,-1.690667 0.248,-0.289333 0.592,-0.48 0.86,-0.752 0.564,-0.568 0.78267,-1.36 1.46667,-1.821333 0.752,-0.508 1.77067,-0.609333 2.65867,-0.689333 1.02666,-0.09333 2.07066,-0.134667 3.10666,-0.092"
         style="fill:#f57e6f;fill-opacity:1;fill-rule:nonzero;stroke:none;stroke-width:0.133333" />
      <path
         id="path1447"
         d="m 710.73598,71.596008 c -1.53066,-0.056 -3.064,0.05467 -4.57066,0.329334 -0.18667,0.03333 -0.0587,0.162666 0.076,0.138666 1.48133,-0.269333 2.988,-0.378666 4.49466,-0.324 l 0.14,-0.072 -0.14,-0.072"
         style="fill:#dc5153;fill-opacity:1;fill-rule:nonzero;stroke:none;stroke-width:0.133333" />
      <path
         id="path1448"
         d="m 710.94932,73.921341 -0.17467,-0.05067 c -0.93067,0.088 -1.85733,0.218666 -2.77733,0.392 -0.18667,0.03467 -0.0587,0.164 0.076,0.138666 0.91866,-0.173333 1.84533,-0.304 2.77733,-0.392 l 0.0987,-0.088"
         style="fill:#dc5153;fill-opacity:1;fill-rule:nonzero;stroke:none;stroke-width:0.133333" />
      <path
         id="path1449"
         d="m 710.29065,76.006675 c -0.77467,0.273333 -1.57333,0.458666 -2.388,0.554666 l -0.0987,0.08933 0.17334,0.05067 c 0.836,-0.09867 1.66133,-0.289333 2.45466,-0.569333 0.17467,-0.06133 -0.0413,-0.16 -0.14133,-0.125333"
         style="fill:#dc5153;fill-opacity:1;fill-rule:nonzero;stroke:none;stroke-width:0.133333" />
      <path
         id="path1450"
         d="m 702.60532,72.962675 c -0.0747,-0.301333 -0.036,-0.6 0.156,-0.848 l -0.16267,-0.024 c -0.18933,0.245333 -0.23733,0.545333 -0.17067,0.844 0.0693,0.302667 0.22,0.586666 0.236,0.901333 h 0.17067 c -0.0173,-0.305333 -0.15733,-0.581333 -0.22933,-0.873333"
         style="fill:#dc5153;fill-opacity:1;fill-rule:nonzero;stroke:none;stroke-width:0.133333" />
      <path
         id="path1451"
         d="m 703.01598,76.037341 c -0.31066,-0.550666 -0.39333,-1.205333 -0.23466,-1.816 h -0.16934 c -0.16133,0.617334 -0.0733,1.281334 0.24,1.838667 l 0.164,-0.02267"
         style="fill:#dc5153;fill-opacity:1;fill-rule:nonzero;stroke:none;stroke-width:0.133333" />
      <path
         id="path1452"
         d="m 706.71198,78.782675 -0.104,-0.02933 -0.104,0.01333 h -0.005 l -0.005,0.0013 h -0.0227 l -0.0533,0.0013 -0.0493,-0.0027 h -0.012 l -0.0253,-0.0027 -0.10267,-0.016 -0.10533,0.02933 0.06,0.05333 c 0.15333,0.03067 0.31467,0.03333 0.46933,0.0053 l 0.06,-0.05333"
         style="fill:#dc5153;fill-opacity:1;fill-rule:nonzero;stroke:none;stroke-width:0.133333" />
      <path
         id="path1453"
         d="m 704.14532,78.198675 c -0.30267,-0.222667 -0.47067,-0.597334 -0.44,-0.972 h -0.16934 c -0.032,0.390666 0.14934,0.784 0.46267,1.016 l 0.116,0.01467 0.0307,-0.05867"
         style="fill:#dc5153;fill-opacity:1;fill-rule:nonzero;stroke:none;stroke-width:0.133333" />
      <path
         id="path1454"
         d="m 752.21465,71.742675 c -0.112,0.144 -0.176,0.317333 -0.15334,0.498667 0.0293,0.245333 0.20134,0.445333 0.36534,0.630666 -0.51467,-0.02933 -1.03867,-0.084 -1.54667,-0.012 -0.19867,0.02933 -0.38667,0.08533 -0.54533,0.214667 -0.28,0.229333 -0.372,0.642666 -0.26934,0.982666 0.128,0.417334 0.47467,0.729334 0.84134,0.966667 -0.27867,0.024 -0.564,0.04933 -0.81867,0.166667 -0.25333,0.117333 -0.47333,0.346666 -0.5,0.625333 -0.02,0.236 0.1,0.466667 0.268,0.632 0.168,0.166667 0.38133,0.28 0.58933,0.390667 -0.528,0.08933 -1.112,0.458666 -0.74133,1.076 0.11733,0.194666 0.312,0.330666 0.512,0.437333 0.34133,0.185333 0.72133,0.309333 1.10933,0.306667 0.368,-0.0027 0.944,-0.150667 1.11867,-0.516 0.16267,-0.337334 0.0733,-0.797334 -0.24267,-0.998667 0.436,0.01467 0.868,-0.236 1.06934,-0.62 0.14666,-0.278667 0.11733,-0.542667 0.10133,-0.842667 -0.007,-0.121333 -0.032,-0.494666 -0.248,-0.462666 0.36267,-0.05333 0.71733,-0.230667 0.92933,-0.530667 0.12667,-0.176 0.19734,-0.4 0.18934,-0.618667 -0.0107,-0.268 -0.16667,-0.402666 -0.268,-0.632 0.27333,-0.092 0.532,-0.243999 0.708,-0.470666 0.28666,-0.368 0.292,-0.876 -0.0933,-1.170667 -0.51466,-0.393333 -1.26133,-0.582666 -1.896,-0.381333 -0.18533,0.05733 -0.36,0.176 -0.47866,0.328"
         style="fill:#f57e6f;fill-opacity:1;fill-rule:nonzero;stroke:none;stroke-width:0.133333" />
      <path
         id="path1455"
         d="m 753.71331,73.288008 c -0.49866,-0.266666 -1.048,-0.417333 -1.61333,-0.452 l -0.084,0.044 0.084,0.044 c 0.524,0.03067 1.03333,0.178667 1.49333,0.425333 h 0.12 v -0.06133"
         style="fill:#dc5153;fill-opacity:1;fill-rule:nonzero;stroke:none;stroke-width:0.133333" />
      <path
         id="path1456"
         d="m 752.76665,75.296008 c -0.27734,0.016 -0.54667,-0.05067 -0.816,-0.101333 -0.27334,-0.04933 -0.548,-0.09067 -0.824,-0.125334 l -0.104,0.03067 0.0587,0.05333 c 0.28534,0.03467 0.572,0.07867 0.856,0.132 0.27334,0.05067 0.548,0.113334 0.82934,0.09733 l 0.0853,-0.044 -0.0853,-0.04267"
         style="fill:#dc5153;fill-opacity:1;fill-rule:nonzero;stroke:none;stroke-width:0.133333" />
      <path
         id="path1457"
         d="m 751.93731,77.112008 c -0.44133,-0.08533 -0.88666,-0.16 -1.332,-0.221333 l -0.104,0.03067 0.0587,0.05333 c 0.44667,0.06133 0.89067,0.134666 1.332,0.221333 l 0.104,-0.03067 -0.0587,-0.05333"
         style="fill:#dc5153;fill-opacity:1;fill-rule:nonzero;stroke:none;stroke-width:0.133333" />
      <path
         id="path1458"
         d="m 703.71998,106.01867 v 23.076 h -25.82 l -1.24533,-17.216 V 96.140008 h 17.188 c 5.45467,0 9.87733,4.422662 9.87733,9.878662"
         style="fill:#777bb3;fill-opacity:1;fill-rule:nonzero;stroke:none;stroke-width:0.133333" />
      <path
         id="path1459"
         d="m 703.71998,106.01867 v 23.076 h -25.82 l -0.46133,-6.388 -0.10533,-1.45866 -0.67867,-9.36934 V 96.140008 h 17.188 c 3.46267,0 6.512,1.784 8.27467,4.482662 0.24666,0.37734 0.468,0.772 0.66266,1.18267 v 0.001 c 0.60267,1.27734 0.94,2.70534 0.94,4.212"
         style="fill:#777bb3;fill-opacity:1;fill-rule:nonzero;stroke:none;stroke-width:0.133333" />
      <path
         id="path1460"
         d="m 678.03598,100.80401 c -0.19866,-0.20134 -0.55066,-0.22667 -0.808,-0.14 -0.21733,0.072 -0.416,0.22933 -0.50266,0.44533 -0.0867,0.212 -0.0547,0.45067 0.0773,0.63733 0.15333,0.216 0.39333,0.336 0.656,0.35067 0.28667,0.0173 0.56933,-0.10267 0.67867,-0.38267 l 0.0107,-0.0373 0.0747,-0.18667 c 0.052,-0.236 -0.0147,-0.51466 -0.18667,-0.68666"
         style="fill:#47527d;fill-opacity:1;fill-rule:nonzero;stroke:none;stroke-width:0.133333" />
      <path
         id="path1461"
         d="m 690.37998,100.80401 c -0.19866,-0.20134 -0.55066,-0.22667 -0.808,-0.14 -0.21733,0.072 -0.41466,0.22933 -0.50266,0.44533 -0.0867,0.212 -0.0547,0.45067 0.0773,0.63733 0.15333,0.216 0.39333,0.336 0.65733,0.35067 0.284,0.0173 0.568,-0.10267 0.676,-0.38267 l 0.012,-0.0373 0.0747,-0.18667 c 0.0533,-0.236 -0.0147,-0.51466 -0.18667,-0.68666"
         style="fill:#47527d;fill-opacity:1;fill-rule:nonzero;stroke:none;stroke-width:0.133333" />
      <path
         id="path1462"
         d="m 702.77998,101.80534 v 0.001 c -0.13066,0.212 -0.38,0.30534 -0.63333,0.29067 -0.26133,-0.0147 -0.504,-0.13467 -0.656,-0.35067 -0.132,-0.18666 -0.164,-0.42533 -0.0773,-0.63733 0.088,-0.216 0.284,-0.37333 0.504,-0.44667 l 0.2,-0.04 c 0.24666,0.37734 0.468,0.772 0.66266,1.18267"
         style="fill:#47527d;fill-opacity:1;fill-rule:nonzero;stroke:none;stroke-width:0.133333" />
      <path
         id="path1463"
         d="m 684.15198,111.10934 c -0.19866,-0.20133 -0.552,-0.22667 -0.808,-0.14 -0.21733,0.072 -0.416,0.228 -0.50266,0.44533 -0.0867,0.212 -0.0547,0.45067 0.076,0.63734 0.15333,0.216 0.39333,0.336 0.65733,0.352 0.28667,0.0147 0.568,-0.104 0.67733,-0.384 l 0.012,-0.036 0.0733,-0.188 c 0.0533,-0.236 -0.0147,-0.51334 -0.18534,-0.68667"
         style="fill:#47527d;fill-opacity:1;fill-rule:nonzero;stroke:none;stroke-width:0.133333" />
      <path
         id="path1464"
         d="m 696.49598,111.10934 c -0.19866,-0.20133 -0.55066,-0.22667 -0.808,-0.14 -0.21733,0.072 -0.416,0.228 -0.50266,0.44533 -0.0867,0.212 -0.0547,0.45067 0.076,0.63734 0.15466,0.216 0.39466,0.336 0.656,0.352 0.28666,0.0147 0.56933,-0.104 0.67866,-0.384 l 0.012,-0.036 0.0747,-0.188 c 0.052,-0.236 -0.0147,-0.51334 -0.18667,-0.68667"
         style="fill:#47527d;fill-opacity:1;fill-rule:nonzero;stroke:none;stroke-width:0.133333" />
      <path
         id="path1465"
         d="m 678.22132,122.10134 -0.0733,0.18667 -0.0107,0.0387 c -0.10934,0.27867 -0.392,0.39734 -0.67867,0.38267 l -0.02,-0.003 -0.10533,-1.45866 c 0.24133,-0.0507 0.52933,-0.008 0.704,0.16666 0.17066,0.17334 0.23733,0.452 0.184,0.68667"
         style="fill:#47527d;fill-opacity:1;fill-rule:nonzero;stroke:none;stroke-width:0.133333" />
      <path
         id="path1466"
         d="m 690.37998,121.41467 c -0.19866,-0.20133 -0.55066,-0.22666 -0.808,-0.14133 -0.21733,0.0733 -0.41466,0.23067 -0.50266,0.44667 -0.0867,0.212 -0.0547,0.452 0.0773,0.63733 0.15333,0.216 0.39333,0.33733 0.65733,0.352 0.284,0.0147 0.568,-0.104 0.676,-0.384 l 0.012,-0.036 0.0747,-0.188 c 0.0533,-0.236 -0.0147,-0.51333 -0.18667,-0.68667"
         style="fill:#47527d;fill-opacity:1;fill-rule:nonzero;stroke:none;stroke-width:0.133333" />
      <path
         id="path1467"
         d="m 702.72532,121.41467 c -0.2,-0.20133 -0.552,-0.22666 -0.808,-0.14133 -0.22,0.0733 -0.416,0.23067 -0.504,0.44667 -0.0867,0.212 -0.0533,0.452 0.0773,0.63733 0.152,0.216 0.39333,0.33733 0.656,0.352 0.28667,0.0147 0.56933,-0.104 0.67733,-0.384 l 0.0133,-0.036 0.0733,-0.188 c 0.0533,-0.236 -0.0147,-0.51333 -0.18533,-0.68667"
         style="fill:#47527d;fill-opacity:1;fill-rule:nonzero;stroke:none;stroke-width:0.133333" />
      <path
         id="path1468"
         d="m 704.15598,127.61601 c 0,-0.58934 0,-1.18 0,-1.76934 0,-1.61733 0,-3.23466 0,-4.85066 0,-0.936 0,-1.87067 0,-2.80667 0,-0.16 -0.452,-0.16133 -0.452,0 v 17.78267 c 0,0.16 0.452,0.16133 0.452,0 v -0.35334 c 0,-1.504 0,-3.00933 0,-4.51333 0,-1.16533 0,-2.32667 0,-3.48933"
         style="fill:#47527d;fill-opacity:1;fill-rule:nonzero;stroke:none;stroke-width:0.133333" />
      <path
         id="path1469"
         d="m 695.47198,119.58801 c -0.0613,-2.804 -0.15866,-5.60667 -0.28666,-8.408 -0.064,-1.40134 -0.13734,-2.80134 -0.21867,-4.20134 -0.076,-1.296 -0.11867,-2.60533 -0.364,-3.88266 -0.21867,-1.13067 -0.61067,-2.24134 -1.344,-3.144002 -0.62933,-0.777334 -1.48133,-1.404 -2.46667,-1.630667 -0.25466,-0.05867 -0.51066,-0.09067 -0.77066,-0.1 l -0.22667,0.116 0.22667,0.116 c 1.02533,0.036 1.944,0.612 2.62,1.352 0.772,0.842669 1.212,1.921329 1.45333,3.025329 0.26933,1.236 0.32267,2.50934 0.396,3.76934 0.0813,1.36266 0.15333,2.72533 0.21867,4.088 0.12933,2.73733 0.228,5.47733 0.29333,8.21733 0.0667,2.74133 0.1,5.48267 0.10133,8.224 10e-4,2.74133 -0.028,5.48267 -0.0907,8.22267 -0.008,0.34133 -0.016,0.68133 -0.0253,1.02266 -0.004,0.15867 0.44934,0.16267 0.45334,0 0.072,-2.80266 0.11066,-5.608 0.116,-8.412 0.004,-2.792 -0.024,-5.584 -0.0853,-8.37466"
         style="fill:#47527d;fill-opacity:1;fill-rule:nonzero;stroke:none;stroke-width:0.133333" />
    </g>
  </g>
</svg>
