<?xml version="1.0" encoding="UTF-8" standalone="no"?>
<!-- Created with Inkscape (http://www.inkscape.org/) -->

<svg
   version="1.1"
   id="svg1"
   width="87.483658"
   height="151.10255"
   viewBox="0 0 87.483658 151.10255"
   xmlns="http://www.w3.org/2000/svg"
   xmlns:svg="http://www.w3.org/2000/svg">
  <defs
     id="defs1" />
  <g
     id="g1"
     transform="translate(-38.360603,-185.64015)">
    <g
       id="g2298">
      <path
         id="path254"
         d="m 87.638531,224.832 c 0.101067,-0.744 -0.3312,-1.5 -0.747867,-2.15466 -2.099466,-3.29467 -4.172933,-6.60934 -6.299466,-9.88667 -1.6532,-2.55067 -3.519867,-5.40133 -6.305733,-6.82667 -2.0964,-1.07333 -4.6,-0.59866 -6.064667,1.27467 -1.791066,2.288 -1.0828,4.53733 0.172934,6.80267 1.906266,3.43733 3.856266,6.85733 6.027599,10.136 1.128134,1.704 2.315067,3.36933 3.582267,4.972 0.1308,0.164 1.680267,2.328 1.76,2.27066 2.2728,-1.61466 4.505733,-3.284 6.697333,-5.008 0.459333,-0.36266 0.940667,-0.76 1.1188,-1.31733 l 0.0588,-0.26267"
         style="fill:#f9a859;fill-opacity:1;fill-rule:nonzero;stroke:none;stroke-width:0.133333" />
      <path
         id="path255"
         d="m 125.84426,336.32 c -1.26613,-20.99866 -4.19893,-69.412 -4.35626,-70.04133 l -1.46507,0.368 -0.012,-0.0587 c 0.1636,1.22267 2.88747,45.98667 4.31973,69.732 h 1.5136"
         style="fill:#47527d;fill-opacity:1;fill-rule:nonzero;stroke:none;stroke-width:0.133333" />
      <path
         id="path256"
         d="m 121.46253,268.11067 h -1.17813 c -1.04014,0 -1.88334,-0.84267 -1.88334,-1.884 0,-1.04 0.8432,-1.88267 1.88334,-1.88267 h 1.17813 c 1.04013,0 1.88333,0.84267 1.88333,1.88267 0,1.04133 -0.8432,1.884 -1.88333,1.884"
         style="fill:#47527d;fill-opacity:1;fill-rule:nonzero;stroke:none;stroke-width:0.133333" />
      <path
         id="path257"
         d="m 117.6088,267.27867 0.22666,0.30533 c 0.24107,0.252 0.4624,0.48134 0.67494,0.76267 l 0.17973,0.19467 c 0.31507,0.23733 0.71093,-0.003 0.70307,-0.38 -0.008,-0.43467 -0.26814,-0.82267 -0.35054,-1.24934 -0.15253,-0.79866 0.3584,-1.60933 1.1652,-1.72133 0.81814,-0.11333 1.56867,0.47333 1.78534,1.23867 0.17506,0.61733 0.0907,1.17066 0.0172,1.788 -0.0192,0.16266 0.008,0.35066 0.14226,0.44266 0.16347,0.11334 0.3864,0.0267 0.56134,-0.068 -0.0265,0.22534 0.21466,0.41334 0.44066,0.40534 0.22654,-0.009 0.42507,-0.15467 0.58227,-0.31734 0.17507,-0.18133 0.32093,-0.39066 0.43027,-0.61733 0.124,0.104 0.30053,-0.036 0.38906,-0.17067 0.72187,-1.096 0.76507,-2.75466 -0.0735,-3.81066 -0.6224,-0.784 -1.57867,-0.91467 -2.38694,-1.42934 -0.49173,-0.31466 -0.92706,-0.74266 -1.14893,-1.28133 l -0.14907,-0.23867 -0.31666,-0.044 c -0.95054,0.108 -1.89054,0.31334 -2.79947,0.61334 l -0.29627,0.144 c -0.11986,0.104 -0.1724,0.26666 -0.19066,0.42533 -0.0937,0.808 0.53586,1.39467 0.60626,2.15867 0.0687,0.74533 -0.43386,1.452 -0.38653,2.2 0.0152,0.228 0.0828,0.45066 0.19427,0.64933"
         style="fill:#f57e6f;fill-opacity:1;fill-rule:nonzero;stroke:none;stroke-width:0.133333" />
      <path
         id="path258"
         d="m 122.9604,265.188 -0.14587,0.02 c 0.4172,1.00534 0.40107,2.16667 -0.0443,3.16 l 0.14587,0.0213 c 0.45107,-1.008 0.4672,-2.18134 0.0443,-3.20134"
         style="fill:#dc5153;fill-opacity:1;fill-rule:nonzero;stroke:none;stroke-width:0.133333" />
      <path
         id="path259"
         d="m 124.10733,265.072 -0.14587,0.0213 c 0.35574,0.83466 0.2828,1.768 0.1192,2.63733 h 0.15107 c 0.16467,-0.87867 0.23387,-1.816 -0.1244,-2.65867"
         style="fill:#dc5153;fill-opacity:1;fill-rule:nonzero;stroke:none;stroke-width:0.133333" />
      <path
         id="path260"
         d="m 120.3948,265.148 c -0.65,-0.0227 -1.29587,0.208 -1.77974,0.64134 l 0.13027,0.04 c 0.45053,-0.40534 1.0432,-0.62534 1.64947,-0.60534 v -0.076"
         style="fill:#dc5153;fill-opacity:1;fill-rule:nonzero;stroke:none;stroke-width:0.133333" />
      <path
         id="path261"
         d="m 115.47506,235.71467 c 0.42654,2.59333 0.28227,5.22267 0.67654,7.85733 0.4448,2.97334 1.1276,5.94 2.43013,8.66534 1.19373,2.49466 3.46467,4.69733 4.1204,7.40666 0.3848,1.59067 -0.21093,2.55867 -1.66573,3.12667 -1.02387,0.39867 -2.04734,0.79867 -3.0708,1.19867 -0.35,0.13733 -0.7292,0.276 -1.09267,0.17866 -0.79227,-0.212 -1.95933,-1.456 -2.4688,-2.076 -0.68013,-0.828 -1.22493,-1.76133 -1.75,-2.692 -3.96613,-7.04133 -4.4036,-14.804 -3.40573,-22.66533 0.23333,-1.836 0.48026,-3.67333 0.8604,-5.48667 0.25053,-1.19466 0.26933,-3.108 1.64586,-3.58933 0.2188,-0.0773 0.45107,-0.13067 0.68134,-0.10267 0.6656,0.0787 1.06093,0.76934 1.314,1.39067 0.45413,1.11467 0.79733,2.27467 1.02546,3.45733 0.21574,1.12134 0.51414,2.2 0.6996,3.33067"
         style="fill:#94cdd7;fill-opacity:1;fill-rule:nonzero;stroke:none;stroke-width:0.133333" />
      <path
         id="path262"
         d="m 96.684398,322.29734 0.02347,0.148 c 0.464,3.01066 0.723867,6.09066 0.749467,9.13333 0.0067,0.83467 -0.3032,2.13733 0.3396,2.80133 0.223867,0.23067 0.552533,0.32133 0.867067,0.38667 0.7272,0.15066 1.471998,0.21866 2.215198,0.20266 0.68586,-0.016 1.4068,-0.11866 1.9536,-0.53333 0.58173,-0.44267 0.8136,-1.21866 0.46666,-1.87066 -1.49533,-2.812 -0.6016,-6.86 -0.1792,-9.844 0.512,-3.61867 1.19227,-7.228 1.30374,-10.88934 0.008,-0.25733 0.012,-0.524 -0.0745,-0.768 -0.0896,-0.256 -0.27186,-0.46933 -0.4692,-0.65466 -1.13546,-1.07467 -2.74226,-1.38 -4.253192,-1.424 -1.433333,-0.0413 -3.0244,-0.43867 -3.8292,1.08266 -0.376,0.71067 -0.444266,1.54134 -0.4536,2.34667 -0.03693,3.32933 0.8224,6.592 1.340134,9.88267"
         style="fill:#f57e6f;fill-opacity:1;fill-rule:nonzero;stroke:none;stroke-width:0.133333" />
      <path
         id="path263"
         d="m 106.312,333.81467 c 0.54373,0.248 1.0964,0.47733 1.6568,0.684 0.42386,0.15733 1.02906,0.12 1.22853,0.59866 0.0844,0.20667 0.0923,0.432 0.0985,0.65334 0.006,0.22 0.0823,0.43333 -0.1396,0.51333 -0.17026,0.0627 -0.54946,-0.0133 -0.7344,-0.0107 -0.6412,0.016 -1.28226,0.016 -1.92346,0.005 -1.2604,-0.0213 -2.52134,-0.0747 -3.7796,-0.144 -1.01827,-0.048 -2.03654,-0.096 -3.055202,-0.12134 -0.51,-0.012 -1.0188,-0.0187 -1.528134,-0.016 -0.4016,10e-4 -0.7448,0.0693 -1.1412,-0.028 l -0.254133,-0.148 -0.0344,-0.19866 c 0.0036,-0.652 0.062,-1.304 0.1724,-1.948 0.07973,-0.46 0.128667,-1.708 0.9104,-1.08667 0.148933,0.11867 0.2636,0.276 0.412,0.396 0.297333,0.23867 0.697333,0.3 1.0776,0.33467 0.477067,0.0427 0.956799,0.056 1.435469,0.0373 0.39786,-0.0147 0.80253,-0.0507 1.1676,-0.20666 0.15626,-0.0667 0.3896,-0.16934 0.42813,-0.348 0.0469,-0.22267 0.0699,-0.44934 0.0677,-0.676 -0.005,-0.50667 0.2688,-0.76134 0.67814,-0.37867 0.32293,0.30133 0.60266,0.62133 0.9656,0.88133 0.70373,0.50534 1.50626,0.84933 2.2912,1.20667"
         style="fill:#eb5881;fill-opacity:1;fill-rule:nonzero;stroke:none;stroke-width:0.133333" />
      <path
         id="path264"
         d="M 108.68386,336.72267 H 97.201064 c -0.360933,0 -0.654133,-0.29334 -0.654133,-0.65334 0,-0.36266 0.2932,-0.65466 0.654133,-0.65466 h 11.482796 c 0.36094,0 0.65467,0.292 0.65467,0.65466 0,0.36 -0.29373,0.65334 -0.65467,0.65334"
         style="fill:#e6cdbb;fill-opacity:1;fill-rule:nonzero;stroke:none;stroke-width:0.133333" />
      <path
         id="path265"
         d="m 82.684398,322.29734 0.02347,0.148 c 0.463466,3.01066 0.7228,6.09066 0.749466,9.13333 0.0067,0.83467 -0.303733,2.13733 0.339067,2.80133 0.223867,0.23067 0.552533,0.32133 0.8672,0.38667 0.7276,0.15066 1.4724,0.21866 2.214533,0.20266 0.686933,-0.016 1.407867,-0.11866 1.954667,-0.53333 0.581733,-0.44267 0.8136,-1.21866 0.466666,-1.87066 -1.4964,-2.812 -0.6016,-6.86 -0.179733,-9.844 0.511467,-3.61867 1.192267,-7.228 1.304267,-10.88934 0.0077,-0.25733 0.01147,-0.524 -0.07453,-0.768 -0.09067,-0.256 -0.272933,-0.46933 -0.4692,-0.65466 -1.136,-1.07467 -2.742266,-1.38 -4.254266,-1.424 -1.432267,-0.0413 -3.023333,-0.43867 -3.828667,1.08266 -0.375466,0.71067 -0.444666,1.54134 -0.4536,2.34667 -0.0364,3.32933 0.8224,6.592 1.340667,9.88267"
         style="fill:#f57e6f;fill-opacity:1;fill-rule:nonzero;stroke:none;stroke-width:0.133333" />
      <path
         id="path266"
         d="m 92.311998,333.81467 c 0.543733,0.248 1.0964,0.47733 1.656266,0.684 0.4244,0.15733 1.0296,0.12 1.228667,0.59866 0.08427,0.20667 0.09213,0.432 0.09893,0.65334 0.0057,0.22 0.08227,0.43333 -0.1396,0.51333 -0.171333,0.0627 -0.549466,-0.0133 -0.734933,-0.0107 -0.640667,0.016 -1.281733,0.016 -1.923467,0.005 -1.2604,-0.0213 -2.5208,-0.0747 -3.7796,-0.144 -1.018266,-0.048 -2.036533,-0.096 -3.055199,-0.12134 -0.509467,-0.012 -1.018267,-0.0187 -1.528134,-0.016 -0.402133,10e-4 -0.7448,0.0693 -1.140666,-0.028 l -0.254667,-0.148 -0.0344,-0.19866 c 0.0041,-0.652 0.06253,-1.304 0.172933,-1.948 0.0792,-0.46 0.128667,-1.708 0.909334,-1.08667 0.149466,0.11867 0.264133,0.276 0.412533,0.396 0.297333,0.23867 0.697333,0.3 1.078133,0.33467 0.477067,0.0427 0.9568,0.056 1.435467,0.0373 0.3968,-0.0147 0.802,-0.0507 1.1676,-0.20666 0.155733,-0.0667 0.3896,-0.16934 0.4272,-0.348 0.04787,-0.22267 0.0708,-0.44934 0.0676,-0.676 -0.0052,-0.50667 0.269333,-0.76134 0.678666,-0.37867 0.323467,0.30133 0.6032,0.62133 0.9656,0.88133 0.704267,0.50534 1.506267,0.84933 2.291734,1.20667"
         style="fill:#eb5881;fill-opacity:1;fill-rule:nonzero;stroke:none;stroke-width:0.133333" />
      <path
         id="path267"
         d="M 94.682798,336.72267 H 83.201065 c -0.362,0 -0.654667,-0.29334 -0.654667,-0.65334 0,-0.36266 0.292667,-0.65466 0.654667,-0.65466 h 11.481733 c 0.362,0 0.6552,0.292 0.6552,0.65466 0,0.36 -0.2932,0.65334 -0.6552,0.65334"
         style="fill:#e6cdbb;fill-opacity:1;fill-rule:nonzero;stroke:none;stroke-width:0.133333" />
      <path
         id="path268"
         d="m 108.80626,314.96134 c 0.0875,-2.02 0.16307,-4.04134 0.224,-6.06134 0.12814,-4.26266 0.19574,-8.52933 0.20254,-12.79333 0.007,-3.76933 -0.47027,-7.79067 0.2536,-11.47067 0.57866,-2.94266 0.2996,-5.896 0.38133,-8.852 0.0885,-3.20933 -0.2964,-6.43466 -0.2964,-9.648 -0.0817,-2.43866 -0.16507,-4.888 -0.59267,-7.29066 -0.37706,-2.11734 -1.0568,-4.25334 -2.46986,-5.87467 -2.45147,-2.816 -6.571869,-3.50267 -10.297336,-3.26267 -5.718266,0.36934 -11.481733,2.65867 -15.165599,7.04667 -4.308934,5.132 -5.969867,12.53733 -6.098,19.06667 -0.257734,13.05733 0.599466,26.108 1.456266,39.14 h 32.402129"
         style="fill:#777bb3;fill-opacity:1;fill-rule:nonzero;stroke:none;stroke-width:0.133333" />
      <path
         id="path269"
         d="m 110.74173,235.05067 c -0.0147,1.06267 -0.0756,2.12533 -0.1548,3.184 -0.1104,1.49733 -0.6072,2.78933 -0.78533,4.23867 -0.3032,2.46533 -0.39067,4.95066 -0.44534,7.432 -0.0265,1.20533 -0.0937,2.42666 -0.0391,3.632 0.0443,0.996 -0.17547,1.388 -1.34427,1.43466 l -0.16253,0.007 c -6.62134,0.26533 -13.250002,0.528 -19.873469,0.31733 -0.613467,-0.0187 -1.292133,-0.0707 -1.721333,-0.51066 -0.416667,-0.42934 -0.592667,-1.11067 -0.646267,-1.86134 -0.08653,-1.19066 0.130667,-2.556 0.169734,-3.384 0.101066,-2.08533 0.204133,-4.16933 0.3088,-6.25333 0.283333,-5.59733 0.587066,-11.216 1.684933,-16.71067 0.3964,-1.984 0.926,-4.01066 2.166133,-5.608 1.264133,-1.62933 3.169333,-2.51866 5.181333,-2.092 2.313467,0.48934 4.742134,0.54134 7.045196,1.232 2.29067,0.68934 4.48854,1.924 5.91054,3.84667 1.57906,2.136 2.36186,5.58 2.60253,8.19333 0.0443,0.47467 0.0724,0.95067 0.0885,1.42667 0.0172,0.492 0.0208,0.98267 0.0147,1.476"
         style="fill:#777bb3;fill-opacity:1;fill-rule:nonzero;stroke:none;stroke-width:0.133333" />
      <path
         id="path270"
         d="m 90.299998,227.50534 c -0.130267,-0.32934 -0.385467,-0.48267 -0.732267,-0.46667 -0.147467,0.007 -0.291733,0.048 -0.412,0.136 -0.133333,0.0973 -0.204667,0.25333 -0.2464,0.40933 -0.04947,0.18134 -0.06507,0.37867 0.0104,0.55467 0.05733,0.13333 0.169333,0.23867 0.295867,0.304 0.279733,0.14667 0.65,0.124 0.889066,-0.0907 0.237467,-0.212 0.312,-0.552 0.195334,-0.84666"
         style="fill:#47527d;fill-opacity:1;fill-rule:nonzero;stroke:none;stroke-width:0.133333" />
      <path
         id="path271"
         d="m 98.741198,227.50534 c -0.1308,-0.32934 -0.386534,-0.48267 -0.7328,-0.46667 -0.148,0.007 -0.291734,0.048 -0.412,0.136 -0.133334,0.0973 -0.204667,0.25333 -0.246934,0.40933 -0.0484,0.18134 -0.06507,0.37867 0.01093,0.55467 0.0568,0.13333 0.1688,0.23867 0.295866,0.304 0.279734,0.14667 0.65,0.124 0.8896,-0.0907 0.237467,-0.212 0.311467,-0.552 0.195334,-0.84666"
         style="fill:#47527d;fill-opacity:1;fill-rule:nonzero;stroke:none;stroke-width:0.133333" />
      <path
         id="path272"
         d="m 107.18173,227.50534 c -0.13067,-0.32934 -0.38587,-0.48267 -0.73333,-0.46667 -0.1468,0.007 -0.2916,0.048 -0.41147,0.136 -0.13333,0.0973 -0.2052,0.25333 -0.24627,0.40933 -0.0489,0.18134 -0.0656,0.37867 0.0109,0.55467 0.0568,0.13333 0.16813,0.23867 0.29533,0.304 0.28013,0.14667 0.65,0.124 0.88947,-0.0907 0.2376,-0.212 0.31093,-0.552 0.19533,-0.84666"
         style="fill:#47527d;fill-opacity:1;fill-rule:nonzero;stroke:none;stroke-width:0.133333" />
      <path
         id="path273"
         d="m 94.685998,234.03067 c -0.1308,-0.33067 -0.386,-0.48267 -0.7324,-0.468 -0.147334,0.008 -0.292134,0.048 -0.411867,0.136 -0.133333,0.0987 -0.2048,0.25467 -0.246933,0.41067 -0.0484,0.18133 -0.06507,0.37733 0.01147,0.55466 0.05627,0.13334 0.168267,0.23734 0.295334,0.304 0.2796,0.14534 0.65,0.12267 0.8896,-0.0907 0.237466,-0.212 0.310933,-0.55334 0.1948,-0.84667"
         style="fill:#47527d;fill-opacity:1;fill-rule:nonzero;stroke:none;stroke-width:0.133333" />
      <path
         id="path274"
         d="m 103.12706,234.03067 c -0.13066,-0.33067 -0.38586,-0.48267 -0.73333,-0.468 -0.1468,0.008 -0.2916,0.048 -0.41147,0.136 -0.13333,0.0987 -0.2052,0.25467 -0.24626,0.41067 -0.0491,0.18133 -0.0657,0.37733 0.0104,0.55466 0.0567,0.13334 0.16866,0.23734 0.29573,0.304 0.28027,0.14534 0.65,0.12267 0.8896,-0.0907 0.23707,-0.212 0.31093,-0.55334 0.19533,-0.84667"
         style="fill:#47527d;fill-opacity:1;fill-rule:nonzero;stroke:none;stroke-width:0.133333" />
      <path
         id="path275"
         d="m 110.74173,235.05067 -0.25947,-0.0827 c -0.12653,-0.0667 -0.23906,-0.17066 -0.2948,-0.304 -0.0771,-0.176 -0.0604,-0.37466 -0.0109,-0.55466 0.0423,-0.156 0.11253,-0.31334 0.24693,-0.41067 l 0.3036,-0.124 c 0.0172,0.492 0.0208,0.98267 0.0147,1.476"
         style="fill:#47527d;fill-opacity:1;fill-rule:nonzero;stroke:none;stroke-width:0.133333" />
      <path
         id="path276"
         d="M 90.299998,240.55467 C 90.169731,240.224 89.914531,240.072 89.567731,240.088 c -0.147467,0.007 -0.291733,0.048 -0.412,0.13467 -0.133333,0.0987 -0.204667,0.25467 -0.2464,0.41067 -0.04947,0.18133 -0.06507,0.37866 0.0104,0.556 0.05733,0.132 0.169333,0.236 0.295867,0.30266 0.279733,0.14667 0.65,0.124 0.889066,-0.0907 0.237467,-0.212 0.312,-0.552 0.195334,-0.84667"
         style="fill:#47527d;fill-opacity:1;fill-rule:nonzero;stroke:none;stroke-width:0.133333" />
      <path
         id="path277"
         d="m 98.741198,240.55467 c -0.1308,-0.33067 -0.386534,-0.48267 -0.7328,-0.46667 -0.148,0.007 -0.291734,0.048 -0.412,0.13467 -0.133334,0.0987 -0.204667,0.25467 -0.246934,0.41067 -0.0484,0.18133 -0.06507,0.37866 0.01093,0.556 0.0568,0.132 0.1688,0.236 0.295866,0.30266 0.279734,0.14667 0.65,0.124 0.8896,-0.0907 0.237467,-0.212 0.311467,-0.552 0.195334,-0.84667"
         style="fill:#47527d;fill-opacity:1;fill-rule:nonzero;stroke:none;stroke-width:0.133333" />
      <path
         id="path278"
         d="m 107.18173,240.55467 c -0.13067,-0.33067 -0.38587,-0.48267 -0.73333,-0.46667 -0.1468,0.007 -0.2916,0.048 -0.41147,0.13467 -0.13333,0.0987 -0.2052,0.25467 -0.24627,0.41067 -0.0489,0.18133 -0.0656,0.37866 0.0109,0.556 0.0568,0.132 0.16813,0.236 0.29533,0.30266 0.28013,0.14667 0.65,0.124 0.88947,-0.0907 0.2376,-0.212 0.31093,-0.552 0.19533,-0.84667"
         style="fill:#47527d;fill-opacity:1;fill-rule:nonzero;stroke:none;stroke-width:0.133333" />
      <path
         id="path279"
         d="m 94.685998,247.08 c -0.1308,-0.33066 -0.386,-0.484 -0.7324,-0.468 -0.147334,0.008 -0.292134,0.0493 -0.411867,0.136 -0.133333,0.0973 -0.2048,0.25334 -0.246933,0.40934 -0.0484,0.18133 -0.06507,0.37866 0.01147,0.556 0.05627,0.132 0.168267,0.23733 0.295334,0.304 0.2796,0.14533 0.65,0.12266 0.8896,-0.0907 0.237466,-0.21333 0.310933,-0.55333 0.1948,-0.84667"
         style="fill:#47527d;fill-opacity:1;fill-rule:nonzero;stroke:none;stroke-width:0.133333" />
      <path
         id="path280"
         d="m 103.12706,247.08 c -0.13066,-0.33066 -0.38586,-0.484 -0.73333,-0.468 -0.1468,0.008 -0.2916,0.0493 -0.41147,0.136 -0.13333,0.0973 -0.2052,0.25334 -0.24626,0.40934 -0.0491,0.18133 -0.0657,0.37866 0.0104,0.556 0.0567,0.132 0.16866,0.23733 0.29573,0.304 0.28027,0.14533 0.65,0.12266 0.8896,-0.0907 0.23707,-0.21333 0.31093,-0.55333 0.19533,-0.84667"
         style="fill:#47527d;fill-opacity:1;fill-rule:nonzero;stroke:none;stroke-width:0.133333" />
      <path
         id="path281"
         d="m 90.299998,253.604 c -0.130267,-0.32933 -0.385467,-0.48266 -0.732267,-0.46666 -0.147467,0.007 -0.291733,0.048 -0.412,0.136 -0.133333,0.0973 -0.204667,0.25333 -0.2464,0.40933 -0.04947,0.18133 -0.06507,0.37867 0.0104,0.55467 0.05733,0.13333 0.169333,0.23733 0.295867,0.304 0.279733,0.14666 0.65,0.124 0.889066,-0.0907 0.237467,-0.212 0.312,-0.55333 0.195334,-0.84667"
         style="fill:#47527d;fill-opacity:1;fill-rule:nonzero;stroke:none;stroke-width:0.133333" />
      <path
         id="path282"
         d="m 98.741198,253.604 c -0.1308,-0.32933 -0.386534,-0.48266 -0.7328,-0.46666 -0.148,0.007 -0.291734,0.048 -0.412,0.136 -0.133334,0.0973 -0.204667,0.25333 -0.246934,0.40933 -0.0484,0.18133 -0.06507,0.37867 0.01093,0.55467 0.0568,0.13333 0.1688,0.23733 0.295866,0.304 0.279734,0.14666 0.65,0.124 0.8896,-0.0907 0.237467,-0.212 0.311467,-0.55333 0.195334,-0.84667"
         style="fill:#47527d;fill-opacity:1;fill-rule:nonzero;stroke:none;stroke-width:0.133333" />
      <path
         id="path283"
         d="m 107.18173,253.604 c -0.13067,-0.32933 -0.38587,-0.48266 -0.73333,-0.46666 -0.1468,0.007 -0.2916,0.048 -0.41147,0.136 -0.13333,0.0973 -0.2052,0.25333 -0.24627,0.40933 -0.0489,0.18133 -0.0656,0.37867 0.0109,0.55467 0.0568,0.13333 0.16813,0.23733 0.29533,0.304 0.28013,0.14666 0.65,0.124 0.88947,-0.0907 0.2376,-0.212 0.31093,-0.55333 0.19533,-0.84667"
         style="fill:#47527d;fill-opacity:1;fill-rule:nonzero;stroke:none;stroke-width:0.133333" />
      <path
         id="path284"
         d="m 86.245331,260.12934 c -0.130266,-0.33067 -0.386,-0.484 -0.732266,-0.46667 -0.148,0.005 -0.291734,0.0467 -0.412,0.13467 -0.133334,0.0973 -0.204667,0.25466 -0.246934,0.40933 -0.04893,0.18267 -0.06507,0.37867 0.01093,0.556 0.0568,0.132 0.169333,0.23733 0.295866,0.30267 0.279734,0.14666 0.649467,0.124 0.889067,-0.0907 0.237467,-0.212 0.312,-0.552 0.195333,-0.84533"
         style="fill:#47527d;fill-opacity:1;fill-rule:nonzero;stroke:none;stroke-width:0.133333" />
      <path
         id="path285"
         d="m 94.685998,260.12934 c -0.1308,-0.33067 -0.386,-0.484 -0.7324,-0.46667 -0.147334,0.005 -0.292134,0.0467 -0.411867,0.13467 -0.133333,0.0973 -0.2048,0.25466 -0.246933,0.40933 -0.0484,0.18267 -0.06507,0.37867 0.01147,0.556 0.05627,0.132 0.168267,0.23733 0.295334,0.30267 0.2796,0.14666 0.65,0.124 0.8896,-0.0907 0.237466,-0.212 0.310933,-0.552 0.1948,-0.84533"
         style="fill:#47527d;fill-opacity:1;fill-rule:nonzero;stroke:none;stroke-width:0.133333" />
      <path
         id="path286"
         d="m 103.12706,260.12934 c -0.13066,-0.33067 -0.38586,-0.484 -0.73333,-0.46667 -0.1468,0.005 -0.2916,0.0467 -0.41147,0.13467 -0.13333,0.0973 -0.2052,0.25466 -0.24626,0.40933 -0.0491,0.18267 -0.0657,0.37867 0.0104,0.556 0.0567,0.132 0.16866,0.23733 0.29573,0.30267 0.28027,0.14666 0.65,0.124 0.8896,-0.0907 0.23707,-0.212 0.31093,-0.552 0.19533,-0.84533"
         style="fill:#47527d;fill-opacity:1;fill-rule:nonzero;stroke:none;stroke-width:0.133333" />
      <path
         id="path287"
         d="m 81.859865,266.65334 c -0.130667,-0.32934 -0.385867,-0.484 -0.7328,-0.46667 -0.147334,0.007 -0.2916,0.048 -0.411467,0.136 -0.1344,0.096 -0.2052,0.25333 -0.2468,0.40933 -0.04907,0.18134 -0.0652,0.37867 0.0104,0.55467 0.0572,0.13333 0.1692,0.23733 0.295867,0.304 0.280133,0.14533 0.65,0.124 0.888933,-0.0907 0.2376,-0.212 0.312,-0.55333 0.195867,-0.84666"
         style="fill:#47527d;fill-opacity:1;fill-rule:nonzero;stroke:none;stroke-width:0.133333" />
      <path
         id="path288"
         d="m 90.299998,266.65334 c -0.130267,-0.32934 -0.385467,-0.484 -0.732267,-0.46667 -0.147467,0.007 -0.291733,0.048 -0.412,0.136 -0.133333,0.096 -0.204667,0.25333 -0.2464,0.40933 -0.04947,0.18134 -0.06507,0.37867 0.0104,0.55467 0.05733,0.13333 0.169333,0.23733 0.295867,0.304 0.279733,0.14533 0.65,0.124 0.889066,-0.0907 0.237467,-0.212 0.312,-0.55333 0.195334,-0.84666"
         style="fill:#47527d;fill-opacity:1;fill-rule:nonzero;stroke:none;stroke-width:0.133333" />
      <path
         id="path289"
         d="m 98.741198,266.65334 c -0.1308,-0.32934 -0.386534,-0.484 -0.7328,-0.46667 -0.148,0.007 -0.291734,0.048 -0.412,0.136 -0.133334,0.096 -0.204667,0.25333 -0.246934,0.40933 -0.0484,0.18134 -0.06507,0.37867 0.01093,0.55467 0.0568,0.13333 0.1688,0.23733 0.295866,0.304 0.279734,0.14533 0.65,0.124 0.8896,-0.0907 0.237467,-0.212 0.311467,-0.55333 0.195334,-0.84666"
         style="fill:#47527d;fill-opacity:1;fill-rule:nonzero;stroke:none;stroke-width:0.133333" />
      <path
         id="path290"
         d="m 107.18173,266.65334 c -0.13067,-0.32934 -0.38587,-0.484 -0.73333,-0.46667 -0.1468,0.007 -0.2916,0.048 -0.41147,0.136 -0.13333,0.096 -0.2052,0.25333 -0.24627,0.40933 -0.0489,0.18134 -0.0656,0.37867 0.0109,0.55467 0.0568,0.13333 0.16813,0.23733 0.29533,0.304 0.28013,0.14533 0.65,0.124 0.88947,-0.0907 0.2376,-0.212 0.31093,-0.55333 0.19533,-0.84666"
         style="fill:#47527d;fill-opacity:1;fill-rule:nonzero;stroke:none;stroke-width:0.133333" />
      <path
         id="path291"
         d="m 77.804665,273.17867 c -0.130134,-0.33067 -0.385334,-0.484 -0.732267,-0.468 -0.147333,0.007 -0.291733,0.048 -0.411467,0.136 -0.1344,0.0973 -0.2052,0.25333 -0.246933,0.40933 -0.04893,0.18134 -0.06507,0.37867 0.01053,0.55467 0.0572,0.13333 0.1692,0.23867 0.2952,0.304 0.280267,0.14533 0.650534,0.124 0.8896,-0.0893 0.2376,-0.21334 0.312,-0.55334 0.195334,-0.84667"
         style="fill:#47527d;fill-opacity:1;fill-rule:nonzero;stroke:none;stroke-width:0.133333" />
      <path
         id="path292"
         d="m 86.245331,273.17867 c -0.130266,-0.33067 -0.386,-0.484 -0.732266,-0.468 -0.148,0.007 -0.291734,0.048 -0.412,0.136 -0.133334,0.0973 -0.204667,0.25333 -0.246934,0.40933 -0.04893,0.18134 -0.06507,0.37867 0.01093,0.55467 0.0568,0.13333 0.169333,0.23867 0.295866,0.304 0.279734,0.14533 0.649467,0.124 0.889067,-0.0893 0.237467,-0.21334 0.312,-0.55334 0.195333,-0.84667"
         style="fill:#47527d;fill-opacity:1;fill-rule:nonzero;stroke:none;stroke-width:0.133333" />
      <path
         id="path293"
         d="m 94.685998,273.17867 c -0.1308,-0.33067 -0.386,-0.484 -0.7324,-0.468 -0.147334,0.007 -0.292134,0.048 -0.411867,0.136 -0.133333,0.0973 -0.2048,0.25333 -0.246933,0.40933 -0.0484,0.18134 -0.06507,0.37867 0.01147,0.55467 0.05627,0.13333 0.168267,0.23867 0.295334,0.304 0.2796,0.14533 0.65,0.124 0.8896,-0.0893 0.237466,-0.21334 0.310933,-0.55334 0.1948,-0.84667"
         style="fill:#47527d;fill-opacity:1;fill-rule:nonzero;stroke:none;stroke-width:0.133333" />
      <path
         id="path294"
         d="m 103.12706,273.17867 c -0.13066,-0.33067 -0.38586,-0.484 -0.73333,-0.468 -0.1468,0.007 -0.2916,0.048 -0.41147,0.136 -0.13333,0.0973 -0.2052,0.25333 -0.24626,0.40933 -0.0491,0.18134 -0.0657,0.37867 0.0104,0.55467 0.0567,0.13333 0.16866,0.23867 0.29573,0.304 0.28027,0.14533 0.65,0.124 0.8896,-0.0893 0.23707,-0.21334 0.31093,-0.55334 0.19533,-0.84667"
         style="fill:#47527d;fill-opacity:1;fill-rule:nonzero;stroke:none;stroke-width:0.133333" />
      <path
         id="path295"
         d="m 81.859865,279.70134 c -0.130667,-0.32934 -0.385867,-0.48267 -0.7328,-0.46534 -0.147334,0.007 -0.2916,0.048 -0.411467,0.13467 -0.1344,0.0987 -0.2052,0.25467 -0.2468,0.41067 -0.04907,0.18133 -0.0652,0.37733 0.0104,0.55466 0.0572,0.13334 0.1692,0.23734 0.295867,0.30267 0.280133,0.14667 0.65,0.124 0.888933,-0.0893 0.2376,-0.212 0.312,-0.55334 0.195867,-0.848"
         style="fill:#47527d;fill-opacity:1;fill-rule:nonzero;stroke:none;stroke-width:0.133333" />
      <path
         id="path296"
         d="m 90.299998,279.70134 c -0.130267,-0.32934 -0.385467,-0.48267 -0.732267,-0.46534 -0.147467,0.007 -0.291733,0.048 -0.412,0.13467 -0.133333,0.0987 -0.204667,0.25467 -0.2464,0.41067 -0.04947,0.18133 -0.06507,0.37733 0.0104,0.55466 0.05733,0.13334 0.169333,0.23734 0.295867,0.30267 0.279733,0.14667 0.65,0.124 0.889066,-0.0893 0.237467,-0.212 0.312,-0.55334 0.195334,-0.848"
         style="fill:#47527d;fill-opacity:1;fill-rule:nonzero;stroke:none;stroke-width:0.133333" />
      <path
         id="path297"
         d="m 98.741198,279.70134 c -0.1308,-0.32934 -0.386534,-0.48267 -0.7328,-0.46534 -0.148,0.007 -0.291734,0.048 -0.412,0.13467 -0.133334,0.0987 -0.204667,0.25467 -0.246934,0.41067 -0.0484,0.18133 -0.06507,0.37733 0.01093,0.55466 0.0568,0.13334 0.1688,0.23734 0.295866,0.30267 0.279734,0.14667 0.65,0.124 0.8896,-0.0893 0.237467,-0.212 0.311467,-0.55334 0.195334,-0.848"
         style="fill:#47527d;fill-opacity:1;fill-rule:nonzero;stroke:none;stroke-width:0.133333" />
      <path
         id="path298"
         d="m 107.18173,279.70134 c -0.13067,-0.32934 -0.38587,-0.48267 -0.73333,-0.46534 -0.1468,0.007 -0.2916,0.048 -0.41147,0.13467 -0.13333,0.0987 -0.2052,0.25467 -0.24627,0.41067 -0.0489,0.18133 -0.0656,0.37733 0.0109,0.55466 0.0568,0.13334 0.16813,0.23734 0.29533,0.30267 0.28013,0.14667 0.65,0.124 0.88947,-0.0893 0.2376,-0.212 0.31093,-0.55334 0.19533,-0.848"
         style="fill:#47527d;fill-opacity:1;fill-rule:nonzero;stroke:none;stroke-width:0.133333" />
      <path
         id="path299"
         d="m 77.804665,286.22667 c -0.130134,-0.32933 -0.385334,-0.48267 -0.732267,-0.46667 -0.147333,0.007 -0.291733,0.048 -0.411467,0.136 -0.1344,0.0973 -0.2052,0.25334 -0.246933,0.40934 -0.04893,0.18133 -0.06507,0.37866 0.01053,0.556 0.0572,0.132 0.1692,0.236 0.2952,0.30266 0.280267,0.14534 0.650534,0.124 0.8896,-0.0893 0.2376,-0.21333 0.312,-0.55333 0.195334,-0.848"
         style="fill:#47527d;fill-opacity:1;fill-rule:nonzero;stroke:none;stroke-width:0.133333" />
      <path
         id="path300"
         d="m 86.245331,286.22667 c -0.130266,-0.32933 -0.386,-0.48267 -0.732266,-0.46667 -0.148,0.007 -0.291734,0.048 -0.412,0.136 -0.133334,0.0973 -0.204667,0.25334 -0.246934,0.40934 -0.04893,0.18133 -0.06507,0.37866 0.01093,0.556 0.0568,0.132 0.169333,0.236 0.295866,0.30266 0.279734,0.14534 0.649467,0.124 0.889067,-0.0893 0.237467,-0.21333 0.312,-0.55333 0.195333,-0.848"
         style="fill:#47527d;fill-opacity:1;fill-rule:nonzero;stroke:none;stroke-width:0.133333" />
      <path
         id="path301"
         d="m 94.685998,286.22667 c -0.1308,-0.32933 -0.386,-0.48267 -0.7324,-0.46667 -0.147334,0.007 -0.292134,0.048 -0.411867,0.136 -0.133333,0.0973 -0.2048,0.25334 -0.246933,0.40934 -0.0484,0.18133 -0.06507,0.37866 0.01147,0.556 0.05627,0.132 0.168267,0.236 0.295334,0.30266 0.2796,0.14534 0.65,0.124 0.8896,-0.0893 0.237466,-0.21333 0.310933,-0.55333 0.1948,-0.848"
         style="fill:#47527d;fill-opacity:1;fill-rule:nonzero;stroke:none;stroke-width:0.133333" />
      <path
         id="path302"
         d="m 103.12706,286.22667 c -0.13066,-0.32933 -0.38586,-0.48267 -0.73333,-0.46667 -0.1468,0.007 -0.2916,0.048 -0.41147,0.136 -0.13333,0.0973 -0.2052,0.25334 -0.24626,0.40934 -0.0491,0.18133 -0.0657,0.37866 0.0104,0.556 0.0567,0.132 0.16866,0.236 0.29573,0.30266 0.28027,0.14534 0.65,0.124 0.8896,-0.0893 0.23707,-0.21333 0.31093,-0.55333 0.19533,-0.848"
         style="fill:#47527d;fill-opacity:1;fill-rule:nonzero;stroke:none;stroke-width:0.133333" />
      <path
         id="path303"
         d="m 81.859865,292.75067 c -0.130667,-0.32933 -0.385867,-0.48267 -0.7328,-0.46533 -0.147334,0.007 -0.2916,0.048 -0.411467,0.13466 -0.1344,0.0987 -0.2052,0.25467 -0.2468,0.40934 -0.04907,0.18266 -0.0652,0.37866 0.0104,0.556 0.0572,0.13333 0.1692,0.23733 0.295867,0.304 0.280133,0.14533 0.65,0.12266 0.888933,-0.092 0.2376,-0.212 0.312,-0.552 0.195867,-0.84667"
         style="fill:#47527d;fill-opacity:1;fill-rule:nonzero;stroke:none;stroke-width:0.133333" />
      <path
         id="path304"
         d="m 90.299998,292.75067 c -0.130267,-0.32933 -0.385467,-0.48267 -0.732267,-0.46533 -0.147467,0.007 -0.291733,0.048 -0.412,0.13466 -0.133333,0.0987 -0.204667,0.25467 -0.2464,0.40934 -0.04947,0.18266 -0.06507,0.37866 0.0104,0.556 0.05733,0.13333 0.169333,0.23733 0.295867,0.304 0.279733,0.14533 0.65,0.12266 0.889066,-0.092 0.237467,-0.212 0.312,-0.552 0.195334,-0.84667"
         style="fill:#47527d;fill-opacity:1;fill-rule:nonzero;stroke:none;stroke-width:0.133333" />
      <path
         id="path305"
         d="m 98.741198,292.75067 c -0.1308,-0.32933 -0.386534,-0.48267 -0.7328,-0.46533 -0.148,0.007 -0.291734,0.048 -0.412,0.13466 -0.133334,0.0987 -0.204667,0.25467 -0.246934,0.40934 -0.0484,0.18266 -0.06507,0.37866 0.01093,0.556 0.0568,0.13333 0.1688,0.23733 0.295866,0.304 0.279734,0.14533 0.65,0.12266 0.8896,-0.092 0.237467,-0.212 0.311467,-0.552 0.195334,-0.84667"
         style="fill:#47527d;fill-opacity:1;fill-rule:nonzero;stroke:none;stroke-width:0.133333" />
      <path
         id="path306"
         d="m 107.18173,292.75067 c -0.13067,-0.32933 -0.38587,-0.48267 -0.73333,-0.46533 -0.1468,0.007 -0.2916,0.048 -0.41147,0.13466 -0.13333,0.0987 -0.2052,0.25467 -0.24627,0.40934 -0.0489,0.18266 -0.0656,0.37866 0.0109,0.556 0.0568,0.13333 0.16813,0.23733 0.29533,0.304 0.28013,0.14533 0.65,0.12266 0.88947,-0.092 0.2376,-0.212 0.31093,-0.552 0.19533,-0.84667"
         style="fill:#47527d;fill-opacity:1;fill-rule:nonzero;stroke:none;stroke-width:0.133333" />
      <path
         id="path307"
         d="m 77.804665,299.276 c -0.130134,-0.32933 -0.385334,-0.48266 -0.732267,-0.46666 -0.147333,0.007 -0.291733,0.048 -0.411467,0.136 -0.1344,0.0973 -0.2052,0.25333 -0.246933,0.40933 -0.04893,0.18133 -0.06507,0.37867 0.01053,0.556 0.0572,0.132 0.1692,0.236 0.2952,0.30267 0.280267,0.14666 0.650534,0.124 0.8896,-0.0907 0.2376,-0.212 0.312,-0.552 0.195334,-0.84667"
         style="fill:#47527d;fill-opacity:1;fill-rule:nonzero;stroke:none;stroke-width:0.133333" />
      <path
         id="path308"
         d="m 86.245331,299.276 c -0.130266,-0.32933 -0.386,-0.48266 -0.732266,-0.46666 -0.148,0.007 -0.291734,0.048 -0.412,0.136 -0.133334,0.0973 -0.204667,0.25333 -0.246934,0.40933 -0.04893,0.18133 -0.06507,0.37867 0.01093,0.556 0.0568,0.132 0.169333,0.236 0.295866,0.30267 0.279734,0.14666 0.649467,0.124 0.889067,-0.0907 0.237467,-0.212 0.312,-0.552 0.195333,-0.84667"
         style="fill:#47527d;fill-opacity:1;fill-rule:nonzero;stroke:none;stroke-width:0.133333" />
      <path
         id="path309"
         d="m 94.685998,299.276 c -0.1308,-0.32933 -0.386,-0.48266 -0.7324,-0.46666 -0.147334,0.007 -0.292134,0.048 -0.411867,0.136 -0.133333,0.0973 -0.2048,0.25333 -0.246933,0.40933 -0.0484,0.18133 -0.06507,0.37867 0.01147,0.556 0.05627,0.132 0.168267,0.236 0.295334,0.30267 0.2796,0.14666 0.65,0.124 0.8896,-0.0907 0.237466,-0.212 0.310933,-0.552 0.1948,-0.84667"
         style="fill:#47527d;fill-opacity:1;fill-rule:nonzero;stroke:none;stroke-width:0.133333" />
      <path
         id="path310"
         d="m 103.12706,299.276 c -0.13066,-0.32933 -0.38586,-0.48266 -0.73333,-0.46666 -0.1468,0.007 -0.2916,0.048 -0.41147,0.136 -0.13333,0.0973 -0.2052,0.25333 -0.24626,0.40933 -0.0491,0.18133 -0.0657,0.37867 0.0104,0.556 0.0567,0.132 0.16866,0.236 0.29573,0.30267 0.28027,0.14666 0.65,0.124 0.8896,-0.0907 0.23707,-0.212 0.31093,-0.552 0.19533,-0.84667"
         style="fill:#47527d;fill-opacity:1;fill-rule:nonzero;stroke:none;stroke-width:0.133333" />
      <path
         id="path311"
         d="m 81.859865,305.80134 c -0.130667,-0.32934 -0.385867,-0.484 -0.7328,-0.468 -0.147334,0.008 -0.2916,0.048 -0.411467,0.13733 -0.1344,0.096 -0.2052,0.25333 -0.2468,0.408 -0.04907,0.18133 -0.0652,0.37867 0.0104,0.556 0.0572,0.13333 0.1692,0.23733 0.295867,0.304 0.280133,0.14533 0.65,0.12267 0.888933,-0.092 0.2376,-0.212 0.312,-0.552 0.195867,-0.84533"
         style="fill:#47527d;fill-opacity:1;fill-rule:nonzero;stroke:none;stroke-width:0.133333" />
      <path
         id="path312"
         d="m 90.299998,305.80134 c -0.130267,-0.32934 -0.385467,-0.484 -0.732267,-0.468 -0.147467,0.008 -0.291733,0.048 -0.412,0.13733 -0.133333,0.096 -0.204667,0.25333 -0.2464,0.408 -0.04947,0.18133 -0.06507,0.37867 0.0104,0.556 0.05733,0.13333 0.169333,0.23733 0.295867,0.304 0.279733,0.14533 0.65,0.12267 0.889066,-0.092 0.237467,-0.212 0.312,-0.552 0.195334,-0.84533"
         style="fill:#47527d;fill-opacity:1;fill-rule:nonzero;stroke:none;stroke-width:0.133333" />
      <path
         id="path313"
         d="m 98.741198,305.80134 c -0.1308,-0.32934 -0.386534,-0.484 -0.7328,-0.468 -0.148,0.008 -0.291734,0.048 -0.412,0.13733 -0.133334,0.096 -0.204667,0.25333 -0.246934,0.408 -0.0484,0.18133 -0.06507,0.37867 0.01093,0.556 0.0568,0.13333 0.1688,0.23733 0.295866,0.304 0.279734,0.14533 0.65,0.12267 0.8896,-0.092 0.237467,-0.212 0.311467,-0.552 0.195334,-0.84533"
         style="fill:#47527d;fill-opacity:1;fill-rule:nonzero;stroke:none;stroke-width:0.133333" />
      <path
         id="path314"
         d="m 107.18173,305.80134 c -0.13067,-0.32934 -0.38587,-0.484 -0.73333,-0.468 -0.1468,0.008 -0.2916,0.048 -0.41147,0.13733 -0.13333,0.096 -0.2052,0.25333 -0.24627,0.408 -0.0489,0.18133 -0.0656,0.37867 0.0109,0.556 0.0568,0.13333 0.16813,0.23733 0.29533,0.304 0.28013,0.14533 0.65,0.12267 0.88947,-0.092 0.2376,-0.212 0.31093,-0.552 0.19533,-0.84533"
         style="fill:#47527d;fill-opacity:1;fill-rule:nonzero;stroke:none;stroke-width:0.133333" />
      <path
         id="path315"
         d="m 77.804665,312.32534 c -0.130134,-0.33067 -0.385334,-0.48267 -0.732267,-0.46667 -0.147333,0.007 -0.291733,0.048 -0.411467,0.13467 -0.1344,0.0973 -0.2052,0.256 -0.246933,0.41066 -0.04893,0.18 -0.06507,0.37867 0.01053,0.556 0.0572,0.132 0.1692,0.236 0.2952,0.30267 0.280267,0.14667 0.650534,0.12267 0.8896,-0.0907 0.2376,-0.212 0.312,-0.552 0.195334,-0.84666"
         style="fill:#47527d;fill-opacity:1;fill-rule:nonzero;stroke:none;stroke-width:0.133333" />
      <path
         id="path316"
         d="m 86.245331,312.32534 c -0.130266,-0.33067 -0.386,-0.48267 -0.732266,-0.46667 -0.148,0.007 -0.291734,0.048 -0.412,0.13467 -0.133334,0.0973 -0.204667,0.256 -0.246934,0.41066 -0.04893,0.18 -0.06507,0.37867 0.01093,0.556 0.0568,0.132 0.169333,0.236 0.295866,0.30267 0.279734,0.14667 0.649467,0.12267 0.889067,-0.0907 0.237467,-0.212 0.312,-0.552 0.195333,-0.84666"
         style="fill:#47527d;fill-opacity:1;fill-rule:nonzero;stroke:none;stroke-width:0.133333" />
      <path
         id="path317"
         d="m 94.685998,312.32534 c -0.1308,-0.33067 -0.386,-0.48267 -0.7324,-0.46667 -0.147334,0.007 -0.292134,0.048 -0.411867,0.13467 -0.133333,0.0973 -0.2048,0.256 -0.246933,0.41066 -0.0484,0.18 -0.06507,0.37867 0.01147,0.556 0.05627,0.132 0.168267,0.236 0.295334,0.30267 0.2796,0.14667 0.65,0.12267 0.8896,-0.0907 0.237466,-0.212 0.310933,-0.552 0.1948,-0.84666"
         style="fill:#47527d;fill-opacity:1;fill-rule:nonzero;stroke:none;stroke-width:0.133333" />
      <path
         id="path318"
         d="m 103.12706,312.32534 c -0.13066,-0.33067 -0.38586,-0.48267 -0.73333,-0.46667 -0.1468,0.007 -0.2916,0.048 -0.41147,0.13467 -0.13333,0.0973 -0.2052,0.256 -0.24626,0.41066 -0.0491,0.18 -0.0657,0.37867 0.0104,0.556 0.0567,0.132 0.16866,0.236 0.29573,0.30267 0.28027,0.14667 0.65,0.12267 0.8896,-0.0907 0.23707,-0.212 0.31093,-0.552 0.19533,-0.84666"
         style="fill:#47527d;fill-opacity:1;fill-rule:nonzero;stroke:none;stroke-width:0.133333" />
      <path
         id="path319"
         d="m 105.5864,224.192 c -0.0233,0.712 -0.0609,1.43467 -0.30934,2.10934 -0.3468,0.94666 -1.05933,1.536 -2.09013,1.80133 -1.8708,0.48133 -3.947332,0.24133 -5.630132,-0.65067 -0.519334,-0.27333 -1.002667,-0.60933 -1.400534,-1.02133 -0.3224,-0.33467 -0.584933,-0.71467 -0.824533,-1.10533 -0.9724,-1.584 -1.5948,-3.348 -1.835333,-5.15467 -0.08027,-0.6 -0.1532,-1.252 -0.147467,-1.88533 1.6516,-0.248 3.3208,-0.32667 4.9896,-0.164 2.340669,0.228 4.819869,0.84133 7.132799,1.816 0.15573,1.40933 0.16093,2.836 0.11507,4.25466"
         style="fill:#f57e6f;fill-opacity:1;fill-rule:nonzero;stroke:none;stroke-width:0.133333" />
      <path
         id="path320"
         d="m 114.24173,233.348 c -0.0407,1.62134 -0.2464,3.236 -0.61253,4.81467 -0.40107,1.72533 -1.07614,3.33867 -1.5928,5.024 -0.46814,1.52533 -0.6984,3.13333 -1.21667,4.67467 -0.35093,1.048 -0.81613,1.97466 -0.91347,3.07333 -0.11773,1.32133 -0.18226,2.64933 -0.22026,3.97467 -0.0756,2.656 -0.0199,5.31466 0.078,7.97066 0.1996,5.38267 0.58493,10.76534 0.45893,16.156 -0.005,0.22934 -0.0156,0.47334 -0.14227,0.664 -0.62493,0.94667 -0.81506,-0.66933 -0.85,-0.976 -0.1192,-1.024 -0.43066,-2.05066 -0.64733,-3.05866 -0.4656,-2.164 -0.90933,-4.33334 -1.326,-6.508 -0.82187,-4.288 -1.5376,-8.59734 -2.10373,-12.92667 -0.39374,-3.008 -0.71974,-5.98 -1.30627,-8.95867 -0.6244,-3.18 -0.99267,-6.54 -1.8348,-9.64933 -0.7084,4.44667 -1.89373,8.71333 -2.811466,13.11067 -2.052666,9.836 -3.980266,19.74533 -6.9412,29.356 -0.225466,0.72133 -0.805733,0.48666 -1.396266,0.47466 -5.8412,-0.11733 -11.660933,-1.256 -17.116667,-3.348 -0.403733,-0.15466 -0.816266,-0.32 -1.134933,-0.61333 -0.745333,-0.68267 -0.781733,-1.824 -0.7656,-2.83467 0.147867,-8.924 0.3176,-17.888 1.635867,-26.732 0.6604,-4.42666 1.609866,-8.81733 2.995866,-13.076 1.159867,-3.568 2.448934,-7.688 5.265067,-10.32666 1.4948,-1.40134 3.386533,-2.29734 5.286,-3.06534 2.142666,-0.86533 4.380133,-1.6 6.6552,-1.97066 0.378133,-0.0613 1.375466,-0.452 1.516666,0.14666 0.1088,0.46267 -0.336,1.18267 -0.3948,1.668 -0.08693,0.70667 -0.106266,1.42267 -0.06987,2.136 0.07093,1.39067 0.36,2.768 0.8048,4.08667 0.765066,2.27067 1.9776,4.36667 3.333866,6.34133 0.793734,1.15734 1.6692,2.30534 2.86667,3.036 1.0864,0.66267 1.51613,-0.80266 1.8208,-1.568 0.75253,-1.888 1.21453,-3.89733 1.5416,-5.89733 0.45053,-2.75067 0.4328,-5.57867 -0.076,-8.32 l 1.2636,0.56133 c 0.50933,0.28134 1.00613,0.584 1.48947,0.908 0.94226,0.632 1.8328,1.34267 2.63906,2.14 1.6256,1.60667 2.90267,3.58134 3.47507,5.80934 0.3088,1.20533 0.3776,2.46 0.3464,3.70266"
         style="fill:#94cdd7;fill-opacity:1;fill-rule:nonzero;stroke:none;stroke-width:0.133333" />
      <path
         id="path321"
         d="m 90.859864,252.612 c -0.04733,0.41067 -0.09587,0.82 -0.143733,1.22934 -0.014,0.12266 -0.02813,0.252 0.01453,0.368 0.06147,0.172 0.228134,0.28 0.3844,0.37466 0.530267,0.32 1.0912,0.58934 1.628134,0.89734 1.25,0.716 2.2396,1.86533 3.798,1.76533 0.2224,-0.0147 0.452,-0.0573 0.635333,-0.18667 0.1828,-0.12666 0.307867,-0.35866 0.257867,-0.576 0.299466,0.072 0.607333,0.10934 0.915066,0.10934 0.5532,0 1.004134,-0.66667 0.604667,-1.14934 0.362,0.0933 0.775067,-0.0587 0.9896,-0.36533 0.214672,-0.30533 0.216132,-0.74533 0.0041,-1.05333 0.243862,0.08 0.525062,0.0347 0.731862,-0.116 0.36667,-0.268 0.37333,-0.75334 0.12707,-1.11734 -0.1656,-0.244 -0.4292,-0.4 -0.6844,-0.54666 -0.908398,-0.52267 -1.820265,-1.04 -2.736398,-1.55067 -0.3636,-0.20267 -0.7344,-0.40667 -1.1396,-0.504 -1.561467,-0.37467 -3.175067,0.676 -4.8344,0.388 l -0.2808,0.0413 -0.05773,0.17067 c -0.0708,0.608 -0.141733,1.21467 -0.2136,1.82133"
         style="fill:#f57e6f;fill-opacity:1;fill-rule:nonzero;stroke:none;stroke-width:0.133333" />
      <path
         id="path322"
         d="m 98.542131,251.356 c -0.811467,-0.19733 -1.627067,-0.384 -2.4448,-0.55733 -0.09467,-0.0213 -0.185333,0.0707 -0.05307,0.0987 0.8016,0.17066 1.600534,0.35333 2.3964,0.54666 l 0.138,-0.0187 -0.03653,-0.0693"
         style="fill:#dc5153;fill-opacity:1;fill-rule:nonzero;stroke:none;stroke-width:0.133333" />
      <path
         id="path323"
         d="m 97.322931,256.40934 -0.1172,-0.0493 -0.1312,-0.0267 -0.243867,-0.0493 c -0.1504,-0.032 -0.301466,-0.0653 -0.438933,-0.13466 h -0.142267 v 0.0733 c 0.143734,0.072 0.2984,0.11067 0.455734,0.14533 0.144266,0.0307 0.290133,0.0587 0.435466,0.0893 l 0.180134,-0.016 0.0021,-0.005 v -0.0267"
         style="fill:#dc5153;fill-opacity:1;fill-rule:nonzero;stroke:none;stroke-width:0.133333" />
      <path
         id="path324"
         d="m 98.759864,255.36134 c -0.3172,-0.0573 -0.628666,-0.14534 -0.9292,-0.26 l -0.138,0.0173 0.03653,0.0707 c 0.316666,0.12133 0.6432,0.21066 0.976533,0.27066 l 0.124533,-0.036 -0.0704,-0.0627"
         style="fill:#dc5153;fill-opacity:1;fill-rule:nonzero;stroke:none;stroke-width:0.133333" />
      <path
         id="path325"
         d="m 99.826531,253.984 c -0.4208,-0.0947 -0.801067,-0.30133 -1.177067,-0.50666 h -0.142133 v 0.0733 c 0.388,0.212 0.783333,0.424 1.2172,0.52267 l 0.138,-0.0187 -0.036,-0.0707"
         style="fill:#dc5153;fill-opacity:1;fill-rule:nonzero;stroke:none;stroke-width:0.133333" />
      <path
         id="path326"
         d="m 86.273465,243.74667 c 0.09107,1.82533 0.182266,3.64933 0.273866,5.476 0.0944,1.88933 0.09747,4.02933 -1.2552,5.35467 -1.2088,1.184 -3.148933,1.28533 -4.771866,0.80533 -0.660934,-0.19467 -1.300934,-0.47467 -1.868667,-0.86667 -1.568267,-1.07866 -2.467733,-2.91466 -2.890667,-4.77066 -0.4792,-2.108 -0.424933,-4.30267 -0.2068,-6.45467 0.5412,-5.34 2.094267,-10.572 4.536534,-15.34933 0.609333,-1.19334 1.245333,-2.43067 2.018133,-3.528 0.9584,-1.36134 1.4996,-0.19334 1.826667,0.94533 0.802533,2.796 1.298933,5.66933 1.631733,8.55733 0.375467,3.264 0.542133,6.54934 0.706267,9.83067"
         style="fill:#94cdd7;fill-opacity:1;fill-rule:nonzero;stroke:none;stroke-width:0.133333" />
      <path
         id="path327"
         d="m 81.319331,255.712 c 0.691067,0.18134 1.398934,0.292 2.103067,0.396 1.422933,0.20934 2.848933,0.392 4.2812,0.47867 0.727066,0.0453 1.455733,0.064 2.1844,0.048 0.611466,-0.012 1.0396,0.08 1.421866,-0.596 0.177067,-0.31333 0.277067,-0.676 0.3756,-1.03333 0.452,-1.636 0.9088,-3.35067 0.661867,-5.04667 -0.196267,-1.34933 -1.6812,-1.37467 -2.609333,-1.66267 -1.234934,-0.38533 -2.462534,-0.79866 -3.683333,-1.24133 -1.140667,-0.41467 -2.2812,-0.856 -3.463467,-1.05867 -1.1824,-0.20133 -2.424533,-0.15333 -3.5256,0.388 -0.8776,0.43067 -1.6572,1.20534 -2.078133,2.208 -0.445734,1.06534 -0.05467,2.64 0.25,3.71467 0.441733,1.55867 1.659866,2.49067 2.9464,3.02667 0.3708,0.156 0.750533,0.27733 1.135466,0.37866"
         style="fill:#94cdd7;fill-opacity:1;fill-rule:nonzero;stroke:none;stroke-width:0.133333" />
      <path
         id="path328"
         d="m 102.99266,236.908 c 0,0.556 -0.45093,1.00667 -1.00666,1.00667 -0.5568,0 -1.00734,-0.45067 -1.00734,-1.00667 0,-0.556 0.45054,-1.008 1.00734,-1.008 0.55573,0 1.00666,0.452 1.00666,1.008"
         style="fill:#ffffff;fill-opacity:1;fill-rule:nonzero;stroke:none;stroke-width:0.133333" />
      <path
         id="path329"
         d="m 107.9656,215.52 c 0.99746,-0.77333 1.74693,-1.42933 2.2584,-2.62933 0.19946,-0.46933 0.36293,-0.95867 0.402,-1.46667 0.0641,-0.832 -0.22654,-1.68533 -0.78534,-2.30533 -0.224,-0.24933 -0.70573,-0.588 -0.72813,-0.948 -0.0213,-0.34667 -0.002,-0.696 -0.0265,-1.04267 -0.1256,-1.77466 -1.79427,-3.38533 -3.25627,-4.212 -0.40053,-0.22666 -0.82133,-0.416 -1.24173,-0.60133 -0.26974,-0.11867 -0.54067,-0.236 -0.8208,-0.32667 -0.962,-0.30666 -1.99427,-0.26133 -2.96987,-0.0427 -0.45093,0.10133 -0.74787,0.276 -1.156132,0.448 -0.526134,0.22133 -1.105734,0.36 -1.649467,0.53733 -0.289067,0.0947 -0.578133,0.188 -0.8672,0.28133 -0.956267,0.312 -1.926667,0.628 -2.760933,1.18934 -0.835467,0.56 -1.5324,1.40533 -1.681334,2.4 -0.06867,0.456 -0.02293,0.93466 -0.186933,1.36533 -0.159867,0.42 -0.498933,0.74133 -0.809867,1.06667 -0.724533,0.75733 -1.355733,1.632 -1.664666,2.63466 -0.309334,1.00134 -0.2656,2.144 0.283333,3.03734 0.158933,0.26 0.3568,0.49333 0.526533,0.74533 0.546934,0.81067 0.690667,1.81467 1.315734,2.568 0.7,0.844 2.030133,1.344 3.103066,1.39733 1.310934,0.0653 2.6256,-0.22666 3.876534,-0.592 0.756266,-0.22133 1.454262,-0.60133 2.144262,-0.97866 0.67707,-0.372 1.34854,-0.756 2.0292,-1.12 0.5516,-0.29334 1.27187,-0.35067 1.8912,-0.44667 0.5968,-0.092 1.2072,-0.15067 1.76974,-0.37067 0.36413,-0.14266 0.69586,-0.348 1.0052,-0.588"
         style="fill:#e6cdbb;fill-opacity:1;fill-rule:nonzero;stroke:none;stroke-width:0.133333" />
      <path
         id="path330"
         d="m 95.847331,219.112 -0.03333,0.092 c -0.290534,0.80267 -0.317067,1.424 -0.04267,2.22267 0.431333,1.252 1.2756,2.32 2.1984,3.26933 0.534933,0.54934 1.108933,1.07467 1.783867,1.43867 0.676132,0.364 1.465732,0.55733 2.219332,0.41333 0.26973,-0.052 0.53693,-0.14933 0.75307,-0.32133 0.16,-0.12667 0.28706,-0.29067 0.4068,-0.456 1.01613,-1.4 1.64893,-3.076 1.812,-4.79867 0.0724,-0.76933 0.0479,-1.572 -0.26774,-2.27733 -0.4036,-0.904 -1.2916,-1.312 -2.14373,-1.67067 -0.42653,-0.18 -0.87493,-0.30133 -1.3292,-0.45733 l -0.28533,-0.0893 c -0.54427,-0.14934 -1.195336,-0.052 -1.705736,-0.26934 -0.3688,-0.15866 -0.6636,-0.54 -1.0604,-0.46533 -0.722,0.13333 -1.040133,0.78267 -1.3704,1.36267 -0.365066,0.64133 -0.678133,1.31333 -0.934933,2.00666"
         style="fill:#f57e6f;fill-opacity:1;fill-rule:nonzero;stroke:none;stroke-width:0.133333" />
      <path
         id="path331"
         d="m 97.885464,222.056 c 0.7984,1.65067 2.605736,2.98534 4.346796,3.288 0.65107,0.11334 1.4032,-0.0867 1.9208,-0.50133 0.3964,-0.316 0.6912,-0.74667 0.90534,-1.20667 0.14466,-0.31066 0.30093,-0.72266 0.27186,-1.06933 -0.0448,-0.53333 -0.37093,-1.01067 -0.7808,-1.35467 -0.3468,-0.29066 -0.7464,-0.47466 -1.14266,-0.684 -0.36094,-0.18933 -0.65107,-0.51866 -0.98334,-0.76533 -0.71306,-0.52667 -1.50626,-0.95467 -2.35893,-1.204 -0.571332,-0.16667 -1.162932,-0.22667 -1.719199,0.0173 -0.9672,0.42534 -0.968267,1.91734 -0.742667,2.73334 0.0708,0.25333 0.1656,0.504 0.2828,0.74666"
         style="fill:#dc5153;fill-opacity:1;fill-rule:nonzero;stroke:none;stroke-width:0.133333" />
      <path
         id="path332"
         d="m 103.57293,223.95067 c -0.3312,0.012 -0.66667,-0.0307 -0.99013,-0.10933 -1.16774,-0.28134 -2.4036,-0.42 -3.475469,-0.99734 -1.003733,-0.54133 -1.716133,-1.60933 -2.233333,-2.59466 -0.478667,-0.912 -0.827067,-1.884 -1.174,-2.852 -0.138534,-0.38667 -0.2776,-0.77334 -0.416134,-1.16 -0.155733,-0.43467 -0.312,-0.872 -0.421333,-1.32 -0.3964,-1.63867 -0.175067,-3.47867 0.1916,-5.10534 0.362,-1.60533 1.1808,-2.964 2.6204,-3.79866 1.8624,-1.07867 4.167599,-1.328 6.278529,-0.72667 0.4896,0.13867 0.9652,0.32267 1.43867,0.50533 1.19427,0.46134 2.18693,1.01734 2.79373,2.152 0.25774,0.48134 0.40147,1.00934 0.4896,1.53867 0.29054,1.75467 0.23894,3.656 0.12707,5.43067 -0.16253,2.56533 -0.7016,5.46133 -2.46147,7.44933 -0.47506,0.536 -1.04333,0.992 -1.6808,1.32 -0.34013,0.17467 -0.71093,0.256 -1.08693,0.268"
         style="fill:#f57e6f;fill-opacity:1;fill-rule:nonzero;stroke:none;stroke-width:0.133333" />
      <path
         id="path333"
         d="m 106.77133,208.336 0.3068,0.32 c 0.6088,0.66667 1.13067,1.404 1.68493,2.116 0.1036,0.132 0.26094,0.28 0.41454,0.21067 l 0.16933,-0.25733 c 0.27813,-0.96667 -0.0105,-1.36 -0.41987,-2.19867 -0.24786,-0.508 -0.54426,-0.992 -0.88493,-1.44267 -0.54373,-0.72266 -1.13907,-1.16533 -1.85667,-1.67733 -1.64333,-1.17733 -3.78386,-1.456 -5.7516,-1.24933 -2.137996,0.224 -3.748396,1.45066 -5.172929,3.00533 -0.776,0.84667 -1.484933,1.77867 -1.912,2.844 -0.3516,0.87733 -0.502533,1.82133 -0.583867,2.76267 -0.08333,0.96533 0.03133,1.80933 0.164667,2.75333 0.120267,0.852 0.151467,1.564 0.6244,2.32933 0.376533,0.60934 1.126533,1.70134 1.959867,1.63067 0.182933,-0.016 0.290666,-0.20667 0.360533,-0.37467 0.235867,-0.57733 0.357733,-1.196 0.528533,-1.79733 0.188667,-0.66533 0.3256,-1.34667 0.422,-2.03333 0.130134,-0.92934 0.451467,-1.804 0.662934,-2.71467 0.169866,-0.724 0.7464,-1.24 1.3808,-1.612 0.600933,-0.35467 1.265602,-0.588 1.900002,-0.87867 1.5176,-0.69866 2.85626,-1.72533 4.164,-2.76533 l 0.2312,-0.11333 0.1964,0.064 c 0.52813,0.28666 0.98386,0.65866 1.41093,1.07866"
         style="fill:#e6cdbb;fill-opacity:1;fill-rule:nonzero;stroke:none;stroke-width:0.133333" />
      <path
         id="path334"
         d="m 96.479731,213.43467 c -1.476133,-0.11733 -1.813067,1.732 -1.460933,2.83467 0.262933,0.82266 0.897333,1.50933 1.678533,1.87733 0.361067,0.17067 0.853733,0.248 1.107867,-0.06 0.226,-0.27333 0.176533,-0.78667 0.161466,-1.12 -0.01827,-0.416 -0.03693,-0.844 -0.08227,-1.26133 -0.09267,-0.84134 -0.345867,-2.18534 -1.404667,-2.27067"
         style="fill:#f57e6f;fill-opacity:1;fill-rule:nonzero;stroke:none;stroke-width:0.133333" />
      <path
         id="path335"
         d="m 100.54893,212.35067 c -0.38173,0.0747 -0.760399,0.176 -1.118666,0.32933 -0.11,0.048 -0.8,0.328 -0.467733,0.46267 l 0.188,0.0147 c 0.604667,-0.0547 1.201599,-0.20267 1.808799,-0.21334 0.39747,-0.008 0.8032,0.0427 1.1844,-0.0667 0.212,-0.06 0.28027,-0.168 0.2136,-0.37334 -0.0844,-0.25866 -0.3844,-0.28133 -0.61987,-0.292 -0.22866,-0.0107 -0.464,0.0213 -0.69626,0.0547 -0.1688,0.0253 -0.33334,0.052 -0.49227,0.084"
         style="fill:#e6cdbb;fill-opacity:1;fill-rule:nonzero;stroke:none;stroke-width:0.133333" />
      <path
         id="path336"
         d="m 107.4448,212.384 c 0.27186,0.08 0.53493,0.19067 0.78173,0.33067 0.0724,0.04 0.19893,0.18 0.0661,0.24 l -0.0916,0.0107 c -0.3948,-0.0147 -0.79533,-0.044 -1.188,-0.024 -0.19746,0.009 -0.398,0.0107 -0.5948,0.007 -0.18706,-0.004 -0.3792,-0.0707 -0.55946,-0.0707 -0.21147,-0.06 -0.27907,-0.168 -0.21294,-0.37334 0.0724,-0.22266 0.37547,-0.25733 0.57387,-0.26666 0.41307,-0.02 0.82813,0.0307 1.22507,0.14666"
         style="fill:#e6cdbb;fill-opacity:1;fill-rule:nonzero;stroke:none;stroke-width:0.133333" />
      <path
         id="path337"
         d="m 105.62706,214.83867 c 0.0609,-0.272 0.19534,-0.59467 0.5308,-0.64267 0.1624,-0.0227 0.32334,0.028 0.42387,0.14934 l 0.0631,0.108 0.0473,0.0813 c 0.0901,0.18 0.0996,0.39067 0.0324,0.57867 -0.0209,0.15866 -0.086,0.30666 -0.2376,0.41066 -0.14053,0.096 -0.3484,0.128 -0.50307,0.0413 l -0.0995,-0.0773 -0.23174,-0.22933 c -0.0641,-0.13333 -0.0573,-0.28 -0.0256,-0.42"
         style="fill:#3a2323;fill-opacity:1;fill-rule:nonzero;stroke:none;stroke-width:0.133333" />
      <path
         id="path338"
         d="m 100.08693,214.83867 c 0.0615,-0.272 0.19533,-0.59467 0.5308,-0.64267 0.16293,-0.0227 0.324,0.028 0.4244,0.14934 l 0.0625,0.108 0.048,0.0813 c 0.09,0.18 0.0995,0.39067 0.0323,0.57867 -0.0209,0.15866 -0.086,0.30666 -0.2376,0.41066 -0.14053,0.096 -0.3484,0.128 -0.5036,0.0413 l -0.0995,-0.0773 -0.23173,-0.22933 c -0.0636,-0.13333 -0.0573,-0.28 -0.0256,-0.42"
         style="fill:#3a2323;fill-opacity:1;fill-rule:nonzero;stroke:none;stroke-width:0.133333" />
      <path
         id="path339"
         d="m 104.56973,218.25867 c 0.37613,-0.0973 0.974,-0.31333 1.06147,-0.73733 0.0511,-0.24267 -0.0916,-0.47734 -0.1916,-0.69067 -0.0959,-0.20533 -0.1844,-0.41333 -0.26094,-0.624 -0.30573,-0.84267 -0.41666,-1.76667 -0.0828,-2.61867 l 0.24267,0.0333 c -0.28067,0.71466 -0.23747,1.50533 -0.0229,2.232 0.10893,0.368 0.25986,0.71866 0.42453,1.06533 0.14267,0.3 0.2364,0.61333 -0.003,0.892 -0.25053,0.29333 -0.67026,0.45867 -1.04053,0.55467 l -0.17293,-0.0227 0.0457,-0.084"
         style="fill:#dc5153;fill-opacity:1;fill-rule:nonzero;stroke:none;stroke-width:0.133333" />
      <path
         id="path340"
         d="m 100.5656,220.52 c 0.11666,-0.464 0.3432,-0.888 0.66613,-1.24133 0.36147,-0.392 0.83133,-0.63867 1.30373,-0.872 h 0.17814 v 0.0907 c -0.45,0.22266 -0.89387,0.45333 -1.24174,0.82266 -0.31506,0.33467 -0.54213,0.75467 -0.65413,1.2 h -0.25213"
         style="fill:#eb645a;fill-opacity:1;fill-rule:nonzero;stroke:none;stroke-width:0.133333" />
      <path
         id="path341"
         d="m 106.35106,218.448 c 0.5588,0.67067 0.50774,1.56667 0.43587,2.384 H 106.536 c 0.0676,-0.78 0.13426,-1.67466 -0.40267,-2.32 l 0.21773,-0.064"
         style="fill:#eb645a;fill-opacity:1;fill-rule:nonzero;stroke:none;stroke-width:0.133333" />
      <path
         id="path342"
         d="m 98.614531,215.70667 c 0.371867,-0.228 0.814667,-0.336 1.249067,-0.312 l 0.126,0.064 -0.126,0.0653 c -0.3792,-0.0213 -0.748,0.076 -1.070934,0.27334 h -0.178133 v -0.0907"
         style="fill:#eb645a;fill-opacity:1;fill-rule:nonzero;stroke:none;stroke-width:0.133333" />
      <path
         id="path343"
         d="m 99.632264,215.85867 0.03653,0.0453 0.08907,0.0187 0.08907,-0.0187 0.07813,-0.0427 0.038,-0.0173 0.01867,-0.009 0.0057,-0.001 0.07187,-0.0253 0.0428,-0.012 0.0203,-0.005 h -0.002 l 0.088,-0.0787 -0.0577,-0.0387 -0.0969,-0.007 c -0.13532,0.0293 -0.265587,0.0747 -0.38532,0.14533 l -0.03653,0.0467"
         style="fill:#eb645a;fill-opacity:1;fill-rule:nonzero;stroke:none;stroke-width:0.133333" />
      <path
         id="path344"
         d="m 107.44066,215.34134 0.0577,-0.0387 c 0.1552,-0.044 0.31413,-0.056 0.47346,-0.0427 l 0.0755,0.0293 0.0125,0.0493 -0.14373,0.0453 h -0.006 l -0.0249,-0.001 h -0.0432 l -0.0459,0.001 -0.0172,0.001 -0.0855,0.012 -0.0181,0.004 h -5.3e-4 l -0.0485,0.012 -0.0968,0.007 -0.0756,-0.0293 -0.0129,-0.0493"
         style="fill:#eb645a;fill-opacity:1;fill-rule:nonzero;stroke:none;stroke-width:0.133333" />
      <path
         id="path345"
         d="m 105.61773,219.51867 -0.24067,0.032 c -0.79106,0.648 -1.864,0.39867 -2.7656,0.17733 l -0.2412,0.0333 0.0636,0.12266 c 1.0588,0.26 2.32187,0.51467 3.2468,-0.24266 l -0.0629,-0.12267"
         style="fill:#dc5153;fill-opacity:1;fill-rule:nonzero;stroke:none;stroke-width:0.133333" />
      <path
         id="path346"
         d="m 105.06613,205.40534 c -1.17547,1.652 -2.76613,3.00133 -4.58493,3.89866 -0.514536,0.25334 -1.046269,0.46934 -1.591069,0.64667 -0.156267,0.052 0.03693,0.14133 0.127067,0.112 1.964532,-0.64267 3.760932,-1.776 5.183332,-3.276 0.40107,-0.42267 0.77133,-0.87333 1.1088,-1.34667 l -0.2432,-0.0347"
         style="fill:#ffffff;fill-opacity:1;fill-rule:nonzero;stroke:none;stroke-width:0.133333" />
      <path
         id="path347"
         d="m 103.00266,205.58134 c -1.1016,1.23466 -2.472,2.21066 -3.999996,2.84533 v 0.092 h 0.1776 c 1.540536,-0.64133 2.929066,-1.628 4.039466,-2.872 l -0.21707,-0.0653"
         style="fill:#ffffff;fill-opacity:1;fill-rule:nonzero;stroke:none;stroke-width:0.133333" />
      <path
         id="path348"
         d="m 97.361464,204.29067 -0.1724,-0.024 c -1.157333,0.328 -2.138,1.17867 -2.6084,2.288 l 0.2428,0.0333 c 0.4516,-1.06266 1.3792,-1.89466 2.492134,-2.20933 l 0.04587,-0.088"
         style="fill:#ffffff;fill-opacity:1;fill-rule:nonzero;stroke:none;stroke-width:0.133333" />
      <path
         id="path349"
         d="m 92.555198,209.82267 -0.1724,0.0227 c -1.033867,0.78 -1.616667,2.092 -1.4968,3.38133 h 0.252 c -0.117734,-1.26667 0.445866,-2.55067 1.462533,-3.316 l -0.04533,-0.088"
         style="fill:#ffffff;fill-opacity:1;fill-rule:nonzero;stroke:none;stroke-width:0.133333" />
      <path
         id="path350"
         d="m 92.801598,210.908 c -0.4308,0.57467 -0.645867,1.29334 -0.602667,2.00934 h 0.2516 c -0.04213,-0.70667 0.1688,-1.408 0.593733,-1.97467 l -0.242666,-0.0347"
         style="fill:#ffffff;fill-opacity:1;fill-rule:nonzero;stroke:none;stroke-width:0.133333" />
      <path
         id="path351"
         d="m 107.65053,205.33734 -0.21773,0.064 c 0.474,0.46666 0.76933,1.096 0.8276,1.75733 h 0.25213 c -0.0604,-0.688 -0.36933,-1.33733 -0.862,-1.82133"
         style="fill:#ffffff;fill-opacity:1;fill-rule:nonzero;stroke:none;stroke-width:0.133333" />
      <path
         id="path352"
         d="m 112.92133,230.58534 h -0.252 c 0.13373,1.35066 -0.37867,2.636 -0.6824,3.928 -0.3208,1.37066 -0.28693,2.78133 -0.34627,4.17866 -0.11986,2.82134 -0.4172,5.636 -0.888,8.42134 -0.26573,1.56933 -0.5876,3.12933 -0.962,4.676 h 0.25147 c 0.6672,-2.752 1.1636,-5.54667 1.48187,-8.36134 0.1588,-1.404 0.27386,-2.812 0.3448,-4.22266 0.0348,-0.70134 0.0531,-1.40134 0.0765,-2.104 0.0235,-0.70667 0.0631,-1.416 0.19267,-2.11334 0.27186,-1.46266 0.93333,-2.88533 0.78333,-4.40266"
         style="fill:#777bb3;fill-opacity:1;fill-rule:nonzero;stroke:none;stroke-width:0.133333" />
      <path
         id="path353"
         d="m 91.173998,248.732 c -0.788534,-0.11333 -1.5636,-0.25466 -2.333867,-0.45866 -1.2224,-0.32267 -2.412533,-0.73867 -3.614133,-1.12267 0.373467,-2.012 0.747467,-4.02267 1.1204,-6.036 0.373333,-2.012 0.7624,-4.02267 1.1192,-6.03867 0.198,-1.11733 0.3552,-2.24666 0.309466,-3.384 h -0.252133 c 0.04107,1.012 -0.0792,2.02134 -0.2464,3.01867 -0.167733,1.00133 -0.363467,1.99867 -0.5484,2.996 -0.375466,2.01733 -0.749466,4.03467 -1.124,6.052 -0.2052,1.10533 -0.410933,2.212 -0.616133,3.31733 -0.2344,-0.0747 -0.469733,-0.14666 -0.706267,-0.216 -0.854133,-0.252 -1.719733,-0.46933 -2.6,-0.60933 l -0.1552,0.0453 0.088,0.0787 c 1.516667,0.24 2.979734,0.71867 4.435467,1.19467 1.445333,0.47333 2.8984,0.948 4.4036,1.19333 0.4276,0.0693 0.884933,0.0827 1.291733,0.244 0.338533,0.136 0.642667,0.41467 0.687467,0.79333 h 0.252133 c -0.0876,-0.73466 -0.892267,-0.97866 -1.510933,-1.068"
         style="fill:#777bb3;fill-opacity:1;fill-rule:nonzero;stroke:none;stroke-width:0.133333" />
      <path
         id="path354"
         d="m 91.558398,255.74134 -0.172,0.0227 c -0.706667,0.50934 -1.579067,0.64534 -2.4328,0.62667 -0.9364,-0.0213 -1.8656,-0.20267 -2.789067,-0.34933 -1.052533,-0.16667 -2.106133,-0.33334 -3.159333,-0.5 -0.9984,-0.15867 -2.017733,-0.3 -2.9604,-0.684 -1.481733,-0.60534 -2.659333,-1.768 -3.473467,-3.128 -0.890666,-1.48934 -1.340133,-3.17734 -1.477066,-4.89867 -0.165067,-2.08133 0.09173,-4.16933 0.390666,-6.22667 0.038,-0.25733 0.07653,-0.516 0.114534,-0.77333 h -0.252134 c -0.3156,2.12267 -0.6328,4.26533 -0.54,6.41867 0.07813,1.81066 0.467734,3.60666 1.345334,5.20533 0.7724,1.408 1.913466,2.644 3.376533,3.344 0.892667,0.42533 1.868133,0.61867 2.838533,0.776 1.078134,0.17467 2.157734,0.34267 3.2364,0.512 0.970934,0.15467 1.9448,0.344 2.926533,0.412 0.852667,0.0587 1.7428,0.0133 2.5308,-0.34933 0.1912,-0.0893 0.371334,-0.19734 0.542667,-0.32 l -0.04573,-0.088"
         style="fill:#777bb3;fill-opacity:1;fill-rule:nonzero;stroke:none;stroke-width:0.133333" />
      <path
         id="path355"
         d="m 115.1448,247.42934 h -0.21414 c -1.33426,0.708 -2.48746,1.728 -3.3504,2.968 l 0.2916,0.0413 c 0.84214,-1.21067 1.96987,-2.21067 3.27294,-2.90133 v -0.108"
         style="fill:#777bb3;fill-opacity:1;fill-rule:nonzero;stroke:none;stroke-width:0.133333" />
      <path
         id="path356"
         d="m 115.56146,249.62667 -0.2068,-0.028 c -0.3364,0.124 -0.67293,0.24533 -1.00933,0.368 l -0.0541,0.10533 0.20666,0.028 c 0.33707,-0.12266 0.6724,-0.24533 1.00947,-0.368 l 0.0541,-0.10533"
         style="fill:#777bb3;fill-opacity:1;fill-rule:nonzero;stroke:none;stroke-width:0.133333" />
      <path
         id="path357"
         d="m 96.822398,217.62934 c -0.1536,-0.192 -0.428667,-0.22934 -0.6552,-0.16134 -0.224534,0.0667 -0.3808,0.23734 -0.4276,0.46667 -0.0308,0.15333 -0.0079,0.32267 0.05627,0.472 l 0.08907,0.22267 c 0.133333,0.22133 0.409333,0.29466 0.6484,0.208 0.25,-0.0907 0.368267,-0.31734 0.402667,-0.56934 0.028,-0.21066 0.02493,-0.464 -0.1136,-0.63866"
         style="fill:#ffffff;fill-opacity:1;fill-rule:nonzero;stroke:none;stroke-width:0.133333" />
      <path
         id="path358"
         d="m 78.815598,217.948 c -0.620267,3.74 -3.011467,6.94 -3.858267,10.596 -0.472933,2.04 -0.637066,4.144 -1.1688,6.18934 -0.552133,2.12266 -1.194799,4.22266 -1.721333,6.352 -0.9084,3.67333 -1.4688,7.43333 -1.675466,11.212 -0.102667,1.888 -0.118267,3.78266 -0.0428,5.67333 0.07133,1.78933 -0.323867,2.36933 -2.260934,2.24667 -9.728133,-0.62267 -19.483866,0.0627 -29.222932,0.468 -0.453067,-1.12 -0.491067,-2.36 -0.501467,-3.56934 -0.08707,-10.452 1.737467,-20.84266 3.633333,-31.09066 0.867067,-4.688 2.491067,-8.88134 4.224934,-13.244 1.492666,-3.75334 3.712533,-7.49467 7.364133,-9.48534 l 0.0312,-0.0173 c 2.780666,-1.50667 6.0396,-1.80667 9.214533,-1.76 0.197466,0.003 0.3948,0.007 0.591733,0.0107 2.938,0.0813 5.635867,0.59866 7.9416,1.844 1.91,1.032 3.55,2.564 4.833333,4.76 1.498533,2.56266 3.1172,6.79733 2.6172,9.81466"
         style="fill:#f9a859;fill-opacity:1;fill-rule:nonzero;stroke:none;stroke-width:0.133333" />
      <path
         id="path359"
         d="m 71.653065,205.97867 c -0.01133,2.05867 -0.359333,4.12133 -1.062933,6.056 -0.357334,0.98 -0.805734,1.92667 -1.347467,2.81733 -0.255733,0.42 -0.994267,1.96534 -1.568667,1.84934 -0.271333,-0.0533 -0.473466,-0.272 -0.65,-0.48534 -2.036533,-2.44933 -3.212533,-5.49333 -4.1308,-8.544 -0.369733,-1.22666 -0.7052,-2.484 -0.687466,-3.76533 0.0036,-0.34533 0.03907,-0.66667 0.100533,-0.97067 0.104667,-0.51733 0.285867,-0.98133 0.525467,-1.41733 0.197466,0.003 0.3948,0.007 0.591733,0.0107 2.938,0.0813 5.635867,0.59866 7.9416,1.844 0.236533,0.84266 0.293333,1.72933 0.288,2.60533"
         style="fill:#f57e6f;fill-opacity:1;fill-rule:nonzero;stroke:none;stroke-width:0.133333" />
      <path
         id="path360"
         d="m 76.462531,220.324 h -0.302666 c 0.08547,1.88934 -0.02027,3.78534 -0.316667,5.65334 h 0.302133 c 0.2964,-1.868 0.402,-3.764 0.3172,-5.65334"
         style="fill:#f18349;fill-opacity:1;fill-rule:nonzero;stroke:none;stroke-width:0.133333" />
      <path
         id="path361"
         d="m 72.205732,293.01067 c 0.01093,0.276 0.02293,0.55333 0.03387,0.82933 0.0568,1.428 0.09733,2.93334 -0.571333,4.196 -0.832267,1.572 -2.221333,1.58134 -3.759467,1.73067 -2.186933,0.21467 -4.283333,0.412 -6.488533,0.20133 -0.2848,-0.028 -0.59,-0.068 -0.804667,-0.25866 -0.234933,-0.20934 -0.301066,-0.54267 -0.3536,-0.852 -1.945866,-11.48267 -2.605733,-23.14934 -4.483866,-34.64134 -0.276,-1.692 -0.5708,-3.47733 0.0364,-5.08 0.5448,-1.43866 1.7704,-2.54133 3.146933,-3.228 1.377067,-0.68533 2.907333,-0.99866 4.426,-1.244 1.3516,-0.21866 2.753733,-0.47333 4.124533,-0.51466 1.291067,-0.0387 1.6192,0.476 1.961467,1.76533 0.803067,3.02933 1.1224,6.16267 1.2916,9.28267 0.16,2.95866 -0.2192,6.248 0.399467,9.14133 0.629733,2.944 0.536,6.06133 0.6568,9.08667 0.128666,3.19466 0.2568,6.38933 0.3844,9.58533"
         style="fill:#f9a859;fill-opacity:1;fill-rule:nonzero;stroke:none;stroke-width:0.133333" />
      <path
         id="path362"
         d="m 62.046932,334.62 c -0.8,-0.012 -1.599067,-0.10533 -2.380267,-0.27867 l -0.227066,-0.0533 c -0.120267,-0.028 -0.238534,-0.0587 -0.349467,-0.0933 l -0.248,-0.092 c -0.536933,-0.22934 -0.653067,-0.448 -0.6708,-1.024 v -0.0227 l -0.002,-0.0747 -0.0053,-0.15334 c -0.234267,-8.03066 -0.818134,-16.864 2.380799,-24.444 0.4364,-1.03466 0.963067,-2.06666 1.798934,-2.816 0.836,-0.75066 2.041733,-1.17466 3.109333,-0.82533 2.553733,0.83333 1.316267,5.316 1.138133,7.22267 -0.31,3.324 -0.7328,6.63733 -1.266133,9.93333 -0.466267,2.87733 -1.0172,5.74 -1.6516,8.58533 -0.136533,0.61067 -0.3448,1.21334 -0.287067,1.83734 0.04013,0.42933 0.478134,0.948 0.373467,1.39199 -0.190133,0.80534 -0.9604,0.92 -1.712933,0.90667"
         style="fill:#f57e6f;fill-opacity:1;fill-rule:nonzero;stroke:none;stroke-width:0.133333" />
      <path
         id="path363"
         d="m 70.528665,336.672 -0.04587,0.0507 -13.267199,-0.34534 -0.0224,-0.284 c -0.01147,-0.21466 -0.01147,-0.428 -5.34e-4,-0.64133 0.04373,-0.812 0.263067,-1.60267 0.698,-2.31333 0.09373,-0.152 0.216667,-0.31333 0.3984,-0.34533 0.2,-0.0373 0.386,0.0933 0.557334,0.2 0.646266,0.40266 1.603599,0.63466 2.342666,0.38133 0.4828,-0.16533 0.902133,-0.46933 1.245867,-0.832 0.15,-0.15733 0.295733,-0.32667 0.488533,-0.43733 0.2088,-0.12 0.4484,-0.13067 0.6812,-0.072 0.653733,0.168 1.221333,0.732 1.798,1.068 0.6604,0.38399 1.352533,0.72133 2.066133,1.00399 0.602,0.23867 1.221334,0.44 1.7948,0.73734 0.356667,0.18533 0.954134,0.536 1.24,0.956 0.188134,0.27066 0.2448,0.56933 0.02507,0.87333"
         style="fill:#e6cdbb;fill-opacity:1;fill-rule:nonzero;stroke:none;stroke-width:0.133333" />
      <path
         id="path364"
         d="m 70.528665,336.672 -0.04587,0.0507 -13.267199,-0.34534 -0.0224,-0.284 c -0.01147,-0.21466 -0.01147,-0.428 -5.34e-4,-0.64133 l 13.310933,0.34667 c 0.188134,0.27066 0.2448,0.56933 0.02507,0.87333"
         style="fill:#94cdd7;fill-opacity:1;fill-rule:nonzero;stroke:none;stroke-width:0.133333" />
      <path
         id="path365"
         d="m 67.583865,334.59733 c -0.0584,-0.14533 -0.251067,-0.196 -0.385467,-0.25333 -0.754666,-0.32533 -1.4828,-0.70933 -2.1776,-1.144 -0.3932,-0.244 -0.7744,-0.50533 -1.143733,-0.78266 l -0.213067,-0.036 -0.05933,0.112 c 0.7016,0.52533 1.4432,0.99866 2.221867,1.41066 0.381866,0.20133 0.771866,0.388 1.167733,0.56 l 0.266133,0.13067 -0.05307,0.268 c -0.07973,0.12133 -0.512534,0.55333 -0.4104,0.712 0.158266,0.24533 0.445733,-0.212 0.4916,-0.30667 l 0.147466,-0.252 c 0.0796,-0.11733 0.2072,-0.26667 0.147867,-0.41867"
         style="fill:#caafa0;fill-opacity:1;fill-rule:nonzero;stroke:none;stroke-width:0.133333" />
      <path
         id="path366"
         d="m 64.945865,332.528 -0.119867,-0.0107 -0.09427,0.0347 c -0.170267,0.16534 -0.340534,0.33067 -0.510934,0.496 l 0.0532,0.11334 0.119734,0.012 0.09427,-0.0347 c 0.1708,-0.16667 0.340667,-0.332 0.5104,-0.49733 l -0.05253,-0.11334"
         style="fill:#777bb3;fill-opacity:1;fill-rule:nonzero;stroke:none;stroke-width:0.133333" />
      <path
         id="path367"
         d="m 65.629198,332.95734 -0.214666,0.0227 c -0.162934,0.14534 -0.3156,0.29867 -0.456134,0.464 l -0.01773,0.0627 0.07133,0.0507 0.1192,0.012 0.09387,-0.036 c 0.1416,-0.164 0.293733,-0.31866 0.4572,-0.46133 l -0.05307,-0.11466"
         style="fill:#777bb3;fill-opacity:1;fill-rule:nonzero;stroke:none;stroke-width:0.133333" />
      <path
         id="path368"
         d="m 66.446932,333.39733 -0.07093,-0.0507 -0.1192,-0.012 -0.0948,0.0347 c -0.121333,0.14534 -0.243733,0.28934 -0.3656,0.43467 l -0.0172,0.0613 0.06973,0.052 0.1204,0.0107 0.09373,-0.0347 c 0.1224,-0.144 0.2448,-0.28933 0.366667,-0.432 l 0.0172,-0.064"
         style="fill:#777bb3;fill-opacity:1;fill-rule:nonzero;stroke:none;stroke-width:0.133333" />
      <path
         id="path369"
         d="m 67.247332,333.70267 -0.215067,0.0253 c -0.180133,0.15067 -0.337467,0.32933 -0.464533,0.52267 l 0.01347,0.064 0.0928,0.0413 0.1932,-0.052 0.09427,-0.13467 0.0516,-0.0653 0.0083,-0.0107 0.0104,-0.0107 0.0276,-0.032 0.240666,-0.23334 -0.05267,-0.11466"
         style="fill:#777bb3;fill-opacity:1;fill-rule:nonzero;stroke:none;stroke-width:0.133333" />
      <path
         id="path370"
         d="m 67.104665,328.848 c 0.4704,-1.05066 0.5448,-2.32 0.783333,-3.41866 0.424,-1.952 0.842667,-3.90267 1.218267,-5.864 1.508267,-7.864 2.532267,-15.82 3.063467,-23.80934 0.09747,-1.456 0.172,-2.99066 -0.247867,-4.40666 -0.4708,-1.59067 -1.384933,-2.07867 -2.932267,-2.51467 -2.218266,-0.62667 -4.6412,-0.5 -6.782266,0.35333 -0.604667,0.24 -1.202134,0.54934 -1.6292,1.04 -0.690133,0.79467 -0.573467,1.484 -0.6828,2.416 -0.738533,6.288 -1.658933,12.552 -2.521333,18.82534 -0.438,3.17866 -0.860934,6.36 -1.238,9.548 -0.307334,2.6 -0.4844,5.31866 -1.274534,7.83066 h 12.2432"
         style="fill:#f9a859;fill-opacity:1;fill-rule:nonzero;stroke:none;stroke-width:0.133333" />
      <path
         id="path371"
         d="m 60.051065,293.196 c -0.1708,1.324 -0.476533,2.632 -1.095866,3.804 -1.051067,1.992 -2.378667,2.57467 -4.543734,2.78667 -2.1864,0.21333 -4.282266,0.41067 -6.487466,0.2 -0.285467,-0.0267 -0.590667,-0.068 -0.804667,-0.25867 -0.468266,-0.416 -0.782933,-1.07066 -0.845333,-1.68266 -1.297467,-12.77867 -3.800533,-25.4 -5.878133,-38.076 -0.169867,-1.03734 -0.312534,-2.192 0.2812,-3.05867 0.431333,-0.62933 1.1672,-0.97067 1.884933,-1.22933 2.485333,-0.89734 4.833866,-0.596 7.328666,-0.99734 1.442134,-0.23333 4.0208,-1.06933 5.406267,-0.37866 1.323333,0.66 1.798933,2.92133 2.100933,4.19866 2.516134,10.632 3.476667,21.63067 2.840133,32.536 -0.04107,0.71067 -0.09427,1.43467 -0.186933,2.156"
         style="fill:#f9a859;fill-opacity:1;fill-rule:nonzero;stroke:none;stroke-width:0.133333" />
      <path
         id="path372"
         d="m 44.219332,334.63867 c -0.8,-0.012 -1.599066,-0.10667 -2.3808,-0.27734 l -0.227066,-0.0547 -0.349467,-0.0947 -0.246933,-0.0893 c -1.001467,-0.428 -0.674934,-1.66267 -0.628667,-2.508 0.07093,-1.25867 0.154267,-2.51733 0.2964,-3.76933 0.286533,-2.512 0.814533,-5.02667 1.936933,-7.30934 0.448534,-0.912 1.0084,-1.80266 1.823467,-2.412 1.183867,-0.88666 2.7152,-0.48666 3.416666,0.81467 0.721334,1.33467 0.237067,2.75733 -0.04213,4.15067 -0.307867,1.544 -0.664133,3.076 -1.066133,4.596 -0.3068,1.16133 -0.641733,2.31466 -1.0032,3.46 -0.156667,0.49866 -0.299467,0.84533 -0.158267,1.35733 0.107734,0.39467 0.442134,0.80267 0.342134,1.23066 -0.190534,0.804 -0.960934,0.91867 -1.712934,0.90534"
         style="fill:#f57e6f;fill-opacity:1;fill-rule:nonzero;stroke:none;stroke-width:0.133333" />
      <path
         id="path373"
         d="m 52.700532,336.692 -0.0448,0.0507 -13.268266,-0.34534 -0.02187,-0.28533 c -0.012,-0.21333 -0.012,-0.42667 -0.0011,-0.64133 0.04427,-0.81067 0.2636,-1.60267 0.698534,-2.312 0.0932,-0.152 0.216133,-0.31333 0.3984,-0.34667 0.2,-0.036 0.385466,0.0947 0.557333,0.20134 0.646267,0.40266 1.6036,0.63333 2.342667,0.37999 0.4828,-0.16533 0.902133,-0.47066 1.245333,-0.83066 0.150533,-0.15733 0.296267,-0.32667 0.488533,-0.43733 0.209334,-0.12134 0.448934,-0.13067 0.6812,-0.072 0.654134,0.16666 1.221333,0.732 1.798533,1.068 0.659867,0.38399 1.352,0.71999 2.066134,1.00266 0.602,0.23867 1.221333,0.44133 1.7948,0.73733 0.356133,0.18534 0.9536,0.536 1.239466,0.95467 0.188534,0.27067 0.2448,0.572 0.02507,0.876"
         style="fill:#e6cdbb;fill-opacity:1;fill-rule:nonzero;stroke:none;stroke-width:0.133333" />
      <path
         id="path374"
         d="m 52.700532,336.692 -0.0448,0.0507 -13.268266,-0.34534 -0.02187,-0.28533 c -0.012,-0.21333 -0.012,-0.42667 -0.0011,-0.64133 l 13.310933,0.34533 c 0.188534,0.27067 0.2448,0.572 0.02507,0.876"
         style="fill:#94cdd7;fill-opacity:1;fill-rule:nonzero;stroke:none;stroke-width:0.133333" />
      <path
         id="path375"
         d="m 49.755732,334.61733 c -0.05787,-0.14533 -0.250533,-0.19733 -0.384933,-0.25466 -0.7552,-0.32667 -1.483334,-0.71067 -2.1776,-1.14267 -0.3932,-0.24533 -0.7744,-0.50666 -1.144267,-0.784 l -0.212533,-0.0347 -0.05933,0.112 c 0.7016,0.524 1.442666,0.99866 2.221333,1.40799 0.381866,0.20267 0.771866,0.388 1.168266,0.56 l 0.2656,0.13334 -0.05307,0.268 c -0.0792,0.12133 -0.512,0.552 -0.409867,0.71066 0.158267,0.24667 0.4452,-0.21066 0.4916,-0.30533 l 0.147867,-0.25467 c 0.0792,-0.116 0.2068,-0.26666 0.146933,-0.416"
         style="fill:#caafa0;fill-opacity:1;fill-rule:nonzero;stroke:none;stroke-width:0.133333" />
      <path
         id="path376"
         d="m 47.118799,332.54667 -0.120934,-0.012 -0.09427,0.0373 c -0.169734,0.16534 -0.340533,0.32934 -0.5104,0.49467 l 0.05267,0.11467 0.120266,0.012 0.09373,-0.036 c 0.170799,-0.16534 0.340666,-0.33067 0.511466,-0.496 l -0.05253,-0.11467"
         style="fill:#777bb3;fill-opacity:1;fill-rule:nonzero;stroke:none;stroke-width:0.133333" />
      <path
         id="path377"
         d="M 47.801599,332.976 47.586932,333 c -0.162933,0.144 -0.3156,0.29867 -0.456267,0.46267 l -0.01707,0.064 0.07027,0.0507 0.1192,0.0107 0.0948,-0.0347 c 0.1412,-0.164 0.2928,-0.31866 0.456267,-0.46266 l -0.05253,-0.11467"
         style="fill:#777bb3;fill-opacity:1;fill-rule:nonzero;stroke:none;stroke-width:0.133333" />
      <path
         id="path378"
         d="m 48.619332,333.41733 -0.0704,-0.052 -0.119733,-0.0107 -0.09427,0.0347 c -0.1224,0.144 -0.244267,0.28934 -0.366667,0.43334 l -0.0172,0.0627 0.07027,0.0507 0.1204,0.012 0.09427,-0.0347 c 0.1224,-0.14533 0.243733,-0.28933 0.3656,-0.43333 l 0.01773,-0.0627"
         style="fill:#777bb3;fill-opacity:1;fill-rule:nonzero;stroke:none;stroke-width:0.133333" />
      <path
         id="path379"
         d="m 49.419332,333.72267 -0.2152,0.024 c -0.180133,0.152 -0.336933,0.32933 -0.464533,0.524 l 0.014,0.064 0.0928,0.04 0.1932,-0.052 0.0948,-0.13334 0.05053,-0.0653 0.0088,-0.0107 0.0104,-0.012 0.02707,-0.0307 0.241733,-0.23334 -0.0536,-0.11466"
         style="fill:#777bb3;fill-opacity:1;fill-rule:nonzero;stroke:none;stroke-width:0.133333" />
      <path
         id="path380"
         d="m 50.765065,329.08667 c 0.552667,-1.00933 0.7292,-2.268 1.0552,-3.34267 0.578667,-1.912 1.1532,-3.824 1.685467,-5.74933 2.261467,-8.17333 4.564,-16.31333 6.220267,-24.65067 0.2652,-1.33733 0.497999,-2.81333 -0.1864,-3.99066 -0.692267,-1.19334 -2.1224,-1.724 -3.468267,-2.024 -2.264,-0.504 -4.7568,-0.85867 -7.0016,-0.168 -2.627066,0.81066 -2.681733,3.30533 -2.992133,5.69866 -0.75,5.76934 -1.9588,11.46667 -3.3412,17.11334 -0.692133,2.82933 -1.429067,5.64533 -2.174933,8.45733 -0.677067,2.55467 -1.001067,5.20667 -2,7.672 l 12.203599,0.984"
         style="fill:#f9a859;fill-opacity:1;fill-rule:nonzero;stroke:none;stroke-width:0.133333" />
      <path
         id="path381"
         d="m 76.494798,255.05467 c 1.226,0.63333 2.9604,1.57067 4.0416,1.16267 2.0496,-0.776 1.434933,-2.37467 0.04533,-3.39067 -2.940533,-2.15067 -5.671866,-4.588 -8.146266,-7.26133 -1.217733,-1.31734 -2.374,-2.69067 -3.462533,-4.11734 -0.9932,-1.3 -2.106267,-2.39066 -3.1568,-3.648 -0.676534,-0.812 -1.359867,-1.74133 -2.237467,-2.35066 -0.813067,-0.564 -1.587467,-0.208 -2.542667,-0.0507 -0.864133,0.14133 -1.743866,0.288 -2.522399,0.688 -1.2776,0.656 -1.4896,1.648 -1.766267,2.92933 -0.4432,2.05467 2.2496,3.956 3.543866,5.192 1.833867,1.752 3.787467,3.37867 5.8416,4.86667 3.033867,2.2 6.286934,4.096 9.697467,5.64933 0.1952,0.0893 0.419733,0.204 0.664533,0.33067"
         style="fill:#f57e6f;fill-opacity:1;fill-rule:nonzero;stroke:none;stroke-width:0.133333" />
      <path
         id="path382"
         d="m 50.377065,212.012 c 0.580267,-1.052 1.509334,-1.87866 2.937467,-2.27066 0.6772,-0.18667 2.149467,-0.43867 2.721867,0.0747 0.303733,0.27067 0.466266,0.66134 0.6172,1.04 1.5948,3.992 3.025066,8.19467 3.903733,12.392 0.503066,2.404 1.130666,4.78 1.809333,7.14134 0.347333,1.21066 0.709333,2.41733 1.075067,3.624 0.2932,0.96933 0.787466,1.94533 0.7984,2.97466 0.01293,1.22534 -0.790134,1.75334 -1.615067,2.46134 -1.655333,1.42133 -3.817733,3.49733 -5.869333,1.368 -0.662,-0.68667 -1.042667,-1.58934 -1.4088,-2.47067 -2.673467,-6.43067 -4.386533,-12.71467 -5.5532,-19.56533 -0.3692,-2.16534 -0.476533,-4.844 0.583333,-6.76934"
         style="fill:#f57e6f;fill-opacity:1;fill-rule:nonzero;stroke:none;stroke-width:0.133333" />
      <path
         id="path383"
         d="m 63.425065,227.91467 c -1.007867,-4.91067 -2.214133,-9.78 -3.615733,-14.59333 -0.556667,-1.91067 -1.207733,-3.94267 -2.550933,-5.46134 -1.159467,-1.312 -3.498,-2.408 -5.1808,-1.56 -1.177067,0.592 -2.140667,1.592 -2.7984,2.72534 -0.964667,1.66266 -1.339067,3.60266 -1.5152,5.51733 -0.5156,5.60667 0.548,11.20267 1.881866,16.62533 0.218667,0.88934 0.3312,2.924 0.9448,3.60667 0.672934,0.74933 2.14,0.36267 3.0588,0.224 2.665067,-0.4 5.1912,-1.42667 7.6708,-2.44 0.757333,-0.308 1.899067,-0.70933 2.338133,-1.464 0.532267,-0.916 -0.02507,-2.16533 -0.233333,-3.18"
         style="fill:#f9a859;fill-opacity:1;fill-rule:nonzero;stroke:none;stroke-width:0.133333" />
      <path
         id="path384"
         d="m 86.242131,253.73334 c 0.03853,0.104 -0.0244,0.21333 -0.25,0.324 -0.192133,0.0933 -0.4156,0.0867 -0.6296,0.0813 -0.6604,-0.02 -1.344266,-0.008 -1.9844,0.17733 -0.425066,0.124 -1.497466,0.53334 -0.626533,0.90534 1.790533,0.76266 3.7932,1.024 5.720266,0.74533 0.444267,-0.0653 0.893734,0.0333 0.837467,0.56667 -0.0572,0.54133 -0.692133,0.672 -1.140533,0.76 -2.316667,0.45066 -4.696933,0.90133 -6.967733,0.008 -0.822934,-0.324 -3.045334,-1.27334 -2.576534,-2.44267 0.5984,-1.492 2.218667,-2.02267 3.704134,-2.06933 0.815066,-0.0267 1.637466,0.076 2.428133,0.276 0.2416,0.0613 1.365067,0.33866 1.485333,0.668"
         style="fill:#f57e6f;fill-opacity:1;fill-rule:nonzero;stroke:none;stroke-width:0.133333" />
      <path
         id="path385"
         d="m 89.095864,256.788 -0.171866,-0.0227 c -1.412,0.35466 -2.882267,0.448 -4.328133,0.276 l -0.1552,0.0453 0.088,0.0787 c 1.512,0.18 3.045866,0.0813 4.522399,-0.28934 l 0.0448,-0.088"
         style="fill:#dc5153;fill-opacity:1;fill-rule:nonzero;stroke:none;stroke-width:0.133333" />
      <path
         id="path386"
         d="m 80.695865,253.18134 -0.171867,-0.0227 c -0.382267,0.11333 -0.7376,0.308 -1.0376,0.56933 l 0.04533,0.088 0.171867,-0.0227 c 0.275067,-0.24 0.597467,-0.42 0.947467,-0.524 l 0.0448,-0.088"
         style="fill:#dc5153;fill-opacity:1;fill-rule:nonzero;stroke:none;stroke-width:0.133333" />
      <path
         id="path387"
         d="m 51.216665,235.34134 c -0.550533,-1.86 -1.058266,-3.73067 -1.523466,-5.61334 -0.464,-1.88 -0.8848,-3.772 -1.262534,-5.672 -0.211866,-1.06666 -0.409866,-2.136 -0.594266,-3.208 h -0.302 c 0.330133,1.91734 0.7036,3.828 1.121866,5.728 0.415067,1.892 0.874934,3.77334 1.376,5.64267 0.283867,1.05867 0.582267,2.11333 0.8928,3.16267 l 0.2916,-0.04"
         style="fill:#f18349;fill-opacity:1;fill-rule:nonzero;stroke:none;stroke-width:0.133333" />
      <path
         id="path388"
         d="m 63.920265,231.14267 c -0.3864,-1.71867 -0.772933,-3.43867 -1.159867,-5.15733 -0.3864,-1.71867 -0.773466,-3.43867 -1.159866,-5.15734 -0.386934,-1.71866 -0.774,-3.43866 -1.1604,-5.15866 -0.1932,-0.85867 -0.387067,-1.71867 -0.580267,-2.57867 -0.155733,-0.69333 -0.3,-1.392 -0.4984,-2.07467 -0.332266,-1.144 -0.845866,-2.34533 -1.8828,-3.01866 -0.125066,-0.0813 -0.255733,-0.15334 -0.391733,-0.216 h -0.212933 v 0.108 c 1.1312,0.52533 1.7224,1.688 2.0896,2.82133 0.206133,0.63467 0.348933,1.288 0.4952,1.93867 0.191733,0.85066 0.382933,1.70266 0.574533,2.55333 0.3828,1.704 0.766133,3.40667 1.148933,5.10933 0.3808,1.69467 0.762533,3.38934 1.1432,5.084 0.383333,1.70267 0.766267,3.40534 1.149067,5.108 0.0484,0.21334 0.09573,0.42534 0.144266,0.63867 h 0.301467"
         style="fill:#f18349;fill-opacity:1;fill-rule:nonzero;stroke:none;stroke-width:0.133333" />
      <path
         id="path389"
         d="m 71.363598,207.524 0.09947,0.20934 c 0.273333,0.516 0.710933,0.93333 0.952,1.464 0.729733,1.60266 -0.376,3.10933 -0.4572,4.68666 -0.07813,1.50934 0.521867,3.07467 1.688,4.05734 0.3224,0.272 0.6828,0.504 0.949466,0.83066 0.490134,0.60134 0.5896,1.42534 0.613067,2.2 0.02387,0.776 -0.0032,1.57867 0.2952,2.29467 0.569333,1.36133 2.4652,1.60933 3.712,1.164 0.821867,-0.292 1.5276,-0.90133 1.939067,-1.67067 0.271866,-0.508 0.440666,-1.028 0.922933,-1.37333 0.465067,-0.33333 0.845867,-0.55333 1.1776,-1.07733 0.671867,-1.06 0.7084,-2.18134 0.414533,-3.36134 -0.263466,-1.06133 -0.967066,-2.06 -0.914533,-3.184 0.0188,-0.40133 0.1308,-0.79066 0.225467,-1.18 0.154266,-0.64133 0.262,-1.30666 0.177733,-1.96133 -0.08547,-0.65467 -0.383333,-1.304 -0.914133,-1.69733 -0.423467,-0.31334 -0.9552,-0.44267 -1.411467,-0.70534 -0.712533,-0.41333 -1.214,-1.17066 -1.3156,-1.98933 -0.06413,-0.51467 0.0188,-1.06133 -0.191733,-1.536 -0.128534,-0.28933 -0.356667,-0.52533 -0.604134,-0.72267 -0.898933,-0.724 -2.038533,-0.91866 -3.152,-1.06 -0.649066,-0.0813 -1.338133,-0.15866 -1.9292,0.12134 -0.473999,0.224 -0.695333,0.61066 -1.039066,0.97466 -0.502667,0.53067 -1.049467,0.87067 -1.293733,1.59467 -0.2084,0.62 -0.195334,1.31733 0.05627,1.92133"
         style="fill:#82423e;fill-opacity:1;fill-rule:nonzero;stroke:none;stroke-width:0.133333" />
      <path
         id="path390"
         d="m 71.563065,205.15067 c 0.4916,0.116 0.9916,0.204 1.4968,0.22 1.3912,0.0453 2.612533,-1.06667 3.3652,-2.13733 0.3864,-0.548 0.642666,-0.99734 1.193733,-1.428 0.528533,-0.412 1.108267,-0.75334 1.6276,-1.18 2.821333,-2.312 3.25,-6.37733 1.8984,-9.60933 -0.282267,-0.67334 -0.649467,-1.336 -1.2172,-1.796 -0.724533,-0.588 -1.390667,-1.236 -2.0036,-1.93867 -0.621333,-0.712 -1.164133,-0.992 -2.097467,-1.25733 -1.8312,-0.52134 -3.813466,-0.516 -5.635866,0.0427 -1.138,0.34934 -2.227067,0.91734 -3.060933,1.76667 -0.379734,0.388 -0.701067,0.82667 -1.002134,1.27733 -1.1088,1.66534 -1.947866,3.53467 -2.246933,5.512 -0.377067,2.49734 0.331867,4.55067 1.381867,6.76133 0.348933,0.732 0.7552,1.44267 1.274933,2.068 0.8756,1.05067 1.8844,1.40667 3.286,1.15334 0.566667,-0.10134 1.169733,0.41066 1.7396,0.54533"
         style="fill:#82423e;fill-opacity:1;fill-rule:nonzero;stroke:none;stroke-width:0.133333" />
      <path
         id="path391"
         d="m 73.887465,201.548 c -0.04053,0.25734 -0.1124,0.52667 -0.2,0.792 -0.195334,0.59334 -0.467733,1.17867 -0.635867,1.63734 -0.390133,1.06 -0.8412,2.096 -1.299466,3.128 -0.0568,0.128 -0.1136,0.256 -0.1704,0.384 -0.314534,0.708 -0.673334,1.46533 -1.355734,1.83333 -0.527066,0.284 -1.173333,0.28 -1.7468,0.10533 -0.5724,-0.172 -1.085466,-0.50133 -1.572933,-0.848 -1.5964,-1.136 -4.8448,-3.60533 -3.804133,-5.988 0.183333,-0.41733 0.4776,-0.77333 0.751466,-1.13733 0.545867,-0.72667 1.019334,-1.50666 1.412534,-2.32533 0.314133,-0.65467 0.447866,-1.37067 1.0308,-1.832 1.154133,-0.91333 2.530666,0.0333 3.5624,0.708 0.371333,0.244 0.654666,0.552 1.0204,0.79467 0.628666,0.42 1.262933,0.84266 1.895333,1.26133 0.230133,0.15466 1.0276,0.38 1.092133,0.616 0.0708,0.264 0.06827,0.56 0.02027,0.87066"
         style="fill:#f57e6f;fill-opacity:1;fill-rule:nonzero;stroke:none;stroke-width:0.133333" />
      <path
         id="path392"
         d="m 73.887465,201.548 c -0.04053,0.25734 -0.1124,0.52667 -0.2,0.792 -0.195334,0.59334 -0.467733,1.17867 -0.635867,1.63734 -0.390133,1.06 -0.8412,2.096 -1.299466,3.128 l -0.05627,10e-4 c -1.591733,0.0293 -3.15,-0.76 -4.103733,-2.02933 -0.781734,-1.04 -1.147334,-2.416 -0.854667,-3.688 0.1068,-0.46 0.304667,-0.912 0.647467,-1.24 0.521333,-0.49867 1.394266,-0.48267 2.071333,-0.46267 0.848933,0.0267 1.6552,0.36533 2.407333,0.75867 0.664534,0.352 1.327067,0.80266 2.023867,1.10266"
         style="fill:#dc5153;fill-opacity:1;fill-rule:nonzero;stroke:none;stroke-width:0.133333" />
      <path
         id="path393"
         d="m 77.285465,203.332 c -0.913067,1.15467 -1.976134,2.19467 -3.2756,2.868 -0.6896,0.35734 -1.423467,0.60267 -2.202533,0.63067 -0.921334,0.032 -1.8724,-0.53333 -2.528134,-1.14133 -1.949466,-1.80934 -2.9532,-4.616 -3.1204,-7.212 -0.0328,-0.50933 -0.03853,-1.02133 -0.0208,-1.53067 0.026,-0.73866 -0.0244,-1.25466 0.308934,-1.93466 0.339466,-0.69467 0.7572,-1.348 1.228133,-1.96 0.950933,-1.24 2.1104,-2.30667 3.335867,-3.268 0.703066,-0.55067 1.462,-1.08667 2.339599,-1.25734 0.552134,-0.108 1.1208,-0.0653 1.6812,-0.0227 0.621867,0.048 1.253734,0.0973 1.837067,0.316 0.5192,0.19333 0.983333,0.516 1.3916,0.88933 1.068267,0.97867 1.774,2.32533 2.045867,3.748 0.270266,1.416 0.188533,2.89467 -0.1708,4.28933 -0.319867,1.23867 -0.793334,2.568 -1.490134,3.65333 -0.4188,0.652 -0.8672,1.308 -1.359866,1.932"
         style="fill:#f57e6f;fill-opacity:1;fill-rule:nonzero;stroke:none;stroke-width:0.133333" />
      <path
         id="path394"
         d="m 75.234398,196.82534 -0.0256,-0.008 c -0.2656,-0.064 -0.4192,0.716 -0.4656,0.91333 -0.0968,0.41467 -0.136933,0.84267 -0.1364,1.26667 5.33e-4,0.536 0.1088,1.06 0.112933,1.59333 0.0068,0.66267 -0.753066,0.78 -1.209866,0.788 -0.2396,0.004 -0.1088,0.22533 0.06667,0.22267 0.421867,-0.008 0.9932,-0.0867 1.316134,-0.436 0.164666,-0.17867 0.193333,-0.41334 0.176666,-0.65334 -0.0204,-0.30266 -0.0672,-0.60399 -0.0876,-0.90666 -0.0296,-0.45067 -0.0276,-0.90667 0.03227,-1.356 0.0308,-0.228 0.07613,-0.45467 0.140133,-0.676 0.05427,-0.18667 0.2156,-0.44133 0.166667,-0.63867 l -0.0864,-0.10933"
         style="fill:#dc5153;fill-opacity:1;fill-rule:nonzero;stroke:none;stroke-width:0.133333" />
      <path
         id="path395"
         d="m 69.482798,195.14001 c 0.271867,-0.41734 1.019867,-0.556 1.454134,-0.624 0.546933,-0.0867 1.105733,-0.0693 1.6428,0.052 0.240533,0.0547 0.828666,0.21333 0.845733,0.55733 0.01933,0.372 -0.5552,0.24667 -0.7452,0.196 -0.857867,-0.224 -1.6376,-0.48533 -2.531333,-0.264 -0.1796,0.0453 -0.5088,0.192 -0.666134,0.0827"
         style="fill:#82423e;fill-opacity:1;fill-rule:nonzero;stroke:none;stroke-width:0.133333" />
      <path
         id="path396"
         d="m 79.731198,198.27867 c 0.03133,-0.49066 -0.436933,-1 -0.7156,-1.28533 -0.351067,-0.36 -0.7672,-0.64 -1.222933,-0.82133 -0.204667,-0.0827 -0.719734,-0.25867 -0.920267,0.0187 -0.216667,0.29867 0.269333,0.49734 0.4344,0.556 0.747333,0.264 1.456267,0.45734 1.985333,1.112 0.106267,0.132 0.265734,0.428 0.439067,0.42"
         style="fill:#82423e;fill-opacity:1;fill-rule:nonzero;stroke:none;stroke-width:0.133333" />
      <path
         id="path397"
         d="m 71.675065,196.32534 c -0.09227,-0.16667 -0.2876,-0.21067 -0.466667,-0.17867 -0.15,0.001 -0.302666,0.0547 -0.412533,0.14934 -0.163067,0.13866 -0.257333,0.344 -0.294267,0.552 -0.03387,0.192 -0.036,0.39333 0.038,0.57733 0.08547,0.21067 0.290134,0.32 0.511467,0.316 l 0.03067,-0.005 0.098,-0.016 h 9.33e-4 l 0.0672,-0.016 0.136533,-0.056 c 0.195867,-0.12134 0.314534,-0.364 0.3604,-0.58267 0.02653,-0.13067 0.03227,-0.27467 0.01093,-0.412 l -0.08067,-0.328"
         style="fill:#3a2323;fill-opacity:1;fill-rule:nonzero;stroke:none;stroke-width:0.133333" />
      <path
         id="path398"
         d="m 77.456265,198.00934 c -0.08387,-0.17067 -0.277067,-0.224 -0.4568,-0.20133 -0.15,-0.005 -0.305734,0.0413 -0.4208,0.12933 -0.1688,0.13067 -0.273467,0.33067 -0.3208,0.536 -0.04387,0.19067 -0.0552,0.392 0.0099,0.57867 0.0744,0.21466 0.273467,0.33333 0.495334,0.34133 l 0.0312,-0.004 0.0984,-0.0107 h 0.0011 l 0.0672,-0.0133 0.138534,-0.048 c 0.202666,-0.112 0.333333,-0.348 0.3896,-0.56533 0.03333,-0.12934 0.0464,-0.272 0.03173,-0.40934 l -0.06453,-0.33333"
         style="fill:#3a2323;fill-opacity:1;fill-rule:nonzero;stroke:none;stroke-width:0.133333" />
      <path
         id="path399"
         d="m 74.000531,203.288 c 0.0916,-0.13066 0.0776,-0.264 -0.1568,-0.368 -0.1516,-0.0667 -0.325466,-0.0427 -0.491066,-0.0507 -0.457867,-0.0213 -0.8704,-0.29067 -1.204267,-0.60534 -0.1396,-0.132 -0.272933,-0.276 -0.441066,-0.368 -0.396934,-0.21466 -0.784934,-0.0267 -0.704267,0.42534 0.0568,0.32266 0.238133,0.676 0.4532,0.92133 0.385467,0.44 1.082267,0.58933 1.645333,0.54267 0.185867,-0.0147 0.727067,-0.252 0.898933,-0.49734"
         style="fill:#ffffff;fill-opacity:1;fill-rule:nonzero;stroke:none;stroke-width:0.133333" />
      <path
         id="path400"
         d="m 79.903598,199.13867 -0.03587,-0.0187 -0.02867,-0.0627 c -0.076,-0.33467 0.064,-0.61333 0.1328,-0.93067 0.07813,-0.36133 0.1292,-0.72933 0.154133,-1.09866 0.05107,-0.73734 -0.0104,-1.48134 -0.185867,-2.20134 -0.2136,-0.87466 -0.546933,-1.71733 -0.954133,-2.52 -0.2048,-0.40133 -0.4276,-0.79333 -0.665733,-1.176 -0.195734,-0.31466 -0.314534,-0.7 -0.5776,-0.96266 l -0.191067,-0.10267 c -0.1652,0.001 -0.362,0.28133 -0.475067,0.38 -0.2224,0.196 -0.457733,0.38133 -0.695333,0.56 -0.4744,0.35733 -0.971867,0.68667 -1.4864,0.98133 -1.0328,0.59334 -2.138,1.056 -3.285466,1.37334 -0.705734,0.19466 -1.425467,0.33466 -2.124934,0.55333 -0.711466,0.22267 -1.362,0.55333 -2.0256,0.89067 l -0.3176,0.0987 c -0.25,-0.009 -0.401066,-0.28 -0.4672,-0.52133 -0.2052,-0.74667 -0.08547,-1.56 0.2344,-2.26533 0.319734,-0.70534 0.828,-1.31067 1.397867,-1.836 1.681733,-1.54667 3.965067,-2.42267 6.250533,-2.39867 1.0656,0.0107 2.136933,0.21467 3.098933,0.67333 0.961467,0.45867 1.808267,1.18267 2.3412,2.10534 0.401467,0.696 0.617067,1.48266 0.770267,2.27066 0.3776,1.94267 0.550533,3.99734 -0.416133,5.79734 -0.08707,0.16133 -0.192667,0.32933 -0.3636,0.39866 l -0.08387,0.012"
         style="fill:#82423e;fill-opacity:1;fill-rule:nonzero;stroke:none;stroke-width:0.133333" />
      <path
         id="path401"
         d="m 67.877065,194.22667 -0.180133,-0.24533 c -0.253734,-0.28933 -0.6188,-0.49467 -1.003734,-0.50133 -0.599466,-0.009 -1.123466,0.45733 -1.367733,1.00533 -0.5432,1.21467 -0.289067,2.88 0.426133,3.972 0.271334,0.41467 0.712,0.82267 1.1984,0.72267 0.347867,-0.072 0.594267,-0.38667 0.742667,-0.70934 0.4672,-1.01866 0.7292,-2.34133 0.489067,-3.45466 -0.05987,-0.27734 -0.156667,-0.54934 -0.304667,-0.78934"
         style="fill:#f57e6f;fill-opacity:1;fill-rule:nonzero;stroke:none;stroke-width:0.133333" />
      <path
         id="path402"
         d="m 76.388531,189.28134 c -1.586933,1.408 -3.520799,2.40667 -5.585466,2.89333 -0.584267,0.13734 -1.179067,0.232 -1.7776,0.28534 l -0.08587,0.0773 0.1516,0.044 c 2.154134,-0.192 4.250933,-0.92933 6.056133,-2.12 0.511067,-0.33733 0.9964,-0.71067 1.4548,-1.116 l -0.2136,-0.064"
         style="fill:#3a2323;fill-opacity:1;fill-rule:nonzero;stroke:none;stroke-width:0.133333" />
      <path
         id="path403"
         d="m 73.647331,189.31601 c -0.882266,0.772 -1.990533,1.256 -3.158266,1.372 l -0.086,0.0773 0.1516,0.0427 c 1.218267,-0.12 2.384933,-0.62267 3.305733,-1.42934 l -0.213067,-0.0627"
         style="fill:#3a2323;fill-opacity:1;fill-rule:nonzero;stroke:none;stroke-width:0.133333" />
      <path
         id="path404"
         d="m 71.076532,186.61201 -0.168134,-0.0227 c -0.922,0.24933 -1.7808,0.69867 -2.51,1.31467 l 0.2136,0.064 c 0.704134,-0.59467 1.530667,-1.028 2.420267,-1.26934 l 0.04427,-0.0867"
         style="fill:#3a2323;fill-opacity:1;fill-rule:nonzero;stroke:none;stroke-width:0.133333" />
      <path
         id="path405"
         d="m 76.041731,217.172 c -1.0964,-0.26666 -1.7224,-1.416 -1.835466,-2.468 -0.151067,-1.41466 0.377066,-2.77733 0.554666,-4.164 0.09587,-0.74533 0.0912,-1.50666 -0.1536,-2.224 l -0.238,0.0333 c 0.4676,1.37466 0.03013,2.82666 -0.2412,4.19333 -0.2484,1.24933 -0.364133,2.62133 0.392667,3.728 0.334933,0.488 0.814667,0.868 1.3964,1.01067 l 0.1692,-0.0227 -0.04467,-0.0867"
         style="fill:#3a2323;fill-opacity:1;fill-rule:nonzero;stroke:none;stroke-width:0.133333" />
      <path
         id="path406"
         d="m 77.147331,215.568 c -0.624933,-0.54 -0.961866,-1.36266 -0.9,-2.18533 h -0.247333 c -0.064,0.84667 0.2912,1.69467 0.933867,2.24933 l 0.213466,-0.064"
         style="fill:#3a2323;fill-opacity:1;fill-rule:nonzero;stroke:none;stroke-width:0.133333" />
      <path
         id="path407"
         d="m 81.173998,211.80534 -0.1688,-0.0227 c -0.5172,0.144 -1.065067,-0.31733 -1.126,-0.82267 h -0.246933 c 0.08227,0.68934 0.854666,1.11067 1.497466,0.93067 l 0.04427,-0.0853"
         style="fill:#3a2323;fill-opacity:1;fill-rule:nonzero;stroke:none;stroke-width:0.133333" />
      <path
         id="path408"
         d="m 79.018798,220.99467 -0.1516,-0.044 c -0.4636,0.048 -0.940133,-0.17067 -1.224,-0.53733 -0.286933,-0.372 -0.3796,-0.86667 -0.2604,-1.32 h -0.2468 c -0.133867,0.51066 0.0025,1.07066 0.358267,1.46 0.3604,0.39466 0.912533,0.57333 1.438533,0.51866 l 0.086,-0.0773"
         style="fill:#3a2323;fill-opacity:1;fill-rule:nonzero;stroke:none;stroke-width:0.133333" />
      <path
         id="path409"
         d="M 69.974532,260.09334 69.789065,260.04 c -1.815067,0.28 -3.653067,0.34534 -5.486933,0.364 -1.8412,0.0187 -3.6824,0.0187 -5.524,0.0267 -3.702667,0.016 -7.4052,0.032 -11.107867,0.048 -2.077066,0.009 -4.155199,0.0187 -6.232799,0.028 l -0.151467,0.0773 0.151467,0.076 c 3.720933,-0.016 7.442266,-0.032 11.163599,-0.048 3.715067,-0.016 7.430667,-0.0253 11.146267,-0.0493 2.0448,-0.0133 4.096933,-0.0627 6.122,-0.37467 l 0.1052,-0.0947"
         style="fill:#f18349;fill-opacity:1;fill-rule:nonzero;stroke:none;stroke-width:0.133333" />
      <path
         id="path410"
         d="m 61.005198,283.88934 c -0.0192,-2.25867 -0.125466,-4.51867 -0.290666,-6.772 -0.1656,-2.27334 -0.39,-4.54267 -0.6468,-6.80934 -0.256267,-2.26266 -0.544267,-4.52266 -0.837067,-6.78133 -0.03693,-0.27867 -0.07227,-0.55733 -0.1088,-0.83733 l -0.302133,-0.003 c 0.293867,2.25733 0.584933,4.516 0.849067,6.77733 0.264,2.26534 0.499999,4.53334 0.680133,6.80667 0.178133,2.25467 0.302133,4.51333 0.3432,6.77333 0.04067,2.26134 -0.002,4.52534 -0.156134,6.78267 -0.1548,2.256 -0.421466,4.50267 -0.825599,6.728 -0.05053,0.276 -0.103067,0.552 -0.157334,0.82667 l 0.302667,0.004 c 0.436933,-2.21867 0.7364,-4.46534 0.919733,-6.71867 0.182933,-2.25333 0.25,-4.51733 0.229733,-6.77733"
         style="fill:#f18349;fill-opacity:1;fill-rule:nonzero;stroke:none;stroke-width:0.133333" />
      <path
         id="path411"
         d="m 66.305198,244.15467 c -1.503066,0.952 -3.082266,1.78267 -4.718266,2.48267 -1.633867,0.69733 -3.3244,1.26533 -5.049467,1.696 -0.979066,0.244 -1.969733,0.44266 -2.967733,0.59466 l -0.088,0.08 0.154667,0.0453 c 1.776666,-0.27467 3.530266,-0.68934 5.239066,-1.24267 1.7084,-0.55333 3.372933,-1.24267 4.971467,-2.06 0.900933,-0.46133 1.7812,-0.964 2.636933,-1.504 0.120267,-0.0773 -0.1084,-0.136 -0.178667,-0.092"
         style="fill:#f18349;fill-opacity:1;fill-rule:nonzero;stroke:none;stroke-width:0.133333" />
    </g>
  </g>
</svg>
