<?xml version="1.0" encoding="UTF-8" standalone="no"?>
<!-- Created with Inkscape (http://www.inkscape.org/) -->

<svg
   version="1.1"
   id="svg1"
   width="104.08795"
   height="156.11789"
   viewBox="0 0 104.08795 156.11789"
   xmlns="http://www.w3.org/2000/svg"
   xmlns:svg="http://www.w3.org/2000/svg">
  <defs
     id="defs1" />
  <g
     id="g1"
     transform="translate(-657.55182,-354.10092)">
    <g
       id="g2306">
      <path
         id="path1166"
         d="m 718.53732,403.65307 c 0.5,-0.9984 0.99866,-1.99734 1.49866,-2.99734 2.40934,-4.81973 4.32934,-9.76906 6.028,-14.85173 0.46667,-1.4 0.93867,-2.832 0.91734,-4.30667 -0.0253,-1.95066 -1.35334,-4.232 -3.43334,-4.50266 -2.34266,-0.304 -4.83466,2.1 -6.132,3.78533 -2.49866,3.24 -3.392,7.48 -4.58933,11.30667 -0.69333,2.216 -1.65333,4.416 -2.41333,6.636 -0.67067,1.956 -1.34534,3.93306 -1.52934,5.99093 -0.13866,1.5452 0.14667,3.8088 1.392,4.93013 1.23867,1.11507 3.676,0.18174 4.78134,-0.72133 1.40533,-1.1464 2.256,-2.82133 3.068,-4.44373 0.13733,-0.27454 0.276,-0.55054 0.412,-0.8256"
         style="fill:#94cdd7;fill-opacity:1;fill-rule:nonzero;stroke:none;stroke-width:0.133333" />
      <path
         id="path1167"
         d="m 696.33732,389.89333 c -0.0827,-0.188 -0.16934,-0.376 -0.24267,-0.56666 -0.27067,-0.71067 -0.49333,-1.44 -0.83867,-2.12667 -0.376,-0.74667 -0.89333,-1.42667 -1.476,-2.03867 -0.276,-0.292 -0.57066,-0.612 -0.908,-0.83066 -0.10666,-0.0693 -0.672,-0.552 -0.79333,-0.47467 -0.208,0.12933 -0.26133,0.41333 -0.19467,0.65467 0.0667,0.24 0.22667,0.44933 0.384,0.65066 0.15334,0.196 1.008,1.10667 0.804,1.224 -0.25066,0.14534 -0.67733,-0.216 -0.86933,-0.356 -1.008,-0.72933 -1.92667,-1.64533 -2.77867,-2.54533 -0.14266,-0.15067 -0.404,-0.43067 -0.636,-0.404 -0.33333,0.0373 -0.29066,0.47867 -0.20933,0.71067 0.38667,1.10933 1.56,2.06 2.47333,2.77733 0.21334,0.168 -0.15333,0.084 -0.24266,0.028 l -0.33067,-0.25333 c -0.69333,-0.48267 -1.364,-0.912 -1.944,-1.53734 -0.32933,-0.356 -0.63067,-0.748 -1.03067,-1.028 l -0.232,-0.10133 c -0.54133,-0.0413 -0.0213,0.98533 0.088,1.18133 0.372,0.66 0.89334,1.232 1.45734,1.748 0.26933,0.248 0.54533,0.5 0.852,0.69734 0.11066,0.0707 0.41066,0.22533 0.34666,0.38533 -0.0973,0.23867 -0.716,-0.23467 -0.83466,-0.31067 -0.76,-0.48666 -1.35867,-1.18266 -1.876,-1.90133 -0.164,-0.22667 -0.42134,-0.55467 -0.73067,-0.416 -0.28267,0.12667 -0.212,0.388 -0.116,0.628 0.23333,0.58 0.60267,1.112 1.02267,1.58667 0.312,0.35333 0.656,0.67866 1.00933,0.992 0.17867,0.156 0.35867,0.31066 0.53867,0.464 l 0.36666,0.31466 0.0227,0.0973 -0.012,0.0347 c -0.82133,-0.29466 -1.54,-1.04266 -2.156,-1.63866 -0.16667,-0.16 -0.33733,-0.32934 -0.55467,-0.41067 -0.332,-0.12533 -0.32133,0.24933 -0.25866,0.45467 0.08,0.264 0.26933,0.49333 0.448,0.704 0.788,0.93866 1.59066,1.788 2.572,2.536 1.01066,0.77066 2.08133,1.46666 3.19733,2.07733 0.53067,0.28933 1.076,0.56267 1.65333,0.72533 0.19334,0.0547 0.39467,0.096 0.588,0.0653 0.18534,-0.032 0.348,-0.12934 0.49334,-0.23867 0.32,-0.24267 0.58133,-0.55467 0.76133,-0.91067 0.13333,-0.25866 0.17467,-0.55066 0.24667,-0.83066 0.0653,-0.256 0.31066,-0.436 0.372,-0.68267 0.06,-0.236 -0.188,-0.5 -0.26534,-0.72133 -0.0493,-0.13867 -0.10666,-0.276 -0.16666,-0.41334"
         style="fill:#f57e6f;fill-opacity:1;fill-rule:nonzero;stroke:none;stroke-width:0.133333" />
      <path
         id="path1168"
         d="m 694.43598,394.08267 c 0.17467,-0.26134 0.39067,-0.51467 0.556,-0.756 0.24267,-0.356 0.48534,-0.71334 0.728,-1.07067 0.268,-0.39333 0.53467,-0.784 0.80267,-1.17733 0.13867,-0.20667 0.396,-0.71734 0.68667,-0.76 0.25866,-0.036 0.752,0.38933 0.95466,0.51733 0.392,0.248 0.78267,0.5 1.168,0.75867 0.79467,0.53333 1.57067,1.09066 2.32267,1.68 1.76,1.37733 3.476,2.80933 5.172,4.26266 1.752,1.50134 3.54933,3.1252 4.28667,5.32934 0.15066,0.45213 0.42,1.25306 0.14533,1.7172 -0.208,0.3536 -0.86933,0.69733 -1.21467,0.888 -0.91866,0.5052 -2.016,0.5708 -3.01733,0.36146 -2.25467,-0.4708 -3.77733,-2.012 -5.37067,-3.5292 -2.02933,-1.93906 -3.96133,-3.97613 -5.884,-6.02013 -0.32533,-0.34667 -0.652,-0.69067 -0.98,-1.03333 -0.15466,-0.16267 -0.32,-0.31734 -0.472,-0.48 -0.16,-0.172 -0.20133,-0.076 -0.0933,-0.32 0.0547,-0.12534 0.128,-0.248 0.20933,-0.368"
         style="fill:#ffffff;fill-opacity:1;fill-rule:nonzero;stroke:none;stroke-width:0.133333" />
      <path
         id="path1169"
         d="m 694.26665,394.59733 0.004,0.003 0.11867,0.10533 0.26,0.26667 0.212,0.21333 c 0.328,0.34267 0.65466,0.688 0.98,1.03467 1.948,2.07067 3.86133,4.08787 5.88133,6.01493 l 0.22667,0.2156 c 1.52933,1.4656 2.976,2.84787 5.096,3.29067 1.08266,0.22707 2.13066,0.10147 2.95333,-0.35213 l 0.0773,-0.0412 c 0.344,-0.19054 0.92,-0.5052 1.10134,-0.81187 0.252,-0.4256 -0.0107,-1.2136 -0.152,-1.636 -0.71067,-2.12293 -2.42,-3.71333 -4.26,-5.29067 -1.96667,-1.68666 -3.61067,-3.04 -5.168,-4.26 -0.72134,-0.564 -1.5,-1.128 -2.31734,-1.676 -0.368,-0.24666 -0.76,-0.50133 -1.16666,-0.756 l -0.18667,-0.13066 c -0.20267,-0.148 -0.544,-0.39734 -0.704,-0.37334 -0.19467,0.0267 -0.40667,0.37067 -0.532,0.576 l -0.0907,0.14267 -1.52933,2.248 c -0.0813,0.11733 -0.17067,0.23467 -0.26533,0.35867 -0.1,0.128 -0.20134,0.26266 -0.29067,0.396 -0.0893,0.12933 -0.15333,0.24533 -0.20267,0.35333 z m 13.81733,11.4428 c -0.35066,0 -0.712,-0.0375 -1.076,-0.11466 -2.17466,-0.4536 -3.64,-1.8536 -5.19066,-3.33907 l -0.22667,-0.2156 c -2.02133,-1.92813 -3.93867,-3.94947 -5.888,-6.02147 -0.324,-0.34666 -0.65067,-0.69066 -0.97867,-1.03466 l -0.208,-0.20934 -0.26533,-0.26933 -0.0947,-0.0853 c -0.124,-0.0947 -0.0947,-0.16 -0.0173,-0.33334 0.0533,-0.12266 0.124,-0.24933 0.21867,-0.38933 0.0933,-0.13733 0.19733,-0.27333 0.29733,-0.404 0.0947,-0.12267 0.18133,-0.23733 0.26,-0.35067 l 1.52933,-2.24666 0.0853,-0.136 c 0.16266,-0.264 0.38666,-0.62534 0.66533,-0.66534 0.22,-0.032 0.512,0.16667 0.844,0.408 l 0.17467,0.12267 c 0.408,0.25733 0.80266,0.512 1.172,0.76133 0.82,0.54934 1.604,1.116 2.328,1.68134 1.56133,1.22266 3.204,2.57866 5.17466,4.268 1.86134,1.59466 3.59067,3.2052 4.31467,5.3708 0.16267,0.48493 0.43467,1.29586 0.13733,1.79586 -0.20666,0.34947 -0.78933,0.66934 -1.17333,0.88027 l -0.0773,0.0411 c -0.58267,0.32133 -1.272,0.48546 -2.00534,0.48546"
         style="fill:#f9ad79;fill-opacity:1;fill-rule:nonzero;stroke:none;stroke-width:0.133333" />
      <path
         id="path1170"
         d="m 694.85332,395.19867 c 0.21866,-0.32534 0.488,-0.64 0.69333,-0.94134 0.304,-0.44533 0.60533,-0.89066 0.90933,-1.336 0.33334,-0.48933 0.66667,-0.97866 1,-1.468 0.17467,-0.25733 0.496,-0.896 0.856,-0.948 0.324,-0.0453 0.93867,0.48534 1.192,0.64534 0.48934,0.30933 0.976,0.624 1.45867,0.94666 0.98933,0.66267 1.95733,1.36 2.89733,2.09467 2.19467,1.71867 4.33467,3.504 6.45067,5.31867 2.18533,1.87213 4.428,3.89866 5.348,6.64813 0.34267,1.02507 0.0453,2.13333 -0.75733,2.86933 -0.63067,0.57867 -1.47467,0.88387 -2.32,1.0068 -0.35734,0.0515 -0.71867,0.0744 -1.07734,0.0505 -3.076,-0.19907 -5.548,-2.63334 -7.64266,-4.6308 -2.53334,-2.41614 -4.944,-4.95734 -7.34,-7.508 -0.40667,-0.43067 -0.81467,-0.86267 -1.224,-1.29067 -0.19334,-0.2 -0.39867,-0.39467 -0.588,-0.59733 -0.2,-0.21467 -0.25067,-0.0933 -0.11734,-0.4 0.068,-0.15467 0.15867,-0.308 0.26134,-0.46"
         style="fill:#94cdd7;fill-opacity:1;fill-rule:nonzero;stroke:none;stroke-width:0.133333" />
      <path
         id="path1171"
         d="m 732.29465,505.96826 c 0.0547,0.25574 0.124,0.5088 0.19333,0.76094 0.156,0.552 0.228,1.24266 -0.39733,1.5588 -0.14133,0.0719 -0.30133,0.1 -0.45867,0.1224 -1.25466,0.1724 -2.52533,-0.0292 -3.77333,-0.2276 -0.52,-0.0844 -1.13333,-0.12294 -1.608,-0.3588 l -0.20933,-0.15734 c -0.0907,-0.1292 -0.068,-0.31093 0.012,-0.44786 0.0787,-0.136 0.20266,-0.24014 0.31733,-0.34947 1.00667,-0.95053 1.17333,-2.19067 1.068,-3.5 -0.0733,-0.91627 -0.14133,-1.8344 -0.20667,-2.7532 -0.268,-3.82653 -0.456,-7.65987 -0.56266,-11.4948 -0.028,-1.00253 -0.0387,-2.05467 0.38933,-2.94107 0.39467,-0.81626 1.12267,-1.38813 1.90267,-1.74693 1.336,-0.61613 3.81866,-0.69067 4.16,1.28547 0.21333,1.24106 0.156,2.51453 0.0973,3.7744 0,1.77346 -0.16533,3.56413 -0.26,5.33493 -0.10267,1.912 -0.22133,3.82133 -0.37067,5.7292 -0.0747,0.95307 -0.15733,1.9052 -0.24933,2.8572 -0.056,0.56667 -0.13333,1.13333 -0.14,1.7016 -0.003,0.288 0.0373,0.57187 0.096,0.85213"
         style="fill:#f57e6f;fill-opacity:1;fill-rule:nonzero;stroke:none;stroke-width:0.133333" />
      <path
         id="path1172"
         d="m 719.95198,509.41453 c 0.31067,0.18387 0.81734,0.24693 1.17067,0.31093 0.83067,0.1532 1.67867,0.16774 2.52,0.16774 h 3.16667 c 0.296,0 0.71866,0.0787 1.00133,0 0.328,-0.0916 0.652,-0.21867 0.988,-0.33334 l 0.32533,-0.1036 c 0.25734,-0.0699 0.86267,-0.24013 1.04534,0.0328 l 0.1,0.28547 0.0267,0.11867 h 2.768 l 0.016,-0.13747 c 0.007,-0.23027 0.036,-0.4208 -0.096,-0.6328 l -0.0507,-0.0948 -0.004,-0.10413 0.012,-0.0589 c 0.0307,-0.1572 0.0293,-0.31813 0.028,-0.4796 -0.001,-0.4948 -0.0387,-0.9948 -0.164,-1.47346 -0.0613,-0.23174 -0.11067,-0.5 -0.25334,-0.7 -0.24,-0.33174 -0.416,-0.15734 -0.71466,-0.004 -0.62134,0.31867 -1.324,0.47494 -2.02267,0.4452 -0.692,-0.0265 -1.37733,-0.23853 -1.968,-0.6036 -0.19733,-0.12026 -0.384,-0.4948 -0.61467,-0.488 -0.29066,0.007 -0.53733,0.4276 -0.73733,0.59427 -0.42267,0.34947 -0.872,0.66973 -1.34267,0.95107 -0.95466,0.576 -1.99466,1.0068 -3.076,1.2692 -0.328,0.0813 -0.66,0.14373 -0.992,0.212 -0.3,0.0625 -0.71733,0.088 -0.98666,0.2412 l -0.24667,0.22026 c -0.0787,0.1224 -0.076,0.2584 0.10133,0.36507"
         style="fill:#777bb3;fill-opacity:1;fill-rule:nonzero;stroke:none;stroke-width:0.133333" />
      <path
         id="path1173"
         d="m 719.85065,509.04946 c 0.17867,10e-4 0.368,0.0532 0.56267,0.088 0.48,0.0839 0.964,0.14374 1.44933,0.18654 0.96267,0.0853 1.928,0.10413 2.892,0.11973 l 0.2,0.006 c 0.66667,0.0104 1.336,0.0145 2.00267,-0.0297 0.67333,-0.0427 1.304,-0.17853 1.96266,-0.3104 0.23867,-0.0468 0.48,-0.0839 0.72134,-0.11613 -0.13334,-0.24374 -0.34934,-0.44107 -0.61334,-0.53587 -0.356,-0.1292 -0.764,-0.0975 -1.13466,-0.0975 -0.39734,-0.001 -0.796,0.009 -1.18934,0.0745 -0.18933,0.0323 -0.38,0.0724 -0.572,0.0853 -0.148,0.0109 -0.34533,0.0272 -0.47066,-0.0667 l -0.164,-0.21813 -0.16134,-0.27613 c -0.10266,-0.18694 -0.19733,-0.3776 -0.28266,-0.57334 l 0.128,-0.0204 c 0.076,0.1776 0.16133,0.35107 0.252,0.5204 0.0853,0.15574 0.17066,0.31974 0.276,0.46507 l 0.288,0.10253 0.328,-0.0307 c 0.18933,-0.0276 0.37466,-0.0651 0.56533,-0.0891 0.38533,-0.0453 0.77333,-0.0495 1.16133,-0.0453 0.356,0.003 0.732,-0.0145 1.06934,0.11613 0.27733,0.10787 0.508,0.312 0.64933,0.5704 1.04533,-0.1276 2.12267,-0.13333 3.15867,-0.0505 l 0.004,0.10413 0.0507,0.0948 c 0.132,0.212 0.10267,0.40253 0.096,0.6328 l -0.016,0.13747 h -2.768 l -0.0267,-0.11867 -0.1,-0.28547 c -0.18267,-0.27293 -0.788,-0.10266 -1.04534,-0.0328 l -0.32533,0.1036 c -0.336,0.11467 -0.66,0.24174 -0.988,0.33334 -0.28267,0.0787 -0.70533,0 -1.00133,0 h -3.16667 c -0.84133,0 -1.68933,-0.0145 -2.52,-0.16774 -0.35333,-0.064 -0.86,-0.12706 -1.17067,-0.31093 -0.17733,-0.10667 -0.18,-0.24267 -0.10133,-0.36507"
         style="fill:#47527d;fill-opacity:1;fill-rule:nonzero;stroke:none;stroke-width:0.133333" />
      <path
         id="path1174"
         d="m 726.41998,506.11973 0.0613,-0.0427 0.18133,0.0256 c 0.144,0.11867 0.28267,0.24787 0.41333,0.38374 l 0.012,0.0563 -0.06,0.0428 -0.10133,0.007 -0.0787,-0.0323 c -0.12933,-0.13746 -0.26666,-0.264 -0.41333,-0.38386 l -0.0147,-0.0563"
         style="fill:#47527d;fill-opacity:1;fill-rule:nonzero;stroke:none;stroke-width:0.133333" />
      <path
         id="path1175"
         d="m 725.90132,506.4948 0.0613,-0.0427 0.17867,0.0249 c 0.128,0.12294 0.244,0.25787 0.34933,0.4 l -0.0147,0.0563 -0.0773,0.0333 -0.16267,-0.0505 -0.032,-0.0427 -0.28933,-0.32293 -0.0133,-0.0557"
         style="fill:#47527d;fill-opacity:1;fill-rule:nonzero;stroke:none;stroke-width:0.133333" />
      <path
         id="path1176"
         d="m 725.30798,506.89586 0.0613,-0.0428 0.10266,-0.008 0.0773,0.0333 c 0.0973,0.10774 0.18666,0.22547 0.26533,0.34787 l -0.012,0.0563 -0.0787,0.0317 -0.16266,-0.0505 -0.11734,-0.1656 -0.12133,-0.14627 -0.0147,-0.0563"
         style="fill:#47527d;fill-opacity:1;fill-rule:nonzero;stroke:none;stroke-width:0.133333" />
      <path
         id="path1177"
         d="m 734.66665,502.94533 c -0.0173,-2.33333 -0.0693,-4.66507 -0.108,-6.9984 -0.11867,-7.05373 -0.364,-14.10573 -0.51467,-21.15893 -0.148,-7.012 -0.2,-14.0292 0.0613,-21.03853 0.068,-1.7932 0.31067,-3.6656 0.13734,-5.43494 -0.18934,-1.92386 -0.47867,-3.84373 -0.69734,-5.76666 -0.43466,-3.8104 -0.80133,-7.63334 -0.88533,-11.4708 -0.0213,-0.94107 -0.0453,-1.88227 -0.076,-2.824 -0.0387,-1.288 -0.0867,-2.57854 -0.144,-3.8692 -0.0293,-0.7 -0.11733,-1.4 -0.25866,-2.07867 h -14.07067 c -0.224,2.27507 0.068,4.78027 0.19867,6.9812 0.46533,7.76053 1.832,15.47613 2.23866,23.2136 0.416,7.9136 1.26134,15.83066 1.94667,23.72546 0.56267,6.48654 0.87467,12.99334 1.448,19.47867 0.14667,1.65987 0.30933,3.32133 0.49867,4.97613 0.15333,1.34787 0.0347,3.4572 0.62533,4.6812 0.51067,1.05987 1.89733,1.112 2.968,1.36507 1.57333,0.3708 3.164,0.66253 4.75467,0.94693 0.368,0.0651 1.35733,0.36667 1.69599,0.15827 0.31734,-0.1932 0.16934,-1.01813 0.17467,-1.3848 0.0147,-1.16667 0.0147,-2.33493 0.007,-3.5016"
         style="fill:#47527d;fill-opacity:1;fill-rule:nonzero;stroke:none;stroke-width:0.133333" />
      <path
         id="path1178"
         d="m 747.39865,505.96826 c 0.0533,0.25574 0.124,0.5088 0.19333,0.76094 0.15733,0.552 0.228,1.24266 -0.39733,1.5588 -0.14134,0.0719 -0.30134,0.1 -0.46,0.1224 -1.25334,0.1724 -2.524,-0.0292 -3.772,-0.2276 -0.52,-0.0844 -1.13334,-0.12294 -1.608,-0.3588 l -0.20934,-0.15734 c -0.0907,-0.1292 -0.0667,-0.31093 0.012,-0.44786 0.0787,-0.136 0.204,-0.24014 0.31734,-0.34947 1.00666,-0.95053 1.17333,-2.19067 1.068,-3.5 -0.0733,-0.91627 -0.14267,-1.8344 -0.20667,-2.7532 -0.268,-3.82653 -0.456,-7.65987 -0.56267,-11.4948 -0.0267,-1.00253 -0.04,-2.05467 0.38934,-2.94107 0.39466,-0.81626 1.12266,-1.38813 1.90133,-1.74693 1.33733,-0.61613 3.81867,-0.69067 4.16,1.28547 0.21467,1.24106 0.156,2.51453 0.0987,3.7744 0,1.77346 -0.16534,3.56413 -0.26,5.33493 -0.10267,1.912 -0.22134,3.82133 -0.37067,5.7292 -0.0747,0.95307 -0.15867,1.9052 -0.25067,2.8572 -0.0547,0.56667 -0.13333,1.13333 -0.13733,1.7016 -0.003,0.288 0.036,0.57187 0.0947,0.85213"
         style="fill:#f57e6f;fill-opacity:1;fill-rule:nonzero;stroke:none;stroke-width:0.133333" />
      <path
         id="path1179"
         d="m 735.05598,509.41453 c 0.30933,0.18387 0.81733,0.24693 1.17067,0.31093 0.83066,0.1532 1.67866,0.16774 2.52,0.16774 h 3.168 c 0.29466,0 0.71733,0.0787 1,0 0.32933,-0.0916 0.652,-0.21867 0.988,-0.33334 l 0.324,-0.1036 c 0.25866,-0.0699 0.864,-0.24013 1.04666,0.0328 l 0.1,0.28547 0.0267,0.11867 h 2.768 l 0.0147,-0.13747 c 0.008,-0.23027 0.0373,-0.4208 -0.096,-0.6328 l -0.0493,-0.0948 -0.004,-0.10413 0.012,-0.0589 c 0.0307,-0.1572 0.0293,-0.31813 0.028,-0.4796 -0.003,-0.4948 -0.0387,-0.9948 -0.164,-1.47346 -0.0613,-0.23174 -0.11066,-0.5 -0.25333,-0.7 -0.23867,-0.33174 -0.416,-0.15734 -0.71467,-0.004 -0.62133,0.31867 -1.324,0.47494 -2.02266,0.4452 -0.69334,-0.0265 -1.37734,-0.23853 -1.968,-0.6036 -0.19734,-0.12026 -0.384,-0.4948 -0.61467,-0.488 -0.29067,0.007 -0.536,0.4276 -0.73867,0.59427 -0.42266,0.34947 -0.87066,0.66973 -1.34266,0.95107 -0.952,0.576 -1.99334,1.0068 -3.07467,1.2692 -0.328,0.0813 -0.66133,0.14373 -0.992,0.212 -0.30133,0.0625 -0.71733,0.088 -0.988,0.2412 l -0.24533,0.22026 c -0.0787,0.1224 -0.076,0.2584 0.10133,0.36507"
         style="fill:#777bb3;fill-opacity:1;fill-rule:nonzero;stroke:none;stroke-width:0.133333" />
      <path
         id="path1180"
         d="m 734.95465,509.04946 c 0.18,10e-4 0.368,0.0532 0.56266,0.088 0.47867,0.0839 0.964,0.14374 1.45067,0.18654 0.96133,0.0853 1.92667,0.10413 2.89067,0.11973 l 0.19866,0.006 c 0.668,0.0104 1.33734,0.0145 2.004,-0.0297 0.67334,-0.0427 1.304,-0.17853 1.96267,-0.3104 0.23733,-0.0468 0.48,-0.0839 0.72267,-0.11613 -0.13467,-0.24374 -0.352,-0.44107 -0.616,-0.53587 -0.356,-0.1292 -0.76267,-0.0975 -1.13334,-0.0975 -0.39866,-0.001 -0.79733,0.009 -1.18933,0.0745 -0.19067,0.0323 -0.38,0.0724 -0.572,0.0853 -0.148,0.0109 -0.34533,0.0272 -0.472,-0.0667 l -0.16267,-0.21813 -0.16133,-0.27613 c -0.10267,-0.18694 -0.196,-0.3776 -0.28267,-0.57334 l 0.128,-0.0204 c 0.076,0.1776 0.16134,0.35107 0.252,0.5204 0.0853,0.15574 0.17067,0.31974 0.276,0.46507 l 0.28667,0.10253 0.32933,-0.0307 c 0.188,-0.0276 0.37467,-0.0651 0.564,-0.0891 0.38534,-0.0453 0.77467,-0.0495 1.16267,-0.0453 0.356,0.003 0.732,-0.0145 1.06933,0.11613 0.27734,0.10787 0.508,0.312 0.648,0.5704 1.04667,-0.1276 2.124,-0.13333 3.16,-0.0505 l 0.004,0.10413 0.0493,0.0948 c 0.13333,0.212 0.104,0.40253 0.096,0.6328 l -0.0147,0.13747 h -2.768 l -0.0267,-0.11867 -0.1,-0.28547 c -0.18266,-0.27293 -0.788,-0.10266 -1.04666,-0.0328 l -0.324,0.1036 c -0.336,0.11467 -0.65867,0.24174 -0.988,0.33334 -0.28267,0.0787 -0.70534,0 -1,0 h -3.168 c -0.84134,0 -1.68934,-0.0145 -2.52,-0.16774 -0.35334,-0.064 -0.86134,-0.12706 -1.17067,-0.31093 -0.17733,-0.10667 -0.18,-0.24267 -0.10133,-0.36507"
         style="fill:#47527d;fill-opacity:1;fill-rule:nonzero;stroke:none;stroke-width:0.133333" />
      <path
         id="path1181"
         d="m 741.52531,506.11973 0.06,-0.0427 0.18,0.0256 c 0.14667,0.11867 0.284,0.24787 0.41467,0.38374 l 0.0133,0.0563 -0.06,0.0428 -0.10266,0.007 -0.0787,-0.0323 c -0.13067,-0.13746 -0.268,-0.264 -0.41467,-0.38386 l -0.012,-0.0563"
         style="fill:#47527d;fill-opacity:1;fill-rule:nonzero;stroke:none;stroke-width:0.133333" />
      <path
         id="path1182"
         d="m 741.00531,506.4948 0.06,-0.0427 0.18134,0.0249 c 0.12666,0.12294 0.24266,0.25787 0.34666,0.4 l -0.012,0.0563 -0.0787,0.0333 -0.16267,-0.0505 -0.0333,-0.0427 -0.288,-0.32293 -0.0133,-0.0557"
         style="fill:#47527d;fill-opacity:1;fill-rule:nonzero;stroke:none;stroke-width:0.133333" />
      <path
         id="path1183"
         d="m 740.41331,506.89586 0.0587,-0.0428 0.104,-0.008 0.0773,0.0333 c 0.0973,0.10774 0.18667,0.22547 0.26534,0.34787 l -0.012,0.0563 -0.08,0.0317 -0.16134,-0.0505 -0.11866,-0.1656 -0.12134,-0.14627 -0.012,-0.0563"
         style="fill:#47527d;fill-opacity:1;fill-rule:nonzero;stroke:none;stroke-width:0.133333" />
      <path
         id="path1184"
         d="m 745.75731,428.25307 c -0.04,-1.288 -0.088,-2.57854 -0.144,-3.8692 -0.0307,-0.7 -0.11866,-1.4 -0.26,-2.07867 h -14.40399 c -0.144,0.63747 -0.248,1.288 -0.31334,1.936 v 0.006 c -0.092,0.9036 -0.112,1.80094 -0.0773,2.6504 0.02,0.4172 0.0347,0.8376 0.0547,1.2532 0.016,0.3468 0.0293,0.69214 0.0453,1.03747 0.0133,0.2828 0.0267,0.56413 0.0373,0.84533 l 0.016,0.34534 c 0.16667,3.82546 0.47467,7.64373 0.85467,11.45306 0.35467,3.55627 0.40533,7.03334 0.748,10.5896 0.75867,7.85214 1.86133,15.66507 3.06533,23.45987 0.796,5.14533 1.592,10.28813 2.40267,15.4292 0.78666,4.9964 1.992,10.112 2.284,15.15466 0.768,0.0787 9.108,0.8828 9.104,0.77614 -0.46,-10.47187 -0.71734,-20.89067 -1.236,-31.35574 -0.78667,-15.87346 -1.68534,-31.74426 -2.17734,-47.63239"
         style="fill:#47527d;fill-opacity:1;fill-rule:nonzero;stroke:none;stroke-width:0.133333" />
      <path
         id="path1185"
         d="m 751.13198,470.95466 h -19.504 l -1.48933,-11.59213 c 0,0 -0.20667,9.05627 -0.26667,11.59213 h -11.88266 c -0.70667,-17.99319 -0.78934,-35.95053 -0.91734,-53.98013 -0.044,-5.99746 -0.0253,-11.99586 0.132,-17.99186 0.14267,-5.35067 -0.17866,-11.24267 1.00534,-16.476 0.268,-1.184 0.65466,-2.49334 1.208,-3.56934 0.56266,-1.09333 2.416,-1.524 3.47333,-2.02 1.41467,-0.664 2.828,-1.32666 4.24267,-1.98933 l 0.0787,-0.0373 c 0.59467,-0.27867 1.19067,-0.556 1.804,-0.78934 2.91867,-1.11333 6.21733,-1.20133 9.19067,-0.24533 l 0.007,0.003 c 0.784,0.252 1.54267,0.57333 2.29467,0.912 0.61067,0.27466 1.22933,0.38 1.84133,0.64 1.632,0.69466 3.252,1.41866 4.88,2.12666 0.37067,0.16267 0.748,0.328 1.05334,0.59467 0.848,0.73867 0.804,1.82533 0.932,2.84 0.148,1.17733 0.33466,2.35867 0.464,3.54667 1.696,15.69173 1.072,31.45586 0.91333,47.20106 -0.064,6.50427 -0.0507,13.0068 0.24133,19.49747 0.068,1.52813 0.576,16.39893 0.29867,19.73746"
         style="fill:#94cdd7;fill-opacity:1;fill-rule:nonzero;stroke:none;stroke-width:0.133333" />
      <path
         id="path1186"
         d="m 738.19598,374.73733 c -0.0733,0.59067 -0.25333,1.16534 -0.46933,1.71867 -0.42934,1.10133 -1.02267,2.12667 -1.548,3.18267 -0.98667,1.98266 -2.01734,3.944 -3.068,5.892 -1.00933,1.872 -2.036,3.73066 -3.06533,5.592 l -0.236,0.27733 -0.0707,0.024 c -0.0627,0.012 -0.752,-2.04 -0.80667,-2.216 -0.13066,-0.424 -0.244,-0.852 -0.34533,-1.28533 -0.10533,-0.444 -0.19733,-0.89067 -0.284,-1.33867 -0.61067,-3.12 -0.99333,-6.28267 -1.32533,-9.44667 -0.0787,-0.76 -0.104,-1.78933 0.36266,-2.43866 0.47467,-0.65734 1.324,-1.00534 2.06667,-1.25334 1.344,-0.45066 2.74533,-0.70666 4.14666,-0.932 0.32934,-0.0533 0.66,-0.10533 0.992,-0.12 1.16267,-0.052 2.33867,0.368 3.20534,1.144 0.15733,0.14134 0.38133,0.21334 0.468,0.40534 l 0.04,0.2 c 0.007,0.2 -0.0427,0.444 -0.0627,0.59466"
         style="fill:#ffffff;fill-opacity:1;fill-rule:nonzero;stroke:none;stroke-width:0.133333" />
      <path
         id="path1187"
         d="m 741.09465,379.97333 c 0.16,-0.452 0.39466,-0.88 0.69733,-1.25466 0.96267,-1.196 2.708,-1.95067 4.19067,-1.492 1.288,0.39733 2.63066,0.82666 3.58,1.78266 0.54133,0.54534 0.91866,1.23067 1.26133,1.91867 1.036,2.08533 1.81067,4.28667 2.58133,6.484 1.04534,2.97467 2.136,5.92933 3.15467,8.916 1.296,3.8012 2.16667,7.784 2.132,11.80013 -0.016,1.70787 -0.132,3.9292 -1.644,4.99734 -1.54667,1.08906 -3.58133,0.80373 -5.16933,-0.0375 -1.288,-0.6812 -2.16267,-1.94267 -2.84667,-3.22813 -2.86533,-5.3916 -3.16133,-11.7332 -4.784,-17.61854 -0.612,-1.39066 -0.79733,-2.992 -1.36267,-4.41066 -0.53466,-1.34134 -1.02666,-2.71067 -1.51066,-4.08134 -0.21334,-0.60666 -0.428,-1.21866 -0.50267,-1.856 -0.072,-0.64533 0.007,-1.30666 0.22267,-1.92"
         style="fill:#94cdd7;fill-opacity:1;fill-rule:nonzero;stroke:none;stroke-width:0.133333" />
      <path
         id="path1188"
         d="m 742.07731,389.37067 -12.86133,27.5132 18.37067,0.13493 12.76533,-27.64813 h -18.27467"
         style="fill:#f289a8;fill-opacity:1;fill-rule:nonzero;stroke:none;stroke-width:0.133333" />
      <path
         id="path1189"
         d="m 742.84398,389.37067 -12.864,27.5184 18.372,0.13493 12.76533,-27.65333 h -18.27333"
         style="fill:#eb5881;fill-opacity:1;fill-rule:nonzero;stroke:none;stroke-width:0.133333" />
      <path
         id="path1190"
         d="m 761.07198,389.472 -6.25867,13.55347 h -11.612 c 0.244,-1.1484 0.44534,-2.20414 0.61734,-3.2228 0.59733,-3.54 0.48933,-6.54267 0.14666,-9.96 -0.012,-0.12134 -0.02,-0.24134 -0.0227,-0.37067 h 17.12933"
         style="fill:#eb5881;fill-opacity:1;fill-rule:nonzero;stroke:none;stroke-width:0.133333" />
      <path
         id="path1191"
         d="m 743.84131,389.37067 c 10e-4,0.152 0.007,0.31066 0.0227,0.48133 0.34933,3.47333 0.44133,6.46267 -0.144,9.93333 -0.19067,1.12147 -0.40667,2.2344 -0.64133,3.3412 h 16.764 c 0.852,-3.71586 1.432,-7.54253 1.608,-11.52653 0.0227,-0.52533 0.10133,-1.4 0.0853,-2.22933 h -17.69467"
         style="fill:#ffffff;fill-opacity:1;fill-rule:nonzero;stroke:none;stroke-width:0.133333" />
      <path
         id="path1192"
         d="m 761.63865,389.368 -0.003,-0.0987 h -17.896 v 0.1 h 17.37733 l -0.0453,0.10267 h 0.36533 c 0.005,0.56933 -0.0307,1.15333 -0.06,1.62533 -0.012,0.18667 -0.02,0.356 -0.028,0.49867 -0.164,3.73467 -0.68266,7.47467 -1.588,11.42947 h -4.948 l -0.092,0.20106 h 5.20134 l 0.0173,-0.0787 c 0.92,-3.99587 1.44533,-7.77187 1.61067,-11.54254 0.007,-0.14133 0.0173,-0.30933 0.0293,-0.49466 0.0307,-0.504 0.068,-1.13334 0.0587,-1.74267"
         style="fill:#94cdd7;fill-opacity:1;fill-rule:nonzero;stroke:none;stroke-width:0.133333" />
      <path
         id="path1193"
         d="m 734.47731,404.07707 c -0.008,-0.17547 0.005,-0.35467 0.0573,-0.5224 0.064,-0.20414 0.29466,-0.61867 0.552,-0.6068 -0.0787,-0.004 0.0733,-1.19054 0.25733,-1.29214 0.45867,-0.25733 0.79867,0.48547 0.98133,0.7604 0.41734,0.6292 1.13467,1.05214 1.88667,1.1104 0.23067,0.0172 0.508,-0.0224 0.61333,-0.22813 l 0.04,-0.3224 c -0.0307,-0.42387 -0.152,-0.84 -0.352,-1.21613 -0.132,-0.24534 -0.304,-0.51454 -0.22533,-0.78387 0.344,0.0104 0.644,0.2292 0.9,0.46 0.56267,0.50933 1.036,1.11867 1.392,1.79053 0.31867,0.6052 0.44133,1.288 0.78667,1.87614 0.39733,0.67853 1.19066,1.1744 1.91733,1.44266 0.368,0.13587 0.77467,0.23854 1.04267,0.52654 0.35866,0.3844 0.368,1.12133 0.30266,1.6084 -0.072,0.52653 -0.0627,1.06093 -0.0467,1.5916 0.009,0.35106 0.18133,0.94533 -0.15734,1.18693 -0.15733,0.112 -0.35733,0.1412 -0.552,0.148 -0.69733,0.0239 -1.33333,-0.2204 -1.96133,-0.49227 -0.55333,-0.24106 -0.85067,-0.76666 -1.352,-1.0452 -0.55067,-0.3068 -1.32933,-0.46253 -1.94533,-0.58293 -0.53067,-0.10093 -1.07334,-0.15467 -1.596,-0.28907 -1.06534,-0.27186 -3.89067,-1.38693 -3.524,-2.8588 0.0533,-0.2104 0.18933,-0.40933 0.38533,-0.50253 l 0.06,-0.0428 0.008,-0.0547 c -0.0187,-0.35986 -0.24133,-0.664 -0.0453,-1.01613 0.104,-0.18907 0.29733,-0.32507 0.512,-0.36093 l 0.0613,-0.024 0.016,-0.0905 -0.0147,-0.16986"
         style="fill:#f57e6f;fill-opacity:1;fill-rule:nonzero;stroke:none;stroke-width:0.133333" />
      <path
         id="path1194"
         d="m 735.04798,403.03173 h 0.14 l 0.0613,0.2068 0.0853,0.17867 c 0.0627,0.12133 0.132,0.23853 0.20533,0.3536 0.15067,0.2276 0.324,0.43853 0.52,0.6292 l -0.12,0.0385 c -0.2,-0.19586 -0.38,-0.412 -0.53333,-0.64786 -0.0773,-0.1172 -0.148,-0.23854 -0.212,-0.36414 l -0.0893,-0.18906 -0.0573,-0.20574"
         style="fill:#dc5153;fill-opacity:1;fill-rule:nonzero;stroke:none;stroke-width:0.133333" />
      <path
         id="path1195"
         d="m 734.57198,404.45053 c 0.17067,0.524 0.492,0.99067 0.92267,1.33587 l -0.0253,0.0521 -0.096,-0.0131 c -0.43466,-0.35094 -0.76266,-0.8228 -0.936,-1.3536 l 0.13467,-0.0213"
         style="fill:#dc5153;fill-opacity:1;fill-rule:nonzero;stroke:none;stroke-width:0.133333" />
      <path
         id="path1196"
         d="m 734.09865,405.94533 c 0.20133,0.41614 0.50666,0.776 0.88533,1.04014 l -0.0987,0.0531 c -0.39333,-0.27186 -0.712,-0.6412 -0.92,-1.07186 l 0.13334,-0.0213"
         style="fill:#dc5153;fill-opacity:1;fill-rule:nonzero;stroke:none;stroke-width:0.133333" />
      <path
         id="path1197"
         d="m 742.67998,411.46253 0.0813,0.0229 c 1.3,0.376 2.624,0.75573 3.97867,0.73333 1.35333,-0.0215 2.76667,-0.50427 3.6,-1.57093 0.40267,-0.51294 0.64933,-1.13427 0.79333,-1.77187 0.16,-0.712 0.26934,-2.1656 -0.456,-2.6572 -0.364,-0.24693 -1.12933,-0.22973 -1.56666,-0.2948 -0.604,-0.0891 -1.21067,-0.16827 -1.81734,-0.23333 -1.45733,-0.16 -2.92266,-0.24947 -4.38666,-0.27094 -0.352,-0.004 -0.89867,-0.176 -1.156,0.15627 -0.10534,0.1376 -0.14667,0.312 -0.184,0.48133 -0.34134,1.54947 -0.77467,3.27334 -0.79067,4.85467 0.636,0.1828 1.26933,0.36667 1.904,0.55053"
         style="fill:#ffffff;fill-opacity:1;fill-rule:nonzero;stroke:none;stroke-width:0.133333" />
      <path
         id="path1198"
         d="m 743.12798,412.15733 0.15867,0.0375 c 1.884,0.44267 3.79466,0.84373 5.63733,1.40107 1.70533,0.51613 3.744,0.4776 5.51867,0.48693 1.55333,0.008 2.872,-0.90933 3.46266,-2.3604 0.38934,-0.9584 0.44134,-2.0276 0.31334,-3.05307 -0.044,-0.3532 -0.12267,-0.73186 -0.38667,-0.97093 -0.17333,-0.1572 -0.404,-0.23013 -0.62667,-0.3 -2.95733,-0.9156 -6.00533,-1.54533 -9.08266,-1.8796 -1.52134,-0.16667 -3.05067,-0.26147 -4.58267,-0.2828 -0.36667,-0.005 -0.93867,-0.18547 -1.20667,0.1624 -0.10933,0.1428 -0.15333,0.32707 -0.192,0.5032 -0.37866,1.71973 -0.62,3.46507 -0.864,5.2104 l 0.0213,0.2984 c 0.092,0.17347 0.65466,0.36827 0.83333,0.44427 0.32,0.13333 0.65867,0.2224 0.996,0.30266"
         style="fill:#94cdd7;fill-opacity:1;fill-rule:nonzero;stroke:none;stroke-width:0.133333" />
      <path
         id="path1199"
         d="m 733.11065,385.53067 c -1.00933,1.872 -2.036,3.73066 -3.06533,5.592 l -0.236,0.27733 -0.0707,0.024 c -0.0627,0.012 -0.752,-2.04 -0.80667,-2.216 -0.13066,-0.424 -0.244,-0.852 -0.34533,-1.28533 0.0733,-0.73734 0.16667,-1.47334 0.284,-2.204 0.29467,-1.83867 0.73067,-3.648 1.29733,-5.42 l 0.0133,-0.0253 c -0.3,-0.28133 -0.29067,-0.97466 -0.32667,-1.33333 -0.0293,-0.292 -0.044,-0.584 -0.0427,-0.876 l 0.003,-0.25467 c 0.356,-0.25466 0.72,-0.49333 1.09733,-0.716 l 0.024,-0.009 0.072,-0.0627 0.192,0.0267 c 0.452,0.33333 0.90267,0.668 1.34934,1.008 l -0.032,0.23467 c -0.0707,0.47866 -0.17334,0.95733 -0.292,1.424 -0.0453,0.17866 -0.068,0.448 -0.19334,0.58533 l -0.036,0.032 c 0.39867,1.72667 0.81467,3.45333 1.11467,5.19867"
         style="fill:#777bb3;fill-opacity:1;fill-rule:nonzero;stroke:none;stroke-width:0.133333" />
      <path
         id="path1200"
         d="m 735.33198,380.364 -0.19333,-0.024 c -0.86534,-0.696 -1.73867,-1.37867 -2.62133,-2.04933 -0.476,-0.36267 -0.95334,-0.72 -1.43334,-1.076 -0.43866,0.26 -0.86266,0.544 -1.272,0.84933 -0.78933,0.584 -1.52133,1.24533 -2.18533,1.972 l -0.24533,-0.0707 c 0.73466,-0.804 1.55066,-1.52666 2.43333,-2.156 0.356,-0.25466 0.72,-0.49333 1.09733,-0.716 l 0.024,-0.009 0.072,-0.0627 0.192,0.0267 c 0.452,0.33333 0.90267,0.668 1.34934,1.008 0.95466,0.724 1.89999,1.46 2.83466,2.21067 l -0.052,0.0973"
         style="fill:#777bb3;fill-opacity:1;fill-rule:nonzero;stroke:none;stroke-width:0.133333" />
      <path
         id="path1201"
         d="m 735.27331,375.14133 c -0.392,0.28667 -0.808,0.52667 -1.11466,0.70934 -0.73067,0.436 -1.46133,0.884 -2.22533,1.25866 -0.27067,0.13334 -0.56,0.25867 -0.86,0.24267 -0.18,-0.0107 -0.35334,-0.0707 -0.52267,-0.132 -0.84933,-0.30267 -1.63333,-0.65467 -2.44267,-1.052 -0.60933,-0.3 -0.568,-0.70133 -0.67066,-1.32133 l -0.02,-0.124 c -0.0747,-0.468 -0.244,-0.952 -0.272,-1.42134 -0.008,-0.13066 0,-0.256 0.0347,-0.37333 0.144,-0.5 0.63867,-0.78667 1.076,-1.00533 0.44934,-0.224 0.97067,-0.32934 1.37734,-0.64134 0.592,-0.456 1.12933,-0.63733 1.58933,-1.11866 l 0.0267,-0.0253 c 0.0893,-0.0973 0.176,-0.20666 0.26,-0.332 0.0853,-0.12933 0.176,-0.24133 0.27466,-0.33866 l 0.124,-0.11734 c 0.22267,-0.19466 0.46534,-0.33466 0.72267,-0.476 0.14,-0.0787 0.28667,-0.156 0.43333,-0.244 0.35333,-0.21066 0.908,-0.69733 1.36,-0.488 0.41867,0.19334 0.53067,1.02934 0.66533,1.41734 0.244,0.69733 0.484,1.39733 0.71867,2.09733 0.18,0.53467 0.67067,1.41067 0.60933,1.97067 -0.0627,0.58666 -0.57866,1.10133 -1.144,1.51466"
         style="fill:#f57e6f;fill-opacity:1;fill-rule:nonzero;stroke:none;stroke-width:0.133333" />
      <path
         id="path1202"
         d="m 733.72131,372.05867 c -0.25733,0.944 -0.83199,1.784 -1.62533,2.35866 -1.39066,1.00267 -3.164,1.11467 -4.65866,0.42934 l -0.02,-0.124 c -0.0747,-0.468 -0.244,-0.952 -0.272,-1.42134 -0.008,-0.13066 0,-0.256 0.0347,-0.37333 0.144,-0.5 0.63867,-0.78667 1.076,-1.00533 0.44934,-0.224 0.97067,-0.32934 1.37734,-0.64134 0.592,-0.456 1.12933,-0.63733 1.58933,-1.11866 l 0.0267,-0.0253 c 0.0893,-0.0973 0.176,-0.20666 0.26,-0.332 0.0853,-0.12933 0.176,-0.24133 0.27466,-0.33866 l 0.124,-0.11734 c 0.22267,-0.19466 0.46534,-0.33466 0.72267,-0.476 0.40933,0.13334 0.784,0.36267 1.05466,0.69467 0.636,0.78133 0.268,1.64133 0.036,2.49067"
         style="fill:#dc5153;fill-opacity:1;fill-rule:nonzero;stroke:none;stroke-width:0.133333" />
      <path
         id="path1203"
         d="m 735.20931,360.09733 c -0.112,-0.796 -0.39733,-1.6 -0.88133,-2.23733 -0.448,-0.592 -1.43866,-0.94267 -2.11333,-1.164 -0.964,-0.31333 -1.97067,-0.45067 -2.97333,-0.57467 -0.71067,-0.088 -1.43067,-0.16933 -2.13467,-0.0587 -0.556,0.0867 -1.08533,0.29066 -1.63067,0.43866 -0.6,0.16267 -1.22533,0.26 -1.78133,0.54267 -1.02,0.52 -1.988,1.66933 -2.22133,2.79867 -0.28,1.36133 -0.0853,2.76933 0.26666,4.10266 0.428,1.62534 0.83067,3.24667 1.228,4.872 0.38,1.55467 1.012,3.08 2.08267,4.296 0.22533,0.256 0.47067,0.49867 0.75067,0.696 1.084,0.76267 2.436,0.96934 3.712,0.628 1.04,-0.27733 1.97733,-0.84 2.812,-1.50266 0.38,-0.30134 0.70933,-0.53467 1.00666,-0.928 0.30133,-0.39867 0.556,-0.82667 0.79867,-1.26 0.828,-1.47734 1.41066,-3.11334 1.59866,-4.79334 0.052,-0.472 -0.0413,-0.85466 -0.0653,-1.31466 -0.028,-0.60667 0.012,-1.21734 -0.0253,-1.82667 l -0.012,-0.152 c -0.0733,-0.872 -0.29734,-1.69867 -0.41734,-2.56267"
         style="fill:#f57e6f;fill-opacity:1;fill-rule:nonzero;stroke:none;stroke-width:0.133333" />
      <path
         id="path1204"
         d="m 720.15332,363.23467 -0.072,-0.16 c -0.076,-0.17067 -0.15334,-0.34134 -0.20667,-0.52 -0.0893,-0.30134 -0.112,-0.616 -0.11867,-0.93067 -0.02,-0.972 0.112,-1.96267 0.516,-2.86267 0.10667,-0.23733 0.232,-0.47066 0.404,-0.672 0.108,-0.124 0.232,-0.23466 0.35467,-0.344 0.59733,-0.528 1.43467,-1.26666 2.30667,-1.168 0.22533,0.024 0.34666,0.12 0.48266,-0.12133 0.484,-0.85467 1.07734,-1.73867 2.012,-2.11067 0.28534,-0.11333 0.588,-0.17333 0.892,-0.20666 1.18134,-0.13334 2.364,0.10533 3.49734,0.42133 1.84133,0.51333 4.11066,1.13467 5.19199,2.77733 0.18934,0.29067 0.328,0.608 0.496,0.91067 0.316,0.57067 0.736,1.08267 1.064,1.648 0.32934,0.56533 0.56667,1.212 0.472,1.86 -0.056,0.388 -0.228,0.75333 -0.36666,1.12267 -0.208,0.55066 -0.344,1.124 -0.408,1.704 -0.0613,0.56666 -0.08,1.27066 -0.588,1.66666 -0.42267,0.32667 -0.74934,-0.468 -1.00534,-0.72133 -0.34933,-0.34933 -0.72933,-0.68267 -1.052,-1.056 -0.23333,-0.268 -0.544,-0.448 -0.80399,-0.7 -0.53467,-0.51733 -0.976,-1.164 -1.67867,-1.49467 -0.59733,-0.28133 -1.29867,-0.28533 -1.96933,-0.22666 -0.66934,0.0587 -1.34267,0.17333 -2.00934,0.10666 -1.40133,-0.14 -2.644,-1.15866 -3.004,-2.46 -0.0893,-0.32533 -0.17733,-0.64 -0.36933,-0.928 l -0.70533,1.00534 c -0.31867,0.448 -0.652,0.892 -0.96534,1.344 -0.40666,0.58266 -0.668,1.26666 -0.756,1.97066 -0.14933,1.196 -1.152,1.148 -1.61066,0.14534"
         style="fill:#82423e;fill-opacity:1;fill-rule:nonzero;stroke:none;stroke-width:0.133333" />
      <path
         id="path1205"
         d="m 734.38265,364.22933 c 1.08933,-1.10133 1.93866,0.43067 1.89333,1.46667 -0.028,0.648 -0.264,1.26533 -0.51867,1.86133 -0.21866,0.51067 -0.62666,1.24134 -1.31066,1.00134 -0.26667,-0.092 -0.408,-0.35067 -0.508,-0.59334 -0.37734,-0.92533 -0.37067,-2.144 0.012,-3.07466 0.10133,-0.244 0.24666,-0.47334 0.432,-0.66134"
         style="fill:#f57e6f;fill-opacity:1;fill-rule:nonzero;stroke:none;stroke-width:0.133333" />
      <path
         id="path1206"
         d="m 725.31598,358.36667 c 0.39867,0.77066 0.96934,1.48666 1.68934,1.97733 0.35733,0.244 0.75333,0.42667 1.18133,0.504 0.48,0.0867 0.97067,0.0547 1.452,-0.004 0.12667,-0.016 0.23733,0.11867 0.0653,0.13867 -0.49866,0.06 -1.004,0.0907 -1.50266,0.0147 -0.46267,-0.0707 -0.9,-0.24666 -1.29334,-0.5 -0.78933,-0.508 -1.41333,-1.272 -1.84133,-2.1 l 0.24933,-0.0307"
         style="fill:#512a2a;fill-opacity:1;fill-rule:nonzero;stroke:none;stroke-width:0.133333" />
      <path
         id="path1207"
         d="m 727.22798,358.352 0.176,0.0307 c 0.53467,0.504 1.19467,0.868 1.90934,1.04133 l 0.088,0.0907 -0.16134,0.044 c -0.77066,-0.188 -1.48266,-0.568 -2.06133,-1.112 l 0.0493,-0.0947"
         style="fill:#512a2a;fill-opacity:1;fill-rule:nonzero;stroke:none;stroke-width:0.133333" />
      <path
         id="path1208"
         d="m 725.64132,355.25867 c 1.08266,-0.56667 2.332,-0.34267 3.432,0.0493 0.15866,0.0573 -0.0387,0.15467 -0.13467,0.11867 -1.00133,-0.35867 -2.13067,-0.57867 -3.11867,-0.0613 -0.0787,0.0427 -0.31066,-0.0373 -0.17866,-0.10666"
         style="fill:#512a2a;fill-opacity:1;fill-rule:nonzero;stroke:none;stroke-width:0.133333" />
      <path
         id="path1209"
         d="m 735.03865,358.528 c 0.424,0.47333 0.87066,0.96 1.20933,1.5 0.35333,0.56267 0.29867,1.172 0.144,1.79333 l -0.25733,-0.009 c 0.15066,-0.60933 0.21066,-1.20133 -0.13734,-1.756 -0.33066,-0.52667 -0.77066,-1.00267 -1.184,-1.464 l 0.22534,-0.064"
         style="fill:#512a2a;fill-opacity:1;fill-rule:nonzero;stroke:none;stroke-width:0.133333" />
      <path
         id="path1210"
         d="m 721.65198,358.348 0.22134,0.0787 c -0.81334,0.72266 -1.25067,1.80666 -1.17734,2.89066 l -0.25866,-0.008 c -0.076,-1.112 0.38266,-2.22266 1.21466,-2.96133"
         style="fill:#512a2a;fill-opacity:1;fill-rule:nonzero;stroke:none;stroke-width:0.133333" />
      <path
         id="path1211"
         d="m 723.80265,363.228 c -0.15333,0.0467 -0.30133,0.10933 -0.44133,0.18667 -0.344,0.188 -0.64267,0.46266 -0.864,0.792 -0.096,0.14533 -0.43067,0.52933 -0.12134,0.55333 0.29334,0.024 0.59734,-0.232 0.84,-0.364 0.50267,-0.276 1.08134,-0.37067 1.648,-0.43867 0.23067,-0.0293 0.46134,-0.032 0.432,-0.30266 -0.0213,-0.18934 -0.10266,-0.42534 -0.288,-0.50934 -0.2,-0.088 -0.49333,-0.0373 -0.70266,-0.0173 -0.16934,0.0147 -0.33867,0.0493 -0.50267,0.1"
         style="fill:#512a2a;fill-opacity:1;fill-rule:nonzero;stroke:none;stroke-width:0.133333" />
      <path
         id="path1212"
         d="m 729.24265,362.36533 c 1.04667,0.11334 1.912,0.38534 2.352,0.76134 l 0.0667,0.064 -0.0133,0.0813 -0.064,0.0147 c -1.11733,0.0373 -2.196,-0.0427 -3.31333,0.14933 -0.252,0.044 -0.66667,0.136 -0.80667,-0.11867 -0.096,-0.17333 -0.0267,-0.36666 0.108,-0.504 0.276,-0.28266 0.78534,-0.408 1.176,-0.44 0.164,-0.012 0.33067,-0.0253 0.49467,-0.008"
         style="fill:#512a2a;fill-opacity:1;fill-rule:nonzero;stroke:none;stroke-width:0.133333" />
      <path
         id="path1213"
         d="m 724.69865,366.048 c -0.092,-0.276 -0.26,-0.59867 -0.59067,-0.61067 -0.16,-0.005 -0.308,0.0653 -0.39066,0.204 l -0.048,0.12 -0.036,0.0907 c -0.0653,0.19733 -0.0493,0.41867 0.04,0.60933 0.0387,0.16267 0.12,0.30934 0.27866,0.4 0.184,0.10667 0.44667,0.0413 0.608,-0.0853 0.22,-0.17467 0.22267,-0.47867 0.13867,-0.728"
         style="fill:#3a2323;fill-opacity:1;fill-rule:nonzero;stroke:none;stroke-width:0.133333" />
      <path
         id="path1214"
         d="m 730.33332,365.332 c -0.0787,-0.29333 -0.232,-0.63867 -0.57334,-0.67467 -0.22266,-0.0213 -0.45333,0.112 -0.532,0.32667 l -0.0413,0.34 c 0.008,0.284 0.06,0.632 0.31733,0.80133 0.14667,0.0987 0.35734,0.12267 0.51067,0.02 0.30533,-0.20533 0.416,-0.44 0.31867,-0.81333"
         style="fill:#3a2323;fill-opacity:1;fill-rule:nonzero;stroke:none;stroke-width:0.133333" />
      <path
         id="path1215"
         d="m 725.70265,364.21467 0.17333,0.04 c 0.35734,0.308 0.50534,0.76533 0.54667,1.22133 0.0507,0.56533 10e-4,1.14667 -0.0107,1.71333 -0.012,0.57467 -0.0453,1.15467 -0.0387,1.728 0.003,0.15334 0.0147,0.29867 0.18666,0.34667 0.13067,0.0373 0.29467,0.032 0.42934,0.0387 0.29733,0.0133 0.59466,0 0.888,-0.036 0.128,-0.016 0.22933,0.12133 0.0573,0.14266 -0.296,0.0347 -0.596,0.0493 -0.896,0.0373 -0.23067,-0.009 -0.58133,0.0147 -0.776,-0.13734 -0.17333,-0.13466 -0.14667,-0.38933 -0.14267,-0.58266 l 0.0213,-0.98534 c 0.0147,-0.63066 0.0413,-1.26266 0.04,-1.892 -0.001,-0.55866 -0.0867,-1.15466 -0.53334,-1.54133 l 0.0547,-0.0933"
         style="fill:#dc5153;fill-opacity:1;fill-rule:nonzero;stroke:none;stroke-width:0.133333" />
      <path
         id="path1216"
         d="m 729.77198,370.22267 0.0853,-0.192 c 0.0533,-0.14534 -0.012,-0.19467 -0.14134,-0.244 -0.16133,-0.0613 -0.33866,0.0107 -0.5,0.0707 -0.776,0.292 -1.62,0.34 -2.43733,0.48 -0.408,0.0693 -0.808,0.228 -0.31333,0.59467 0.504,0.37333 1.204,0.44133 1.80933,0.31333 0.608,-0.13066 1.20667,-0.46933 1.49733,-1.02266"
         style="fill:#ffffff;fill-opacity:1;fill-rule:nonzero;stroke:none;stroke-width:0.133333" />
      <path
         id="path1217"
         d="m 730.88265,396.66533 c -0.028,-0.188 -0.124,-0.356 -0.29867,-0.43866 l -0.0853,-0.032 c -0.15733,-0.0747 -0.344,-0.088 -0.512,-0.0467 -0.188,0.0467 -0.35333,0.17867 -0.44133,0.352 -0.0947,0.188 -0.0907,0.404 -0.0307,0.6 0.0587,0.192 0.18,0.36 0.35067,0.46667 0.188,0.116 0.44133,0.13066 0.64266,0.036 0.32267,-0.152 0.424,-0.61334 0.37467,-0.93734"
         style="fill:#777bb3;fill-opacity:1;fill-rule:nonzero;stroke:none;stroke-width:0.133333" />
      <path
         id="path1218"
         d="m 730.88265,410.88907 c -0.028,-0.1864 -0.124,-0.35574 -0.29867,-0.43854 l -0.0853,-0.0317 c -0.15733,-0.0735 -0.344,-0.0881 -0.512,-0.0469 -0.188,0.0469 -0.35333,0.17866 -0.44133,0.35213 -0.0947,0.188 -0.0907,0.40413 -0.0307,0.60147 0.0587,0.19173 0.18,0.3584 0.35067,0.4652 0.188,0.1172 0.44133,0.13173 0.64266,0.0375 0.32267,-0.1536 0.424,-0.61453 0.37467,-0.93906"
         style="fill:#777bb3;fill-opacity:1;fill-rule:nonzero;stroke:none;stroke-width:0.133333" />
      <path
         id="path1219"
         d="m 730.88265,425.11453 c -0.028,-0.188 -0.124,-0.35573 -0.29867,-0.43853 l -0.0853,-0.0333 c -0.15733,-0.0733 -0.344,-0.088 -0.512,-0.0453 -0.188,0.0464 -0.35333,0.1772 -0.44133,0.35214 -0.0947,0.188 -0.0907,0.40266 -0.0307,0.6 0.0587,0.19173 0.18,0.35986 0.35067,0.46506 0.188,0.1172 0.44133,0.1324 0.64266,0.0376 0.32267,-0.15373 0.424,-0.6136 0.37467,-0.9376"
         style="fill:#777bb3;fill-opacity:1;fill-rule:nonzero;stroke:none;stroke-width:0.133333" />
      <path
         id="path1220"
         d="m 730.88265,439.33853 c -0.028,-0.188 -0.124,-0.35573 -0.29867,-0.43853 l -0.0853,-0.0333 c -0.15733,-0.0735 -0.344,-0.0864 -0.512,-0.0453 -0.188,0.0469 -0.35333,0.17867 -0.44133,0.35214 -0.0947,0.188 -0.0907,0.4036 -0.0307,0.6 0.0587,0.1932 0.18,0.35986 0.35067,0.46666 0.188,0.1172 0.44133,0.13174 0.64266,0.0369 0.32267,-0.15307 0.424,-0.61454 0.37467,-0.93854"
         style="fill:#777bb3;fill-opacity:1;fill-rule:nonzero;stroke:none;stroke-width:0.133333" />
      <path
         id="path1221"
         d="m 730.88265,453.564 c -0.028,-0.188 -0.124,-0.3572 -0.29867,-0.43853 l -0.0853,-0.0333 c -0.15733,-0.0733 -0.344,-0.088 -0.512,-0.0452 -0.188,0.0463 -0.35333,0.17707 -0.44133,0.3504 -0.0947,0.18814 -0.0907,0.40427 -0.0307,0.60107 0.0587,0.19227 0.18,0.3604 0.35067,0.4656 0.188,0.1172 0.44133,0.13187 0.64266,0.0376 0.32267,-0.15373 0.424,-0.6136 0.37467,-0.9376"
         style="fill:#777bb3;fill-opacity:1;fill-rule:nonzero;stroke:none;stroke-width:0.133333" />
      <path
         id="path1222"
         d="m 750.06665,441.5932 h -7.62667 c -0.89467,0 -1.62133,-0.72653 -1.62133,-1.62133 v -16.52494 h 10.87066 v 16.52494 c 0,0.8948 -0.72666,1.62133 -1.62266,1.62133"
         style="fill:#94cdd7;fill-opacity:1;fill-rule:nonzero;stroke:none;stroke-width:0.133333" />
      <path
         id="path1223"
         d="m 750.05731,441.8292 h -7.608 c -1.02933,0 -1.86533,-0.83707 -1.86533,-1.8652 v -16.7536 h 10.11867 v 0.47347 h -9.648 V 439.964 c 0,0.76773 0.62666,1.3948 1.39466,1.3948 h 7.608 c 0.15334,0 0.304,-0.0255 0.44667,-0.0749 l 0.15067,0.44786 c -0.19067,0.0656 -0.39334,0.0975 -0.59734,0.0975"
         style="fill:#777bb3;fill-opacity:1;fill-rule:nonzero;stroke:none;stroke-width:0.133333" />
      <path
         id="path1224"
         d="m 717.12665,395.224 c 0.0267,-0.988 0.064,-1.976 0.11067,-2.96533 h -0.284 c -0.0813,1.74933 -0.13467,3.49866 -0.15867,5.24933 -0.0253,1.74933 -0.0213,3.50133 0.0107,5.2508 0.0187,0.98907 0.048,1.97867 0.084,2.96667 h 0.28266 c -0.064,-1.75094 -0.1,-3.5 -0.108,-5.25094 -0.008,-1.75053 0.0133,-3.5012 0.0627,-5.25053"
         style="fill:#777bb3;fill-opacity:1;fill-rule:nonzero;stroke:none;stroke-width:0.133333" />
      <path
         id="path1225"
         d="m 713.52798,404.4052 c -0.436,-1.4412 -1.21733,-2.76773 -2.256,-3.85733 -0.29466,-0.30774 -0.60933,-0.59587 -0.94266,-0.86254 l -0.19334,-0.0267 -0.052,0.0987 c 1.16934,0.93587 2.10934,2.14534 2.728,3.50667 0.17334,0.38293 0.32267,0.7772 0.44267,1.17867 l 0.27333,-0.0375"
         style="fill:#777bb3;fill-opacity:1;fill-rule:nonzero;stroke:none;stroke-width:0.133333" />
      <path
         id="path1226"
         d="m 741.61598,378.132 c -0.17733,-0.49333 -0.428,-0.97067 -0.67333,-1.432 -0.28534,-0.53733 -0.6,-1.06 -0.94267,-1.564 l -0.27333,0.0387 c 0.57466,0.84666 1.072,1.74266 1.48266,2.68133 0.0907,0.20267 0.25867,0.47333 0.116,0.68933 l -0.23333,0.212 -0.33467,0.236 c -0.44,0.308 -0.884,0.608 -1.33333,0.90267 -0.50667,0.332 -1.01867,0.65467 -1.53733,0.96933 l -0.0227,0.0893 c 0.792,0.60933 1.44667,1.38666 1.90667,2.276 0.056,0.10933 0.13866,0.23733 0.13066,0.36533 -0.0107,0.13867 -0.12933,0.236 -0.22,0.328 -0.20266,0.20533 -0.404,0.40933 -0.60666,0.61333 -0.40534,0.40934 -0.81334,0.816 -1.22267,1.21867 -1.632,1.612 -3.296,3.192 -4.99066,4.73867 -0.952,0.87066 -1.916,1.73066 -2.88934,2.58 -1.27333,-1.28534 -2.44266,-2.67467 -3.488,-4.152 -0.544,-0.768 -1.05466,-1.56 -1.52933,-2.37067 -0.23733,-0.40267 -0.46533,-0.80933 -0.684,-1.22267 -0.112,-0.212 -0.22267,-0.42533 -0.33067,-0.64 -0.10666,-0.212 -0.21866,-0.42266 -0.29466,-0.648 -0.0907,-0.26666 -0.10667,-0.548 0.0387,-0.79733 0.132,-0.22933 0.34534,-0.41333 0.528,-0.60267 0.42134,-0.43466 0.84267,-0.86933 1.26267,-1.30533 v -0.0733 c -0.72133,-0.54 -1.5,-0.99867 -2.324,-1.364 0.512,-1.42934 1.30267,-2.756 2.324,-3.87867 l -0.244,-0.0733 c -1.044,1.148 -1.85467,2.496 -2.36933,3.96 l 0.036,0.0693 c 0.812,0.356 1.58,0.80133 2.292,1.32933 -0.364,0.37734 -0.728,0.75334 -1.09334,1.12934 -0.17866,0.188 -0.36933,0.36933 -0.53733,0.568 -0.14133,0.16666 -0.248,0.35333 -0.26533,0.57466 -0.0387,0.468 0.26133,0.93334 0.46666,1.33467 0.21867,0.428 0.44667,0.85067 0.684,1.26933 0.952,1.67867 2.052,3.27067 3.28134,4.75734 0.688,0.832 1.41466,1.62933 2.18133,2.38933 l 0.244,-0.0733 -0.064,-0.064 0.12267,-0.036 c 1.768,-1.544 3.50399,-3.124 5.20933,-4.73734 0.852,-0.80533 1.696,-1.62 2.53333,-2.44533 0.41467,-0.408 0.828,-0.81867 1.24,-1.232 0.208,-0.21067 0.41467,-0.42 0.62133,-0.62933 0.15867,-0.16 0.40934,-0.34267 0.364,-0.596 -0.0253,-0.14 -0.104,-0.26934 -0.16933,-0.392 -0.0653,-0.12134 -0.13333,-0.24134 -0.204,-0.35867 -0.14667,-0.23733 -0.308,-0.468 -0.48267,-0.688 -0.34133,-0.42933 -0.73066,-0.816 -1.16133,-1.15333 0.92667,-0.56534 1.83867,-1.15867 2.73067,-1.77867 0.20133,-0.14 0.42933,-0.272 0.60666,-0.44133 0.172,-0.164 0.19734,-0.35334 0.11867,-0.57067"
         style="fill:#777bb3;fill-opacity:1;fill-rule:nonzero;stroke:none;stroke-width:0.133333" />
      <path
         id="path1227"
         d="m 748.06665,378.828 c -1.504,1.60533 -2.06267,3.804 -2.316,5.92933 -0.08,0.66134 -0.13467,1.32667 -0.18934,1.98934 h 0.284 c 0.18,-2.19334 0.372,-4.468 1.452,-6.43467 0.28,-0.508 0.616,-0.98667 1.01334,-1.41067 l -0.244,-0.0733"
         style="fill:#777bb3;fill-opacity:1;fill-rule:nonzero;stroke:none;stroke-width:0.133333" />
      <path
         id="path1228"
         d="m 674.52398,507.77453 c -0.82133,-0.0131 -1.63866,-0.10947 -2.44,-0.28547 l -0.23066,-0.0547 c -0.124,-0.0276 -0.24534,-0.0599 -0.35867,-0.0969 l -0.25333,-0.0921 c -0.54934,-0.23493 -0.66934,-0.45893 -0.68667,-1.05053 l -0.001,-0.0229 -10e-4,-0.076 -0.005,-0.15733 c -0.0347,-1.34533 -0.0747,-2.69067 -0.11733,-4.03693 -0.26667,-8.32707 -1.2,-16.68707 -1.312,-25.0896 -0.04,-3.00414 -0.04,-6.05214 0.76666,-8.94534 0.57867,-2.07346 2.75467,-3.92399 5.02267,-3.30159 1.78933,0.49066 3.03467,2.20159 3.5,3.99893 0.46533,1.79746 0.29067,3.68813 0.11333,5.536 -0.75733,7.86933 -1.18533,15.86933 -2.24133,23.67453 -0.172,1.2724 -0.36133,2.5604 -0.448,3.8484 -0.0813,1.20773 -0.076,2.4156 0.11333,3.6104 0.0693,0.436 0.16134,0.8708 0.28534,1.30267 0.30133,1.0624 -0.904,1.2536 -1.70534,1.23853"
         style="fill:#f57e6f;fill-opacity:1;fill-rule:nonzero;stroke:none;stroke-width:0.133333" />
      <path
         id="path1229"
         d="m 683.20798,509.876 -0.0453,0.0521 -13.588,-0.3536 -0.0227,-0.29173 c -0.012,-0.2188 -0.012,-0.43747 0,-0.65627 0.044,-0.83067 0.26934,-1.64267 0.71467,-2.3692 0.0947,-0.15627 0.22133,-0.31987 0.408,-0.3532 0.204,-0.0391 0.396,0.0959 0.57067,0.2052 0.66266,0.412 1.64266,0.648 2.39866,0.38907 0.49467,-0.1692 0.924,-0.4796 1.276,-0.85147 0.15467,-0.16053 0.30267,-0.33493 0.5,-0.44853 0.21467,-0.1224 0.46,-0.13174 0.69867,-0.0719 0.66933,0.1708 1.24933,0.74947 1.84133,1.0932 0.676,0.39387 1.384,0.7376 2.116,1.02813 0.61734,0.2428 1.25067,0.44947 1.83867,0.7548 0.364,0.18947 0.97467,0.54787 1.26933,0.9776 0.192,0.27707 0.24934,0.5848 0.024,0.89574"
         style="fill:#777bb3;fill-opacity:1;fill-rule:nonzero;stroke:none;stroke-width:0.133333" />
      <path
         id="path1230"
         d="m 683.20798,509.876 -0.0453,0.0521 -13.588,-0.3536 -0.0227,-0.29173 c -0.012,-0.2188 -0.012,-0.43747 0,-0.65627 l 13.632,0.35373 c 0.192,0.27707 0.24934,0.5848 0.024,0.89574"
         style="fill:#94cdd7;fill-opacity:1;fill-rule:nonzero;stroke:none;stroke-width:0.133333" />
      <path
         id="path1231"
         d="m 680.19332,507.75053 c -0.06,-0.14787 -0.25734,-0.2 -0.39467,-0.25987 -0.772,-0.33333 -1.51867,-0.72666 -2.22933,-1.17093 -0.40267,-0.24893 -0.79467,-0.51707 -1.172,-0.80093 l -0.21867,-0.0376 -0.06,0.11466 c 0.71733,0.53907 1.47733,1.02294 2.27467,1.44427 0.39066,0.20773 0.79066,0.39733 1.196,0.57347 l 0.272,0.13586 -0.0547,0.27454 c -0.08,0.12293 -0.524,0.56506 -0.42,0.72653 0.16267,0.2536 0.45733,-0.2156 0.504,-0.312 l 0.15067,-0.25987 c 0.0827,-0.1188 0.212,-0.27186 0.152,-0.42813"
         style="fill:#47527d;fill-opacity:1;fill-rule:nonzero;stroke:none;stroke-width:0.133333" />
      <path
         id="path1232"
         d="m 672.13998,508.47706 c -0.16266,-0.9052 -0.592,-1.80626 -1.424,-2.3156 l -0.22533,-0.006 -0.004,0.1188 c 0.77867,0.4776 1.18267,1.34947 1.33467,2.19627 l 0.31866,0.006"
         style="fill:#47527d;fill-opacity:1;fill-rule:nonzero;stroke:none;stroke-width:0.133333" />
      <path
         id="path1233"
         d="m 677.49198,505.63173 -0.124,-0.012 -0.096,0.036 c -0.17466,0.16973 -0.34933,0.33907 -0.52266,0.50827 l 0.0547,0.1172 0.12134,0.012 0.0987,-0.0375 c 0.17334,-0.16933 0.34667,-0.33853 0.52134,-0.50627 l -0.0533,-0.11773"
         style="fill:#b9e8f0;fill-opacity:1;fill-rule:nonzero;stroke:none;stroke-width:0.133333" />
      <path
         id="path1234"
         d="m 678.19198,506.07186 -0.22,0.024 c -0.16666,0.14787 -0.324,0.30574 -0.46666,0.47347 l -0.0187,0.0656 0.072,0.0515 0.12267,0.0109 0.096,-0.0348 c 0.144,-0.16933 0.30133,-0.32653 0.46933,-0.47347 l -0.0547,-0.1172"
         style="fill:#b9e8f0;fill-opacity:1;fill-rule:nonzero;stroke:none;stroke-width:0.133333" />
      <path
         id="path1235"
         d="m 679.02798,506.5224 -0.0707,-0.0516 -0.124,-0.012 -0.096,0.036 c -0.12534,0.1464 -0.25067,0.29586 -0.376,0.44266 l -0.016,0.0652 0.072,0.052 0.12266,0.012 0.096,-0.0375 c 0.12534,-0.1464 0.25067,-0.29427 0.37467,-0.4428 l 0.0173,-0.064"
         style="fill:#b9e8f0;fill-opacity:1;fill-rule:nonzero;stroke:none;stroke-width:0.133333" />
      <path
         id="path1236"
         d="m 679.84798,506.836 -0.21866,0.0255 c -0.18534,0.15467 -0.34667,0.33587 -0.47734,0.53587 l 0.0147,0.0652 0.0947,0.0416 0.19866,-0.0536 0.096,-0.13853 0.052,-0.0651 0.009,-0.0109 0.0107,-0.0136 0.0267,-0.0303 0.248,-0.24 -0.0547,-0.11613"
         style="fill:#b9e8f0;fill-opacity:1;fill-rule:nonzero;stroke:none;stroke-width:0.133333" />
      <path
         id="path1237"
         d="m 667.18665,506.49213 c 0.0707,0.81987 0.16267,1.6396 0.28133,2.45573 3.12267,-0.58906 6.248,-1.1812 9.37334,-1.7708 0.77733,-0.14786 1.57866,-0.3036 2.23733,-0.74533 1.652,-1.1104 1.59067,-3.2864 2.00933,-4.99733 0.63334,-2.57974 1.39867,-5.1448 1.98934,-7.748 1.228,-5.43334 2.23333,-10.91294 3.06,-16.41974 1.67466,-11.19479 2.59466,-22.49213 3.152,-33.79479 0.18133,-3.67454 0.292,-7.35054 0.412,-11.02814 0.0547,-1.61973 0.236,-2.1396 -1.04134,-3.2088 -1.13333,-0.95106 -2.55466,-1.64173 -3.94133,-2.1308 -3.172,-1.12026 -6.58933,-1.28013 -9.94933,-1.41346 -5.37734,-0.21467 -8.47334,1.84426 -10.184,7.04946 -1.28534,3.91294 0.0347,8.71974 0.384,12.69427 0.87733,9.98013 1.736,20.0604 1.86533,30.0828 0.1,7.86146 -0.04,15.84266 0.0747,23.75213 0.0347,2.40933 0.0693,4.82387 0.27733,7.2228"
         style="fill:#e6cdbb;fill-opacity:1;fill-rule:nonzero;stroke:none;stroke-width:0.133333" />
      <path
         id="path1238"
         d="m 691.74665,507.77453 c -0.82,-0.0131 -1.63733,-0.10947 -2.43867,-0.28547 l -0.232,-0.0547 c -0.12266,-0.0276 -0.244,-0.0599 -0.35866,-0.0969 l -0.252,-0.0921 c -0.55067,-0.23493 -0.66934,-0.45893 -0.688,-1.05053 v -0.0229 l -0.003,-0.076 -0.005,-0.15733 c -0.0347,-1.34533 -0.0747,-2.69067 -0.116,-4.03693 -0.26667,-8.32707 -1.2,-16.68707 -1.312,-25.0896 -0.04,-3.00414 -0.04,-6.05214 0.76666,-8.94534 0.57867,-2.07346 2.75334,-3.92399 5.02267,-3.30159 1.78933,0.49066 3.03333,2.20159 3.5,3.99893 0.46533,1.79746 0.29067,3.68813 0.11333,5.536 -0.75866,7.86933 -1.18666,15.86933 -2.24133,23.67453 -0.17333,1.2724 -0.36133,2.5604 -0.448,3.8484 -0.0827,1.20773 -0.0773,2.4156 0.11333,3.6104 0.0693,0.436 0.16134,0.8708 0.284,1.30267 0.30134,1.0624 -0.90266,1.2536 -1.70533,1.23853"
         style="fill:#f57e6f;fill-opacity:1;fill-rule:nonzero;stroke:none;stroke-width:0.133333" />
      <path
         id="path1239"
         d="m 700.43198,509.876 -0.0467,0.0521 -13.58667,-0.3536 -0.0227,-0.29173 c -0.0133,-0.2188 -0.012,-0.43747 -10e-4,-0.65627 0.0453,-0.83067 0.26933,-1.64267 0.71467,-2.3692 0.096,-0.15627 0.22266,-0.31987 0.40933,-0.3532 0.204,-0.0391 0.39467,0.0959 0.57067,0.2052 0.66266,0.412 1.64133,0.648 2.39733,0.38907 0.49467,-0.1692 0.92533,-0.4796 1.276,-0.85147 0.15467,-0.16053 0.304,-0.33493 0.5,-0.44853 0.216,-0.1224 0.46,-0.13174 0.69867,-0.0719 0.67066,0.1708 1.25066,0.74947 1.84133,1.0932 0.67733,0.39387 1.38533,0.7376 2.11733,1.02813 0.616,0.2428 1.24934,0.44947 1.83734,0.7548 0.36533,0.18947 0.976,0.54787 1.27066,0.9776 0.19067,0.27707 0.24934,0.5848 0.024,0.89574"
         style="fill:#777bb3;fill-opacity:1;fill-rule:nonzero;stroke:none;stroke-width:0.133333" />
      <path
         id="path1240"
         d="m 700.43198,509.876 -0.0467,0.0521 -13.58667,-0.3536 -0.0227,-0.29173 c -0.0133,-0.2188 -0.012,-0.43747 -10e-4,-0.65627 l 13.63333,0.35373 c 0.19067,0.27707 0.24934,0.5848 0.024,0.89574"
         style="fill:#94cdd7;fill-opacity:1;fill-rule:nonzero;stroke:none;stroke-width:0.133333" />
      <path
         id="path1241"
         d="m 697.41732,507.75053 c -0.06,-0.14787 -0.25867,-0.2 -0.39467,-0.25987 -0.77333,-0.33333 -1.52,-0.72666 -2.23067,-1.17093 -0.40266,-0.24893 -0.79333,-0.51707 -1.172,-0.80093 l -0.21733,-0.0376 -0.06,0.11466 c 0.71733,0.53907 1.476,1.02294 2.27467,1.44427 0.39066,0.20773 0.79066,0.39733 1.19466,0.57347 l 0.272,0.13586 -0.0547,0.27454 c -0.08,0.12293 -0.52267,0.56506 -0.41867,0.72653 0.16267,0.2536 0.45733,-0.2156 0.504,-0.312 l 0.15067,-0.25987 c 0.0827,-0.1188 0.212,-0.27186 0.152,-0.42813"
         style="fill:#47527d;fill-opacity:1;fill-rule:nonzero;stroke:none;stroke-width:0.133333" />
      <path
         id="path1242"
         d="m 689.36398,508.47706 c -0.16266,-0.9052 -0.592,-1.80626 -1.424,-2.3156 l -0.22666,-0.006 -0.003,0.1188 c 0.77867,0.4776 1.18133,1.34947 1.33467,2.19627 l 0.31866,0.006"
         style="fill:#47527d;fill-opacity:1;fill-rule:nonzero;stroke:none;stroke-width:0.133333" />
      <path
         id="path1243"
         d="m 694.71465,505.63173 -0.12267,-0.012 -0.096,0.036 c -0.17466,0.16973 -0.34933,0.33907 -0.524,0.50827 l 0.056,0.1172 0.12134,0.012 0.0973,-0.0375 c 0.17333,-0.16933 0.348,-0.33853 0.52267,-0.50627 l -0.0547,-0.11773"
         style="fill:#b9e8f0;fill-opacity:1;fill-rule:nonzero;stroke:none;stroke-width:0.133333" />
      <path
         id="path1244"
         d="m 695.41598,506.07186 -0.22133,0.024 c -0.16667,0.14787 -0.32267,0.30574 -0.46667,0.47347 l -0.0187,0.0656 0.0733,0.0515 0.12267,0.0109 0.096,-0.0348 c 0.144,-0.16933 0.30133,-0.32653 0.468,-0.47347 l -0.0533,-0.1172"
         style="fill:#b9e8f0;fill-opacity:1;fill-rule:nonzero;stroke:none;stroke-width:0.133333" />
      <path
         id="path1245"
         d="m 696.25198,506.5224 -0.072,-0.0516 -0.12266,-0.012 -0.096,0.036 c -0.12534,0.1464 -0.25067,0.29586 -0.376,0.44266 l -0.0173,0.0652 0.072,0.052 0.12267,0.012 0.0973,-0.0375 c 0.124,-0.1464 0.24934,-0.29427 0.37467,-0.4428 l 0.0173,-0.064"
         style="fill:#b9e8f0;fill-opacity:1;fill-rule:nonzero;stroke:none;stroke-width:0.133333" />
      <path
         id="path1246"
         d="m 697.07198,506.836 -0.22,0.0255 c -0.18533,0.15467 -0.34533,0.33587 -0.476,0.53587 l 0.0147,0.0652 0.0933,0.0416 0.19867,-0.0536 0.0973,-0.13853 0.052,-0.0651 0.009,-0.0109 0.0107,-0.0136 0.0267,-0.0303 0.248,-0.24 -0.0547,-0.11613"
         style="fill:#b9e8f0;fill-opacity:1;fill-rule:nonzero;stroke:none;stroke-width:0.133333" />
      <path
         id="path1247"
         d="m 684.21865,506.4188 c 0.052,0.40666 0.10667,0.81186 0.16267,1.2172 3.30266,-0.44694 7.04133,0.29466 10.18666,-0.77454 0.51067,-0.17346 1.01867,-0.3844 1.43067,-0.73226 0.872,-0.73854 1.14933,-1.9464 1.372,-3.06774 0.62133,-3.14533 1.2,-6.3016 1.732,-9.46306 2.79867,-16.62654 4.06133,-33.29053 4.89067,-50.12653 0.18133,-3.67454 0.29333,-7.35054 0.41466,-11.02814 0.0533,-1.61973 0.23467,-2.1396 -1.04266,-3.2088 -1.13334,-0.95106 -2.556,-1.64173 -3.94267,-2.1308 -3.17067,-1.12026 -6.588,-1.28013 -9.94933,-1.41346 -1.29334,-0.0521 -3.03334,-0.26414 -4.124,0.55626 -1.01334,0.75987 -1.43334,2.21814 -1.688,3.39427 -0.628,2.91347 -0.896,5.89213 -1.07334,8.86813 -0.48933,8.28654 -0.11066,16.5068 0.236,24.78387 0.352,8.41093 0.14667,16.83333 0.27867,25.248 0.0947,5.9724 0.36133,11.95093 1.116,17.8776"
         style="fill:#e6cdbb;fill-opacity:1;fill-rule:nonzero;stroke:none;stroke-width:0.133333" />
      <path
         id="path1248"
         d="m 691.59732,446.75987 c -0.34534,2.9708 -0.732,5.936 -1.16,8.89586 -0.42534,2.94534 -0.89467,5.88547 -1.404,8.81614 -0.51067,2.94693 -1.06267,5.88799 -1.65867,8.81879 -0.59333,2.93067 -1.22933,5.852 -1.90533,8.76507 -0.67734,2.9136 -1.39467,5.81613 -2.15467,8.70933 -0.0973,0.37347 -0.196,0.74854 -0.296,1.12134 -0.0427,0.15733 0.35467,0.18026 0.38933,0.0548 0.764,-2.8704 1.488,-5.75214 2.17334,-8.6428 0.69066,-2.92494 1.34,-5.85987 1.94933,-8.80254 0.60667,-2.9276 1.17067,-5.8652 1.69333,-8.80946 0.52667,-2.95987 1.00934,-5.92653 1.45067,-8.8984 0.44,-2.9588 0.83733,-5.92293 1.192,-8.89213 0.0467,-0.37707 0.0907,-0.75734 0.13467,-1.136 0.016,-0.13334 -0.38534,-0.14787 -0.404,0"
         style="fill:#c4ab9b;fill-opacity:1;fill-rule:nonzero;stroke:none;stroke-width:0.133333" />
      <path
         id="path1249"
         d="m 702.76532,388.732 c 2.31866,8.156 3.21733,16.7784 2.788,25.23987 -0.02,0.37186 -0.0453,0.7588 -0.22934,1.0828 -1.004,1.77453 -2.444,-1.35987 -2.692,-2.09587 -1.644,-4.87853 -2.06,-10.04427 -2.436,-15.14547 -0.18666,-2.552 -0.36,-5.108 -0.67066,-7.648 -0.132,-1.068 -1.55334,-5.852 -0.46667,-6.276 1.95333,-0.764 3.38933,3.72667 3.70667,4.84267"
         style="fill:#f9a859;fill-opacity:1;fill-rule:nonzero;stroke:none;stroke-width:0.133333" />
      <path
         id="path1250"
         d="m 673.71865,444.9016 c 0.60533,0 1.212,-0.004 1.81733,-0.0125 4.32534,-0.0584 8.65067,-0.31307 12.976,-0.1412 0.56134,0.0215 1.144,0.048 1.65867,-0.17707 0.876,-0.38173 1.18,-1.75627 1.484,-2.57347 0.45467,-1.21346 0.90533,-2.428 1.35733,-3.6416 0.256,-0.69066 0.552,-1.43026 1.176,-1.8208 0.86934,2.7 1.73867,5.3984 2.60934,8.1 0.212,0.65054 8.13333,-0.18026 8.132,0.0515 0.024,-3.64627 -0.21067,-7.2624 -0.48,-10.93173 -0.048,-0.6536 -0.10534,-1.33587 -0.44667,-1.89587 -0.38533,-0.63227 -1.07867,-1.01347 -1.77467,-1.264 -1.49466,-0.53907 -3.116,-0.60267 -4.70533,-0.6084 -6.16667,-0.0213 -12.30667,0.76053 -18.36,1.8896 -2.99467,0.56 -5.972,1.20787 -8.94133,1.888 -1.88667,0.43333 -4.32534,0.49747 -5.79334,1.93187 -1.86933,1.83066 -0.97066,5.69053 -0.832,7.95466 0.008,0.12814 0.0187,0.264 0.0987,0.364 0.32933,0.42147 1.84267,0.37867 2.31067,0.44174 1.05066,0.13693 2.10666,0.23693 3.16266,0.3052 1.516,0.1 3.032,0.13693 4.55067,0.14013"
         style="fill:#f9a859;fill-opacity:1;fill-rule:nonzero;stroke:none;stroke-width:0.133333" />
      <path
         id="path1251"
         d="m 705.77732,428.4016 c -0.0107,2.59573 -0.076,5.1968 -0.39734,7.77547 -0.0267,0.2188 -0.5,3.4536 -0.62933,4.71093 h -41.39867 c -0.93466,-0.95733 -0.59333,-2.80253 -0.63066,-4.03227 -0.056,-1.812 0.0213,-3.6224 -0.052,-5.43333 -0.18267,-4.47867 -0.436,-8.95413 -0.548,-13.436 -0.02,-0.72907 -0.0333,-1.45827 -0.0427,-2.1864 -0.0107,-0.77347 -0.0187,-1.54947 -0.0253,-2.32293 -0.0173,-2.25827 -0.0147,-4.51827 0.009,-6.77867 0.0187,-1.8692 0.0507,-3.7396 0.096,-5.60933 0.0733,-2.9264 0.17867,-5.85174 0.31733,-8.77574 0.13334,-2.79333 0.34134,-5.73066 1.86667,-8.076 1.82933,-2.816 5.15867,-4.196 8.28533,-5.41733 1.9,-0.74267 3.50667,-1.916 5.52534,-2.44533 2.05466,-0.53734 4.22,-0.664 6.32,-0.33867 2.13866,0.328 4.18,1.10133 6.204,1.868 2.16133,0.81867 4.096,2.056 6.14266,3.10933 1.04134,0.53734 2.06934,1.172 2.78667,2.09867 0.82133,1.06267 1.16,2.40933 1.46667,3.716 0.744,3.196 1.4,6.41067 1.96933,9.64133 0.60533,3.43467 1.11067,6.8864 1.516,10.34947 0.112,0.952 0.21467,1.9052 0.31067,2.85987 0.27066,2.68533 0.48266,5.38013 0.632,8.076 0.196,3.54693 0.28933,7.09586 0.276,10.64693"
         style="fill:#777bb3;fill-opacity:1;fill-rule:nonzero;stroke:none;stroke-width:0.133333" />
      <path
         id="path1252"
         d="m 702.63465,408.3864 -3.87067,5.36307 -0.11733,0.2812 -0.14,-0.2708 -4.33467,-4.9948 -0.32133,-0.20774 c 0.16267,-0.0308 0.31467,-0.12133 0.42,-0.26773 l 3.86933,-5.36413 0.11734,-0.2828 0.14266,0.27186 4.33334,4.9948 0.32133,0.20787 c -0.16267,0.0307 -0.31333,0.12133 -0.42,0.2692 z m -9.536,0.4272 -3.86933,5.3624 -0.116,0.2828 -0.14267,-0.2708 -4.33333,-4.9948 -0.32134,-0.20933 c 0.16134,-0.0308 0.31334,-0.12134 0.42,-0.26934 l 3.86934,-5.36146 0.11733,-0.28227 0.14133,0.2704 4.33467,4.9948 0.32133,0.20773 c -0.16133,0.0323 -0.31466,0.12134 -0.42133,0.26987 z m -9.53333,0.4276 -3.87067,5.36147 -0.116,0.2828 -0.14267,-0.27094 -4.33333,-4.9948 -0.32,-0.20773 c 0.16,-0.0317 0.312,-0.12133 0.41733,-0.2708 l 3.872,-5.36093 0.11734,-0.28294 0.14133,0.2704 4.33333,4.9948 0.32,0.20934 c -0.16133,0.0308 -0.312,0.12026 -0.41866,0.26933 z m -9.536,0.42707 -3.86934,5.36093 -0.11733,0.2828 -0.14133,-0.2708 -4.33334,-4.99427 -0.32133,-0.2084 c 0.16267,-0.0317 0.31333,-0.12133 0.42,-0.2692 l 3.86933,-5.36253 0.11734,-0.2828 0.14266,0.2708 4.33334,4.99587 0.32,0.20773 c -0.16,0.0308 -0.312,0.12133 -0.42,0.26987 z m 30.84,0.0104 -1.164,-1.34014 -0.32,-0.2068 c 0.16133,-0.0333 0.31333,-0.1224 0.42,-0.27026 l 0.75333,-1.04267 c -0.40533,-3.46307 -0.91067,-6.9148 -1.516,-10.34947 -0.28,-0.11333 -0.61867,-0.0333 -0.81067,0.23334 l -3.87066,5.3624 -0.11734,0.2828 -0.14133,-0.2708 -4.33333,-4.9944 c -0.28934,-0.33334 -0.81334,-0.312 -1.07334,0.048 l -3.86933,5.36146 -0.11733,0.2824 -0.14134,-0.2704 -4.33466,-4.9948 c -0.28934,-0.33333 -0.81467,-0.312 -1.072,0.048 l -3.86934,5.36147 -0.116,0.2828 -0.14266,-0.27093 -4.33467,-4.99467 c -0.288,-0.33333 -0.81333,-0.31067 -1.07067,0.048 l -3.872,5.36293 -0.116,0.28227 -0.14133,-0.2704 -4.33333,-4.99613 c -0.29067,-0.33334 -0.81334,-0.31067 -1.07334,0.0493 l -1.93333,2.67707 c -0.0453,1.86973 -0.0773,3.74013 -0.096,5.60933 l 2.532,2.9188 0.32133,0.20827 c -0.164,0.0319 -0.31466,0.12146 -0.42133,0.26933 l -2.44133,3.38227 c 0.007,0.77346 0.0147,1.54946 0.0253,2.32293 0.009,0.72813 0.0227,1.45733 0.0427,2.1864 l 2.876,3.3152 c 0.28933,0.33333 0.81333,0.3104 1.072,-0.0495 l 3.86933,-5.36146 0.11733,-0.2828 0.14134,0.2708 4.33466,4.9948 c 0.28934,0.33333 0.81467,0.312 1.072,-0.048 l 3.86934,-5.36147 0.11733,-0.2828 0.14267,0.27093 4.33333,4.9948 c 0.29067,0.33334 0.81333,0.3104 1.072,-0.0485 l 3.87067,-5.3624 0.11733,-0.28293 0.14133,0.2724 4.33334,4.99426 c 0.28933,0.33334 0.81466,0.31094 1.072,-0.0479 l 3.86933,-5.36254 0.11867,-0.2828 0.14133,0.2708 4.33467,4.9948 c 0.288,0.33334 0.81333,0.312 1.07066,-0.0468 l 1.29334,-1.79066 c -0.14934,-2.69587 -0.36134,-5.39067 -0.632,-8.076"
         style="fill:#47527d;fill-opacity:1;fill-rule:nonzero;stroke:none;stroke-width:0.133333" />
      <path
         id="path1253"
         d="m 692.93598,395.90133 c -0.87466,0.22267 -1.92266,-0.2 -2.71733,-0.74 -0.74267,-0.50533 -1.41867,-1.09733 -2.07867,-1.70533 -2.15866,-1.98933 -4.156,-4.15333 -5.96533,-6.464 -1.55333,-1.98 -3.61467,-4.35867 -4.536,-6.69867 -0.504,-1.27866 -0.81733,-2.84933 0.71867,-3.49466 0.58266,-0.24667 1.23066,-0.27867 1.864,-0.292 2.168,-0.0467 4.36,0.0987 6.47066,0.62266 2.144,0.53067 4.112,1.56667 6.20267,2.256 0.564,1.28134 0.808,2.708 0.99867,4.10667 0.45866,3.38533 0.85733,6.88 0.512,10.296 -0.0693,0.67867 -0.29734,1.38667 -0.83467,1.804 -0.196,0.152 -0.40933,0.252 -0.63467,0.30933"
         style="fill:#f9a859;fill-opacity:1;fill-rule:nonzero;stroke:none;stroke-width:0.133333" />
      <path
         id="path1254"
         d="m 688.45865,384.964 c -0.65467,0.91733 -1.372,1.78933 -2.148,2.60667 l -0.26,0.25466 c -0.10267,0.0853 -0.19867,0.152 -0.32133,0.0733 l -0.284,-0.25467 -0.34667,-0.328 c -0.43733,-0.41333 -0.87467,-0.82667 -1.312,-1.24 -0.86933,-0.82267 -1.73867,-1.644 -2.608,-2.46533 -0.76,-0.71867 -1.552,-1.416 -2.23467,-2.212 -0.69066,-0.80667 -1.26133,-1.76134 -1.304,-2.848 -0.004,-0.12667 -0.35733,-0.124 -0.352,0 0.0387,1.00133 0.516,1.89866 1.12934,2.668 0.67866,0.85333 1.50266,1.58133 2.292,2.32666 0.92533,0.87334 1.848,1.748 2.772,2.62 0.46266,0.43734 0.924,0.87334 1.38533,1.31067 l 0.34667,0.328 0.308,0.24533 c 0.23066,0.12134 0.50933,0.0853 0.72533,-0.0533 0.26533,-0.17067 0.476,-0.44533 0.68667,-0.676 0.22,-0.24133 0.43466,-0.48667 0.64666,-0.736 0.42667,-0.508 0.83334,-1.03333 1.21867,-1.572 l -0.34,-0.048"
         style="fill:#f18349;fill-opacity:1;fill-rule:nonzero;stroke:none;stroke-width:0.133333" />
      <path
         id="path1255"
         d="m 692.85198,381.92933 c -0.04,-0.10933 -0.388,-0.084 -0.34,0.0467 0.48,1.31867 0.668,2.72933 0.556,4.12533 -1.208,-0.44666 -2.43066,-0.85733 -3.664,-1.228 l -0.24266,0.0333 0.064,0.12133 c 1.31866,0.396 2.62533,0.836 3.91466,1.32133 l 0.26667,-0.0787 c 0.14267,-1.46667 -0.0493,-2.956 -0.55467,-4.34134"
         style="fill:#f18349;fill-opacity:1;fill-rule:nonzero;stroke:none;stroke-width:0.133333" />
      <path
         id="path1256"
         d="m 690.13332,387.532 -0.0187,-0.036 c -0.08,-0.144 -0.24933,-0.23467 -0.41333,-0.21867 -0.29334,0.028 -0.37334,0.28134 -0.38,0.532 l 0.0493,0.30934 0.21733,0.236 c 0.18534,0.0573 0.47334,-0.0253 0.56267,-0.212 0.056,-0.11467 0.052,-0.24934 0.0373,-0.376 l -0.0547,-0.23467"
         style="fill:#f18349;fill-opacity:1;fill-rule:nonzero;stroke:none;stroke-width:0.133333" />
      <path
         id="path1257"
         d="m 691.74398,392.76933 -0.0173,-0.036 c -0.08,-0.14533 -0.24933,-0.23333 -0.41333,-0.21866 -0.29334,0.028 -0.37334,0.28133 -0.38,0.532 l 0.0493,0.30933 0.21733,0.23467 c 0.184,0.0587 0.472,-0.024 0.56267,-0.20934 0.056,-0.116 0.0507,-0.24933 0.0373,-0.37733 l -0.056,-0.23467"
         style="fill:#f18349;fill-opacity:1;fill-rule:nonzero;stroke:none;stroke-width:0.133333" />
      <path
         id="path1258"
         d="m 689.80798,371.09333 c 0.56267,-0.336 1.10267,-0.70666 1.60667,-1.13466 0.60533,-0.51334 1.156,-1.11067 1.49867,-1.82667 0.7,-1.46667 0.41733,-3.284 -0.49334,-4.62933 -0.908,-1.34667 -2.36666,-2.252 -3.91333,-2.74934 -1.82533,-0.58533 -3.776,-0.588 -5.624,-0.10266 -1.712,0.448 -3.436,1.18133 -4.60933,2.54266 -2.384,2.76534 -2.32134,7.00267 -0.48667,10.04 0.45067,0.744 1.01467,1.436 1.73467,1.924 0.40533,0.27467 0.86133,0.48134 1.34,0.58667 0.276,0.06 1.15866,0.24667 1.30666,-0.076 0.10267,-0.224 0.0773,-0.496 0.20134,-0.708 0.084,-0.14 0.22266,-0.23467 0.35866,-0.32267 2.21334,-1.43466 4.83334,-2.20266 7.08,-3.544"
         style="fill:#e6cdbb;fill-opacity:1;fill-rule:nonzero;stroke:none;stroke-width:0.133333" />
      <path
         id="path1259"
         d="m 685.89598,373.27067 c 0.744,0.30666 1.48667,0.67866 2.09067,1.20133 0.36,0.31467 0.788,0.73733 0.87333,1.23067 0.056,0.332 -0.10933,0.61866 -0.11333,0.944 -0.0107,0.96266 0.79067,2.09066 1.332,2.84 0.284,0.39733 0.61333,0.81866 0.59867,1.30666 -0.009,0.34267 -0.19067,0.652 -0.356,0.95334 -0.556,1.01466 -0.988,2.09866 -1.28134,3.21866 -0.764,-0.544 -1.52933,-1.08533 -2.29466,-1.628 -0.988,-0.69866 -1.94534,-1.17466 -3.10267,-1.5 -1.60533,-0.45333 -3.09867,-1.30266 -4.308,-2.452 -0.59867,-0.57066 -1.25733,-1.43733 -0.852,-2.28933 0.512,-1.07333 0.86533,-2.18 1.216,-3.31333 0.24533,-0.78667 0.89733,-1.42134 1.704,-1.616 0.76933,-0.18667 1.44133,0.332 2.168,0.44 0.81067,0.12 1.55733,0.34933 2.32533,0.664"
         style="fill:#f57e6f;fill-opacity:1;fill-rule:nonzero;stroke:none;stroke-width:0.133333" />
      <path
         id="path1260"
         d="m 690.20665,379.91067 c -0.448,0.008 -0.90133,-0.0413 -1.32133,-0.0907 -0.40134,-0.0467 -0.81067,-0.0147 -1.208,-0.06 -0.41067,-0.0467 -0.836,-0.20267 -1.23334,-0.31333 -0.44533,-0.124 -0.892,-0.25867 -1.30133,-0.47467 -0.364,-0.19333 -0.692,-0.44533 -1.004,-0.712 -1.49333,-1.26933 -2.84,-2.97733 -3.492,-4.84 -0.27333,-0.784 -0.36667,-1.61867 -0.45333,-2.44667 -0.10134,-0.95333 -0.19467,-1.91333 -0.132,-2.86933 0.104,-1.604 0.68666,-3.04 1.948,-4.06533 1.63066,-1.32534 3.81733,-1.91734 5.94533,-1.66 0.49467,0.0587 0.98,0.164 1.464,0.268 0.776,0.16666 1.496,0.31066 2.04533,0.91066 0.62534,0.684 1.112,1.484 1.47867,2.33334 0.37467,0.868 0.72,1.74 0.79733,2.69333 0.0373,0.456 0.0227,0.916 0.0787,1.372 0.0693,0.572 0.24533,1.12533 0.344,1.69067 0.152,0.87333 0.1,1.76666 0.128,2.64133 0.0253,0.84533 -0.2,1.76133 -0.504,2.54667 -0.14267,0.36266 -0.23067,0.724 -0.356,1.084 -0.16,0.46266 -0.50933,0.576 -0.88133,0.82133 -0.24,0.156 -0.38667,0.42267 -0.604,0.60933 -0.48934,0.416 -1.108,0.548 -1.73867,0.56134"
         style="fill:#f57e6f;fill-opacity:1;fill-rule:nonzero;stroke:none;stroke-width:0.133333" />
      <path
         id="path1261"
         d="m 691.50665,364.39733 0.224,0.156 c 0.18267,0.12934 0.416,0.27067 0.61333,0.16267 0.89867,-0.49333 -1.82933,-2.36933 -2.21733,-2.564 -3.86,-1.932 -9.18,0.21733 -11.008,4.004 -0.528,1.09467 -0.804,2.288 -1.03333,3.47333 -0.18134,0.94134 -0.25067,2.03334 0.48533,2.76934 0.48533,0.48533 1.19867,0.716 1.884,0.66133 0.23333,-0.0187 0.46933,-0.0707 0.66,-0.20667 0.37867,-0.27066 0.46933,-0.78933 0.51333,-1.25333 0.0453,-0.49067 0.072,-0.98267 0.0827,-1.476 0.02,-0.988 -0.0173,-2.04 0.488,-2.88933 0.484,-0.812 1.45333,-1.304 2.392,-1.21467 0.46933,0.044 0.94267,0.21733 1.39733,0.0933 0.39067,-0.10666 0.69734,-0.428 0.87467,-0.79333 0.17733,-0.364 0.244,-0.772 0.292,-1.176 -0.0133,0.13867 0.42667,0.70133 0.54267,0.808 0.20133,0.18133 0.49866,0.27867 0.748,0.13067 0.22266,-0.13467 0.348,-0.38267 0.46133,-0.616 0.18933,-0.39334 0.38267,-0.81334 0.33733,-1.248 0.796,0.304 1.55734,0.7 2.26267,1.17866"
         style="fill:#e6cdbb;fill-opacity:1;fill-rule:nonzero;stroke:none;stroke-width:0.133333" />
      <path
         id="path1262"
         d="m 680.93198,371.11733 c -0.13333,-0.112 -0.28533,-0.19866 -0.456,-0.248 -0.49866,-0.14133 -1.05733,0.0973 -1.37733,0.50534 -0.31867,0.408 -0.42267,0.95466 -0.376,1.472 0.0453,0.516 0.22933,1.012 0.43733,1.48666 0.328,0.75334 1.596,2.72667 2.632,1.67734 0.416,-0.42534 0.344,-1.36 0.30934,-1.90267 -0.0467,-0.744 -0.236,-1.476 -0.55867,-2.148 -0.15067,-0.31333 -0.348,-0.62533 -0.61067,-0.84267"
         style="fill:#f57e6f;fill-opacity:1;fill-rule:nonzero;stroke:none;stroke-width:0.133333" />
      <path
         id="path1263"
         d="m 692.89732,381.36133 c 1.476,-0.93733 1.72666,-2.71333 1.708,-4.42533 -0.0107,-0.976 0.04,-2.05067 -0.30267,-2.97733 l -0.0933,-0.15334 -0.29334,-0.0133 c -1.65466,0.42533 -3.30933,0.772 -4.98666,1.09867 -0.544,0.10666 -1.09067,0.21333 -1.644,0.24666 -1.15067,0.068 -2.34667,-0.20133 -3.268,-0.89333 -1.32534,-0.996 -2.19867,-2.90133 -2.61467,-4.46267 -0.0587,-0.216 -0.15333,-0.43733 -0.33733,-0.56666 -0.184,-0.12934 -0.47467,-0.12534 -0.60134,0.0587 -0.0893,0.128 -0.08,0.29734 -0.0653,0.45067 0.25333,2.76267 0.572,5.78667 1.712,8.344 0.404,0.904 0.93867,1.76 1.62133,2.48267 0.72934,0.772 1.476,1.16533 2.48,1.46533 2.056,0.61467 4.34,0.472 6.288,-0.43867 0.14,-0.0653 0.27334,-0.13866 0.39734,-0.216"
         style="fill:#e6cdbb;fill-opacity:1;fill-rule:nonzero;stroke:none;stroke-width:0.133333" />
      <path
         id="path1264"
         d="m 691.92532,372.66667 c -0.25067,-0.47334 -0.50267,-0.94667 -0.75334,-1.42 -0.12533,-0.23467 -0.25066,-0.46934 -0.37333,-0.70534 -0.112,-0.21066 -0.22133,-0.42533 -0.26933,-0.66266 -0.024,-0.12934 -0.37334,-0.112 -0.352,0 0.088,0.444 0.35066,0.84266 0.56,1.23866 0.23466,0.44267 0.47066,0.88667 0.70666,1.33067 0.10667,0.2 0.24134,0.40533 0.312,0.62133 0.064,0.196 0.0213,0.4 -0.0867,0.57067 -0.236,0.37467 -0.69334,0.47467 -1.09334,0.564 l -0.0627,0.124 0.24,0.0333 c 0.424,-0.0973 0.88266,-0.21066 1.17066,-0.55866 0.12267,-0.148 0.212,-0.33067 0.21467,-0.524 0.005,-0.224 -0.112,-0.42134 -0.21333,-0.612"
         style="fill:#dc5153;fill-opacity:1;fill-rule:nonzero;stroke:none;stroke-width:0.133333" />
      <path
         id="path1265"
         d="m 686.06532,369.28133 c -0.204,0.0787 -0.40267,0.17067 -0.59334,0.27734 -0.29466,0.16533 -0.51333,0.36 -0.74533,0.60533 l -0.136,0.204 0.0973,0.204 0.18134,-0.0493 c 0.792,-0.472 1.576,-0.848 2.496,-0.99467 0.17333,-0.028 0.416,-0.0453 0.556,-0.16533 0.204,-0.17334 -0.056,-0.30267 -0.23867,-0.34667 -0.16,-0.0413 -0.328,-0.0307 -0.492,-0.012 -0.38533,0.044 -0.764,0.13733 -1.12533,0.27733"
         style="fill:#e6cdbb;fill-opacity:1;fill-rule:nonzero;stroke:none;stroke-width:0.133333" />
      <path
         id="path1266"
         d="m 692.78532,368.42133 c 0.18,0.0227 0.364,0.0413 0.53733,0.0947 0.092,0.028 0.504,0.24 0.26,0.37467 l -0.152,0.0173 c -0.68533,-0.052 -1.372,0.08 -2.06,0.10267 l -0.24667,-0.0507 c -0.29866,-0.228 0.32,-0.46533 0.45867,-0.49333 0.39333,-0.0827 0.80267,-0.0973 1.20267,-0.0453"
         style="fill:#e6cdbb;fill-opacity:1;fill-rule:nonzero;stroke:none;stroke-width:0.133333" />
      <path
         id="path1267"
         d="m 691.94798,370.73867 c -0.009,-0.27067 0.036,-0.60934 0.34134,-0.73867 0.148,-0.0627 0.312,-0.056 0.43733,0.0347 l 0.0867,0.0867 0.0653,0.064 c 0.13067,0.14667 0.192,0.34267 0.17467,0.53867 0.02,0.15467 -0.004,0.31067 -0.12134,0.44667 -0.10933,0.12666 -0.296,0.20666 -0.464,0.16533 l -0.11333,-0.0493 -0.27733,-0.15734 c -0.0933,-0.11066 -0.124,-0.252 -0.12934,-0.39066"
         style="fill:#3a2323;fill-opacity:1;fill-rule:nonzero;stroke:none;stroke-width:0.133333" />
      <path
         id="path1268"
         d="m 686.59998,371.54667 c 0.009,-0.27067 0.0787,-0.60534 0.39067,-0.71334 0.152,-0.052 0.31467,-0.0333 0.43467,0.0653 l 0.08,0.092 0.0613,0.068 c 0.12,0.156 0.16667,0.35733 0.13733,0.54933 0.009,0.156 -0.0253,0.30933 -0.152,0.43733 -0.11733,0.11867 -0.31066,0.188 -0.47466,0.13334 l -0.10934,-0.056 -0.26666,-0.17734 c -0.084,-0.116 -0.10534,-0.25733 -0.10134,-0.39866"
         style="fill:#3a2323;fill-opacity:1;fill-rule:nonzero;stroke:none;stroke-width:0.133333" />
      <path
         id="path1269"
         d="m 688.51332,376.19733 -0.0173,-0.34666 c 0.064,-0.236 0.34,-0.30934 0.552,-0.33867 0.36934,-0.0533 0.73734,-0.10933 1.10534,-0.16667 0.512,-0.0813 1.02266,-0.16533 1.532,-0.25333 0.37066,-0.064 0.804,-0.316 0.952,0.216 0.0507,0.184 0.0307,0.38133 -0.0187,0.56267 -0.15733,0.588 -0.59067,0.988 -1.164,1.16 -0.6,0.18266 -1.47467,0.25866 -2.06533,0.032 -0.32267,-0.124 -0.752,-0.48267 -0.876,-0.86534"
         style="fill:#f57e6f;fill-opacity:1;fill-rule:nonzero;stroke:none;stroke-width:0.133333" />
      <path
         id="path1270"
         d="m 689.56665,376.09467 -0.0773,-0.108 -0.036,-0.132 0.20533,-0.13334 c 0.72133,-0.10133 1.44133,-0.21733 2.16133,-0.34666 l 0.22267,0.005 c 0.23467,0.104 0.044,0.43333 -0.0547,0.56267 -0.21733,0.28133 -0.54533,0.45333 -0.88533,0.52 -0.276,0.0547 -0.57867,0.0387 -0.85467,-0.0133 -0.25333,-0.048 -0.51066,-0.148 -0.68133,-0.35466"
         style="fill:#ffffff;fill-opacity:1;fill-rule:nonzero;stroke:none;stroke-width:0.133333" />
      <path
         id="path1271"
         d="m 685.14798,372.816 c 0.324,-0.276 0.73334,-0.448 1.15734,-0.49067 l 0.13066,0.0413 -0.112,0.0827 c -0.368,0.0373 -0.70933,0.188 -0.99066,0.428 l -0.172,0.028 -0.0133,-0.0893"
         style="fill:#eb645a;fill-opacity:1;fill-rule:nonzero;stroke:none;stroke-width:0.133333" />
      <path
         id="path1272"
         d="m 686.15198,372.80667 0.0427,0.0387 0.0893,0.005 0.0827,-0.0333 0.068,-0.052 0.0347,-0.0227 0.016,-0.0107 0.007,-0.003 0.0653,-0.0347 0.0387,-0.0187 0.0187,-0.008 h -0.001 l 0.0733,-0.0893 -0.0613,-0.028 -0.096,0.008 c -0.12534,0.048 -0.244,0.112 -0.348,0.19866 l -0.0293,0.0493"
         style="fill:#eb645a;fill-opacity:1;fill-rule:nonzero;stroke:none;stroke-width:0.133333" />
      <path
         id="path1273"
         d="m 692.87598,371.52933 0.0493,-0.0453 c 0.14266,-0.0653 0.29466,-0.10133 0.45066,-0.11333 l 0.0773,0.0173 0.0187,0.0453 -0.132,0.0667 h -0.005 l -0.0253,0.003 -0.0413,0.007 -0.044,0.008 -0.016,0.004 -0.08,0.024 -0.0173,0.007 -0.0453,0.02 -0.0933,0.02 -0.076,-0.016 -0.02,-0.0467"
         style="fill:#eb645a;fill-opacity:1;fill-rule:nonzero;stroke:none;stroke-width:0.133333" />
      <path
         id="path1274"
         d="m 691.85465,367.004 c -0.788,-0.0867 -1.528,0.18267 -2.28,0.37333 -0.40533,0.104 -0.804,0.148 -1.22133,0.148 -0.41334,0 -0.824,0.0133 -1.23067,0.0827 -0.45467,0.0773 -0.89733,0.20667 -1.32267,0.384 v 0.128 h 0.248 c 0.46267,-0.192 0.948,-0.31867 1.444,-0.37867 0.50534,-0.06 1.01467,-0.008 1.52,-0.064 0.92,-0.10133 1.80934,-0.60133 2.74934,-0.5 l 0.216,-0.0627 -0.12267,-0.11067"
         style="fill:#eb645a;fill-opacity:1;fill-rule:nonzero;stroke:none;stroke-width:0.133333" />
      <path
         id="path1275"
         d="m 689.20265,366.396 c -0.45733,-0.024 -0.92133,0.0773 -1.32667,0.292 v 0.12667 h 0.24934 c 0.33866,-0.17734 0.70533,-0.25734 1.07733,-0.23867 l 0.176,-0.0907 -0.176,-0.0893"
         style="fill:#eb645a;fill-opacity:1;fill-rule:nonzero;stroke:none;stroke-width:0.133333" />
      <path
         id="path1276"
         d="m 686.56665,362.75467 h -0.25333 c 0.16133,0.94933 0.164,2.06533 -0.61067,2.76266 l 0.21733,0.0653 c 0.796,-0.716 0.812,-1.848 0.64667,-2.828"
         style="fill:#ffffff;fill-opacity:1;fill-rule:nonzero;stroke:none;stroke-width:0.133333" />
      <path
         id="path1277"
         d="m 684.90532,363.17333 c -0.004,0.56 -0.20534,1.112 -0.56934,1.53734 l 0.21734,0.064 c 0.38133,-0.44534 0.59866,-1.01334 0.60266,-1.60134 h -0.25066"
         style="fill:#ffffff;fill-opacity:1;fill-rule:nonzero;stroke:none;stroke-width:0.133333" />
      <path
         id="path1278"
         d="m 688.09465,361.94267 -0.15467,-0.0453 -0.0867,0.0787 c 0.32533,0.43067 0.47466,0.96933 0.41733,1.50533 h 0.252 c 0.0587,-0.54533 -0.096,-1.10266 -0.428,-1.53866"
         style="fill:#ffffff;fill-opacity:1;fill-rule:nonzero;stroke:none;stroke-width:0.133333" />
      <path
         id="path1279"
         d="m 690.80932,362.644 c -0.26267,-0.36133 -0.64667,-0.624 -1.08,-0.74133 l -0.172,0.0227 0.0453,0.0893 c 0.38533,0.104 0.72933,0.34133 0.96533,0.66533 l 0.15467,0.044 0.0867,-0.08"
         style="fill:#ffffff;fill-opacity:1;fill-rule:nonzero;stroke:none;stroke-width:0.133333" />
      <path
         id="path1280"
         d="m 677.82532,364.784 c -0.82,1.092 -1.132,2.528 -0.84134,3.86267 h 0.252 c -0.29066,-1.32667 0.0173,-2.74267 0.832,-3.82934 l -0.24266,-0.0333"
         style="fill:#ffffff;fill-opacity:1;fill-rule:nonzero;stroke:none;stroke-width:0.133333" />
      <path
         id="path1281"
         d="m 678.37198,365.85333 c -0.172,0.412 -0.24,0.86134 -0.19466,1.30534 h 0.25066 c -0.044,-0.43334 0.0187,-0.86934 0.188,-1.272 l -0.244,-0.0333"
         style="fill:#ffffff;fill-opacity:1;fill-rule:nonzero;stroke:none;stroke-width:0.133333" />
      <path
         id="path1282"
         d="m 683.76265,377.328 c -0.064,-0.19467 -0.10133,-0.39733 -0.11467,-0.60267 l -0.12533,-0.064 -0.12533,0.064 c 0.0133,0.21734 0.056,0.43067 0.12266,0.636 l 0.0587,0.0387 0.096,0.007 0.088,-0.0787"
         style="fill:#ffffff;fill-opacity:1;fill-rule:nonzero;stroke:none;stroke-width:0.133333" />
      <path
         id="path1283"
         d="m 685.61998,378.972 c -0.11066,-0.232 -0.22133,-0.46267 -0.33333,-0.69467 l -0.24267,0.0333 c 0.11067,0.232 0.22134,0.464 0.33334,0.696 l 0.24266,-0.0347"
         style="fill:#ffffff;fill-opacity:1;fill-rule:nonzero;stroke:none;stroke-width:0.133333" />
      <path
         id="path1284"
         d="m 687.36798,376.73467 c -0.0613,-0.188 -0.12133,-0.376 -0.18266,-0.56534 l -0.0573,-0.0373 -0.0973,-0.007 -0.088,0.0787 c 0.0613,0.188 0.12267,0.37733 0.184,0.564 l 0.0573,0.0387 0.0973,0.007 0.0867,-0.0787"
         style="fill:#ffffff;fill-opacity:1;fill-rule:nonzero;stroke:none;stroke-width:0.133333" />
      <path
         id="path1285"
         d="m 685.51465,376.29867 -0.12933,-0.38534 -0.0573,-0.04 -0.0973,-0.007 -0.088,0.08 0.128,0.38533 0.0587,0.0387 0.096,0.007 0.0893,-0.0787"
         style="fill:#ffffff;fill-opacity:1;fill-rule:nonzero;stroke:none;stroke-width:0.133333" />
      <path
         id="path1286"
         d="m 682.42798,373.984 -0.0973,-0.25467 -0.0253,-0.11466 -0.124,-0.064 -0.0907,0.0187 -0.036,0.0453 c 0.024,0.14 0.0667,0.27733 0.13067,0.404 l 0.0587,0.0387 0.096,0.007 0.088,-0.08"
         style="fill:#ffffff;fill-opacity:1;fill-rule:nonzero;stroke:none;stroke-width:0.133333" />
      <path
         id="path1287"
         d="m 684.05065,379.92267 c -0.088,-0.19067 -0.164,-0.39067 -0.22667,-0.592 l -0.0573,-0.0387 -0.0973,-0.007 -0.0867,0.0787 c 0.06,0.204 0.136,0.40133 0.224,0.59467 l 0.244,-0.036"
         style="fill:#ffffff;fill-opacity:1;fill-rule:nonzero;stroke:none;stroke-width:0.133333" />
      <path
         id="path1288"
         d="m 682.37732,376.52933 c -0.06,-0.14533 -0.12,-0.29066 -0.18,-0.43733 l -0.0587,-0.0373 -0.096,-0.007 -0.088,0.0787 c 0.06,0.14533 0.12,0.29066 0.18,0.43733 l 0.0573,0.0387 0.0973,0.007 0.088,-0.08"
         style="fill:#ffffff;fill-opacity:1;fill-rule:nonzero;stroke:none;stroke-width:0.133333" />
      <path
         id="path1289"
         d="m 694.07865,374.42 -0.244,0.036 c 0.0867,0.22533 0.13867,0.46133 0.15733,0.70133 l 0.12667,0.064 0.12667,-0.064 c -0.02,-0.252 -0.0773,-0.5 -0.16667,-0.73733"
         style="fill:#ffffff;fill-opacity:1;fill-rule:nonzero;stroke:none;stroke-width:0.133333" />
      <path
         id="path1290"
         d="m 693.27598,377.08667 -0.12666,-0.0627 -0.124,0.0627 c 0.036,0.24 0.0733,0.48 0.11066,0.71866 l 0.12534,0.0653 0.12666,-0.0653 c -0.0373,-0.23866 -0.0747,-0.47866 -0.112,-0.71866"
         style="fill:#ffffff;fill-opacity:1;fill-rule:nonzero;stroke:none;stroke-width:0.133333" />
      <path
         id="path1291"
         d="m 690.64398,378.16533 -0.12533,-0.064 -0.0893,0.0187 -0.0373,0.0453 c 0.032,0.172 0.0653,0.344 0.0973,0.516 l 0.12533,0.064 0.0893,-0.0187 0.0373,-0.0453 c -0.0333,-0.172 -0.0653,-0.344 -0.0973,-0.516"
         style="fill:#ffffff;fill-opacity:1;fill-rule:nonzero;stroke:none;stroke-width:0.133333" />
      <path
         id="path1292"
         d="m 687.80532,378.372 -0.124,-0.064 -0.0907,0.0187 -0.036,0.0453 c 0.0453,0.18 0.0907,0.36 0.13733,0.54 l 0.124,0.0627 0.0907,-0.0187 0.036,-0.044 c -0.0453,-0.18 -0.0907,-0.36 -0.13733,-0.54"
         style="fill:#ffffff;fill-opacity:1;fill-rule:nonzero;stroke:none;stroke-width:0.133333" />
      <path
         id="path1293"
         d="m 686.98798,380.796 c -0.0693,-0.17733 -0.12133,-0.36 -0.15733,-0.54533 l -0.12533,-0.0653 -0.0893,0.0187 -0.036,0.0467 c 0.0373,0.19733 0.0933,0.39066 0.16534,0.57866 l 0.0587,0.0387 0.096,0.007 0.088,-0.0787"
         style="fill:#ffffff;fill-opacity:1;fill-rule:nonzero;stroke:none;stroke-width:0.133333" />
      <path
         id="path1294"
         d="m 685.43865,380.95333 c -0.0693,-0.12933 -0.13733,-0.25733 -0.20667,-0.38533 l -0.0587,-0.0387 -0.096,-0.005 -0.0893,0.0773 c 0.0693,0.12934 0.13867,0.25734 0.20667,0.38534 l 0.0587,0.0387 0.0973,0.005 0.088,-0.0773"
         style="fill:#ffffff;fill-opacity:1;fill-rule:nonzero;stroke:none;stroke-width:0.133333" />
      <path
         id="path1295"
         d="m 689.37598,380.256 -0.0587,-0.0373 -0.096,-0.007 -0.088,0.08 c 0.0707,0.16533 0.10266,0.344 0.096,0.52267 l 0.036,0.0467 0.0893,0.0173 0.12533,-0.064 c 0.008,-0.19067 -0.0293,-0.38267 -0.104,-0.55867"
         style="fill:#ffffff;fill-opacity:1;fill-rule:nonzero;stroke:none;stroke-width:0.133333" />
      <path
         id="path1296"
         d="m 688.31332,381.984 c -0.0933,-0.15467 -0.18534,-0.30933 -0.28,-0.464 l -0.15467,-0.0453 -0.088,0.08 c 0.0933,0.15333 0.18667,0.308 0.28133,0.464 l 0.15467,0.0453 0.0867,-0.08"
         style="fill:#ffffff;fill-opacity:1;fill-rule:nonzero;stroke:none;stroke-width:0.133333" />
      <path
         id="path1297"
         d="m 692.28265,379.02267 c -0.0667,-0.236 -0.10133,-0.48267 -0.10533,-0.728 l -0.12534,-0.064 -0.12666,0.064 c 0.004,0.25866 0.044,0.51333 0.11466,0.76266 l 0.0573,0.0373 0.0973,0.007 0.088,-0.0787"
         style="fill:#ffffff;fill-opacity:1;fill-rule:nonzero;stroke:none;stroke-width:0.133333" />
      <path
         id="path1298"
         d="m 691.11865,380.23467 -0.0573,-0.04 -0.096,-0.005 -0.0893,0.0787 c 0.076,0.17467 0.12934,0.35867 0.16134,0.54533 l 0.12533,0.064 0.0893,-0.0173 0.0373,-0.0467 c -0.0347,-0.19866 -0.0907,-0.39466 -0.17067,-0.57866"
         style="fill:#ffffff;fill-opacity:1;fill-rule:nonzero;stroke:none;stroke-width:0.133333" />
      <path
         id="path1299"
         d="m 693.72265,379.272 -0.12667,-0.064 -0.124,0.064 c 0.012,0.18933 0.003,0.37867 -0.0267,0.56533 l 0.036,0.0453 0.0907,0.02 0.124,-0.0653 c 0.032,-0.18666 0.04,-0.376 0.0267,-0.56533"
         style="fill:#ffffff;fill-opacity:1;fill-rule:nonzero;stroke:none;stroke-width:0.133333" />
      <path
         id="path1300"
         d="m 692.67598,380.376 -0.12666,-0.064 -0.088,0.02 -0.0387,0.044 c 0.0267,0.14533 0.0333,0.292 0.02,0.43867 l 0.036,0.0467 0.0893,0.0173 0.12667,-0.064 c 0.012,-0.14667 0.005,-0.29334 -0.0187,-0.43867"
         style="fill:#ffffff;fill-opacity:1;fill-rule:nonzero;stroke:none;stroke-width:0.133333" />
      <path
         id="path1301"
         d="m 689.29732,377.368 -0.0373,-0.0453 -0.088,-0.0187 -0.0893,0.0187 -0.0373,0.0453 0.068,0.32667 0.0373,0.0453 0.0893,0.0173 0.088,-0.0173 0.0373,-0.0453 -0.068,-0.32667"
         style="fill:#ffffff;fill-opacity:1;fill-rule:nonzero;stroke:none;stroke-width:0.133333" />
      <path
         id="path1302"
         d="m 683.90532,375.27733 c -0.052,-0.14266 -0.10267,-0.28533 -0.15467,-0.428 l -0.0587,-0.0387 -0.0973,-0.005 -0.088,0.0787 c 0.052,0.14267 0.104,0.28533 0.156,0.42667 l 0.0573,0.04 0.0973,0.007 0.088,-0.08"
         style="fill:#ffffff;fill-opacity:1;fill-rule:nonzero;stroke:none;stroke-width:0.133333" />
      <path
         id="path1303"
         d="m 680.88532,426.4052 c 0.164,0.24427 0.324,0.4932 0.47466,0.74533 0.14934,0.25107 -0.152,0.3692 -0.24533,0.57494 -0.0747,0.16253 -0.048,0.30373 -0.068,0.47866 -0.056,0.5224 -0.29333,0.96934 -0.668,1.33854 -0.38,0.37346 -0.85067,0.64013 -1.31333,0.90106 -0.26134,0.14694 -0.49867,0.24174 -0.792,0.29374 -0.15067,0.0251 -0.46,0.1156 -0.616,0.10373 l -0.272,-0.13333 c -1.11067,-0.82667 -2.19734,-1.68547 -3.26,-2.57294 -1.48667,-1.2428 -2.94934,-2.56986 -3.956,-4.2256 -0.18667,-0.30826 -0.36134,-0.64266 -0.35734,-1 0.004,-0.42906 0.26134,-0.812 0.54267,-1.1348 0.58,-0.6652 1.31467,-1.19426 2.12533,-1.54533 0.73734,-0.3172 1.87734,-0.72133 2.67867,-0.5308 0.68267,0.16307 1.164,0.75213 1.59467,1.30573 0.904,1.16254 1.808,2.32654 2.712,3.48907 0.48666,0.62653 0.97466,1.25627 1.42,1.912"
         style="fill:#f57e6f;fill-opacity:1;fill-rule:nonzero;stroke:none;stroke-width:0.133333" />
      <path
         id="path1304"
         d="m 670.78398,389.48 c 2.24534,5.68667 1.41734,12.18827 1.092,18.12787 -0.0133,0.23906 -0.0227,0.48426 0.0693,0.70413 0.10666,0.25307 0.33466,0.43067 0.504,0.64533 0.796,1.012 0.15866,2.49734 0.392,3.76147 0.13333,0.73067 0.56,1.3676 0.97466,1.98387 0.74534,1.10413 6.676,8.39213 5.42,9.5228 -1.94133,1.74533 -4.252,3.07866 -6.73466,3.88386 -0.312,0.10107 -0.64,0.19587 -0.964,0.1428 -0.23734,-0.0401 -0.45467,-0.15626 -0.668,-0.27093 -0.76267,-0.4104 -1.52534,-0.82387 -2.288,-1.23427 -0.752,-0.40573 -1.50934,-0.81626 -2.15867,-1.37093 -0.78667,-0.67187 -1.39733,-1.54427 -2.24,-2.14787 -1.28933,-0.924 -3.10267,-1.22293 -3.93467,-2.57506 -0.50533,-0.81974 -0.51333,-1.84374 -0.78133,-2.7692 -0.31333,-1.07707 -0.97333,-2.01454 -1.45867,-3.024 -0.67466,-1.40107 -0.448,-2.40934 -0.27866,-3.84107 0.22133,-1.86307 -0.024,-3.7 0.124,-5.53333 0.16666,-2.06667 0.46933,-4.1308 0.83733,-6.16947 0.73467,-4.08133 1.83733,-8.10133 3.37867,-11.95333 0.37066,-0.92934 0.78,-1.868 1.45333,-2.61067 0.672,-0.74133 1.66267,-1.264 2.656,-1.136 1.26533,0.16133 2.172,1.27867 2.84667,2.36133 0.70933,1.14 1.28666,2.30934 1.75866,3.50267"
         style="fill:#f9a859;fill-opacity:1;fill-rule:nonzero;stroke:none;stroke-width:0.133333" />
      <path
         id="path1305"
         d="m 686.65598,430.08547 0.0373,0.009 c 0.35333,0.0943 0.848,0.424 0.752,0.86147 -0.0747,0.33693 -0.564,0.50253 -0.85734,0.55573 -0.37333,0.0708 -0.74666,0.13587 -1.12,0.2 -0.37066,0.064 -0.74533,0.12547 -1.11733,0.0776 -0.41467,-0.0547 -0.79867,-0.24427 -1.15733,-0.45787 -0.58267,-0.34533 -1.12667,-0.7692 -1.53334,-1.30933 -0.29733,-0.39427 -0.48266,-0.95987 -0.58533,-1.43693 -0.0467,-0.2084 -0.12533,-0.5428 -0.0133,-0.73854 0.364,-0.6376 1.156,-0.2912 1.6,0.0104 0.372,0.25307 0.74666,0.5052 1.10133,0.7828 0.65467,0.50934 1.28533,1.1172 2.09467,1.3068 0.26266,0.0609 0.536,0.0744 0.79866,0.13854"
         style="fill:#f57e6f;fill-opacity:1;fill-rule:nonzero;stroke:none;stroke-width:0.133333" />
      <path
         id="path1306"
         d="m 675.37065,436.4016 c 0.41867,0 0.756,-0.33907 0.756,-0.75627 0,-1.47346 1.19867,-2.67186 2.672,-2.67186 h 6.44133 c 1.472,0 2.672,1.1984 2.672,2.67186 v 74.57347 h 1.50934 v -74.57347 c 0,-2.3052 -1.876,-4.18133 -4.18134,-4.18133 h -6.44133 c -2.30667,0 -4.18267,1.87613 -4.18267,4.18133 0,0.4172 0.33867,0.75627 0.75467,0.75627"
         style="fill:#82423e;fill-opacity:1;fill-rule:nonzero;stroke:none;stroke-width:0.133333" />
      <path
         id="path1307"
         d="m 684.35465,430.4224 c -0.24,-0.35307 -0.492,-0.7 -0.75333,-1.03693 -0.428,-0.55054 -0.896,-1.2308 -1.45334,-1.65627 -0.42,-0.3224 -1.036,-0.77613 -1.59333,-0.7224 -0.796,0.076 -1.51867,0.5104 -2.26,0.7948 -0.26267,0.0984 -0.53733,0.2088 -0.704,0.43333 -0.476,0.63854 -0.43467,1.65414 -0.35733,2.4088 0.096,0.9308 0.36,1.83334 0.63066,2.72454 0.14534,0.47186 0.296,0.9572 0.61467,1.33333 0.19467,0.22907 0.44533,0.4088 0.724,0.51813 0.48133,0.18814 0.66267,0.0819 1.04267,-0.22386 0.40666,0.23226 0.84266,0.4724 1.31066,0.452 0.46934,-0.0187 0.95467,-0.41187 0.888,-0.876 0.33067,0.19213 0.74,0.27866 1.1,0.1536 0.36134,-0.12547 0.64534,-0.49734 0.59467,-0.876 0.39733,0.17973 1.02667,0.44266 1.464,0.30106 0.47867,-0.15213 0.496,-0.56506 0.31067,-0.96933 -0.444,-0.95987 -0.96667,-1.8828 -1.55867,-2.7588"
         style="fill:#f57e6f;fill-opacity:1;fill-rule:nonzero;stroke:none;stroke-width:0.133333" />
      <path
         id="path1308"
         d="m 680.21065,434.73067 c -0.27467,-0.22027 -0.5,-0.49054 -0.66533,-0.80147 l -0.24134,0.0348 c 0.16934,0.31987 0.40534,0.60533 0.68934,0.8308 l 0.172,0.0224 0.0453,-0.0865"
         style="fill:#dc5153;fill-opacity:1;fill-rule:nonzero;stroke:none;stroke-width:0.133333" />
      <path
         id="path1309"
         d="m 682.26132,434.32547 -0.16,-0.10827 -0.15734,-0.1344 -0.25733,-0.30933 -0.156,-0.0453 -0.088,0.0787 c 0.16533,0.24893 0.384,0.45573 0.64133,0.60933 h 0.17734 v -0.0907"
         style="fill:#dc5153;fill-opacity:1;fill-rule:nonzero;stroke:none;stroke-width:0.133333" />
      <path
         id="path1310"
         d="m 683.96932,433.66507 c -0.248,-0.16094 -0.456,-0.39427 -0.596,-0.65827 l -0.24267,0.0333 c 0.15467,0.2932 0.384,0.53694 0.66,0.7156 h 0.17867 v -0.0907"
         style="fill:#dc5153;fill-opacity:1;fill-rule:nonzero;stroke:none;stroke-width:0.133333" />
      <path
         id="path1311"
         d="m 684.95465,431.14693 c -0.324,-0.45106 -0.72133,-0.84533 -1.176,-1.16573 l -0.17333,-0.0224 -0.044,0.0865 c 0.444,0.31347 0.83466,0.69587 1.15066,1.13587 l 0.15467,0.0453 0.088,-0.0796"
         style="fill:#dc5153;fill-opacity:1;fill-rule:nonzero;stroke:none;stroke-width:0.133333" />
      <path
         id="path1312"
         d="m 677.58932,429.10267 -0.15467,0.0443 c -0.22,0.33694 -0.32267,0.7452 -0.29067,1.14627 h 0.252 c -0.032,-0.3916 0.0667,-0.7812 0.28267,-1.1104 l -0.0893,-0.0801"
         style="fill:#dc5153;fill-opacity:1;fill-rule:nonzero;stroke:none;stroke-width:0.133333" />
      <path
         id="path1313"
         d="m 677.98398,422.08907 -0.24,-0.0317 c -2.6,0.74947 -5.14533,1.68387 -7.612,2.7932 -0.7,0.31347 -1.39066,0.64267 -2.07733,0.9844 v 0.1276 h 0.25067 c 2.404,-1.2 4.89333,-2.2292 7.44533,-3.07706 0.71867,-0.23854 1.444,-0.46414 2.17067,-0.67347 l 0.0627,-0.12293"
         style="fill:#f18349;fill-opacity:1;fill-rule:nonzero;stroke:none;stroke-width:0.133333" />
      <path
         id="path1314"
         d="m 671.21865,408.14787 c -1.6,-0.3864 -3.23467,-0.61867 -4.87867,-0.68907 l -0.176,0.0891 0.176,0.0907 c 1.58267,0.0683 3.16,0.29214 4.7,0.6656 l 0.24134,-0.0323 -0.0627,-0.124"
         style="fill:#f18349;fill-opacity:1;fill-rule:nonzero;stroke:none;stroke-width:0.133333" />
      <path
         id="path1315"
         d="m 668.15998,400.22813 c -1.05866,-2.29346 -2.08,-4.6028 -3.064,-6.92946 -0.276,-0.65467 -0.54933,-1.30934 -0.82,-1.96534 -0.0453,-0.10933 -0.39333,-0.0813 -0.34,0.048 0.96267,2.33467 1.96267,4.65334 3,6.95734 0.292,0.64666 0.58667,1.29333 0.884,1.93733 0.0493,0.10787 0.39734,0.0761 0.34,-0.0479"
         style="fill:#f18349;fill-opacity:1;fill-rule:nonzero;stroke:none;stroke-width:0.133333" />
      <path
         id="path1316"
         d="m 671.99465,412.60787 c -1.18533,-0.50947 -2.36267,-1.04387 -3.56933,-1.50267 -1.14134,-0.43333 -2.34134,-0.7828 -3.56934,-0.824 -0.55733,-0.0187 -1.132,0.0349 -1.66133,0.2256 -0.41067,0.14787 -1.088,0.43173 -1.024,0.97187 0.06,0.50773 0.56533,0.8172 1.00933,0.95573 0.53867,0.16973 1.11467,0.15107 1.67467,0.15773 1.42,0.0157 2.74533,0.48654 4.06267,0.97454 l 0.24133,-0.0317 -0.064,-0.12293 c -1.09867,-0.40787 -2.216,-0.8188 -3.388,-0.95053 -0.53867,-0.0615 -1.07867,-0.0333 -1.62,-0.0631 -0.484,-0.0276 -1.05333,-0.12493 -1.37867,-0.52387 -0.13733,-0.16773 -0.24,-0.40373 -0.164,-0.6224 0.0893,-0.248 0.37467,-0.38813 0.596,-0.49333 0.468,-0.22133 0.992,-0.29893 1.504,-0.3 1.14267,-0.004 2.27467,0.31573 3.34,0.70373 1.276,0.4656 2.51467,1.03587 3.76267,1.57347 h 0.248 v -0.12813"
         style="fill:#f18349;fill-opacity:1;fill-rule:nonzero;stroke:none;stroke-width:0.133333" />
      <path
         id="path1317"
         d="m 672.36932,422.63853 c -2.14267,-0.4172 -4.328,-0.61973 -6.51067,-0.6036 -0.62,0.004 -1.24,0.0265 -1.85733,0.0661 l -0.17734,0.0911 0.17734,0.0891 c 2.156,-0.13853 4.324,-0.0624 6.46666,0.2308 0.60534,0.0828 1.208,0.1828 1.808,0.2984 l 0.216,-0.0609 -0.12266,-0.11094"
         style="fill:#f18349;fill-opacity:1;fill-rule:nonzero;stroke:none;stroke-width:0.133333" />
      <path
         id="path1318"
         d="m 676.17198,419.20413 c -0.86933,-0.56813 -1.84666,-0.95106 -2.868,-1.1348 l -0.21733,0.064 0.12267,0.10934 c 0.96933,0.17453 1.89066,0.55053 2.712,1.088 0.0987,0.0641 0.41733,-0.0171 0.25066,-0.12654"
         style="fill:#f18349;fill-opacity:1;fill-rule:nonzero;stroke:none;stroke-width:0.133333" />
    </g>
  </g>
</svg>
