<?xml version="1.0" encoding="UTF-8" standalone="no"?>
<!-- Generator: Adobe Illustrator 27.5.0, SVG Export Plug-In . SVG Version: 6.00 Build 0)  -->

<svg
   version="1.1"
   id="Слой_1"
   x="0px"
   y="0px"
   viewBox="0 0 1885.8673 1831.1122"
   xml:space="preserve"
   sodipodi:docname="service-2.svg"
   width="1885.8673"
   height="1831.1122"
   inkscape:version="1.3.1 (91b66b0783, 2023-11-16, custom)"
   xmlns:inkscape="http://www.inkscape.org/namespaces/inkscape"
   xmlns:sodipodi="http://sodipodi.sourceforge.net/DTD/sodipodi-0.dtd"
   xmlns="http://www.w3.org/2000/svg"
   xmlns:svg="http://www.w3.org/2000/svg"><defs
   id="defs250">
	
	

		
		
		
		
		
		
		
		
		
		
		
		
		
		
		
		
		
	</defs><sodipodi:namedview
   id="namedview250"
   pagecolor="#ffffff"
   bordercolor="#666666"
   borderopacity="1.0"
   inkscape:showpageshadow="2"
   inkscape:pageopacity="0.0"
   inkscape:pagecheckerboard="0"
   inkscape:deskcolor="#d1d1d1"
   showgrid="false"
   inkscape:zoom="0.38593916"
   inkscape:cx="941.85831"
   inkscape:cy="897.80991"
   inkscape:window-width="1916"
   inkscape:window-height="1019"
   inkscape:window-x="0"
   inkscape:window-y="0"
   inkscape:window-maximized="1"
   inkscape:current-layer="Слой_1" />
<g
   id="g9"
   transform="translate(-589.69085,-100.205)">
			<defs
   id="defs1">
				<filter
   id="Adobe_OpacityMaskFilter"
   filterUnits="userSpaceOnUse"
   x="1391.787"
   y="107.16"
   width="773.08801"
   height="1086.223">
					<feFlood
   result="back"
   id="feFlood1" />
					<feBlend
   in="SourceGraphic"
   in2="back"
   mode="normal"
   id="feBlend1" />
				</filter>
			</defs>
			<mask
   maskUnits="userSpaceOnUse"
   x="1391.787"
   y="107.16"
   width="773.088"
   height="1086.223"
   id="mask3">
				<g
   style="filter:url(#Adobe_OpacityMaskFilter)"
   id="g3">
					<defs
   id="defs2">
						
							<filter
   id="Adobe_OpacityMaskFilter_00000174591321672120708280000010875722869080276902_"
   filterUnits="userSpaceOnUse"
   x="1391.787"
   y="107.16"
   width="773.08801"
   height="1086.223">
							<feFlood
   result="back"
   id="feFlood2" />
							<feBlend
   in="SourceGraphic"
   in2="back"
   mode="normal"
   id="feBlend2" />
						</filter>
					</defs>
					<mask
   maskUnits="userSpaceOnUse"
   x="1391.787"
   y="107.16"
   width="773.088"
   height="1086.223"
   id="SVGID_1_">
						<g
   style="filter:url(#Adobe_OpacityMaskFilter_00000174591321672120708280000010875722869080276902_)"
   id="g2">
						</g>
					</mask>
					
						<linearGradient
   id="SVGID_00000040537224907195646540000014942209177843467424_"
   gradientUnits="userSpaceOnUse"
   x1="1613.5962"
   y1="314.54379"
   x2="2292.4199"
   y2="1642.0184">
						<stop
   offset="0"
   style="stop-color:#FFFFFF"
   id="stop2" />
						<stop
   offset="1"
   style="stop-color:#000000"
   id="stop3" />
					</linearGradient>
					<polygon
   style="fill:url(#SVGID_00000040537224907195646540000014942209177843467424_)"
   points="1953.268,178.877 1415.056,1014.654 1436.923,1028.738 1391.787,1098.828 1538.617,1193.383 1583.754,1123.29 1605.621,1137.373 2143.834,301.596 2121.967,287.514 2148.242,246.71 2127.155,233.13 2164.875,174.555 2060.221,107.16 2022.5,165.736 2001.413,152.156 1975.137,192.96 "
   mask="url(#SVGID_1_)"
   id="polygon3" />
				</g>
			</mask>
			
				<linearGradient
   id="SVGID_00000136390288766588607220000008322717722359530377_"
   gradientUnits="userSpaceOnUse"
   x1="1613.5962"
   y1="314.54379"
   x2="2292.4199"
   y2="1642.0184">
				<stop
   offset="0"
   style="stop-color:#40D5E6"
   id="stop4" />
				<stop
   offset="1"
   style="stop-color:#5577FF"
   id="stop5" />
			</linearGradient>
			<polygon
   style="fill:url(#SVGID_00000136390288766588607220000008322717722359530377_)"
   points="1953.268,178.877 1415.056,1014.654 1436.923,1028.738 1391.787,1098.828 1538.617,1193.383 1583.754,1123.29 1605.621,1137.373 2143.834,301.596 2121.967,287.514 2148.242,246.71 2127.155,233.13 2164.875,174.555 2060.221,107.16 2022.5,165.736 2001.413,152.156 1975.137,192.96 "
   id="polygon5" />
			<defs
   id="defs5">
				
					<filter
   id="Adobe_OpacityMaskFilter_00000044885976442251435800000000311043685879279244_"
   filterUnits="userSpaceOnUse"
   x="1321.45"
   y="791.06598"
   width="816.40802"
   height="1101.754">
					<feFlood
   result="back"
   id="feFlood5" />
					<feBlend
   in="SourceGraphic"
   in2="back"
   mode="normal"
   id="feBlend5" />
				</filter>
			</defs>
			
				<mask
   maskUnits="userSpaceOnUse"
   x="1321.45"
   y="791.066"
   width="816.408"
   height="1101.754"
   id="mask7">
				<g
   style="filter:url(#Adobe_OpacityMaskFilter_00000044885976442251435800000000311043685879279244_)"
   id="g7">
					<defs
   id="defs6">
						
							<filter
   id="Adobe_OpacityMaskFilter_00000057127419000978414910000017401313541118084005_"
   filterUnits="userSpaceOnUse"
   x="1321.45"
   y="791.06598"
   width="816.40802"
   height="1101.754">
							<feFlood
   result="back"
   id="feFlood6" />
							<feBlend
   in="SourceGraphic"
   in2="back"
   mode="normal"
   id="feBlend6" />
						</filter>
					</defs>
					
						<mask
   maskUnits="userSpaceOnUse"
   x="1321.45"
   y="791.066"
   width="816.408"
   height="1101.754"
   id="SVGID_00000034774301263811390550000002966276339794125746_">
						<g
   style="filter:url(#Adobe_OpacityMaskFilter_00000057127419000978414910000017401313541118084005_)"
   id="g6">
						</g>
					</mask>
					
						<linearGradient
   id="SVGID_00000154412926509591421950000001839839209180532670_"
   gradientUnits="userSpaceOnUse"
   x1="1210.5479"
   y1="520.64478"
   x2="1889.3749"
   y2="1848.1259">
						<stop
   offset="0"
   style="stop-color:#FFFFFF"
   id="stop6" />
						<stop
   offset="1"
   style="stop-color:#000000"
   id="stop7" />
					</linearGradient>
					
						<path
   style="fill:url(#SVGID_00000154412926509591421950000001839839209180532670_)"
   d="m 1869.385,1463.215 -3.317,0.533 c 71.499,-66.09 115.498,-140.785 131.31,-223.572 44.301,-231.936 -160.355,-440.656 -168.746,-449.109 l -54.051,83.936 c 1.684,1.705 161.652,164.918 126.902,346.861 -21.703,113.621 -118.951,211.031 -289.098,289.791 l -60.381,-31.623 11.611,-22.172 -229.901,-120.402 -12.265,23.416 119.015,62.33 -55.965,106.861 227.189,118.982 -35.186,106.813 h -176.949 v 136.961 h 738.302 V 1755.86 h -268.473 v -292.645 z"
   mask="url(#SVGID_00000034774301263811390550000002966276339794125746_)"
   id="path7" />
				</g>
			</mask>
			
				<linearGradient
   id="SVGID_00000057115328205555318870000013421577683882898619_"
   gradientUnits="userSpaceOnUse"
   x1="1210.5479"
   y1="520.64478"
   x2="1889.3749"
   y2="1848.1259">
				<stop
   offset="0"
   style="stop-color:#40D5E6"
   id="stop8" />
				<stop
   offset="1"
   style="stop-color:#5577FF"
   id="stop9" />
			</linearGradient>
			<path
   style="fill:url(#SVGID_00000057115328205555318870000013421577683882898619_)"
   d="m 1869.385,1463.215 -3.317,0.533 c 71.499,-66.09 115.498,-140.785 131.31,-223.572 44.301,-231.936 -160.355,-440.656 -168.746,-449.109 l -54.051,83.936 c 1.684,1.705 161.652,164.918 126.902,346.861 -21.703,113.621 -118.951,211.031 -289.098,289.791 l -60.381,-31.623 11.611,-22.172 -229.901,-120.402 -12.265,23.416 119.015,62.33 -55.965,106.861 227.189,118.982 -35.186,106.813 h -176.949 v 136.961 h 738.302 V 1755.86 h -268.473 v -292.645 z"
   id="path9" />
		</g><g
   id="g18"
   transform="translate(-589.69085,-100.205)">
			<g
   id="g11">
				<g
   id="g10">
					<path
   style="fill:#40d5e6"
   d="m 2373.195,575.15 c -53.081,-8.211 -103.43,19.469 -126.369,64.981 -5.555,11.017 -9.501,23.08 -11.491,35.938 -6.022,38.945 7.273,76.427 32.757,102.682 17.661,18.196 41.174,31.003 68.167,35.178 2.683,0.417 5.37,0.741 8.038,0.976 12.099,1.059 23.982,0.281 35.363,-2.125 47.743,-10.07 86.559,-48.696 94.462,-99.771 10.196,-65.939 -34.988,-127.657 -100.927,-137.859 z m 71.043,133.237 c -5.922,38.294 -35.024,67.25 -70.816,74.804 -8.531,1.8 -17.444,2.386 -26.515,1.589 -2.003,-0.176 -4.015,-0.418 -6.029,-0.729 -20.236,-3.13 -37.864,-12.733 -51.103,-26.374 -19.109,-19.686 -29.08,-47.785 -24.561,-76.982 1.49,-9.639 4.451,-18.684 8.611,-26.946 17.192,-34.12 54.945,-54.876 94.744,-48.722 49.44,7.647 83.315,53.922 75.669,103.36 z"
   id="path10" />
				</g>
			</g>
			<g
   id="g13">
				<g
   id="g12">
					<path
   style="fill:#1a598c"
   d="m 2289.775,757.676 -21.684,21.075 c -25.483,-26.255 -38.779,-63.736 -32.757,-102.682 1.99,-12.858 5.937,-24.921 11.491,-35.938 l 27,13.616 c -4.16,8.263 -7.121,17.308 -8.611,26.946 -4.519,29.198 5.452,57.296 24.561,76.983 z"
   id="path11" />
				</g>
			</g>
			<g
   id="g15">
				<g
   id="g14">
					<path
   style="fill:#2273b5"
   d="m 2346.907,784.779 -2.61,30.125 c -2.668,-0.234 -5.355,-0.559 -8.038,-0.976 -26.993,-4.175 -50.506,-16.981 -68.167,-35.178 l 21.684,-21.075 c 13.238,13.641 30.866,23.244 51.103,26.374 2.014,0.312 4.025,0.555 6.028,0.73 z"
   id="path13" />
				</g>
			</g>
			<g
   id="g17">
				<g
   id="g16">
					<path
   style="fill:#3788cc"
   d="m 2379.66,812.779 c -11.381,2.406 -23.265,3.184 -35.363,2.125 l 2.61,-30.125 c 9.07,0.797 17.983,0.211 26.515,-1.589 z"
   id="path15" />
				</g>
			</g>
		</g><rect
   x="1666.1251"
   y="772.57397"
   style="fill:#3788cc"
   width="148.11501"
   height="18.636999"
   id="rect18" /><rect
   x="1666.1251"
   y="812.18799"
   style="fill:#3788cc"
   width="171.563"
   height="18.636999"
   id="rect19" /><g
   id="g30"
   transform="translate(-589.69085,-100.205)">
			
				<linearGradient
   id="SVGID_00000008831331265641218990000010306570613689736857_"
   gradientUnits="userSpaceOnUse"
   x1="589.69098"
   y1="1503.0762"
   x2="834.19269"
   y2="1503.0762">
				<stop
   offset="0"
   style="stop-color:#40D5E6"
   id="stop19" />
				<stop
   offset="1"
   style="stop-color:#5577FF"
   id="stop20" />
			</linearGradient>
			<path
   style="fill:url(#SVGID_00000008831331265641218990000010306570613689736857_)"
   d="m 611.054,1179.992 c 21.082,-10.084 42.065,57.032 42.065,57.032 35.833,47.352 85.912,-15.642 81.015,55.142 -8.569,123.859 142.566,38.949 72.841,168.262 -69.725,129.312 61.566,73.117 18.236,177.385 -43.331,104.269 12.832,228.629 -52.366,177.524 0,0 -57.407,-125.888 -116.61,-164.837 -59.203,-38.949 35.468,-85.164 16.945,-138.064 -26.905,-76.838 -91.728,-73.82 -44.988,-156.393 46.739,-82.572 -88.805,-141.775 -17.138,-176.051 z"
   id="path20" />
			<g
   id="g21">
				<path
   style="fill:#ffffff"
   d="m 793.49,1767.961 c -28.26,-19.875 -61.335,-158.379 -63.308,-240.875 -1.011,-42.257 -13.502,-59.862 -24.522,-75.395 -10.535,-14.848 -19.633,-27.671 -14.333,-57.113 10.128,-56.267 -16.5,-80.555 -16.771,-80.793 l 3.082,-3.514 c 1.186,1.037 28.917,26.088 18.289,85.135 -4.952,27.511 3.211,39.016 13.544,53.58 10.844,15.283 24.339,34.303 25.383,77.988 2.118,88.533 35.932,219.305 61.324,237.163 z"
   id="path21" />
			</g>
			<g
   id="g22">
				
					<linearGradient
   id="SVGID_00000123426825266241755210000002765572307671573140_"
   gradientUnits="userSpaceOnUse"
   x1="769.05267"
   y1="1639.5095"
   x2="990.15918"
   y2="1639.5095">
					<stop
   offset="0"
   style="stop-color:#40D5E6"
   id="stop21" />
					<stop
   offset="1"
   style="stop-color:#5577FF"
   id="stop22" />
				</linearGradient>
				<path
   style="fill:url(#SVGID_00000123426825266241755210000002765572307671573140_)"
   d="m 804.065,1778.227 c -3.646,0 -7.609,-0.418 -11.95,-1.296 -10.892,-2.201 -18.033,-7.948 -21.227,-17.08 -7.619,-21.787 10.032,-57.181 24.359,-74.241 0.237,-0.285 24.217,-29.59 21.659,-70.211 -0.429,-6.809 -1.135,-13.11 -1.758,-18.671 -1.802,-16.075 -3.103,-27.69 3.801,-35.447 6.084,-6.837 17.831,-9.798 39.277,-9.897 37.611,-0.178 52.482,-15.748 64.431,-28.262 5.075,-5.314 9.868,-10.332 15.691,-13.513 v 0 c 18.744,-10.231 38.597,-11.736 47.208,-3.575 4.089,3.877 7.542,11.469 0.768,25.63 -6.19,12.94 -14.22,21.134 -20.672,27.718 -8.68,8.857 -14.416,14.709 -11.43,26.371 0.701,2.738 1.509,5.503 2.32,8.277 5.798,19.832 12.37,42.309 -21.57,57.563 -7.203,3.236 -13.765,5.813 -19.555,8.084 -23.692,9.298 -37.994,14.911 -54.138,48.99 -3.125,6.596 -5.884,12.848 -8.552,18.895 -12.727,28.846 -22.359,50.663 -48.662,50.665 z m 136.523,-264.516 c -5.186,2.832 -9.526,7.375 -14.551,12.639 -12.56,13.152 -28.192,29.521 -67.789,29.707 -19.718,0.092 -30.762,2.662 -35.807,8.331 -5.518,6.2 -4.314,16.946 -2.647,31.819 0.629,5.613 1.342,11.975 1.778,18.896 2.68,42.54 -21.701,72.262 -22.74,73.508 -14.181,16.885 -30.245,50.496 -23.53,69.696 2.61,7.466 8.579,12.19 17.741,14.042 31.963,6.458 40.789,-13.539 55.409,-46.675 2.68,-6.075 5.452,-12.356 8.604,-19.011 16.937,-35.753 32.737,-41.953 56.655,-51.339 5.74,-2.253 12.247,-4.807 19.346,-7.997 30.228,-13.584 24.774,-32.238 19.001,-51.987 -0.826,-2.825 -1.649,-5.642 -2.362,-8.429 -3.638,-14.214 3.537,-21.535 12.619,-30.803 6.535,-6.666 13.939,-14.223 19.794,-26.463 3.069,-6.417 5.602,-15.133 0.233,-20.221 -7.064,-6.694 -25.015,-4.852 -41.754,4.287 z"
   id="path22" />
			</g>
			<g
   id="g24">
				
					<linearGradient
   id="SVGID_00000100381367057594929890000000674088981293341629_"
   gradientUnits="userSpaceOnUse"
   x1="787.95258"
   y1="1671.6621"
   x2="953.9082"
   y2="1671.6621">
					<stop
   offset="0"
   style="stop-color:#40D5E6"
   id="stop23" />
					<stop
   offset="1"
   style="stop-color:#5577FF"
   id="stop24" />
				</linearGradient>
				<path
   style="fill:url(#SVGID_00000100381367057594929890000000674088981293341629_)"
   d="m 792.62,1805.208 -4.667,-0.244 c 0.23,-4.386 6.118,-107.748 47.619,-137.999 45.531,-33.188 59.886,-68.854 66.723,-92.793 8.057,-28.209 49.059,-35.748 50.802,-36.056 l 0.812,4.603 c -0.398,0.071 -39.868,7.345 -47.119,32.736 -7.027,24.604 -21.769,61.25 -68.464,95.287 -39.722,28.953 -45.651,133.415 -45.706,134.466 z"
   id="path24" />
			</g>
			
				<linearGradient
   id="SVGID_00000103250433219145946140000015142405063824254099_"
   gradientUnits="userSpaceOnUse"
   x1="728.02319"
   y1="1538.1161"
   x2="921.29431"
   y2="1538.1161">
				<stop
   offset="0"
   style="stop-color:#40D5E6"
   id="stop25" />
				<stop
   offset="1"
   style="stop-color:#5577FF"
   id="stop26" />
			</linearGradient>
			<path
   style="fill:url(#SVGID_00000103250433219145946140000015142405063824254099_)"
   d="m 887.508,1284.301 c -29.498,-10.113 -23.37,46.74 -35.833,88.805 -12.464,42.065 -138.66,18.351 -85.689,123.687 52.971,105.337 -66.993,35.228 -31.16,127.147 35.833,91.922 3.116,190.231 42.065,165.225 38.949,-25.006 21.882,-140.759 62.389,-154.514 40.507,-13.754 47.118,-29.795 7.011,-67.188 -40.107,-37.391 105.093,-74.512 69.26,-150.014 -35.832,-75.503 6.037,-121.463 -28.043,-133.148 z"
   id="path26" />
			<g
   id="g27">
				<path
   style="fill:#ffffff"
   d="m 794.964,1784.758 c -3.71,-15.735 -35.389,-154.217 -5.83,-170.956 26.053,-14.753 25.411,-72.138 21.346,-126.325 -3.597,-47.969 58.008,-70.387 60.632,-71.317 l 1.563,4.405 c -0.609,0.217 -60.864,22.163 -57.534,66.563 4.173,55.649 4.621,114.701 -23.705,130.742 -22.447,12.711 -1.781,124.006 8.077,165.816 z"
   id="path27" />
			</g>
			
				<linearGradient
   id="SVGID_00000181053700248701241890000014301658613018128301_"
   gradientUnits="userSpaceOnUse"
   x1="683.67188"
   y1="1815.3369"
   x2="862.01862"
   y2="1815.3369">
				<stop
   offset="0"
   style="stop-color:#FF9340"
   id="stop27" />
				<stop
   offset="1"
   style="stop-color:#FFCE45"
   id="stop28" />
			</linearGradient>
			<polygon
   style="fill:url(#SVGID_00000181053700248701241890000014301658613018128301_)"
   points="725.787,1895.227 683.672,1735.447 862.019,1735.447 819.904,1895.227 "
   id="polygon28" />
			
				<linearGradient
   id="SVGID_00000109728847581926620050000004231563889839432880_"
   gradientUnits="userSpaceOnUse"
   x1="683.67188"
   y1="1815.3369"
   x2="862.01862"
   y2="1815.3369">
				<stop
   offset="0"
   style="stop-color:#C97332"
   id="stop29" />
				<stop
   offset="1"
   style="stop-color:#FFCE45"
   id="stop30" />
			</linearGradient>
			<path
   style="fill:url(#SVGID_00000109728847581926620050000004231563889839432880_)"
   d="m 862.019,1735.447 c 0,0 -92.714,17.408 -92.714,159.779 h -43.517 l -42.115,-159.779 z"
   id="path30" />
		</g><g
   id="g34"
   transform="translate(-589.69085,-100.205)">
			<defs
   id="defs30">
				
					<filter
   id="Adobe_OpacityMaskFilter_00000011744684807695867130000013407572917762084234_"
   filterUnits="userSpaceOnUse"
   x="1689.678"
   y="268.56"
   width="152.215"
   height="231.98">
					<feFlood
   result="back"
   id="feFlood30" />
					<feBlend
   in="SourceGraphic"
   in2="back"
   mode="normal"
   id="feBlend30" />
				</filter>
			</defs>
			
				<mask
   maskUnits="userSpaceOnUse"
   x="1689.678"
   y="268.56"
   width="152.215"
   height="231.98"
   id="mask32">
				<g
   style="filter:url(#Adobe_OpacityMaskFilter_00000011744684807695867130000013407572917762084234_)"
   id="g32">
					<defs
   id="defs31">
						
							<filter
   id="Adobe_OpacityMaskFilter_00000170276330939878357250000005694743759299950734_"
   filterUnits="userSpaceOnUse"
   x="1689.678"
   y="268.56"
   width="152.215"
   height="231.98">
							<feFlood
   result="back"
   id="feFlood31" />
							<feBlend
   in="SourceGraphic"
   in2="back"
   mode="normal"
   id="feBlend31" />
						</filter>
					</defs>
					
						<mask
   maskUnits="userSpaceOnUse"
   x="1689.678"
   y="268.56"
   width="152.215"
   height="231.98"
   id="SVGID_00000019663464908162109210000013845995290339801762_">
						<g
   style="filter:url(#Adobe_OpacityMaskFilter_00000170276330939878357250000005694743759299950734_)"
   id="g31">
						</g>
					</mask>
					
						<linearGradient
   id="SVGID_00000119806217114976697590000001188431164118684830_"
   gradientUnits="userSpaceOnUse"
   x1="1821.535"
   y1="144.09979"
   x2="1725.1581"
   y2="559.77643">
						<stop
   offset="0"
   style="stop-color:#FFFFFF"
   id="stop31" />
						<stop
   offset="1"
   style="stop-color:#000000"
   id="stop32" />
					</linearGradient>
					
						<polygon
   style="fill:url(#SVGID_00000119806217114976697590000001188431164118684830_)"
   points="1838.258,268.56 1841.893,270.914 1693.312,500.541 1689.678,498.188 "
   mask="url(#SVGID_00000019663464908162109210000013845995290339801762_)"
   id="polygon32" />
				</g>
			</mask>
			
				<linearGradient
   id="SVGID_00000003063660094143856970000006420471994692926867_"
   gradientUnits="userSpaceOnUse"
   x1="1821.535"
   y1="144.09979"
   x2="1725.1581"
   y2="559.77643">
				<stop
   offset="0"
   style="stop-color:#40D5E6"
   id="stop33" />
				<stop
   offset="1"
   style="stop-color:#5577FF"
   id="stop34" />
			</linearGradient>
			<polygon
   style="fill:url(#SVGID_00000003063660094143856970000006420471994692926867_)"
   points="1838.258,268.56 1841.893,270.914 1693.312,500.541 1689.678,498.188 "
   id="polygon34" />
		</g><g
   id="g38"
   transform="translate(-589.69085,-100.205)">
			<defs
   id="defs34">
				
					<filter
   id="Adobe_OpacityMaskFilter_00000012468865745560545230000011456920616686401687_"
   filterUnits="userSpaceOnUse"
   x="1959.14"
   y="100.205"
   width="53.847"
   height="55.022999">
					<feFlood
   result="back"
   id="feFlood34" />
					<feBlend
   in="SourceGraphic"
   in2="back"
   mode="normal"
   id="feBlend34" />
				</filter>
			</defs>
			
				<mask
   maskUnits="userSpaceOnUse"
   x="1959.14"
   y="100.205"
   width="53.847"
   height="55.023"
   id="mask36">
				<g
   style="filter:url(#Adobe_OpacityMaskFilter_00000012468865745560545230000011456920616686401687_)"
   id="g36">
					<defs
   id="defs35">
						
							<filter
   id="Adobe_OpacityMaskFilter_00000005238968170611135780000011292076295767453614_"
   filterUnits="userSpaceOnUse"
   x="1959.14"
   y="100.205"
   width="53.847"
   height="55.022999">
							<feFlood
   result="back"
   id="feFlood35" />
							<feBlend
   in="SourceGraphic"
   in2="back"
   mode="normal"
   id="feBlend35" />
						</filter>
					</defs>
					
						<mask
   maskUnits="userSpaceOnUse"
   x="1959.14"
   y="100.205"
   width="53.847"
   height="55.023"
   id="SVGID_00000101797308000164510580000003948540484108315543_">
						<g
   style="filter:url(#Adobe_OpacityMaskFilter_00000005238968170611135780000011292076295767453614_)"
   id="g35">
						</g>
					</mask>
					
						<linearGradient
   id="SVGID_00000114791660123721793100000002177483263914583701_"
   gradientUnits="userSpaceOnUse"
   x1="1975.2279"
   y1="179.735"
   x2="1878.8522"
   y2="595.40601">
						<stop
   offset="0"
   style="stop-color:#FFFFFF"
   id="stop35" />
						<stop
   offset="1"
   style="stop-color:#000000"
   id="stop36" />
					</linearGradient>
					
						<polygon
   style="fill:url(#SVGID_00000114791660123721793100000002177483263914583701_)"
   points="1962.771,155.229 1959.14,152.873 1993.287,100.205 2012.986,113.133 2010.609,116.752 1994.552,106.213 "
   mask="url(#SVGID_00000101797308000164510580000003948540484108315543_)"
   id="polygon36" />
				</g>
			</mask>
			
				<linearGradient
   id="SVGID_00000163761362546334678590000008021757391698934426_"
   gradientUnits="userSpaceOnUse"
   x1="1975.2279"
   y1="179.735"
   x2="1878.8522"
   y2="595.40601">
				<stop
   offset="0"
   style="stop-color:#40D5E6"
   id="stop37" />
				<stop
   offset="1"
   style="stop-color:#5577FF"
   id="stop38" />
			</linearGradient>
			<polygon
   style="fill:url(#SVGID_00000163761362546334678590000008021757391698934426_)"
   points="1962.771,155.229 1959.14,152.873 1993.287,100.205 2012.986,113.133 2010.609,116.752 1994.552,106.213 "
   id="polygon38" />
		</g><g
   id="g39"
   transform="translate(-589.69085,-100.205)">
			<rect
   x="1360.144"
   y="1226.139"
   style="fill:#706865"
   width="14.472"
   height="657.85699"
   id="rect38" />
			<rect
   x="1031.323"
   y="1226.139"
   style="fill:#706865"
   width="14.472"
   height="657.85699"
   id="rect39" />
		</g><path
   style="fill:#bdafaa"
   d="m 823.19515,1675.213 h -419.833 c -15.572,0 -28.194,-12.623 -28.194,-28.193 V 879.297 c 0,-15.572 12.622,-28.195 28.194,-28.195 h 419.833 c 15.571,0 28.194,12.623 28.194,28.195 v 767.723 c 0,15.57 -12.623,28.193 -28.194,28.193 z"
   id="path39" /><path
   style="fill:#ffffff"
   d="m 810.46415,1643.013 h -394.371 c -15.385,0 -27.857,-12.472 -27.857,-27.858 V 892.23 c 0,-15.386 12.472,-27.858 27.857,-27.858 h 394.371 c 15.385,0 27.857,12.473 27.857,27.858 v 722.924 c 0,15.387 -12.472,27.859 -27.857,27.859 z"
   id="path40" /><rect
   x="542.32416"
   y="844.854"
   style="fill:#706865"
   width="141.908"
   height="32.044998"
   id="rect40" /><g
   id="g41"
   transform="translate(-589.69085,-100.205)">
			<path
   style="fill:#b5deff"
   d="m 1166.765,1239.798 c -55.035,-11.159 -97.299,-59.846 -97.299,-119.177 0,-67.061 54.558,-121.619 121.619,-121.619 v 5.455 c -64.053,0 -116.165,52.111 -116.165,116.164 0,56.659 40.362,103.172 92.932,113.832 40.979,8.373 84.26,-5.935 112.17,-39.106 17.553,-20.874 27.22,-47.411 27.22,-74.726 0,-5.707 -0.418,-11.442 -1.242,-17.045 l 5.396,-0.794 c 0.862,5.864 1.3,11.867 1.3,17.839 0,28.596 -10.122,56.381 -28.5,78.236 -29.12,34.61 -74.384,49.741 -117.431,40.941 z"
   id="path41" />
		</g><g
   id="g71"
   transform="translate(-589.69085,-100.205)">
			<g
   id="g43">
				<g
   id="g42">
					<path
   style="fill:#eea886"
   d="m 964.155,1133.244 c 0,0 9.015,-15.775 -5.283,-58.057 -13.828,-40.892 -61.692,-37.184 -76.904,-10.986 -15.212,26.198 -10.074,42.47 12.322,72.049 22.395,29.578 60.568,10.516 69.865,-3.006 z"
   id="path42" />
				</g>
			</g>
			<g
   id="g45">
				<g
   id="g44">
					<path
   style="fill:#81807e"
   d="m 852.979,1860.688 c 0,0 -2.368,17.364 -2.664,19.972 -0.296,2.609 -26.348,-1.535 -26.348,-1.535 l -2.11,-20.673 c 0,0 27.866,-0.214 31.122,2.236 z"
   id="path43" />
				</g>
			</g>
			<g
   id="g47">
				<g
   id="g46">
					<path
   style="fill:#353a3d"
   d="m 850.592,1878.453 c 0,0 8.254,10.463 16.237,15.023 7.983,4.561 20.529,6.367 25.249,11.088 3.408,3.408 12.412,18.078 -20.745,17.781 -33.157,-0.295 -49.143,2.072 -52.696,-3.553 -3.552,-5.623 5.141,-41.516 5.141,-41.516 0,0 8.116,2.288 26.814,1.177 z"
   id="path45" />
				</g>
			</g>
			<g
   id="g49">
				<g
   id="g48">
					<path
   style="fill:#81807e"
   d="m 1033.362,1860.688 c 0,0 -2.368,17.364 -2.665,19.972 -0.296,2.609 -26.348,-1.535 -26.348,-1.535 l -2.109,-20.673 c 10e-4,0 27.865,-0.214 31.122,2.236 z"
   id="path47" />
				</g>
			</g>
			<g
   id="g51">
				<g
   id="g50">
					<path
   style="fill:#353a3d"
   d="m 1030.975,1878.453 c 0,0 8.253,10.463 16.237,15.023 7.983,4.561 37.362,8.307 42.083,13.027 3.408,3.408 9.075,17.125 -37.578,15.842 -33.146,-0.91 -49.143,2.072 -52.695,-3.553 -3.553,-5.623 5.14,-41.516 5.14,-41.516 0,0 10.299,1.833 26.813,1.177 z"
   id="path49" />
				</g>
			</g>
			<g
   id="g53">
				<g
   id="g52">
					<path
   style="fill:#3b3b40"
   d="m 861.75,1428.324 c 0,0 -13.358,41.51 -11.599,77.281 1.759,35.771 -6.907,74.914 -10.449,112.282 -3.949,41.659 -20.111,140.28 -20.697,162.563 -0.587,22.284 -6.196,91.447 -6.196,91.447 l 41.057,2.775 c 0,0 27.172,-172.416 34.209,-190.008 7.037,-17.593 41.935,-143.012 43.108,-157.086 1.173,-14.072 -69.433,-99.254 -69.433,-99.254 z"
   id="path51" />
				</g>
			</g>
			<g
   id="g55">
				<g
   id="g54">
					<path
   style="fill:#3b3b40"
   d="m 995.89,1424.002 c 0,0 19.639,109.752 21.985,131.646 2.346,21.894 3.91,105.951 5.083,119.635 1.173,13.684 7.819,179.061 14.074,199.391 h -44.12 c 0,0 -28.99,-120.225 -28.99,-177.106 0,-56.881 -24.529,-123.661 -40.362,-161.191 -15.833,-37.53 -52.077,-38.419 -61.81,-108.052 0,-10e-4 120.962,-26.408 134.14,-4.323 z"
   id="path53" />
				</g>
			</g>
			<g
   id="g57">
				<g
   id="g56">
					<path
   style="fill:#eea886"
   d="m 951.069,1144.408 c 0,0 -4.07,11.843 0,20.294 4.07,8.452 -51.99,3.381 -51.99,3.381 0,0 2.535,-17.466 -4.789,-31.833 -7.325,-14.368 56.779,8.158 56.779,8.158 z"
   id="path55" />
				</g>
			</g>
			<g
   id="g59">
				<g
   id="g58">
					<path
   style="fill:#eddad3"
   d="m 859.149,1437.367 c 0,0 20.161,20.71 138.544,-3.225 l -1.804,-10.141 -134.579,5.066 z"
   id="path57" />
				</g>
			</g>
			<g
   id="g61">
				<g
   id="g60">
					<path
   style="fill:#dbdff0"
   d="m 1138.006,1077.051 c -3.602,13.758 -14.265,44.514 -17.492,54.157 -4.003,11.966 -13.104,35.246 -16.481,38.248 -2.727,2.401 -23.438,18.235 -47.377,29.642 -5.903,2.802 -12.007,5.354 -18.085,7.355 -30.693,10.154 -53.831,25.088 -53.831,25.088 H 842.309 c 3.677,-30.167 14.008,-51.805 17.91,-59.133 10.857,-0.701 27.291,-2.652 35.521,-3.002 10.281,-0.4 21.137,-4.929 21.137,-4.929 l 3.627,0.251 10.957,0.775 28.091,1.951 c 0,0 20.711,2.102 26.615,3.227 5.929,1.125 45.751,-7.129 53.906,-7.955 0.975,-0.1 2.351,-0.525 4.002,-1.226 12.057,-5.053 39.147,-23.838 40.148,-26.315 1.126,-2.801 14.708,-55.131 17.385,-64.161 0.624,-2.001 36.774,4.625 36.398,6.027 z"
   id="path59" />
				</g>
			</g>
			<g
   id="g63">
				<g
   id="g62">
					<path
   style="fill:#dbdff0"
   d="m 841.033,1255.806 c 0.002,0.024 0,0.024 0,0.05 4.402,17.71 11.381,56.082 13.083,73.917 2.126,21.962 -36.321,334.917 -36.321,334.917 18.11,14.057 216.424,17.959 215.573,12.031 -0.851,-5.903 -44.025,-342.295 -40.648,-353.702 3.377,-11.407 10.156,-44.8 11.832,-65.938 1.701,-21.111 20.211,-33.443 20.211,-33.443 l 31.894,-24.539 c 3.202,-15.634 -12.583,-37.597 -12.583,-37.597 0,0 -48.377,5.329 -54.931,4.503 -5.428,-0.701 -38.797,-4.453 -38.797,-4.453 -8.03,2.427 -14.183,3.553 -18.886,3.953 -5.328,0.425 -8.78,-0.101 -10.957,-0.775 -2.651,-0.826 -3.452,-1.927 -3.452,-1.927 0,0.075 -36.339,1.538 -55.307,6.88 10e-4,-10e-4 -25.422,35.769 -20.711,86.123 z"
   id="path61" />
				</g>
			</g>
			<g
   id="g65">
				<g
   id="g64">
					<path
   style="fill:#fccca2"
   d="m 894.29,1136.25 c 0,0 7.419,0.654 23.194,-4.792 15.776,-5.446 16.953,-33.032 20.364,-29.766 6.962,6.667 13.535,2.065 16.165,-1.878 0,0 -7.701,-10.142 -4.132,-15.025 3.568,-4.883 9.378,-8.446 9.378,-8.446 0,0 -11.095,-53.479 -61.588,-29.114 -59.16,28.546 -3.381,89.021 -3.381,89.021 z"
   id="path63" />
				</g>
			</g>
			<g
   id="g67">
				<g
   id="g66">
					<path
   style="fill:#dbdff0"
   d="m 951.069,1164.702 -1.779,-7.73 c 0,0 -32.229,-0.654 -49.813,1.895 l -1.85,9.239 c 0,-10e-4 22.516,10.212 53.442,-3.404 z"
   id="path65" />
				</g>
			</g>
			<g
   id="g69">
				<g
   id="g68">
					<path
   style="fill:#eea886"
   d="m 943.12,1094.932 c -2.928,-4.865 -13.753,-8.146 -15.025,5.635 -0.986,10.682 19.344,22.349 19.532,12.395 0.188,-9.954 -2.558,-14.794 -4.507,-18.03 z"
   id="path67" />
				</g>
			</g>
			<path
   style="fill:#dbdff0"
   d="m 861.745,1169.682 c 0,0 -15.375,0 -48.936,105.835 -11.531,36.362 52.738,64.397 52.738,64.397 z"
   id="path69" />
			<g
   id="g70">
				
					<rect
   x="1060.421"
   y="1052.075"
   transform="matrix(0.573,-0.8196,0.8196,0.573,-394.0377,1354.1552)"
   style="fill:#4da8f2"
   width="84.002998"
   height="6.2379999"
   id="rect69" />
			</g>
			<path
   style="fill:#efaa88"
   d="m 1143.9,1039.479 c 0,0 0.855,3.939 0.389,5.844 0,0 -1.114,3.402 -1.76,5.869 -0.202,0.783 -0.361,1.471 -0.417,1.925 -0.236,1.898 -0.187,6.136 -2.035,10.536 -1.843,4.396 -9.931,19.269 -9.931,19.269 l -13.896,-4.646 -12.7,-0.514 c 0,0 -4.469,-28.616 -3.224,-32.913 0.125,-0.42 0.262,-0.829 0.421,-1.203 1.407,-3.535 3.939,-5.574 4.888,-7.346 0.353,-0.648 4.292,-6.857 6.473,-7.133 3.025,-0.388 5.28,0.572 6.64,2.158 0,0 5.958,-0.496 9.271,1.789 0,0 5.481,-0.635 8.794,3.381 0,-10e-4 5.632,-0.02 7.087,2.984 z"
   id="path70" />
			<polygon
   style="fill:#dfe1e8"
   points="1129.045,1022.559 1130.511,1015.295 1123.933,1018.984 "
   id="polygon70" />
		</g><g
   id="g125"
   transform="translate(-589.69085,-100.205)">
			<g
   id="g76">
				<g
   id="g75">
					<g
   id="g74">
						<g
   id="g73">
							<g
   id="g72">
								<path
   style="fill:#eea886"
   d="m 2424.647,1471.643 c 0,0 0.323,-2.945 -0.163,-4.301 0,0 -1.074,-2.401 -1.734,-4.154 -0.207,-0.557 -0.377,-1.047 -0.452,-1.375 -0.317,-1.369 -0.606,-4.469 -2.293,-7.543 -1.683,-3.072 -12.357,-14.453 -12.357,-14.453 l -7.79,4.022 -7.83,2.726 c 0,0 -0.869,21.443 0.368,24.487 0.123,0.297 0.255,0.586 0.399,0.847 1.299,2.477 3.306,3.772 4.135,4.994 0.307,0.447 3.66,4.684 5.275,4.718 2.24,0.052 3.813,-0.822 4.687,-2.085 0,0 4.392,-0.094 6.638,-2.018 0,0 4.055,0.045 6.168,-3.143 -10e-4,0 4.116,-0.418 4.949,-2.722 z"
   id="path71" />
							</g>
						</g>
					</g>
				</g>
			</g>
			<g
   id="g78">
				<g
   id="g77">
					<path
   style="fill:#3a3f47"
   d="m 2226.818,1113.75 c 0,0 -10.389,-67.207 45.272,-65.967 55.661,1.24 52.564,52.938 45.88,75.283 -4.932,16.487 -14.273,22.675 9.781,68.554 24.056,45.879 -20.831,45.879 -20.831,45.879 l -34.83,-47.862 z"
   id="path76" />
				</g>
			</g>
			<g
   id="g80">
				<g
   id="g79">
					<path
   style="fill:#dbdff0"
   d="m 2200.463,1354.875 c -0.277,0.348 -0.68,0.84 -1.193,1.471 v 0 c -1.313,1.604 -3.352,4.072 -5.924,7.142 -14.859,17.76 -47.512,55.632 -59.943,62.467 -8.813,4.843 -10.162,-10.377 -1.396,-19.735 7.991,-8.534 38.85,-63.581 50.797,-75.43 5.805,-5.754 13.604,-60.135 13.604,-60.135 0,0 7.221,45.346 6.417,50.562 -0.8,5.218 2.726,27.315 -2.362,33.654 z"
   id="path78" />
				</g>
			</g>
			<g
   id="g83">
				<g
   id="g82">
					<g
   id="g81">
						<path
   style="fill:#eea886"
   d="m 2132.005,1406.223 c 0,0 -5.13,6.756 -7.792,7.599 -2.661,0.844 -5.731,5.53 -7.959,6.737 -2.227,1.209 -9.533,2.373 -11.298,4.416 -0.722,0.834 -3.065,7.699 -4.722,9.236 -1.656,1.538 -5.404,4.25 -3.99,5.634 1.413,1.384 5.46,-0.134 5.46,-0.134 0,0 -1.42,1.493 -0.556,3.082 1.682,3.09 3.9,3.049 3.9,3.049 0,0 -0.428,2.462 0.6,3.578 2.266,2.463 4.409,2.361 4.409,2.361 0,0 0.397,1.844 2.276,3.148 2.402,1.67 4.984,0.387 4.984,0.387 0,0 2.528,2.766 4.484,2.023 1.955,-0.74 2.962,-2.312 4.307,-3.293 1.344,-0.98 10.134,-13.13 12.642,-24.021 2.509,-10.893 8.739,-18.293 8.739,-18.293 z"
   id="path80" />
					</g>
				</g>
			</g>
			<g
   id="g85">
				<g
   id="g84">
					<path
   style="fill:#db9c7c"
   d="m 2102.115,1438.354 c 0,0 7.705,-10.257 12.105,-10.442 4.4,-0.185 1.83,3.67 1.83,3.67 0,0 2.476,-3.855 5.814,-2.201 3.338,1.654 0.084,6.01 0.084,6.01 0,0 2.677,-2.418 5.33,0.398 2.652,2.814 -0.886,5.813 -0.886,5.813 0,0 5.708,-1.318 4.995,3.402 -1.203,7.968 -9.198,12.463 -9.198,12.463 0,0 -2.552,1.285 -4.915,-1.598 0,0 -5.402,2.307 -7.6,-3.695 0,0 -6.569,-0.848 -5.121,-5.951 0,0 -7.018,-1.914 -2.438,-7.869 z"
   id="path83" />
				</g>
			</g>
			<g
   id="g87">
				<g
   id="g86">
					<path
   style="fill:#2f4563"
   d="m 2158.508,1871.379 c 0,0 -21.862,37.057 -31.093,43.111 -12.53,8.217 -4.68,16.525 1.271,16.533 5.951,0.01 36.34,2.18 43.037,-5.418 6.695,-7.598 10.018,-30.375 16.246,-36.33 6.228,-5.955 11.928,-27.934 -3.034,-35.387 -16.408,-8.172 -26.427,17.491 -26.427,17.491 z"
   id="path85" />
				</g>
			</g>
			<g
   id="g89">
				<g
   id="g88">
					<polygon
   style="fill:#2f4563"
   points="2184.499,1923.057 2185.451,1891.049 2193.34,1878.428 2187.562,1922.922 "
   id="polygon87" />
				</g>
			</g>
			<g
   id="g91">
				<g
   id="g90">
					<path
   style="fill:#2f4563"
   d="m 2345.954,1835.248 c 0,0 -5.239,42.705 -11.283,51.941 -8.204,12.539 2.312,17.02 7.771,14.65 5.457,-2.371 34.185,-12.518 37.289,-22.158 3.104,-9.641 -2.95,-31.848 0.381,-39.795 3.33,-7.947 -0.224,-30.375 -16.918,-31.23 -18.305,-0.937 -17.24,26.592 -17.24,26.592 z"
   id="path89" />
				</g>
			</g>
			<g
   id="g93">
				<g
   id="g92">
					<path
   style="fill:#eea886"
   d="m 2345.711,1814.16 c 0,0 -3.207,52.15 -4.602,59.752 -1.395,7.602 10.008,2.623 15.857,-3.248 5.852,-5.871 11.859,-42.159 11.482,-48.463 -0.378,-6.305 -5.256,-13.545 -5.256,-13.545 z"
   id="path91" />
				</g>
			</g>
			<g
   id="g95">
				<g
   id="g94">
					<polygon
   style="fill:#2f4563"
   points="2390.426,1872.242 2378.512,1842.518 2380.703,1827.796 2393.179,1870.895 "
   id="polygon93" />
				</g>
			</g>
			<g
   id="g97">
				<g
   id="g96">
					<path
   style="fill:#eea886"
   d="m 2254.7,1510.993 c -1.089,5.261 -8.058,27.27 -15.86,51.728 v 0 c -7.115,22.297 -14.925,46.621 -19.607,62.146 -1.747,5.792 -3.061,10.358 -3.74,13.135 -4.492,18.379 0.562,47.21 2.193,71.303 1.636,24.098 -33.344,159.097 -33.344,159.097 -6.125,2.858 -17.634,-16.454 -17.634,-16.454 4.493,-8.576 3.862,-160.852 1.411,-170.244 -2.451,-9.392 -4.084,-35.531 -1.633,-45.742 0.502,-2.098 0.746,-4.864 0.803,-8.194 0.207,-12.888 -2.448,-34.192 -4.069,-57.558 -2.042,-29.406 9.392,-102.508 11.024,-109.043 0.15,-0.602 0.389,-1.446 0.692,-2.486 3.009,-10.25 12.695,-39.357 12.695,-39.357 19.646,-5.846 34.438,-6.902 45.479,-4.651 14.616,2.978 22.66,11.749 26.678,22.889 9.607,26.573 -3.677,66.603 -5.088,73.428 z"
   id="path95" />
				</g>
			</g>
			<g
   id="g99">
				<g
   id="g98">
					<path
   style="fill:#eea886"
   d="m 2365.282,1812.271 -19.893,6.996 c -3.374,-16.33 -84.155,-130.621 -89.082,-143.281 -4.927,-12.66 -10.184,-37.162 -10.184,-46.148 0,-1.604 -0.116,-4.311 -0.343,-7.823 -0.872,-13.618 -3.365,-39.302 -6.941,-59.294 -0.665,-3.73 -1.369,-7.26 -2.107,-10.479 -3.957,-17.24 -4.645,-76.146 -4.689,-110.787 -0.021,-15.414 0.084,-26.025 0.084,-26.025 0,0 0.344,-0.273 0.984,-0.757 7.448,-5.634 55.218,-39.995 71.873,-7.876 4.398,8.485 7.27,17.594 9.014,27.092 5.344,29.107 0.102,61.893 -4.209,91.76 -3.688,25.558 -10.754,61.67 -12.785,88.466 -1.121,14.743 -0.715,26.671 2.619,32.466 9.396,16.337 18.578,30.166 37.572,87.808 6.181,18.748 28.087,77.882 28.087,77.882 z"
   id="path97" />
				</g>
			</g>
			<g
   id="g100">
				<path
   style="fill:#2f4563"
   d="m 2309.789,1525.648 c -3.688,25.558 -10.754,61.67 -12.785,88.466 0,0 -20.844,4.161 -51.223,7.9 -8.227,1.013 -17.148,1.993 -26.549,2.854 -16.279,1.488 -33.982,2.611 -51.943,2.899 0.207,-12.888 -2.448,-34.192 -4.069,-57.558 -2.042,-29.406 9.392,-102.508 11.024,-109.043 0.15,-0.602 0.389,-1.446 0.692,-2.486 14.694,-8.086 35.772,-13.545 57.106,-17.227 9.375,-1.617 18.795,-2.893 27.746,-3.894 27.969,-3.138 51.33,-3.624 54.209,-3.673 5.345,29.11 0.103,61.895 -4.208,91.762 z"
   id="path99" />
			</g>
			<g
   id="g101">
				<path
   style="fill:#eea886"
   d="m 2345.39,1819.268 c 0,0 9.339,12.074 19.893,-6.996 -10e-4,-10e-4 -11.728,-12.535 -19.893,6.996 z"
   id="path100" />
			</g>
			<g
   id="g103">
				<g
   id="g102">
					<path
   style="fill:#eea886"
   d="m 2166.708,1851.949 c 0,0 -23.772,46.529 -28.087,52.939 -4.314,6.412 8.127,6.402 15.836,3.357 7.709,-3.045 27.713,-33.912 29.885,-39.843 2.172,-5.931 3.279,-12.864 3.279,-12.864 z"
   id="path101" />
				</g>
			</g>
			<g
   id="g104">
				<path
   style="fill:#eea886"
   d="m 2166.708,1851.949 c 0,0 -12.626,23.748 20.913,3.59 0,0 -6.322,-10.633 -20.913,-3.59 z"
   id="path103" />
			</g>
			<g
   id="g106">
				<g
   id="g105">
					<path
   style="fill:#eea886"
   d="m 2259.572,1058.564 c 0,0 -37.695,5.951 -39.184,59.518 -1.488,53.567 10.168,64.975 43.15,53.814 32.984,-11.159 43.4,-67.205 44.144,-75.885 0.745,-8.679 2.728,-43.895 -48.11,-37.447 z"
   id="path104" />
				</g>
			</g>
			<g
   id="g108">
				<g
   id="g107">
					<path
   style="fill:#4e9bde"
   d="m 2325.768,1244.882 c 0.145,18.444 -21.057,62.534 -24.324,76.147 -3.267,13.613 -8.439,17.971 -4.084,35.396 4.357,17.426 21.933,79.148 17.316,81.547 -68.951,35.842 -130.011,33.512 -139.739,20.709 0,0 22.298,-83.211 23.932,-92.74 1.634,-9.53 -1.985,-45.256 -2.802,-55.33 -0.817,-10.074 -11.015,-31.758 -10.671,-41.855 0.351,-10.286 5.402,-19.17 12.471,-30.156 2.188,-3.406 4.489,-6.875 6.79,-10.249 7.488,-10.989 14.971,-20.966 18.644,-24.401 2.731,-2.555 5.29,-4.512 7.504,-5.99 0.014,-0.01 0.022,-0.012 0.022,-0.012 4.617,-3.078 7.721,-4.072 7.721,-4.072 l 32.402,-5.174 c 0,0 20.193,7.307 31.809,10.023 0,0 22.673,3.306 23.009,46.157 z"
   id="path106" />
				</g>
			</g>
			<g
   id="g110">
				<g
   id="g109">
					<path
   style="fill:#6ea2e8"
   d="m 2230.826,1197.947 -18.779,29.598 -17.334,27.314 c 0.041,-0.146 1.195,-4.283 3.153,-16.26 0.373,-2.273 0.772,-4.83 1.2,-7.695 0.125,-0.847 0.311,-1.688 0.545,-2.518 0,0 0,0 0,0 7.418,-17.102 30.354,-29.996 31.192,-30.424 0.014,-0.01 0.023,-0.011 0.023,-0.011 z"
   id="path108" />
				</g>
			</g>
			<g
   id="g112">
				<g
   id="g111">
					<path
   style="fill:#eea886"
   d="m 2284.745,1147.77 c -3.268,6.17 -6.718,44.471 -6.718,44.471 0,0 -46.104,17.427 -41.386,7.57 2.14,-4.474 2.769,-10.279 2.813,-15.283 0.041,-3.945 -0.283,-7.393 -0.513,-9.304 -0.119,-1.008 -0.211,-1.587 -0.211,-1.587 0,0 49.282,-32.04 46.015,-25.867 z"
   id="path110" />
				</g>
			</g>
			<g
   id="g114">
				<g
   id="g113">
					<path
   style="fill:#3a3f47"
   d="m 2244.196,1097.003 c 0,0 13.487,16.48 31.095,28.88 17.607,12.4 14.536,37.334 14.536,37.334 0,0 45.941,-96.717 2.263,-103.412 -43.678,-6.697 -70.461,-7.192 -71.701,58.277 0,0 19.84,-21.574 23.807,-21.079 z"
   id="path112" />
				</g>
			</g>
			<g
   id="g116">
				<g
   id="g115">
					<path
   style="fill:#a77860"
   d="m 2270.459,1168.591 c -7.077,10.438 -31.002,15.937 -31.002,15.937 0,0 0,0 0,0 0.041,-3.945 -0.283,-7.393 -0.513,-9.304 14.828,3.309 31.518,-6.633 31.518,-6.633 z"
   id="path114" />
				</g>
			</g>
			<g
   id="g117">
				<path
   style="fill:#dbdff0"
   d="m 2199.691,1228.182 v 0 c 0,0 -1.003,2.074 -1.823,10.418 l 6.79,-10.249 c 0,0 12.129,-17.39 16.283,-21.911 4.156,-4.521 9.864,-8.48 9.864,-8.48 0,0 -23.861,11.464 -31.112,30.222 z"
   id="path116" />
			</g>
			<g
   id="g118">
				<path
   style="fill:#6ea2e8"
   d="m 2293.381,1263.695 c 0,0 34.693,-14.709 42.965,-16.994 0,0 -14.299,-51.847 -43.621,-48.626 -31.692,3.482 0.656,65.62 0.656,65.62 z"
   id="path117" />
			</g>
			<g
   id="g119">
				<path
   style="fill:#eea886"
   d="m 2238.547,1193.875 c 0,0 -21.725,33.404 -14.371,36.322 7.354,2.919 47.162,-3.894 64.087,-35.623 0,0 -25.306,-12.976 -49.716,-0.699 z"
   id="path118" />
			</g>
			<g
   id="g120">
				<path
   style="fill:#dbdff0"
   d="m 2126.959,1411.91 c 0,0 14.791,7.307 18.197,13.63 0,0 26.105,-37.349 28.418,-39.04 l -39.531,17.228 z"
   id="path119" />
			</g>
			<g
   id="g121">
				<path
   style="fill:#dbdff0"
   d="m 2391.34,1447.849 c 0,0 15.384,-3.792 20.652,-4.2 l -23.348,-55.672 -8.617,31.371 c 0,0 11.221,27.058 11.313,28.501 z"
   id="path120" />
			</g>
			<g
   id="g122">
				<path
   style="fill:#2f4563"
   d="m 2196.109,1311.162 c -0.05,-0.457 -0.079,-0.717 -0.079,-0.764 0.01,0.025 0.021,0.092 0.038,0.212 0.016,0.124 0.034,0.307 0.041,0.552 z"
   id="path121" />
			</g>
			<g
   id="g123">
				<path
   style="fill:#9ea1ad"
   d="m 2199.27,1356.346 v 0 c -1.313,1.604 -9.42,11.265 -11.992,14.334 0,0 9.072,-53.121 8.832,-59.518 0.576,5.111 4.05,34.209 3.16,45.18 z"
   id="path122" />
			</g>
			<path
   style="fill:#dbdff0"
   d="m 2278.153,1190.892 c 0,0 -24.594,32.962 -26.067,93.073 -1.473,60.112 20.277,315.741 17.284,353.547 0,0 53.136,-20.09 66.976,-31.25 13.839,-11.161 -24.086,-193.289 -28.77,-209.904 -4.684,-16.615 -14.403,-69.44 28.769,-149.656 0,0 -9.308,-40.107 -27.266,-47.092 -17.959,-6.985 -30.926,-8.718 -30.926,-8.718 z"
   id="path123" />
			<path
   style="fill:#dbdff0"
   d="m 2403.891,1435.254 c -7.054,-23.48 -22.344,-68.211 -25.278,-77.553 -7.663,-24.389 -11.767,-30.112 -22.715,-62.902 -4.267,-12.777 -13.046,-33.328 -19.552,-48.092 0,0 0,0 0,-0.01 -4.966,-18.973 -14.876,-33.648 -21.733,-41.492 -6.857,-7.844 -26.348,-10.636 -26.348,-10.636 0,0 2.689,3.6 6.695,8.833 -1.367,0.154 -2.596,0.014 -4.059,0.385 -25.979,6.574 3.753,49.584 5.826,55.294 2.072,5.71 39.133,69.286 41.813,75.093 9.259,20.068 14.727,24.653 21.76,43.523 9.504,25.497 24.987,50.639 32.625,64.693 3.209,5.907 13.672,1.864 10.967,-7.14 z"
   id="path124" />
			<path
   style="fill:#dbdff0"
   d="m 2238.547,1193.875 c 0,0 -22.785,24.69 -25.778,74.377 -2.993,49.686 -5.487,108.593 -13.354,159.654 -7.866,51.061 -20.438,216.881 -20.438,216.881 0,0 -17.36,-13.17 -20.952,-21.551 -3.592,-8.381 9.129,-162.473 23.945,-205.324 14.816,-42.85 18.512,-48.962 14.139,-86.406 -4.373,-37.443 -13.084,-52.913 -10.768,-66.993 2.316,-14.08 24.778,-60.809 53.206,-70.638 z"
   id="path125" />
		</g><g
   id="g167"
   transform="translate(-589.69085,-100.205)">
			<g
   style="opacity:0.72"
   id="g126">
				
					<linearGradient
   id="SVGID_00000014621999460211843080000011947540628455417263_"
   gradientUnits="userSpaceOnUse"
   x1="1685.8447"
   y1="1016.0977"
   x2="2139.9844"
   y2="1016.0977">
					<stop
   offset="0"
   style="stop-color:#D5E4FF"
   id="stop125" />
					<stop
   offset="1"
   style="stop-color:#EDFFFE"
   id="stop126" />
				</linearGradient>
				<path
   style="fill:url(#SVGID_00000014621999460211843080000011947540628455417263_)"
   d="m 2107.535,1279.824 h -389.24 c -17.922,0 -32.45,-14.528 -32.45,-32.449 V 784.821 c 0,-17.921 14.528,-32.45 32.45,-32.45 h 389.24 c 17.922,0 32.449,14.529 32.449,32.45 v 462.554 c 0,17.921 -14.527,32.449 -32.449,32.449 z"
   id="path126" />
			</g>
			<g
   id="g135">
				<g
   id="g128">
					<g
   id="g127">
						<path
   style="fill:#4aafff"
   d="m 1961.541,971.146 c -17.375,-48.585 -63.809,-78.426 -112.746,-76.955 -11.848,0.357 -23.842,2.549 -35.611,6.757 -35.646,12.751 -61.208,41.144 -71.709,74.687 -7.277,23.248 -7.324,48.969 1.514,73.676 0.877,2.456 1.832,4.873 2.855,7.234 4.648,10.701 10.748,20.381 17.991,28.89 30.369,35.704 80.763,50.793 127.513,34.076 60.352,-21.587 91.777,-88.011 70.193,-148.365 z m -79.976,121.012 c -35.05,12.537 -72.83,1.223 -95.601,-25.543 -5.428,-6.379 -10.004,-13.638 -13.484,-21.663 -0.77,-1.771 -1.486,-3.582 -2.146,-5.425 -6.625,-18.523 -6.587,-37.807 -1.131,-55.232 7.872,-25.153 27.033,-46.442 53.76,-55.998 8.822,-3.155 17.815,-4.797 26.698,-5.068 36.687,-1.107 71.505,21.268 84.534,57.695 16.182,45.251 -7.381,95.049 -52.63,111.234 z"
   id="path127" />
					</g>
				</g>
				<g
   id="g130">
					<g
   id="g129">
						<path
   style="fill:#1a598c"
   d="m 1769.203,984.295 -27.729,-8.66 c 10.501,-33.543 36.063,-61.936 71.709,-74.687 11.77,-4.208 23.764,-6.399 35.611,-6.757 l 0.866,29.037 c -8.883,0.271 -17.876,1.913 -26.698,5.068 -26.726,9.556 -45.887,30.846 -53.759,55.999 z"
   id="path128" />
					</g>
				</g>
				<g
   id="g132">
					<g
   id="g131">
						<path
   style="fill:#2273b5"
   d="m 1772.48,1044.952 -26.637,11.593 c -1.023,-2.361 -1.979,-4.778 -2.855,-7.234 -8.838,-24.707 -8.791,-50.428 -1.514,-73.676 l 27.729,8.66 c -5.456,17.426 -5.494,36.709 1.131,55.232 0.66,1.843 1.377,3.654 2.146,5.425 z"
   id="path130" />
					</g>
				</g>
				<g
   id="g134">
					<g
   id="g133">
						<path
   style="fill:#3788cc"
   d="m 1763.835,1085.435 c -7.243,-8.509 -13.343,-18.188 -17.991,-28.89 l 26.637,-11.593 c 3.48,8.025 8.057,15.284 13.484,21.663 z"
   id="path132" />
					</g>
				</g>
			</g>
			<g
   id="g142">
				<g
   id="g137">
					<g
   id="g136">
						<path
   style="fill:#4aafff"
   d="m 2062.166,1042.04 c -19.293,-9.129 -41.603,-4.276 -55.486,10.47 -3.361,3.568 -6.229,7.718 -8.44,12.392 -6.696,14.155 -5.868,29.938 0.871,42.82 4.671,8.929 12.181,16.466 21.992,21.106 0.976,0.463 1.962,0.891 2.952,1.281 4.489,1.771 9.104,2.818 13.712,3.188 19.327,1.561 38.479,-8.766 47.265,-27.33 11.337,-23.967 1.101,-52.587 -22.866,-63.927 z m 12.004,58.788 c -6.586,13.919 -20.945,21.66 -35.436,20.492 -3.453,-0.279 -6.914,-1.063 -10.279,-2.393 -0.744,-0.293 -1.482,-0.613 -2.215,-0.959 -7.355,-3.48 -12.985,-9.132 -16.486,-15.824 -5.055,-9.66 -5.677,-21.492 -0.654,-32.104 1.657,-3.504 3.808,-6.615 6.326,-9.292 10.407,-11.056 27.136,-14.694 41.602,-7.851 17.968,8.503 25.642,29.962 17.142,47.931 z"
   id="path135" />
					</g>
				</g>
				<g
   id="g139">
					<g
   id="g138">
						<path
   style="fill:#1a598c"
   d="m 2009.754,1102.145 -10.644,5.577 c -6.739,-12.883 -7.567,-28.665 -0.871,-42.82 2.212,-4.674 5.079,-8.823 8.44,-12.392 l 8.746,8.239 c -2.519,2.677 -4.669,5.788 -6.326,9.292 -5.022,10.611 -4.4,22.443 0.655,32.104 z"
   id="path137" />
					</g>
				</g>
				<g
   id="g141">
					<g
   id="g140">
						<path
   style="fill:#2273b5"
   d="m 2028.455,1118.928 -4.4,11.182 c -0.99,-0.391 -1.977,-0.818 -2.952,-1.281 -9.812,-4.641 -17.321,-12.178 -21.992,-21.106 l 10.644,-5.577 c 3.501,6.692 9.131,12.344 16.486,15.824 0.732,0.344 1.47,0.665 2.214,0.958 z"
   id="path139" />
					</g>
				</g>
			</g>
			<g
   id="g151">
				<g
   id="g144">
					<g
   id="g143">
						<path
   style="fill:#4aafff"
   d="m 2085.029,959.774 c 9.129,-19.294 4.275,-41.603 -10.469,-55.487 -3.57,-3.361 -7.719,-6.229 -12.393,-8.439 -14.156,-6.697 -29.938,-5.869 -42.82,0.871 -8.928,4.671 -16.465,12.181 -21.107,21.992 -0.461,0.975 -0.889,1.961 -1.28,2.951 -1.771,4.49 -2.817,9.105 -3.188,13.713 -1.56,19.326 8.768,38.481 27.331,47.264 23.966,11.34 52.586,1.102 63.926,-22.865 z m -58.788,12.003 c -13.919,-6.586 -21.659,-20.945 -20.491,-35.433 0.278,-3.454 1.063,-6.916 2.392,-10.281 0.294,-0.742 0.613,-1.482 0.96,-2.215 3.479,-7.356 9.131,-12.984 15.824,-16.486 9.66,-5.055 21.491,-5.676 32.104,-0.654 3.504,1.658 6.614,3.809 9.291,6.327 11.055,10.407 14.695,27.136 7.851,41.602 -8.504,17.969 -29.961,25.642 -47.931,17.14 z"
   id="path142" />
					</g>
				</g>
				<g
   id="g146">
					<g
   id="g145">
						<path
   style="fill:#4aafff"
   d="m 2024.926,907.361 -5.578,-10.643 c 12.883,-6.74 28.664,-7.568 42.82,-0.871 4.674,2.211 8.822,5.078 12.393,8.439 l -8.24,8.747 c -2.677,-2.519 -5.787,-4.669 -9.291,-6.327 -10.613,-5.021 -22.444,-4.399 -32.104,0.655 z"
   id="path144" />
					</g>
				</g>
				<g
   id="g148">
					<g
   id="g147">
						<path
   style="fill:#2273b5"
   d="m 2008.142,926.063 -11.182,-4.4 c 0.392,-0.99 0.819,-1.977 1.28,-2.951 4.643,-9.811 12.18,-17.321 21.107,-21.992 l 5.578,10.643 c -6.693,3.502 -12.345,9.131 -15.824,16.486 -0.346,0.731 -0.665,1.471 -0.959,2.214 z"
   id="path146" />
					</g>
				</g>
				<g
   id="g150">
					<g
   id="g149">
						<path
   style="fill:#3788cc"
   d="m 1993.771,935.375 c 0.371,-4.607 1.418,-9.223 3.188,-13.713 l 11.182,4.4 c -1.329,3.365 -2.113,6.827 -2.392,10.281 z"
   id="path148" />
					</g>
				</g>
			</g>
			<g
   id="g152">
				<polygon
   style="fill:#e2f3fe"
   points="2026.885,1164.939 1937.24,1164.939 1937.24,1163.157 2025.104,1163.157 2025.104,1129.289 2026.885,1129.289 "
   id="polygon151" />
			</g>
			<g
   id="g153">
				<polygon
   style="fill:#e2f3fe"
   points="1858.068,1164.939 1741.475,1164.939 1741.475,1163.157 1856.287,1163.157 1856.287,1107.722 1858.068,1107.722 "
   id="polygon152" />
			</g>
			<g
   id="g154">
				<rect
   x="1741.475"
   y="1144.613"
   style="fill:#4aafff"
   width="80.225998"
   height="10.689"
   id="rect153" />
			</g>
			<g
   id="g155">
				<rect
   x="1937.24"
   y="1144.613"
   style="fill:#4aafff"
   width="47.188"
   height="10.689"
   id="rect154" />
			</g>
			<g
   id="g156">
				<rect
   x="1723.3"
   y="797.64801"
   style="fill:#4aafff"
   width="38.396999"
   height="8.2060003"
   id="rect155" />
			</g>
			<g
   id="g157">
				<rect
   x="1883.3669"
   y="828.54102"
   style="fill:#4aafff"
   width="59.571999"
   height="8.2069998"
   id="rect156" />
			</g>
			<g
   id="g158">
				<rect
   x="1806.34"
   y="828.54102"
   style="fill:#4aafff"
   width="36.365002"
   height="8.2069998"
   id="rect157" />
			</g>
			<g
   id="g159">
				<rect
   x="1723.3"
   y="828.54102"
   style="fill:#4aafff"
   width="72.052002"
   height="8.2069998"
   id="rect158" />
			</g>
			<g
   id="g160">
				<rect
   x="1773.385"
   y="797.64801"
   style="fill:#4aafff"
   width="56.893002"
   height="8.2060003"
   id="rect159" />
			</g>
			<g
   id="g161">
				<rect
   x="1854.0909"
   y="828.54102"
   style="fill:#4aafff"
   width="15.626"
   height="8.2069998"
   id="rect160" />
			</g>
			<g
   id="g162">
				<rect
   x="1900.438"
   y="798.104"
   style="fill:#4aafff"
   width="42.500999"
   height="8.2049999"
   id="rect161" />
			</g>
			<g
   id="g163">
				<rect
   x="1958.098"
   y="828.54102"
   style="fill:#4aafff"
   width="36.241001"
   height="8.2069998"
   id="rect162" />
			</g>
			<g
   id="g164">
				<rect
   x="1844.2679"
   y="798.104"
   style="fill:#4aafff"
   width="45.050999"
   height="8.2049999"
   id="rect163" />
			</g>
			<g
   id="g166">
				
					<linearGradient
   id="SVGID_00000010304880962520983640000010121477034658536358_"
   gradientUnits="userSpaceOnUse"
   x1="1855.5371"
   y1="1271.9834"
   x2="1970.293"
   y2="1271.9834">
					<stop
   offset="0"
   style="stop-color:#D5E4FF"
   id="stop164" />
					<stop
   offset="1"
   style="stop-color:#EDFFFE"
   id="stop165" />
				</linearGradient>
				<path
   style="fill:url(#SVGID_00000010304880962520983640000010121477034658536358_)"
   d="m 1948.635,1329.361 h -71.44 c -11.961,0 -21.657,-9.695 -21.657,-21.656 v -71.441 c 0,-11.961 9.696,-21.658 21.657,-21.658 h 71.44 c 11.961,0 21.658,9.697 21.658,21.658 v 71.441 c 0,11.961 -9.697,21.656 -21.658,21.656 z"
   id="path165" />
				<rect
   x="1907.486"
   y="1249.1541"
   style="fill:#c5ccd1"
   width="10.857"
   height="45.659"
   id="rect165" />
				
					<rect
   x="1907.486"
   y="1249.155"
   transform="rotate(90,1912.915,1271.9839)"
   style="fill:#c5ccd1"
   width="10.858"
   height="45.658001"
   id="rect166" />
			</g>
		</g><g
   id="g228"
   transform="translate(-589.69085,-100.205)">
			<path
   style="fill:#e3a080"
   d="m 1908.391,1474.494 c 0,0 9.396,1.891 13.889,2.033 4.492,0.143 25.275,-9.281 31.924,-8.385 6.65,0.898 50.023,19.326 51.992,20.669 1.969,1.344 -0.926,4.308 -0.926,4.308 l -99.573,1.179 z"
   id="path167" />
			
				<rect
   x="1934.431"
   y="1421.53"
   transform="matrix(0.866,-0.5,0.5,0.866,-465.5206,1162.8629)"
   style="fill:#4e9bde"
   width="5.3340001"
   height="57.091"
   id="rect167" />
			<g
   id="g169">
				<g
   id="g168">
					<polygon
   style="fill:#696969"
   points="1547.928,1917.359 1590.018,1676.876 1608.494,1677.393 1558.86,1917.359 "
   id="polygon167" />
				</g>
			</g>
			<g
   id="g171">
				<g
   id="g170">
					<polygon
   style="fill:#696969"
   points="1602.076,1917.359 1644.165,1676.876 1662.643,1677.393 1613.008,1917.359 "
   id="polygon169" />
				</g>
			</g>
			<g
   id="g173">
				<g
   id="g172">
					<polygon
   style="fill:#696969"
   points="1810.785,1917.359 1768.695,1676.876 1750.219,1677.393 1799.853,1917.359 "
   id="polygon171" />
				</g>
			</g>
			<g
   id="g174">
				<path
   style="fill:#e3a080"
   d="m 1734.129,1322.733 c 0,0 14.517,20.575 23.493,36.157 10.177,17.664 20.18,35.104 22.388,39.025 4.49,7.979 19.455,16.275 26.524,19.31 6.501,2.791 115.803,56.713 117.179,56.59 1.377,-0.123 -11.664,21.599 -11.664,21.599 0,0 -150.368,-43.121 -157.127,-49.297 -6.758,-6.176 -26.82,-34.291 -35.029,-45.875 -7.818,-11.031 -19.809,-29.129 -26.168,-36.928 -7.109,-8.717 -22.025,-38.549 -3.061,-53.428 24.231,-19.009 37.632,4.118 43.465,12.847 z"
   id="path173" />
			</g>
			<g
   id="g177">
				<g
   id="g176">
					<g
   id="g175">
						<path
   style="fill:#353a3d"
   d="m 2005.995,1855.379 c 0,0 23.536,7.424 33.961,9.793 10.425,2.369 47.132,-4.787 51.522,-2.206 4.392,2.581 5.604,13.769 -0.172,16.282 -5.776,2.513 -49.09,16.797 -64.656,16.777 -15.566,-0.02 -41.825,12.205 -48.423,11.551 -6.598,-0.656 -10.313,-34.535 -9.671,-42.483 0.645,-7.948 37.439,-9.714 37.439,-9.714 z"
   id="path174" />
					</g>
				</g>
			</g>
			<g
   id="g180">
				<g
   id="g179">
					<g
   id="g178">
						<path
   style="fill:#81807e"
   d="m 1998.595,1842.963 7.4,12.416 c 0,0 -28.065,12.026 -37.438,9.714 l -1.799,-14.368 z"
   id="path177" />
					</g>
				</g>
			</g>
			<g
   id="g183">
				<g
   id="g182">
					<g
   id="g181">
						<path
   style="fill:#353a3d"
   d="m 1907.261,1861.865 c 0,0 21.221,12.6 30.83,17.285 9.608,4.686 46.981,6.094 50.667,9.609 3.687,3.514 2.313,14.684 -3.883,15.813 -6.197,1.129 -51.629,5.152 -66.779,1.582 -15.151,-3.572 -43.506,2.34 -49.78,0.195 -6.274,-2.145 -2.162,-35.977 0.278,-43.568 2.44,-7.591 38.667,-0.916 38.667,-0.916 z"
   id="path180" />
					</g>
				</g>
			</g>
			<g
   id="g186">
				<g
   id="g185">
					<g
   id="g184">
						<path
   style="fill:#81807e"
   d="m 1907.814,1849.85 -0.554,12.016 c 0,0 -30.069,5.307 -38.667,0.916 l 1.332,-13.17 z"
   id="path183" />
					</g>
				</g>
			</g>
			<g
   id="g187">
				<path
   style="fill:#4487c2"
   d="m 1759.068,1542.055 c 0,0 89.422,20.377 110.474,26.531 22.862,6.684 59.813,18.809 64.333,22.615 4.985,4.197 10.485,3.82 3.319,34.953 -7.165,31.131 -12.233,122.086 -13.698,131.691 -2.188,14.337 -8.08,97.533 -8.08,97.533 h -53.355 c 0,0 -3.54,-160.445 0,-178.503 3.286,-16.757 -3.544,-24.96 -10.402,-29.838 -6.859,-4.878 -28.727,0.152 -151.938,-21.11 -12.313,-2.125 -46.166,-5.846 -53.717,-20.031 -13.645,-25.633 -15.039,-61.707 11.814,-83.767 26.853,-22.06 101.25,19.926 101.25,19.926 z"
   id="path186" />
			</g>
			<g
   id="g189">
				<g
   id="g188">
					<path
   style="fill:#e2d2ca"
   d="m 1797.191,1679.336 h -213.866 c 0,0 -14.896,-0.342 -24.87,-44.469 -11.223,-49.641 -33.891,-215.448 -33.891,-215.448 0,0 6.013,-15.429 100.032,-13.454 l 168.357,218.436 c 0,-10e-4 5.744,34.437 4.238,54.935 z"
   id="path187" />
				</g>
			</g>
			<path
   style="fill:#eea886"
   d="m 1892.713,1474.494 c 0,0 9.396,1.891 13.889,2.033 4.492,0.143 25.275,-9.281 31.925,-8.385 6.649,0.898 50.022,19.326 51.991,20.669 1.969,1.344 -0.926,4.308 -0.926,4.308 l -99.573,1.179 z"
   id="path189" />
			<g
   id="g190">
				<path
   style="fill:#4e9bde"
   d="m 1654.501,1616.92 c 9.058,13.822 31.261,13.973 44.065,14.989 128.164,10.226 164.183,2.056 171.662,6.41 7.487,4.354 26.005,4.604 33.219,52.373 1.654,10.924 10.181,37.99 20.05,67.151 2.739,8.109 5.591,16.377 8.413,24.51 13.441,38.582 26.52,74.008 26.52,74.008 l 57.267,-14.625 c 0,0 -20.914,-62.425 -24.472,-72.219 -5.667,-15.589 -30.641,-115.7 -41.579,-151.293 -9.649,-31.406 -17.705,-35.912 -22.985,-38.924 -9.93,-5.666 -46.903,-12.115 -68.387,-18.98 -21.483,-6.857 -105.99,-21.597 -105.99,-21.597 0,0 -101.141,-32.201 -118.068,-0.728 -4.489,8.346 3.907,53.96 20.285,78.925 z"
   id="path190" />
			</g>
			<g
   id="g192">
				<g
   id="g191">
					<rect
   x="1933.728"
   y="1496.59"
   style="fill:#c4b6af"
   width="19.952999"
   height="420.76999"
   id="rect190" />
				</g>
			</g>
			<g
   id="g194">
				<g
   id="g193">
					<rect
   x="1922.158"
   y="1910.193"
   style="fill:#c4b6af"
   width="43.091999"
   height="7.1659999"
   id="rect192" />
				</g>
			</g>
			<g
   id="g196">
				<g
   id="g195">
					<rect
   x="2387.0581"
   y="1496.59"
   style="fill:#c4b6af"
   width="19.952999"
   height="420.76999"
   id="rect194" />
				</g>
			</g>
			<g
   id="g198">
				<g
   id="g197">
					<rect
   x="2375.488"
   y="1910.193"
   style="fill:#c4b6af"
   width="43.091999"
   height="7.1659999"
   id="rect196" />
				</g>
			</g>
			<g
   id="g200">
				<g
   id="g199">
					<rect
   x="1878.944"
   y="1489.541"
   style="fill:#e2d2ca"
   width="551.85999"
   height="14.098"
   id="rect198" />
				</g>
			</g>
			<g
   id="g201">
				<path
   style="fill:#2a76b8"
   d="m 1761.352,1540.318 -130.386,26.533 c 0,0 0.396,-38.424 1.016,-82.051 0.62,-43.627 13.279,-79.426 16.4,-104.373 10.653,-85.1 85.148,-103.878 85.148,-103.878 l 25.194,19.522 c 0,0 13.701,40.184 13.8,63.124 0.05,11.94 -5.747,36.368 -11.495,58.813 -2.155,8.398 -4.311,16.523 -6.145,23.609 -2.699,10.355 -4.731,18.531 -5.152,22.148 -4.038,34.339 11.62,76.553 11.62,76.553 z"
   id="path200" />
			</g>
			<g
   id="g202">
				<path
   style="fill:#eea886"
   d="m 1778.29,1280.205 c 0,0 -0.972,2.152 -2.409,5.496 -0.605,1.4 -1.289,3.014 -2.016,4.76 -0.561,1.333 -1.146,2.745 -1.737,4.202 -3.731,9.171 -7.878,20.321 -8.487,25.856 -1.142,10.345 -30.121,-43.959 -30.121,-43.959 0,0 13.604,-30.74 23.166,-67.1 9.554,-36.358 21.604,70.745 21.604,70.745 z"
   id="path201" />
			</g>
			<path
   style="fill:#a77860"
   d="m 1778.29,1280.205 c 0,0 -0.972,2.152 -2.409,5.496 -0.605,1.4 -1.289,3.014 -2.016,4.76 -19.397,-14.414 -22.043,-28.443 -20.016,-30.008 9.813,12.572 24.441,19.752 24.441,19.752 z"
   id="path202" />
			<path
   style="fill:#eea886"
   d="m 1741.262,1302.871 c 0,0 37.561,75.297 66.035,104.292 8.932,9.095 93.027,64.924 96.389,68.546 3.363,3.621 -13.02,13.832 -13.02,13.832 0,0 -102.502,-44.457 -109.196,-48.875 -6.694,-4.417 -85.444,-99.672 -89.243,-113.262 -3.799,-13.59 -0.811,-26.895 13.061,-32.855 19.468,-8.367 35.974,8.322 35.974,8.322 z"
   id="path203" />
			<g
   id="g205">
				<g
   id="g204">
					<path
   style="fill:#eea886"
   d="m 1831.695,1188.386 c 0,0 3.799,27.336 2.391,33.11 -1.408,5.775 -4.053,9.782 -4.955,16.633 -0.932,7.082 0.904,23.008 -0.877,26.789 -2.153,4.568 -11.586,-0.67 -15.121,6.857 -3.535,7.527 -14.91,20.395 -18.649,19.702 -9.607,-1.777 -41.63,-26.218 -41.877,-34.37 -0.247,-8.151 -1.906,-53.68 -3.799,-62.767 -1.894,-9.087 77.45,-34.559 80.169,-20.257 2.719,14.302 2.718,14.303 2.718,14.303 z"
   id="path204" />
				</g>
			</g>
			<path
   style="fill:#e8734d"
   d="m 1736.264,1191.479 c 0.87,-22.088 24.217,-27.957 24.217,-27.957 0,0 20.475,-13.896 57.133,-1.648 36.658,12.246 17.797,59.311 17.797,59.311 0,0 -24.721,-10.842 -36.694,-11.045 0,0 -2.818,8.262 -3.001,13.732 l -13.034,-7.205 c 0,0 1.718,-3.723 -4.791,-6.422 -6.51,-2.701 -19.776,36.555 -34.718,41.937 0,0 0.832,-2.851 0.01,-6.038 v 0 0 c -1.314,-5.073 -3.216,-13.477 -4.253,-22.984 -2.208,-13.537 -3.109,-20.369 -2.663,-31.681 z"
   id="path205" />
			<g
   id="g207">
				<g
   id="g206">
					<path
   style="fill:#eea886"
   d="m 1786.035,1217.234 c 0,0 -1.406,-15.474 -16.234,-9.702 -10.782,4.197 -7.978,30.441 0.797,32.696 8.775,2.254 15.825,-9.699 15.437,-22.994 z"
   id="path206" />
				</g>
			</g>
			<path
   style="fill:#236299"
   d="m 1761.029,1418.01 c -2.155,8.398 -4.311,16.523 -6.145,23.609 -14.443,-17.168 -39.984,-80.268 -40.355,-81.209 3.864,6.416 44.221,54.874 46.5,57.6 z"
   id="path207" />
			<path
   style="fill:#2a76b8"
   d="m 1760.008,1334.807 c 0,0 -14.463,-61.056 -55.959,-42.605 -41.496,18.451 8.361,72.334 8.361,72.334 z"
   id="path208" />
			<g
   id="g224">
				<g
   id="g214">
					<path
   style="fill:#edebe7"
   d="m 2039.646,1407 v -2.826 h -18.05 V 1407 h 1.086 v 62.518 c 0,0 -0.314,7.939 7.939,7.939 8.253,0 7.939,-7.939 7.939,-7.939 V 1407 Z"
   id="path209" />
					<path
   style="fill:#edebe7"
   d="m 2061.236,1407 v -2.826 h -18.05 V 1407 h 1.085 v 62.518 c 0,0 -0.314,7.939 7.939,7.939 8.253,0 7.939,-7.939 7.939,-7.939 V 1407 Z"
   id="path210" />
					<path
   style="fill:#edebe7"
   d="m 2082.827,1407 v -2.826 h -18.05 V 1407 h 1.086 v 62.518 c 0,0 -0.314,7.939 7.939,7.939 8.253,0 7.939,-7.939 7.939,-7.939 V 1407 Z"
   id="path211" />
					<path
   style="fill:#4e9bde"
   d="m 2025.112,1425.636 v 43.372 c 0,0 -0.218,5.508 5.509,5.508 5.726,0 5.508,-5.508 5.508,-5.508 v -43.372 z"
   id="path212" />
					<path
   style="fill:#de4e74"
   d="m 2046.703,1433.025 v 36.814 c 0,0 -0.218,4.676 5.508,4.676 5.727,0 5.509,-4.676 5.509,-4.676 v -36.814 z"
   id="path213" />
					<path
   style="fill:#d2de4e"
   d="m 2068.295,1420.367 v 48.047 c 0,0 -0.219,6.102 5.508,6.102 5.726,0 5.508,-6.102 5.508,-6.102 v -48.047 z"
   id="path214" />
				</g>
				<rect
   x="2021.5959"
   y="1411.193"
   style="fill:#9e9e9c"
   width="90.414001"
   height="4.2309999"
   id="rect214" />
				<rect
   x="2102.4089"
   y="1385.902"
   style="fill:#9e9e9c"
   width="5.1609998"
   height="98.271004"
   id="rect215" />
				<rect
   x="2093.532"
   y="1484.173"
   style="fill:#9e9e9c"
   width="22.915001"
   height="5.368"
   id="rect216" />
				<g
   id="g223">
					<g
   id="g220">
						
							<rect
   x="2137.448"
   y="1406.882"
   transform="matrix(0.8408,0.5414,-0.5414,0.8408,1107.9043,-936.0554)"
   style="fill:#9e9e9c"
   width="15.648"
   height="17.115"
   id="rect217" />
						
							<rect
   x="2182.8049"
   y="1336.448"
   transform="matrix(0.8407,0.5414,-0.5414,0.8407,1077.1136,-971.8847)"
   style="fill:#9e9e9c"
   width="15.648"
   height="17.114"
   id="rect218" />
						
							<rect
   x="2188.4319"
   y="1331.198"
   transform="matrix(0.8407,0.5415,-0.5415,0.8407,1074.8461,-974.5682)"
   style="fill:#9e9e9c"
   width="11.154"
   height="17.115"
   id="rect219" />
						
							<rect
   x="2158.6399"
   y="1334.374"
   transform="matrix(0.8408,0.5414,-0.5414,0.8408,1091.899,-954.6196)"
   style="fill:#edebe7"
   width="20.309999"
   height="89.071999"
   id="rect220" />
					</g>
					<path
   style="fill:#9e9e9c"
   d="m 2175.355,1378.092 c 0,3.623 -2.938,6.561 -6.561,6.561 -3.623,0 -6.561,-2.938 -6.561,-6.561 0,-3.624 2.938,-6.562 6.561,-6.562 3.623,0 6.561,2.938 6.561,6.562 z"
   id="path220" />
					<g
   id="g221">
						<path
   style="fill:#edebe7"
   d="m 2155.277,1464.328 -3.5,-8.016 c 16.519,-7.214 25.922,-16.262 27.953,-26.891 3.113,-16.303 -11.221,-30.927 -11.371,-31.08 l 4.844,-7.521 c 0.751,0.758 19.089,19.46 15.119,40.241 -2.603,13.637 -13.722,24.83 -33.045,33.267 z"
   id="path221" />
					</g>
					
						<rect
   x="2134.6169"
   y="1452.121"
   transform="matrix(0.8859,0.464,-0.464,0.8859,921.263,-829.407)"
   style="fill:#edebe7"
   width="23.254"
   height="10.934"
   id="rect221" />
					
						<rect
   x="2126.98"
   y="1445.0389"
   transform="matrix(0.8859,0.464,-0.464,0.8859,915.1092,-827.1565)"
   style="fill:#9e9e9c"
   width="23.254"
   height="2.368"
   id="rect222" />
					<rect
   x="2134.7561"
   y="1477.27"
   style="fill:#9e9e9c"
   width="66.153999"
   height="12.271"
   id="rect223" />
					<polygon
   style="fill:#edebe7"
   points="2158.266,1454.033 2176.854,1451.048 2176.854,1477.27 2150.611,1477.27 "
   id="polygon223" />
					<path
   style="fill:#9e9e9c"
   d="m 2172.883,1461.789 c 0,3.645 -2.955,6.599 -6.599,6.599 -3.644,0 -6.599,-2.954 -6.599,-6.599 0,-3.644 2.955,-6.598 6.599,-6.598 3.644,0 6.599,2.955 6.599,6.598 z"
   id="path223" />
				</g>
			</g>
			<g
   id="g227">
				<g
   id="g225">
					<path
   style="fill:#0e1e2b"
   d="m 1766.447,1802.9 -47.295,0.055 c -4.804,0.01 -8.716,-3.898 -8.721,-8.701 l -0.035,-29.824 c -0.01,-4.803 3.898,-8.715 8.701,-8.721 l 47.295,-0.055 c 4.803,-0.01 8.715,3.897 8.721,8.701 l 0.035,29.824 c 0.01,4.803 -3.898,8.716 -8.701,8.721 z m -47.343,-41.345 c -1.579,10e-4 -2.863,1.288 -2.861,2.868 l 0.034,29.824 c 0,1.579 1.288,2.864 2.868,2.862 l 47.296,-0.055 c 1.58,0 2.864,-1.289 2.862,-2.869 l -0.035,-29.824 c 0,-1.58 -1.288,-2.863 -2.868,-2.861 z"
   id="path224" />
				</g>
				<g
   id="g226">
					
						<rect
   x="1654.136"
   y="1790.126"
   transform="matrix(1,-0.0011,0.0011,1,-2.1206,1.9961)"
   style="fill:#6ea2e8"
   width="177.44299"
   height="127.131"
   id="rect225" />
				</g>
				<path
   style="fill:#dbdff0"
   d="m 1781.223,1848.961 c 0.411,21.02 -16.297,38.393 -37.316,38.805 -21.02,0.41 -38.393,-16.297 -38.804,-37.316 -0.411,-21.021 16.296,-38.394 37.315,-38.805 21.021,-0.411 38.394,16.296 38.805,37.316 z"
   id="path226" />
				
					<rect
   x="1735.889"
   y="1826.924"
   transform="matrix(1,-0.0085,0.0085,1,-15.5898,14.8168)"
   style="fill:#6ea2e8"
   width="14.547"
   height="45.562"
   id="rect226" />
				
					<rect
   x="1735.889"
   y="1826.924"
   transform="matrix(0.0085,1,-1,0.0085,3578.0615,90.9638)"
   style="fill:#6ea2e8"
   width="14.546"
   height="45.561001"
   id="rect227" />
			</g>
		</g><g
   id="g248"
   transform="translate(-589.69085,-100.205)">
			<defs
   id="defs228">
				
					<filter
   id="Adobe_OpacityMaskFilter_00000041286549040920876080000008900862282289201319_"
   filterUnits="userSpaceOnUse"
   x="2242.113"
   y="308.95901"
   width="103.811"
   height="7.277">
					<feFlood
   result="back"
   id="feFlood228" />
					<feBlend
   in="SourceGraphic"
   in2="back"
   mode="normal"
   id="feBlend228" />
				</filter>
			</defs>
			
				<mask
   maskUnits="userSpaceOnUse"
   x="2242.113"
   y="308.959"
   width="103.811"
   height="7.277"
   id="mask230">
				<g
   style="filter:url(#Adobe_OpacityMaskFilter_00000041286549040920876080000008900862282289201319_)"
   id="g230">
					<defs
   id="defs229">
						
							<filter
   id="Adobe_OpacityMaskFilter_00000145755610506402534550000007406633757922774940_"
   filterUnits="userSpaceOnUse"
   x="2242.113"
   y="308.95901"
   width="103.811"
   height="7.277">
							<feFlood
   result="back"
   id="feFlood229" />
							<feBlend
   in="SourceGraphic"
   in2="back"
   mode="normal"
   id="feBlend229" />
						</filter>
					</defs>
					
						<mask
   maskUnits="userSpaceOnUse"
   x="2242.113"
   y="308.959"
   width="103.811"
   height="7.277"
   id="SVGID_00000020378946999525617280000012738722899952723345_">
						<g
   style="filter:url(#Adobe_OpacityMaskFilter_00000145755610506402534550000007406633757922774940_)"
   id="g229">
						</g>
					</mask>
					
						<linearGradient
   id="SVGID_00000007400136076285501510000013748220495399920303_"
   gradientUnits="userSpaceOnUse"
   x1="2339.9502"
   y1="198.99139"
   x2="2245.5308"
   y2="432.52579">
						<stop
   offset="0"
   style="stop-color:#FFFFFF"
   id="stop229" />
						<stop
   offset="1"
   style="stop-color:#000000"
   id="stop230" />
					</linearGradient>
					
						<polygon
   style="fill:url(#SVGID_00000007400136076285501510000013748220495399920303_)"
   points="2345.924,308.959 2242.113,308.959 2242.113,316.236 2345.924,316.236 "
   mask="url(#SVGID_00000020378946999525617280000012738722899952723345_)"
   id="polygon230" />
				</g>
			</mask>
			
				<linearGradient
   id="SVGID_00000088099664905660139350000015195132834857729928_"
   gradientUnits="userSpaceOnUse"
   x1="2339.9502"
   y1="198.99139"
   x2="2245.5308"
   y2="432.52579">
				<stop
   offset="0"
   style="stop-color:#40D5E6"
   id="stop231" />
				<stop
   offset="1"
   style="stop-color:#5577FF"
   id="stop232" />
			</linearGradient>
			<polygon
   style="fill:url(#SVGID_00000088099664905660139350000015195132834857729928_)"
   points="2345.924,308.959 2242.113,308.959 2242.113,316.236 2345.924,316.236 "
   id="polygon232" />
			<defs
   id="defs232">
				
					<filter
   id="Adobe_OpacityMaskFilter_00000033355408234509415620000000280480727969724828_"
   filterUnits="userSpaceOnUse"
   x="2242.113"
   y="322.67401"
   width="103.811"
   height="30.594">
					<feFlood
   result="back"
   id="feFlood232" />
					<feBlend
   in="SourceGraphic"
   in2="back"
   mode="normal"
   id="feBlend232" />
				</filter>
			</defs>
			
				<mask
   maskUnits="userSpaceOnUse"
   x="2242.113"
   y="322.674"
   width="103.811"
   height="30.594"
   id="mask234">
				<g
   style="filter:url(#Adobe_OpacityMaskFilter_00000033355408234509415620000000280480727969724828_)"
   id="g234">
					<defs
   id="defs233">
						
							<filter
   id="Adobe_OpacityMaskFilter_00000006686612775547868940000017993776211250403983_"
   filterUnits="userSpaceOnUse"
   x="2242.113"
   y="322.67401"
   width="103.811"
   height="30.594">
							<feFlood
   result="back"
   id="feFlood233" />
							<feBlend
   in="SourceGraphic"
   in2="back"
   mode="normal"
   id="feBlend233" />
						</filter>
					</defs>
					
						<mask
   maskUnits="userSpaceOnUse"
   x="2242.113"
   y="322.674"
   width="103.811"
   height="30.594"
   id="SVGID_00000027566063652169089650000015105239274961006472_">
						<g
   style="filter:url(#Adobe_OpacityMaskFilter_00000006686612775547868940000017993776211250403983_)"
   id="g233">
						</g>
					</mask>
					
						<linearGradient
   id="SVGID_00000139973429260389981090000001597070910608759221_"
   gradientUnits="userSpaceOnUse"
   x1="2348.7676"
   y1="202.5558"
   x2="2254.3479"
   y2="436.09091">
						<stop
   offset="0"
   style="stop-color:#FFFFFF"
   id="stop233" />
						<stop
   offset="1"
   style="stop-color:#000000"
   id="stop234" />
					</linearGradient>
					
						<polygon
   style="fill:url(#SVGID_00000139973429260389981090000001597070910608759221_)"
   points="2345.924,322.674 2242.113,322.674 2242.113,353.268 2345.924,353.268 "
   mask="url(#SVGID_00000027566063652169089650000015105239274961006472_)"
   id="polygon234" />
				</g>
			</mask>
			
				<linearGradient
   id="SVGID_00000051378362616424785570000014450448470922419585_"
   gradientUnits="userSpaceOnUse"
   x1="2348.7676"
   y1="202.5558"
   x2="2254.3479"
   y2="436.09091">
				<stop
   offset="0"
   style="stop-color:#40D5E6"
   id="stop235" />
				<stop
   offset="1"
   style="stop-color:#5577FF"
   id="stop236" />
			</linearGradient>
			<polygon
   style="fill:url(#SVGID_00000051378362616424785570000014450448470922419585_)"
   points="2345.924,322.674 2242.113,322.674 2242.113,353.268 2345.924,353.268 "
   id="polygon236" />
			<defs
   id="defs236">
				
					<filter
   id="Adobe_OpacityMaskFilter_00000170999484361904679460000007322366853979499653_"
   filterUnits="userSpaceOnUse"
   x="2193.3479"
   y="363.55499"
   width="61.242001"
   height="4.5710001">
					<feFlood
   result="back"
   id="feFlood236" />
					<feBlend
   in="SourceGraphic"
   in2="back"
   mode="normal"
   id="feBlend236" />
				</filter>
			</defs>
			
				<mask
   maskUnits="userSpaceOnUse"
   x="2193.348"
   y="363.555"
   width="61.242"
   height="4.571"
   id="mask238">
				<g
   style="filter:url(#Adobe_OpacityMaskFilter_00000170999484361904679460000007322366853979499653_)"
   id="g238">
					<defs
   id="defs237">
						
							<filter
   id="Adobe_OpacityMaskFilter_00000134955492619456462340000004159638234094855065_"
   filterUnits="userSpaceOnUse"
   x="2193.3479"
   y="363.55499"
   width="61.242001"
   height="4.5710001">
							<feFlood
   result="back"
   id="feFlood237" />
							<feBlend
   in="SourceGraphic"
   in2="back"
   mode="normal"
   id="feBlend237" />
						</filter>
					</defs>
					
						<mask
   maskUnits="userSpaceOnUse"
   x="2193.348"
   y="363.555"
   width="61.242"
   height="4.571"
   id="SVGID_00000013181599952057253910000009387778884999994245_">
						<g
   style="filter:url(#Adobe_OpacityMaskFilter_00000134955492619456462340000004159638234094855065_)"
   id="g237">
						</g>
					</mask>
					
						<linearGradient
   id="SVGID_00000095340687643152386530000007876784146310028445_"
   gradientUnits="userSpaceOnUse"
   x1="2298.2434"
   y1="182.13139"
   x2="2203.8247"
   y2="415.664">
						<stop
   offset="0"
   style="stop-color:#FFFFFF"
   id="stop237" />
						<stop
   offset="1"
   style="stop-color:#000000"
   id="stop238" />
					</linearGradient>
					
						<polygon
   style="fill:url(#SVGID_00000095340687643152386530000007876784146310028445_)"
   points="2254.59,363.555 2193.348,363.555 2193.348,368.126 2254.59,368.126 "
   mask="url(#SVGID_00000013181599952057253910000009387778884999994245_)"
   id="polygon238" />
				</g>
			</mask>
			
				<linearGradient
   id="SVGID_00000150817205799954891610000007450602106400993665_"
   gradientUnits="userSpaceOnUse"
   x1="2298.2434"
   y1="182.13139"
   x2="2203.8247"
   y2="415.664">
				<stop
   offset="0"
   style="stop-color:#40D5E6"
   id="stop239" />
				<stop
   offset="1"
   style="stop-color:#5577FF"
   id="stop240" />
			</linearGradient>
			<polygon
   style="fill:url(#SVGID_00000150817205799954891610000007450602106400993665_)"
   points="2254.59,363.555 2193.348,363.555 2193.348,368.126 2254.59,368.126 "
   id="polygon240" />
			<defs
   id="defs240">
				
					<filter
   id="Adobe_OpacityMaskFilter_00000046332049293951577530000009476447437212059788_"
   filterUnits="userSpaceOnUse"
   x="2193.3479"
   y="370.12701"
   width="61.242001"
   height="12.381">
					<feFlood
   result="back"
   id="feFlood240" />
					<feBlend
   in="SourceGraphic"
   in2="back"
   mode="normal"
   id="feBlend240" />
				</filter>
			</defs>
			
				<mask
   maskUnits="userSpaceOnUse"
   x="2193.348"
   y="370.127"
   width="61.242"
   height="12.381"
   id="mask242">
				<g
   style="filter:url(#Adobe_OpacityMaskFilter_00000046332049293951577530000009476447437212059788_)"
   id="g242">
					<defs
   id="defs241">
						
							<filter
   id="Adobe_OpacityMaskFilter_00000106110390560267090720000012719437541394125489_"
   filterUnits="userSpaceOnUse"
   x="2193.3479"
   y="370.12701"
   width="61.242001"
   height="12.381">
							<feFlood
   result="back"
   id="feFlood241" />
							<feBlend
   in="SourceGraphic"
   in2="back"
   mode="normal"
   id="feBlend241" />
						</filter>
					</defs>
					
						<mask
   maskUnits="userSpaceOnUse"
   x="2193.348"
   y="370.127"
   width="61.242"
   height="12.381"
   id="SVGID_00000083807410499584566390000000738912949487994249_">
						<g
   style="filter:url(#Adobe_OpacityMaskFilter_00000106110390560267090720000012719437541394125489_)"
   id="g241">
						</g>
					</mask>
					
						<linearGradient
   id="SVGID_00000060736368389205183350000008349470514723740057_"
   gradientUnits="userSpaceOnUse"
   x1="2301.8833"
   y1="183.6059"
   x2="2207.4656"
   y2="417.13589">
						<stop
   offset="0"
   style="stop-color:#FFFFFF"
   id="stop241" />
						<stop
   offset="1"
   style="stop-color:#000000"
   id="stop242" />
					</linearGradient>
					
						<polygon
   style="fill:url(#SVGID_00000060736368389205183350000008349470514723740057_)"
   points="2254.59,370.127 2193.348,370.127 2193.348,382.508 2254.59,382.508 "
   mask="url(#SVGID_00000083807410499584566390000000738912949487994249_)"
   id="polygon242" />
				</g>
			</mask>
			
				<linearGradient
   id="SVGID_00000162313083165089575630000010909143239129168034_"
   gradientUnits="userSpaceOnUse"
   x1="2301.8833"
   y1="183.6059"
   x2="2207.4656"
   y2="417.13589">
				<stop
   offset="0"
   style="stop-color:#40D5E6"
   id="stop243" />
				<stop
   offset="1"
   style="stop-color:#5577FF"
   id="stop244" />
			</linearGradient>
			<polygon
   style="fill:url(#SVGID_00000162313083165089575630000010909143239129168034_)"
   points="2254.59,370.127 2193.348,370.127 2193.348,382.508 2254.59,382.508 "
   id="polygon244" />
			<defs
   id="defs244">
				
					<filter
   id="Adobe_OpacityMaskFilter_00000105397544623044904020000000654839182136095133_"
   filterUnits="userSpaceOnUse"
   x="2362.9729"
   y="269.737"
   width="4.5710001"
   height="85.720001">
					<feFlood
   result="back"
   id="feFlood244" />
					<feBlend
   in="SourceGraphic"
   in2="back"
   mode="normal"
   id="feBlend244" />
				</filter>
			</defs>
			
				<mask
   maskUnits="userSpaceOnUse"
   x="2362.973"
   y="269.737"
   width="4.571"
   height="85.72"
   id="mask246">
				<g
   style="filter:url(#Adobe_OpacityMaskFilter_00000105397544623044904020000000654839182136095133_)"
   id="g246">
					<defs
   id="defs245">
						
							<filter
   id="Adobe_OpacityMaskFilter_00000011006336255545777600000009373578325299981465_"
   filterUnits="userSpaceOnUse"
   x="2362.9729"
   y="269.737"
   width="4.5710001"
   height="85.720001">
							<feFlood
   result="back"
   id="feFlood245" />
							<feBlend
   in="SourceGraphic"
   in2="back"
   mode="normal"
   id="feBlend245" />
						</filter>
					</defs>
					
						<mask
   maskUnits="userSpaceOnUse"
   x="2362.973"
   y="269.737"
   width="4.571"
   height="85.72"
   id="SVGID_00000094593231767024449380000000595328840065176194_">
						<g
   style="filter:url(#Adobe_OpacityMaskFilter_00000011006336255545777600000009373578325299981465_)"
   id="g245">
						</g>
					</mask>
					
						<linearGradient
   id="SVGID_00000083073619893063346020000006765081997810065299_"
   gradientUnits="userSpaceOnUse"
   x1="2401.1814"
   y1="223.7462"
   x2="2306.7617"
   y2="457.28091">
						<stop
   offset="0"
   style="stop-color:#FFFFFF"
   id="stop245" />
						<stop
   offset="1"
   style="stop-color:#000000"
   id="stop246" />
					</linearGradient>
					
						<polygon
   style="fill:url(#SVGID_00000083073619893063346020000006765081997810065299_)"
   points="2367.544,355.457 2362.973,355.457 2362.973,269.737 2367.544,269.737 "
   mask="url(#SVGID_00000094593231767024449380000000595328840065176194_)"
   id="polygon246" />
				</g>
			</mask>
			
				<linearGradient
   id="SVGID_00000032617907064288056240000002298513513489341335_"
   gradientUnits="userSpaceOnUse"
   x1="2401.1814"
   y1="223.7462"
   x2="2306.7617"
   y2="457.28091">
				<stop
   offset="0"
   style="stop-color:#40D5E6"
   id="stop247" />
				<stop
   offset="1"
   style="stop-color:#5577FF"
   id="stop248" />
			</linearGradient>
			<polygon
   style="fill:url(#SVGID_00000032617907064288056240000002298513513489341335_)"
   points="2367.544,355.457 2362.973,355.457 2362.973,269.737 2367.544,269.737 "
   id="polygon248" />
		</g>
</svg>
